999
dxflib 2.2.0.0
  0
SECTION
  2
HEADER
  9
$ACADVER
  1
AC1015
  9
$HANDSEED
  5
FFFF
  9
$INSUNITS
 70
4
  9
$DIMEXE
 40
1.25
  9
$TEXTSTYLE
  7
Standard
  9
$LIMMIN
 10
0.0
 20
0.0
  0
ENDSEC
  0
SECTION
  2
TABLES
  0
TABLE
  2
VPORT
  5
8
100
AcDbSymbolTable
 70
1
  0
VPORT
  5
30
100
AcDbSymbolTableRecord
100
AcDbViewportTableRecord
  2
*Active
 70
0
 10
0.0
 20
0.0
 11
1.0
 21
1.0
 12
286.30555555555549
 22
148.5
 13
0.0
 23
0.0
 14
10.0
 24
10.0
 15
10.0
 25
10.0
 16
0.0
 26
0.0
 36
1.0
 17
0.0
 27
0.0
 37
0.0
 40
297.0
 41
1.92798353909465
 42
50.0
 43
0.0
 44
0.0
 50
0.0
 51
0.0
 71
0
 72
100
 73
1
 74
3
 75
1
 76
1
 77
0
 78
0
281
0
 65
1
110
0.0
120
0.0
130
0.0
111
1.0
121
0.0
131
0.0
112
0.0
122
1.0
132
0.0
 79
0
146
0.0
  0
ENDTAB
  0
TABLE
  2
LTYPE
  5
5
100
AcDbSymbolTable
 70
25
  0
LTYPE
  5
14
100
AcDbSymbolTableRecord
100
AcDbLinetypeTableRecord
  2
BYBLOCK
 70
0
  3

 72
65
 73
0
 40
0.0
  0
LTYPE
  5
15
100
AcDbSymbolTableRecord
100
AcDbLinetypeTableRecord
  2
BYLAYER
 70
0
  3

 72
65
 73
0
 40
0.0
  0
LTYPE
  5
16
100
AcDbSymbolTableRecord
100
AcDbLinetypeTableRecord
  2
CONTINUOUS
 70
0
  3
Solid line
 72
65
 73
0
 40
0.0
  0
LTYPE
  5
31
100
AcDbSymbolTableRecord
100
AcDbLinetypeTableRecord
  2
ACAD_ISO02W100
 70
0
  3
ISO Dashed __ __ __ __ __ __ __ __ __ __ _
 72
65
 73
2
 40
15.0
 49
12.0
 74
0
 49
-3.0
 74
0
  0
LTYPE
  5
32
100
AcDbSymbolTableRecord
100
AcDbLinetypeTableRecord
  2
ACAD_ISO03W100
 70
0
  3
ISO Dashed with Distance __    __    __    _
 72
65
 73
2
 40
30.0
 49
12.0
 74
0
 49
-18.0
 74
0
  0
LTYPE
  5
33
100
AcDbSymbolTableRecord
100
AcDbLinetypeTableRecord
  2
ACAD_ISO04W100
 70
0
  3
ISO Long Dashed Dotted ____ . ____ . __
 72
65
 73
4
 40
30.0
 49
24.0
 74
0
 49
-3.0
 74
0
 49
0.0
 74
0
 49
-3.0
 74
0
  0
LTYPE
  5
34
100
AcDbSymbolTableRecord
100
AcDbLinetypeTableRecord
  2
ACAD_ISO05W100
 70
0
  3
ISO Long Dashed Double Dotted ____ .. __
 72
65
 73
6
 40
33.0
 49
24.0
 74
0
 49
-3.0
 74
0
 49
0.0
 74
0
 49
-3.0
 74
0
 49
0.0
 74
0
 49
-3.0
 74
0
  0
LTYPE
  5
35
100
AcDbSymbolTableRecord
100
AcDbLinetypeTableRecord
  2
BORDER
 70
0
  3
Border __ __ . __ __ . __ __ . __ __ . __ __ .
 72
65
 73
6
 40
44.450000000000003
 49
12.699999999999999
 74
0
 49
-6.3499999999999996
 74
0
 49
12.699999999999999
 74
0
 49
-6.3499999999999996
 74
0
 49
0.0
 74
0
 49
-6.3499999999999996
 74
0
  0
LTYPE
  5
36
100
AcDbSymbolTableRecord
100
AcDbLinetypeTableRecord
  2
BORDER2
 70
0
  3
Border (.5x) __.__.__.__.__.__.__.__.__.__.__.
 72
65
 73
6
 40
22.225000000000001
 49
6.3499999999999996
 74
0
 49
-3.1749999999999998
 74
0
 49
6.3499999999999996
 74
0
 49
-3.1749999999999998
 74
0
 49
0.0
 74
0
 49
-3.1749999999999998
 74
0
  0
LTYPE
  5
37
100
AcDbSymbolTableRecord
100
AcDbLinetypeTableRecord
  2
BORDERX2
 70
0
  3
Border (2x) ____  ____  .  ____  ____  .  ___
 72
65
 73
6
 40
88.900000000000006
 49
25.399999999999999
 74
0
 49
-12.699999999999999
 74
0
 49
25.399999999999999
 74
0
 49
-12.699999999999999
 74
0
 49
0.0
 74
0
 49
-12.699999999999999
 74
0
  0
LTYPE
  5
38
100
AcDbSymbolTableRecord
100
AcDbLinetypeTableRecord
  2
CENTER
 70
0
  3
Center ____ _ ____ _ ____ _ ____ _ ____ _ ____
 72
65
 73
4
 40
50.799999999999997
 49
31.75
 74
0
 49
-6.3499999999999996
 74
0
 49
6.3499999999999996
 74
0
 49
-6.3499999999999996
 74
0
  0
LTYPE
  5
39
100
AcDbSymbolTableRecord
100
AcDbLinetypeTableRecord
  2
CENTER2
 70
0
  3
Center (.5x) ___ _ ___ _ ___ _ ___ _ ___ _ ___
 72
65
 73
4
 40
28.574999999999999
 49
19.050000000000001
 74
0
 49
-3.1749999999999998
 74
0
 49
3.1749999999999998
 74
0
 49
-3.1749999999999998
 74
0
  0
LTYPE
  5
3A
100
AcDbSymbolTableRecord
100
AcDbLinetypeTableRecord
  2
CENTERX2
 70
0
  3
Center (2x) ________  __  ________  __  _____
 72
65
 73
4
 40
101.59999999999999
 49
63.5
 74
0
 49
-12.699999999999999
 74
0
 49
12.699999999999999
 74
0
 49
-12.699999999999999
 74
0
  0
LTYPE
  5
3B
100
AcDbSymbolTableRecord
100
AcDbLinetypeTableRecord
  2
DASHDOT
 70
0
  3
Dash dot __ . __ . __ . __ . __ . __ . __ . __
 72
65
 73
4
 40
25.399999999999999
 49
12.699999999999999
 74
0
 49
-6.3499999999999996
 74
0
 49
0.0
 74
0
 49
-6.3499999999999996
 74
0
  0
LTYPE
  5
3C
100
AcDbSymbolTableRecord
100
AcDbLinetypeTableRecord
  2
DASHDOT2
 70
0
  3
Dash dot (.5x) _._._._._._._._._._._._._._._.
 72
65
 73
4
 40
12.699999999999999
 49
6.3499999999999996
 74
0
 49
-3.1749999999999998
 74
0
 49
0.0
 74
0
 49
-3.1749999999999998
 74
0
  0
LTYPE
  5
3D
100
AcDbSymbolTableRecord
100
AcDbLinetypeTableRecord
  2
DASHDOTX2
 70
0
  3
Dash dot (2x) ____  .  ____  .  ____  .  ___
 72
65
 73
4
 40
50.799999999999997
 49
25.399999999999999
 74
0
 49
-12.699999999999999
 74
0
 49
0.0
 74
0
 49
-12.699999999999999
 74
0
  0
LTYPE
  5
3E
100
AcDbSymbolTableRecord
100
AcDbLinetypeTableRecord
  2
DASHED
 70
0
  3
Dashed __ __ __ __ __ __ __ __ __ __ __ __ __ _
 72
65
 73
2
 40
19.050000000000001
 49
12.699999999999999
 74
0
 49
-6.3499999999999996
 74
0
  0
LTYPE
  5
3F
100
AcDbSymbolTableRecord
100
AcDbLinetypeTableRecord
  2
DASHED2
 70
0
  3
Dashed (.5x) _ _ _ _ _ _ _ _ _ _ _ _ _ _ _ _ _
 72
65
 73
2
 40
9.5250000000000004
 49
6.3499999999999996
 74
0
 49
-3.1749999999999998
 74
0
  0
LTYPE
  5
40
100
AcDbSymbolTableRecord
100
AcDbLinetypeTableRecord
  2
DASHEDX2
 70
0
  3
Dashed (2x) ____  ____  ____  ____  ____  ___
 72
65
 73
2
 40
38.100000000000001
 49
25.399999999999999
 74
0
 49
-12.699999999999999
 74
0
  0
LTYPE
  5
41
100
AcDbSymbolTableRecord
100
AcDbLinetypeTableRecord
  2
DIVIDE
 70
0
  3
Divide ____ . . ____ . . ____ . . ____ . . ____
 72
65
 73
6
 40
31.75
 49
12.699999999999999
 74
0
 49
-6.3499999999999996
 74
0
 49
0.0
 74
0
 49
-6.3499999999999996
 74
0
 49
0.0
 74
0
 49
-6.3499999999999996
 74
0
  0
LTYPE
  5
42
100
AcDbSymbolTableRecord
100
AcDbLinetypeTableRecord
  2
DIVIDE2
 70
0
  3
Divide (.5x) __..__..__..__..__..__..__..__.._
 72
65
 73
6
 40
15.875
 49
6.3499999999999996
 74
0
 49
-3.1749999999999998
 74
0
 49
0.0
 74
0
 49
-3.1749999999999998
 74
0
 49
0.0
 74
0
 49
-3.1749999999999998
 74
0
  0
LTYPE
  5
43
100
AcDbSymbolTableRecord
100
AcDbLinetypeTableRecord
  2
DIVIDEX2
 70
0
  3
Divide (2x) ________  .  .  ________  .  .  _
 72
65
 73
6
 40
63.5
 49
25.399999999999999
 74
0
 49
-12.699999999999999
 74
0
 49
0.0
 74
0
 49
-12.699999999999999
 74
0
 49
0.0
 74
0
 49
-12.699999999999999
 74
0
  0
LTYPE
  5
44
100
AcDbSymbolTableRecord
100
AcDbLinetypeTableRecord
  2
DOT
 70
0
  3
Dot . . . . . . . . . . . . . . . . . . . . . .
 72
65
 73
2
 40
6.3499999999999996
 49
0.0
 74
0
 49
-6.3499999999999996
 74
0
  0
LTYPE
  5
45
100
AcDbSymbolTableRecord
100
AcDbLinetypeTableRecord
  2
DOT2
 70
0
  3
Dot (.5x) .....................................
 72
65
 73
2
 40
3.1749999999999998
 49
0.0
 74
0
 49
-3.1749999999999998
 74
0
  0
LTYPE
  5
46
100
AcDbSymbolTableRecord
100
AcDbLinetypeTableRecord
  2
DOTX2
 70
0
  3
Dot (2x) .  .  .  .  .  .  .  .  .  .  .  .  .
 72
65
 73
2
 40
12.699999999999999
 49
0.0
 74
0
 49
-12.699999999999999
 74
0
  0
ENDTAB
  0
TABLE
  2
LAYER
  5
2
100
AcDbSymbolTable
 70
3
  0
LAYER
  5
10
100
AcDbSymbolTableRecord
100
AcDbLayerTableRecord
  2
0
 70
0
 62
250
  6
CONTINUOUS
370
100
390
F
  0
LAYER
  5
47
100
AcDbSymbolTableRecord
100
AcDbLayerTableRecord
  2
color#01010101
 70
0
 62
7
  6
CONTINUOUS
370
100
390
F
  0
LAYER
  5
48
100
AcDbSymbolTableRecord
100
AcDbLayerTableRecord
  2
color#fdfdfdfd
 70
0
 62
7
  6
CONTINUOUS
370
100
390
F
  0
ENDTAB
  0
TABLE
  2
STYLE
  5
3
100
AcDbSymbolTable
 70
1
  0
STYLE
  5
11
100
AcDbSymbolTableRecord
100
AcDbTextStyleTableRecord
  2
Standard
 70
0
 40
0.0
 41
0.75
 50
0.0
 71
0
 42
2.5
  3
txt
  4

  0
ENDTAB
  0
TABLE
  2
VIEW
  5
6
100
AcDbSymbolTable
 70
0
  0
ENDTAB
  0
TABLE
  2
UCS
  5
7
100
AcDbSymbolTable
 70
0
  0
ENDTAB
  0
TABLE
  2
APPID
  5
9
100
AcDbSymbolTable
 70
1
  0
APPID
  5
12
100
AcDbSymbolTableRecord
100
AcDbRegAppTableRecord
  2
ACAD
 70
0
  0
ENDTAB
  0
TABLE
  2
DIMSTYLE
  5
A
100
AcDbSymbolTable
 70
1
100
AcDbDimStyleTable
 71
0
  0
DIMSTYLE
105
27
100
AcDbSymbolTableRecord
100
AcDbDimStyleTableRecord
  2
Standard
 41
1.0
 42
1.0
 43
3.75
 44
1.0
 70
0
 73
0
 74
0
 77
1
 78
8
140
1.0
141
2.5
143
0.03937007874016
147
1.0
171
3
172
1
271
2
272
2
274
3
278
44
283
0
284
8
340
11
  0
ENDTAB
  0
TABLE
  2
BLOCK_RECORD
  5
1
100
AcDbSymbolTable
 70
1
  0
BLOCK_RECORD
  5
1F
100
AcDbSymbolTableRecord
100
AcDbBlockTableRecord
  2
*Model_Space
340
22
  0
BLOCK_RECORD
  5
1B
100
AcDbSymbolTableRecord
100
AcDbBlockTableRecord
  2
*Paper_Space
340
1E
  0
BLOCK_RECORD
  5
23
100
AcDbSymbolTableRecord
100
AcDbBlockTableRecord
  2
*Paper_Space0
340
26
  0
ENDTAB
  0
ENDSEC
  0
SECTION
  2
BLOCKS
  0
BLOCK
  5
20
100
AcDbEntity
  8
0
100
AcDbBlockBegin
  2
*Model_Space
 70
0
 10
0.0
 20
0.0
 30
0.0
  3
*Model_Space
  1

  0
ENDBLK
  5
21
100
AcDbEntity
  8
0
100
AcDbBlockEnd
  0
BLOCK
  5
1C
100
AcDbEntity
 67
1
  8
0
100
AcDbBlockBegin
  2
*Paper_Space
 70
0
 10
0.0
 20
0.0
 30
0.0
  3
*Paper_Space
  1

  0
ENDBLK
  5
1D
100
AcDbEntity
 67
1
  8
0
100
AcDbBlockEnd
  0
BLOCK
  5
24
100
AcDbEntity
  8
0
100
AcDbBlockBegin
  2
*Paper_Space0
 70
0
 10
0.0
 20
0.0
 30
0.0
  3
*Paper_Space0
  1

  0
ENDBLK
  5
25
100
AcDbEntity
  8
0
100
AcDbBlockEnd
  0
ENDSEC
  0
SECTION
  2
ENTITIES
  0
LINE
  5
49
100
AcDbEntity
100
AcDbLine
  8
color#fdfdfdfd
 62
256
370
-1
  6
BYLAYER
 10
0.8446749889078506
 20
6.8079516234873187
 30
0.0
 11
0.8638003660740116
 21
6.8148438405559881
 31
0.0
  0
LINE
  5
4A
100
AcDbEntity
100
AcDbLine
  8
color#fdfdfdfd
 62
256
370
-1
  6
BYLAYER
 10
0.8638003660740116
 20
6.8148438405559881
 30
0.0
 11
0.883074300751245
 21
6.8212479173444693
 31
0.0
  0
LINE
  5
4B
100
AcDbEntity
100
AcDbLine
  8
color#fdfdfdfd
 62
256
370
-1
  6
BYLAYER
 10
0.883074300751245
 20
6.8212479173444693
 30
0.0
 11
0.9024858244904055
 21
6.8271635977525955
 31
0.0
  0
LINE
  5
4C
100
AcDbEntity
100
AcDbLine
  8
color#fdfdfdfd
 62
256
370
-1
  6
BYLAYER
 10
0.9024858244904055
 20
6.8271635977525955
 30
0.0
 11
0.9220239688423448
 21
6.8325906256801998
 31
0.0
  0
LINE
  5
4D
100
AcDbEntity
100
AcDbLine
  8
color#fdfdfdfd
 62
256
370
-1
  6
BYLAYER
 10
0.9220239688423448
 20
6.8325906256801998
 30
0.0
 11
0.9416777653579176
 21
6.8375287450271145
 31
0.0
  0
LINE
  5
4E
100
AcDbEntity
100
AcDbLine
  8
color#fdfdfdfd
 62
256
370
-1
  6
BYLAYER
 10
0.9416777653579176
 20
6.8375287450271145
 30
0.0
 11
0.9614362455879761
 21
6.8419776996931745
 31
0.0
  0
LINE
  5
4F
100
AcDbEntity
100
AcDbLine
  8
color#fdfdfdfd
 62
256
370
-1
  6
BYLAYER
 10
0.9614362455879761
 20
6.8419776996931745
 30
0.0
 11
0.9812884410833735
 21
6.845937233578212
 31
0.0
  0
LINE
  5
50
100
AcDbEntity
100
AcDbLine
  8
color#fdfdfdfd
 62
256
370
-1
  6
BYLAYER
 10
0.9812884410833735
 20
6.845937233578212
 30
0.0
 11
1.001223383394964
 21
6.8494070905820594
 31
0.0
  0
LINE
  5
51
100
AcDbEntity
100
AcDbLine
  8
color#fdfdfdfd
 62
256
370
-1
  6
BYLAYER
 10
1.001223383394964
 20
6.8494070905820594
 30
0.0
 11
1.0212301040735998
 21
6.8523870146045516
 31
0.0
  0
LINE
  5
52
100
AcDbEntity
100
AcDbLine
  8
color#fdfdfdfd
 62
256
370
-1
  6
BYLAYER
 10
1.0212301040735998
 20
6.8523870146045516
 30
0.0
 11
1.0412976346701344
 21
6.8548767495455216
 31
0.0
  0
LINE
  5
53
100
AcDbEntity
100
AcDbLine
  8
color#fdfdfdfd
 62
256
370
-1
  6
BYLAYER
 10
1.0412976346701344
 20
6.8548767495455216
 30
0.0
 11
1.0614150067354213
 21
6.8568760393048001
 31
0.0
  0
LINE
  5
54
100
AcDbEntity
100
AcDbLine
  8
color#fdfdfdfd
 62
256
370
-1
  6
BYLAYER
 10
1.0614150067354213
 20
6.8568760393048001
 30
0.0
 11
1.0815712518203138
 21
6.8583846277822227
 31
0.0
  0
LINE
  5
55
100
AcDbEntity
100
AcDbLine
  8
color#fdfdfdfd
 62
256
370
-1
  6
BYLAYER
 10
1.0815712518203138
 20
6.8583846277822227
 30
0.0
 11
1.1017554014756643
 21
6.8594022588776227
 31
0.0
  0
LINE
  5
56
100
AcDbEntity
100
AcDbLine
  8
color#fdfdfdfd
 62
256
370
-1
  6
BYLAYER
 10
1.1017554014756643
 20
6.8594022588776227
 30
0.0
 11
1.1219564872523269
 21
6.8599286764908314
 31
0.0
  0
LINE
  5
57
100
AcDbEntity
100
AcDbLine
  8
color#fdfdfdfd
 62
256
370
-1
  6
BYLAYER
 10
1.1219564872523269
 20
6.8599286764908314
 30
0.0
 11
1.1421635407011546
 21
6.8599636245216837
 31
0.0
  0
LINE
  5
58
100
AcDbEntity
100
AcDbLine
  8
color#fdfdfdfd
 62
256
370
-1
  6
BYLAYER
 10
1.1421635407011546
 20
6.8599636245216837
 30
0.0
 11
1.1623655933730004
 21
6.859506846870012
 31
0.0
  0
LINE
  5
59
100
AcDbEntity
100
AcDbLine
  8
color#fdfdfdfd
 62
256
370
-1
  6
BYLAYER
 10
1.1623655933730004
 20
6.859506846870012
 30
0.0
 11
1.1825516768187176
 21
6.8585580874356502
 31
0.0
  0
LINE
  5
5A
100
AcDbEntity
100
AcDbLine
  8
color#fdfdfdfd
 62
256
370
-1
  6
BYLAYER
 10
1.1825516768187176
 20
6.8585580874356502
 30
0.0
 11
1.2027108225891596
 21
6.8571170901184297
 31
0.0
  0
LINE
  5
5B
100
AcDbEntity
100
AcDbLine
  8
color#fdfdfdfd
 62
256
370
-1
  6
BYLAYER
 10
1.2027108225891596
 20
6.8571170901184297
 30
0.0
 11
1.2228320622351794
 21
6.8551835988181855
 31
0.0
  0
LINE
  5
5C
100
AcDbEntity
100
AcDbLine
  8
color#fdfdfdfd
 62
256
370
-1
  6
BYLAYER
 10
1.2228320622351794
 20
6.8551835988181855
 30
0.0
 11
1.2429044273076304
 21
6.8527573574347507
 31
0.0
  0
LINE
  5
5D
100
AcDbEntity
100
AcDbLine
  8
color#fdfdfdfd
 62
256
370
-1
  6
BYLAYER
 10
1.2429044273076304
 20
6.8527573574347507
 30
0.0
 11
1.2629169493573658
 21
6.8498381098679566
 31
0.0
  0
LINE
  5
5E
100
AcDbEntity
100
AcDbLine
  8
color#fdfdfdfd
 62
256
370
-1
  6
BYLAYER
 10
1.2629169493573658
 20
6.8498381098679566
 30
0.0
 11
1.2828586599352387
 21
6.8464256000176391
 31
0.0
  0
LINE
  5
5F
100
AcDbEntity
100
AcDbLine
  8
color#fdfdfdfd
 62
256
370
-1
  6
BYLAYER
 10
1.2828586599352387
 20
6.8464256000176391
 30
0.0
 11
1.3027185905921026
 21
6.8425195717836296
 31
0.0
  0
LINE
  5
60
100
AcDbEntity
100
AcDbLine
  8
color#fdfdfdfd
 62
256
370
-1
  6
BYLAYER
 10
1.3027185905921026
 20
6.8425195717836296
 30
0.0
 11
1.32248577287881
 21
6.8381197690657611
 31
0.0
  0
LINE
  5
61
100
AcDbEntity
100
AcDbLine
  8
color#fdfdfdfd
 62
256
370
-1
  6
BYLAYER
 10
1.32248577287881
 20
6.8381197690657611
 30
0.0
 11
1.342149238346215
 21
6.8332259357638678
 31
0.0
  0
LINE
  5
62
100
AcDbEntity
100
AcDbLine
  8
color#fdfdfdfd
 62
256
370
-1
  6
BYLAYER
 10
1.342149238346215
 20
6.8332259357638678
 30
0.0
 11
1.3616980185451704
 21
6.8278378157777828
 31
0.0
  0
LINE
  5
63
100
AcDbEntity
100
AcDbLine
  8
color#fdfdfdfd
 62
256
370
-1
  6
BYLAYER
 10
1.3616980185451704
 20
6.8278378157777828
 30
0.0
 11
1.3811211450265293
 21
6.8219551530073383
 31
0.0
  0
LINE
  5
64
100
AcDbEntity
100
AcDbLine
  8
color#fdfdfdfd
 62
256
370
-1
  6
BYLAYER
 10
1.3811211450265293
 20
6.8219551530073383
 30
0.0
 11
1.4004076493411453
 21
6.8155776913523685
 31
0.0
  0
LINE
  5
65
100
AcDbEntity
100
AcDbLine
  8
color#fdfdfdfd
 62
256
370
-1
  6
BYLAYER
 10
1.4004076493411453
 20
6.8155776913523685
 30
0.0
 11
1.4195465630398714
 21
6.8087051747127054
 31
0.0
  0
LINE
  5
66
100
AcDbEntity
100
AcDbLine
  8
color#fdfdfdfd
 62
256
370
-1
  6
BYLAYER
 10
1.4195465630398714
 20
6.8087051747127054
 30
0.0
 11
1.4694325274566833
 21
6.7878318423520936
 31
0.0
  0
LINE
  5
67
100
AcDbEntity
100
AcDbLine
  8
color#fdfdfdfd
 62
256
370
-1
  6
BYLAYER
 10
1.4694325274566833
 20
6.7878318423520936
 30
0.0
 11
1.4899786014447964
 21
6.7783041502390624
 31
0.0
  0
LINE
  5
68
100
AcDbEntity
100
AcDbLine
  8
color#fdfdfdfd
 62
256
370
-1
  6
BYLAYER
 10
1.4899786014447964
 20
6.7783041502390624
 30
0.0
 11
1.510211803550098
 21
6.7681732033916298
 31
0.0
  0
LINE
  5
69
100
AcDbEntity
100
AcDbLine
  8
color#fdfdfdfd
 62
256
370
-1
  6
BYLAYER
 10
1.510211803550098
 20
6.7681732033916298
 30
0.0
 11
1.5301218853104519
 21
6.7574529003029689
 31
0.0
  0
LINE
  5
6A
100
AcDbEntity
100
AcDbLine
  8
color#fdfdfdfd
 62
256
370
-1
  6
BYLAYER
 10
1.5301218853104519
 20
6.7574529003029689
 30
0.0
 11
1.5496985982637188
 21
6.7461571394662556
 31
0.0
  0
LINE
  5
6B
100
AcDbEntity
100
AcDbLine
  8
color#fdfdfdfd
 62
256
370
-1
  6
BYLAYER
 10
1.5496985982637188
 20
6.7461571394662556
 30
0.0
 11
1.5689316939477633
 21
6.7342998193746633
 31
0.0
  0
LINE
  5
6C
100
AcDbEntity
100
AcDbLine
  8
color#fdfdfdfd
 62
256
370
-1
  6
BYLAYER
 10
1.5689316939477633
 20
6.7342998193746633
 30
0.0
 11
1.5878109239004468
 21
6.7218948385213677
 31
0.0
  0
LINE
  5
6D
100
AcDbEntity
100
AcDbLine
  8
color#fdfdfdfd
 62
256
370
-1
  6
BYLAYER
 10
1.5878109239004468
 20
6.7218948385213677
 30
0.0
 11
1.6063260396596313
 21
6.7089560953995422
 31
0.0
  0
LINE
  5
6E
100
AcDbEntity
100
AcDbLine
  8
color#fdfdfdfd
 62
256
370
-1
  6
BYLAYER
 10
1.6063260396596313
 20
6.7089560953995422
 30
0.0
 11
1.6244667927631808
 21
6.6954974885023626
 31
0.0
  0
LINE
  5
6F
100
AcDbEntity
100
AcDbLine
  8
color#fdfdfdfd
 62
256
370
-1
  6
BYLAYER
 10
1.6244667927631808
 20
6.6954974885023626
 30
0.0
 11
1.642222934748957
 21
6.6815329163230031
 31
0.0
  0
LINE
  5
70
100
AcDbEntity
100
AcDbLine
  8
color#fdfdfdfd
 62
256
370
-1
  6
BYLAYER
 10
1.642222934748957
 20
6.6815329163230031
 30
0.0
 11
1.6595842171548219
 21
6.6670762773546386
 31
0.0
  0
LINE
  5
71
100
AcDbEntity
100
AcDbLine
  8
color#fdfdfdfd
 62
256
370
-1
  6
BYLAYER
 10
1.6595842171548219
 20
6.6670762773546386
 30
0.0
 11
1.6765403915186388
 21
6.6521414700904451
 31
0.0
  0
LINE
  5
72
100
AcDbEntity
100
AcDbLine
  8
color#fdfdfdfd
 62
256
370
-1
  6
BYLAYER
 10
1.6765403915186388
 20
6.6521414700904451
 30
0.0
 11
1.6930812093782703
 21
6.636742393023594
 31
0.0
  0
LINE
  5
73
100
AcDbEntity
100
AcDbLine
  8
color#fdfdfdfd
 62
256
370
-1
  6
BYLAYER
 10
1.6930812093782703
 20
6.636742393023594
 30
0.0
 11
1.7091964222715785
 21
6.6208929446472631
 31
0.0
  0
LINE
  5
74
100
AcDbEntity
100
AcDbLine
  8
color#fdfdfdfd
 62
256
370
-1
  6
BYLAYER
 10
1.7091964222715785
 20
6.6208929446472631
 30
0.0
 11
1.724875781736426
 21
6.6046070234546264
 31
0.0
  0
LINE
  5
75
100
AcDbEntity
100
AcDbLine
  8
color#fdfdfdfd
 62
256
370
-1
  6
BYLAYER
 10
1.724875781736426
 20
6.6046070234546264
 30
0.0
 11
1.7401090393106753
 21
6.587898527938858
 31
0.0
  0
LINE
  5
76
100
AcDbEntity
100
AcDbLine
  8
color#fdfdfdfd
 62
256
370
-1
  6
BYLAYER
 10
1.7401090393106753
 20
6.587898527938858
 30
0.0
 11
1.7548859465321891
 21
6.5707813565931321
 31
0.0
  0
LINE
  5
77
100
AcDbEntity
100
AcDbLine
  8
color#fdfdfdfd
 62
256
370
-1
  6
BYLAYER
 10
1.7548859465321891
 20
6.5707813565931321
 30
0.0
 11
1.7691962549388298
 21
6.5532694079106246
 31
0.0
  0
LINE
  5
78
100
AcDbEntity
100
AcDbLine
  8
color#fdfdfdfd
 62
256
370
-1
  6
BYLAYER
 10
1.7691962549388298
 20
6.5532694079106246
 30
0.0
 11
1.7830297160684598
 21
6.5353765803845105
 31
0.0
  0
LINE
  5
79
100
AcDbEntity
100
AcDbLine
  8
color#fdfdfdfd
 62
256
370
-1
  6
BYLAYER
 10
1.7830297160684598
 20
6.5353765803845105
 30
0.0
 11
1.7963760814589422
 21
6.5171167725079631
 31
0.0
  0
LINE
  5
7A
100
AcDbEntity
100
AcDbLine
  8
color#fdfdfdfd
 62
256
370
-1
  6
BYLAYER
 10
1.7963760814589422
 20
6.5171167725079631
 30
0.0
 11
1.809225102648139
 21
6.4985038827741572
 31
0.0
  0
LINE
  5
7B
100
AcDbEntity
100
AcDbLine
  8
color#fdfdfdfd
 62
256
370
-1
  6
BYLAYER
 10
1.809225102648139
 20
6.4985038827741572
 30
0.0
 11
1.8215665311739129
 21
6.4795518096762699
 31
0.0
  0
LINE
  5
7C
100
AcDbEntity
100
AcDbLine
  8
color#fdfdfdfd
 62
256
370
-1
  6
BYLAYER
 10
1.8215665311739129
 20
6.4795518096762699
 30
0.0
 11
1.8333901185741266
 21
6.4602744517074724
 31
0.0
  0
LINE
  5
7D
100
AcDbEntity
100
AcDbLine
  8
color#fdfdfdfd
 62
256
370
-1
  6
BYLAYER
 10
1.8333901185741266
 20
6.4602744517074724
 30
0.0
 11
1.8446856163866419
 21
6.4406857073609416
 31
0.0
  0
LINE
  5
7E
100
AcDbEntity
100
AcDbLine
  8
color#fdfdfdfd
 62
256
370
-1
  6
BYLAYER
 10
1.8446856163866419
 20
6.4406857073609416
 30
0.0
 11
1.855442776149322
 21
6.4207994751298507
 31
0.0
  0
LINE
  5
7F
100
AcDbEntity
100
AcDbLine
  8
color#fdfdfdfd
 62
256
370
-1
  6
BYLAYER
 10
1.855442776149322
 20
6.4207994751298507
 30
0.0
 11
1.8656513494000291
 21
6.4006296535073766
 31
0.0
  0
LINE
  5
80
100
AcDbEntity
100
AcDbLine
  8
color#fdfdfdfd
 62
256
370
-1
  6
BYLAYER
 10
1.8656513494000291
 20
6.4006296535073766
 30
0.0
 11
1.8753010876766263
 21
6.3801901409866932
 31
0.0
  0
LINE
  5
81
100
AcDbEntity
100
AcDbLine
  8
color#fdfdfdfd
 62
256
370
-1
  6
BYLAYER
 10
1.8753010876766263
 20
6.3801901409866932
 30
0.0
 11
1.8843817425169749
 21
6.3594948360609749
 31
0.0
  0
LINE
  5
82
100
AcDbEntity
100
AcDbLine
  8
color#fdfdfdfd
 62
256
370
-1
  6
BYLAYER
 10
1.8843817425169749
 20
6.3594948360609749
 30
0.0
 11
1.892883065458939
 21
6.3385576372233947
 31
0.0
  0
LINE
  5
83
100
AcDbEntity
100
AcDbLine
  8
color#fdfdfdfd
 62
256
370
-1
  6
BYLAYER
 10
1.892883065458939
 20
6.3385576372233947
 30
0.0
 11
1.9007948080403798
 21
6.3173924429671304
 31
0.0
  0
LINE
  5
84
100
AcDbEntity
100
AcDbLine
  8
color#fdfdfdfd
 62
256
370
-1
  6
BYLAYER
 10
1.9007948080403798
 20
6.3173924429671304
 30
0.0
 11
1.9332290566029711
 21
6.1976396600951293
 31
0.0
  0
LINE
  5
85
100
AcDbEntity
100
AcDbLine
  8
color#fdfdfdfd
 62
256
370
-1
  6
BYLAYER
 10
1.9332290566029711
 20
6.1976396600951293
 30
0.0
 11
1.9450676028995382
 21
6.0703430570472392
 31
0.0
  0
LINE
  5
86
100
AcDbEntity
100
AcDbLine
  8
color#fdfdfdfd
 62
256
370
-1
  6
BYLAYER
 10
1.9450676028995382
 20
6.0703430570472392
 30
0.0
 11
1.9438060068491119
 21
5.9919125128234452
 31
0.0
  0
LINE
  5
87
100
AcDbEntity
100
AcDbLine
  8
color#fdfdfdfd
 62
256
370
-1
  6
BYLAYER
 10
1.9438060068491119
 20
5.9919125128234452
 30
0.0
 11
1.9375770652697974
 21
5.9331652558956316
 31
0.0
  0
LINE
  5
88
100
AcDbEntity
100
AcDbLine
  8
color#fdfdfdfd
 62
256
370
-1
  6
BYLAYER
 10
1.9375770652697974
 20
5.9331652558956316
 30
0.0
 11
1.9343805879334444
 21
5.9136111006816732
 31
0.0
  0
LINE
  5
89
100
AcDbEntity
100
AcDbLine
  8
color#fdfdfdfd
 62
256
370
-1
  6
BYLAYER
 10
1.9343805879334444
 20
5.9136111006816732
 30
0.0
 11
2.6098341834607282
 21
5.2421128094822338
 31
0.0
  0
LINE
  5
8A
100
AcDbEntity
100
AcDbLine
  8
color#fdfdfdfd
 62
256
370
-1
  6
BYLAYER
 10
2.6098341834607282
 20
5.2421128094822338
 30
0.0
 11
2.6514114332707965
 21
5.3401363452691033
 31
0.0
  0
LINE
  5
8B
100
AcDbEntity
100
AcDbLine
  8
color#fdfdfdfd
 62
256
370
-1
  6
BYLAYER
 10
2.6514114332707965
 20
5.3401363452691033
 30
0.0
 11
2.7526784880064543
 21
5.5541754445032074
 31
0.0
  0
LINE
  5
8C
100
AcDbEntity
100
AcDbLine
  8
color#fdfdfdfd
 62
256
370
-1
  6
BYLAYER
 10
2.7526784880064543
 20
5.5541754445032074
 30
0.0
 11
3.031028507330964
 21
6.1505753390731526
 31
0.0
  0
LINE
  5
8D
100
AcDbEntity
100
AcDbLine
  8
color#fdfdfdfd
 62
256
370
-1
  6
BYLAYER
 10
3.031028507330964
 20
6.1505753390731526
 30
0.0
 11
3.0366780608066843
 21
6.162508830919891
 31
0.0
  0
LINE
  5
8E
100
AcDbEntity
100
AcDbLine
  8
color#fdfdfdfd
 62
256
370
-1
  6
BYLAYER
 10
3.0366780608066843
 20
6.162508830919891
 30
0.0
 11
3.0427306531705929
 21
6.1743054380877567
 31
0.0
  0
LINE
  5
8F
100
AcDbEntity
100
AcDbLine
  8
color#fdfdfdfd
 62
256
370
-1
  6
BYLAYER
 10
3.0427306531705929
 20
6.1743054380877567
 30
0.0
 11
3.0491772911485566
 21
6.1859464528305779
 31
0.0
  0
LINE
  5
90
100
AcDbEntity
100
AcDbLine
  8
color#fdfdfdfd
 62
256
370
-1
  6
BYLAYER
 10
3.0491772911485566
 20
6.1859464528305779
 30
0.0
 11
3.0560089814664377
 21
6.1974131674021802
 31
0.0
  0
LINE
  5
91
100
AcDbEntity
100
AcDbLine
  8
color#fdfdfdfd
 62
256
370
-1
  6
BYLAYER
 10
3.0560089814664377
 20
6.1974131674021802
 30
0.0
 11
3.0632167308501028
 21
6.2086868740563919
 31
0.0
  0
LINE
  5
92
100
AcDbEntity
100
AcDbLine
  8
color#fdfdfdfd
 62
256
370
-1
  6
BYLAYER
 10
3.0632167308501028
 20
6.2086868740563919
 30
0.0
 11
3.0707915460254145
 21
6.2197488650470412
 31
0.0
  0
LINE
  5
93
100
AcDbEntity
100
AcDbLine
  8
color#fdfdfdfd
 62
256
370
-1
  6
BYLAYER
 10
3.0707915460254145
 20
6.2197488650470412
 30
0.0
 11
3.0787244337182362
 21
6.2305804326279537
 31
0.0
  0
LINE
  5
94
100
AcDbEntity
100
AcDbLine
  8
color#fdfdfdfd
 62
256
370
-1
  6
BYLAYER
 10
3.0787244337182362
 20
6.2305804326279537
 30
0.0
 11
3.0870064006544351
 21
6.2411628690529586
 31
0.0
  0
LINE
  5
95
100
AcDbEntity
100
AcDbLine
  8
color#fdfdfdfd
 62
256
370
-1
  6
BYLAYER
 10
3.0870064006544351
 20
6.2411628690529586
 30
0.0
 11
3.0956284535598737
 21
6.2514774665758814
 31
0.0
  0
LINE
  5
96
100
AcDbEntity
100
AcDbLine
  8
color#fdfdfdfd
 62
256
370
-1
  6
BYLAYER
 10
3.0956284535598737
 20
6.2514774665758814
 30
0.0
 11
3.1045815991604151
 21
6.2615055174505514
 31
0.0
  0
LINE
  5
97
100
AcDbEntity
100
AcDbLine
  8
color#fdfdfdfd
 62
256
370
-1
  6
BYLAYER
 10
3.1045815991604151
 20
6.2615055174505514
 30
0.0
 11
3.1138568441819254
 21
6.2712283139307949
 31
0.0
  0
LINE
  5
98
100
AcDbEntity
100
AcDbLine
  8
color#fdfdfdfd
 62
256
370
-1
  6
BYLAYER
 10
3.1138568441819254
 20
6.2712283139307949
 30
0.0
 11
3.1234451953502687
 21
6.2806271482704412
 31
0.0
  0
LINE
  5
99
100
AcDbEntity
100
AcDbLine
  8
color#fdfdfdfd
 62
256
370
-1
  6
BYLAYER
 10
3.1234451953502687
 20
6.2806271482704412
 30
0.0
 11
3.1333376593913083
 21
6.2896833127233158
 31
0.0
  0
LINE
  5
9A
100
AcDbEntity
100
AcDbLine
  8
color#fdfdfdfd
 62
256
370
-1
  6
BYLAYER
 10
3.1333376593913083
 20
6.2896833127233158
 30
0.0
 11
3.1435252430309091
 21
6.2983780995432461
 31
0.0
  0
LINE
  5
9B
100
AcDbEntity
100
AcDbLine
  8
color#fdfdfdfd
 62
256
370
-1
  6
BYLAYER
 10
3.1435252430309091
 20
6.2983780995432461
 30
0.0
 11
3.153998952994935
 21
6.3066928009840595
 31
0.0
  0
LINE
  5
9C
100
AcDbEntity
100
AcDbLine
  8
color#fdfdfdfd
 62
256
370
-1
  6
BYLAYER
 10
3.153998952994935
 20
6.3066928009840595
 30
0.0
 11
3.1647497960092505
 21
6.3146087092995842
 31
0.0
  0
LINE
  5
9D
100
AcDbEntity
100
AcDbLine
  8
color#fdfdfdfd
 62
256
370
-1
  6
BYLAYER
 10
3.1647497960092505
 20
6.3146087092995842
 30
0.0
 11
3.1757687787997204
 21
6.3221071167436476
 31
0.0
  0
LINE
  5
9E
100
AcDbEntity
100
AcDbLine
  8
color#fdfdfdfd
 62
256
370
-1
  6
BYLAYER
 10
3.1757687787997204
 20
6.3221071167436476
 30
0.0
 11
3.1870469080922081
 21
6.3291693155700761
 31
0.0
  0
LINE
  5
9F
100
AcDbEntity
100
AcDbLine
  8
color#fdfdfdfd
 62
256
370
-1
  6
BYLAYER
 10
3.1870469080922081
 20
6.3291693155700761
 30
0.0
 11
3.1985751906125781
 21
6.335776598032699
 31
0.0
  0
LINE
  5
A0
100
AcDbEntity
100
AcDbLine
  8
color#fdfdfdfd
 62
256
370
-1
  6
BYLAYER
 10
3.1985751906125781
 20
6.335776598032699
 30
0.0
 11
3.2103446330866956
 21
6.3419102563853418
 31
0.0
  0
LINE
  5
A1
100
AcDbEntity
100
AcDbLine
  8
color#fdfdfdfd
 62
256
370
-1
  6
BYLAYER
 10
3.2103446330866956
 20
6.3419102563853418
 30
0.0
 11
3.2223462422404241
 21
6.3475515828818327
 31
0.0
  0
LINE
  5
A2
100
AcDbEntity
100
AcDbLine
  8
color#fdfdfdfd
 62
256
370
-1
  6
BYLAYER
 10
3.2223462422404241
 20
6.3475515828818327
 30
0.0
 11
3.2345710247996275
 21
6.3526818697760001
 31
0.0
  0
LINE
  5
A3
100
AcDbEntity
100
AcDbLine
  8
color#fdfdfdfd
 62
256
370
-1
  6
BYLAYER
 10
3.2345710247996275
 20
6.3526818697760001
 30
0.0
 11
3.2470099874901703
 21
6.3572824093216695
 31
0.0
  0
LINE
  5
A4
100
AcDbEntity
100
AcDbLine
  8
color#fdfdfdfd
 62
256
370
-1
  6
BYLAYER
 10
3.2470099874901703
 20
6.3572824093216695
 30
0.0
 11
3.2596541370379173
 21
6.3613344937726692
 31
0.0
  0
LINE
  5
A5
100
AcDbEntity
100
AcDbLine
  8
color#fdfdfdfd
 62
256
370
-1
  6
BYLAYER
 10
3.2596541370379173
 20
6.3613344937726692
 30
0.0
 11
3.2724944801687323
 21
6.3648194153828275
 31
0.0
  0
LINE
  5
A6
100
AcDbEntity
100
AcDbLine
  8
color#fdfdfdfd
 62
256
370
-1
  6
BYLAYER
 10
3.2724944801687323
 20
6.3648194153828275
 30
0.0
 11
3.2855220236084799
 21
6.3677184664059707
 31
0.0
  0
LINE
  5
A7
100
AcDbEntity
100
AcDbLine
  8
color#fdfdfdfd
 62
256
370
-1
  6
BYLAYER
 10
3.2855220236084799
 20
6.3677184664059707
 30
0.0
 11
3.298727774083023
 21
6.3700129390959255
 31
0.0
  0
LINE
  5
A8
100
AcDbEntity
100
AcDbLine
  8
color#fdfdfdfd
 62
256
370
-1
  6
BYLAYER
 10
3.298727774083023
 20
6.3700129390959255
 30
0.0
 11
3.3121027383182282
 21
6.3716841257065209
 31
0.0
  0
LINE
  5
A9
100
AcDbEntity
100
AcDbLine
  8
color#fdfdfdfd
 62
256
370
-1
  6
BYLAYER
 10
3.3121027383182282
 20
6.3716841257065209
 30
0.0
 11
3.3256379230399578
 21
6.3727133184915843
 31
0.0
  0
LINE
  5
AA
100
AcDbEntity
100
AcDbLine
  8
color#fdfdfdfd
 62
256
370
-1
  6
BYLAYER
 10
3.3256379230399578
 20
6.3727133184915843
 30
0.0
 11
3.3270443637593612
 21
6.378593021336493
 31
0.0
  0
LINE
  5
AB
100
AcDbEntity
100
AcDbLine
  8
color#fdfdfdfd
 62
256
370
-1
  6
BYLAYER
 10
3.3270443637593612
 20
6.378593021336493
 30
0.0
 11
3.4043253463458463
 21
6.3785224748664966
 31
0.0
  0
LINE
  5
AC
100
AcDbEntity
100
AcDbLine
  8
color#fdfdfdfd
 62
256
370
-1
  6
BYLAYER
 10
3.4043253463458463
 20
6.3785224748664966
 30
0.0
 11
3.4849200043600379
 21
6.3613559071667796
 31
0.0
  0
LINE
  5
AD
100
AcDbEntity
100
AcDbLine
  8
color#fdfdfdfd
 62
256
370
-1
  6
BYLAYER
 10
3.4849200043600379
 20
6.3613559071667796
 30
0.0
 11
3.4998715239282849
 21
6.354907974091633
 31
0.0
  0
LINE
  5
AE
100
AcDbEntity
100
AcDbLine
  8
color#fdfdfdfd
 62
256
370
-1
  6
BYLAYER
 10
3.4998715239282849
 20
6.354907974091633
 30
0.0
 11
3.5144555346989508
 21
6.3479369959196328
 31
0.0
  0
LINE
  5
AF
100
AcDbEntity
100
AcDbLine
  8
color#fdfdfdfd
 62
256
370
-1
  6
BYLAYER
 10
3.5144555346989508
 20
6.3479369959196328
 30
0.0
 11
3.5286906453906179
 21
6.3404702171902709
 31
0.0
  0
LINE
  5
B0
100
AcDbEntity
100
AcDbLine
  8
color#fdfdfdfd
 62
256
370
-1
  6
BYLAYER
 10
3.5286906453906179
 20
6.3404702171902709
 30
0.0
 11
3.5425954647218636
 21
6.3325348824430421
 31
0.0
  0
LINE
  5
B1
100
AcDbEntity
100
AcDbLine
  8
color#fdfdfdfd
 62
256
370
-1
  6
BYLAYER
 10
3.5425954647218636
 20
6.3325348824430421
 30
0.0
 11
3.5561886014112698
 21
6.3241582362174373
 31
0.0
  0
LINE
  5
B2
100
AcDbEntity
100
AcDbLine
  8
color#fdfdfdfd
 62
256
370
-1
  6
BYLAYER
 10
3.5561886014112698
 20
6.3241582362174373
 30
0.0
 11
3.5694886641774155
 21
6.3153675230529478
 31
0.0
  0
LINE
  5
B3
100
AcDbEntity
100
AcDbLine
  8
color#fdfdfdfd
 62
256
370
-1
  6
BYLAYER
 10
3.5694886641774155
 20
6.3153675230529478
 30
0.0
 11
3.5825142617388792
 21
6.3061899874890672
 31
0.0
  0
LINE
  5
B4
100
AcDbEntity
100
AcDbLine
  8
color#fdfdfdfd
 62
256
370
-1
  6
BYLAYER
 10
3.5825142617388792
 20
6.3061899874890672
 30
0.0
 11
3.5952840028142452
 21
6.2966528740652885
 31
0.0
  0
LINE
  5
B5
100
AcDbEntity
100
AcDbLine
  8
color#fdfdfdfd
 62
256
370
-1
  6
BYLAYER
 10
3.5952840028142452
 20
6.2966528740652885
 30
0.0
 11
3.6078164961220889
 21
6.2867834273211018
 31
0.0
  0
LINE
  5
B6
100
AcDbEntity
100
AcDbLine
  8
color#fdfdfdfd
 62
256
370
-1
  6
BYLAYER
 10
3.6078164961220889
 20
6.2867834273211018
 30
0.0
 11
3.6201303503809905
 21
6.2766088917960019
 31
0.0
  0
LINE
  5
B7
100
AcDbEntity
100
AcDbLine
  8
color#fdfdfdfd
 62
256
370
-1
  6
BYLAYER
 10
3.6201303503809905
 20
6.2766088917960019
 30
0.0
 11
3.6441765766262924
 21
6.2554535325610265
 31
0.0
  0
LINE
  5
B8
100
AcDbEntity
100
AcDbLine
  8
color#fdfdfdfd
 62
256
370
-1
  6
BYLAYER
 10
3.6441765766262924
 20
6.2554535325610265
 30
0.0
 11
3.6675715512987859
 21
6.2334047526763028
 31
0.0
  0
LINE
  5
B9
100
AcDbEntity
100
AcDbLine
  8
color#fdfdfdfd
 62
256
370
-1
  6
BYLAYER
 10
3.6675715512987859
 20
6.2334047526763028
 30
0.0
 11
3.779988092271525
 21
6.1173880145642885
 31
0.0
  0
LINE
  5
BA
100
AcDbEntity
100
AcDbLine
  8
color#fdfdfdfd
 62
256
370
-1
  6
BYLAYER
 10
3.779988092271525
 20
6.1173880145642885
 30
0.0
 11
3.8140459465982164
 21
6.0833631631574603
 31
0.0
  0
LINE
  5
BB
100
AcDbEntity
100
AcDbLine
  8
color#fdfdfdfd
 62
256
370
-1
  6
BYLAYER
 10
3.8140459465982164
 20
6.0833631631574603
 30
0.0
 11
3.8373017577125257
 21
6.0615610859701583
 31
0.0
  0
LINE
  5
BC
100
AcDbEntity
100
AcDbLine
  8
color#fdfdfdfd
 62
256
370
-1
  6
BYLAYER
 10
3.8373017577125257
 20
6.0615610859701583
 30
0.0
 11
3.8509470247539457
 21
6.0470437213874879
 31
0.0
  0
LINE
  5
BD
100
AcDbEntity
100
AcDbLine
  8
color#fdfdfdfd
 62
256
370
-1
  6
BYLAYER
 10
3.8509470247539457
 20
6.0470437213874879
 30
0.0
 11
3.8636235371022121
 21
6.0318582307865061
 31
0.0
  0
LINE
  5
BE
100
AcDbEntity
100
AcDbLine
  8
color#fdfdfdfd
 62
256
370
-1
  6
BYLAYER
 10
3.8636235371022121
 20
6.0318582307865061
 30
0.0
 11
3.875330599956524
 21
6.016054214111163
 31
0.0
  0
LINE
  5
BF
100
AcDbEntity
100
AcDbLine
  8
color#fdfdfdfd
 62
256
370
-1
  6
BYLAYER
 10
3.875330599956524
 20
6.016054214111163
 30
0.0
 11
3.8860675185160725
 21
5.9996812713054117
 31
0.0
  0
LINE
  5
C0
100
AcDbEntity
100
AcDbLine
  8
color#fdfdfdfd
 62
256
370
-1
  6
BYLAYER
 10
3.8860675185160725
 20
5.9996812713054117
 30
0.0
 11
3.8958335979800549
 21
5.9827890023132015
 31
0.0
  0
LINE
  5
C1
100
AcDbEntity
100
AcDbLine
  8
color#fdfdfdfd
 62
256
370
-1
  6
BYLAYER
 10
3.8958335979800549
 20
5.9827890023132015
 30
0.0
 11
3.9046281435476664
 21
5.9654270070784863
 31
0.0
  0
LINE
  5
C2
100
AcDbEntity
100
AcDbLine
  8
color#fdfdfdfd
 62
256
370
-1
  6
BYLAYER
 10
3.9046281435476664
 20
5.9654270070784863
 30
0.0
 11
3.9124504604180999
 21
5.9476448855452162
 31
0.0
  0
LINE
  5
C3
100
AcDbEntity
100
AcDbLine
  8
color#fdfdfdfd
 62
256
370
-1
  6
BYLAYER
 10
3.9124504604180999
 20
5.9476448855452162
 30
0.0
 11
3.9192998537905535
 21
5.9294922376573425
 31
0.0
  0
LINE
  5
C4
100
AcDbEntity
100
AcDbLine
  8
color#fdfdfdfd
 62
256
370
-1
  6
BYLAYER
 10
3.9192998537905535
 20
5.9294922376573425
 30
0.0
 11
3.9251756288642219
 21
5.9110186633588162
 31
0.0
  0
LINE
  5
C5
100
AcDbEntity
100
AcDbLine
  8
color#fdfdfdfd
 62
256
370
-1
  6
BYLAYER
 10
3.9251756288642219
 20
5.9110186633588162
 30
0.0
 11
3.9300770908382958
 21
5.8922737625935904
 31
0.0
  0
LINE
  5
C6
100
AcDbEntity
100
AcDbLine
  8
color#fdfdfdfd
 62
256
370
-1
  6
BYLAYER
 10
3.9300770908382958
 20
5.8922737625935904
 30
0.0
 11
3.9340035449119761
 21
5.8733071353056152
 31
0.0
  0
LINE
  5
C7
100
AcDbEntity
100
AcDbLine
  8
color#fdfdfdfd
 62
256
370
-1
  6
BYLAYER
 10
3.9340035449119761
 20
5.8733071353056152
 30
0.0
 11
3.9369542962844566
 21
5.8541683814388428
 31
0.0
  0
LINE
  5
C8
100
AcDbEntity
100
AcDbLine
  8
color#fdfdfdfd
 62
256
370
-1
  6
BYLAYER
 10
3.9369542962844566
 20
5.8541683814388428
 30
0.0
 11
3.9389286501549297
 21
5.8349071009372251
 31
0.0
  0
LINE
  5
C9
100
AcDbEntity
100
AcDbLine
  8
color#fdfdfdfd
 62
256
370
-1
  6
BYLAYER
 10
3.9389286501549297
 20
5.8349071009372251
 30
0.0
 11
3.9399259117225935
 21
5.8155728937447115
 31
0.0
  0
LINE
  5
CA
100
AcDbEntity
100
AcDbLine
  8
color#fdfdfdfd
 62
256
370
-1
  6
BYLAYER
 10
3.9399259117225935
 20
5.8155728937447115
 30
0.0
 11
3.9399453861866411
 21
5.7962153598052559
 31
0.0
  0
LINE
  5
CB
100
AcDbEntity
100
AcDbLine
  8
color#fdfdfdfd
 62
256
370
-1
  6
BYLAYER
 10
3.9399453861866411
 20
5.7962153598052559
 30
0.0
 11
3.9389863787462693
 21
5.7768840990628085
 31
0.0
  0
LINE
  5
CC
100
AcDbEntity
100
AcDbLine
  8
color#fdfdfdfd
 62
256
370
-1
  6
BYLAYER
 10
3.9389863787462693
 20
5.7768840990628085
 30
0.0
 11
3.9370481946006723
 21
5.7576287114613205
 31
0.0
  0
LINE
  5
CD
100
AcDbEntity
100
AcDbLine
  8
color#fdfdfdfd
 62
256
370
-1
  6
BYLAYER
 10
3.9370481946006723
 20
5.7576287114613205
 30
0.0
 11
3.9341301389490448
 21
5.7384987969447439
 31
0.0
  0
LINE
  5
CE
100
AcDbEntity
100
AcDbLine
  8
color#fdfdfdfd
 62
256
370
-1
  6
BYLAYER
 10
3.9341301389490448
 20
5.7384987969447439
 30
0.0
 11
3.9302315169905833
 21
5.7195439554570306
 31
0.0
  0
LINE
  5
CF
100
AcDbEntity
100
AcDbLine
  8
color#fdfdfdfd
 62
256
370
-1
  6
BYLAYER
 10
3.9302315169905833
 20
5.7195439554570306
 30
0.0
 11
3.9253516339244814
 21
5.7008137869421311
 31
0.0
  0
LINE
  5
D0
100
AcDbEntity
100
AcDbLine
  8
color#fdfdfdfd
 62
256
370
-1
  6
BYLAYER
 10
3.9253516339244814
 20
5.7008137869421311
 30
0.0
 11
3.9194897949499361
 21
5.6823578913439965
 31
0.0
  0
LINE
  5
D1
100
AcDbEntity
100
AcDbLine
  8
color#fdfdfdfd
 62
256
370
-1
  6
BYLAYER
 10
3.9194897949499361
 20
5.6823578913439965
 30
0.0
 11
3.9126453052661407
 21
5.6642258686065805
 31
0.0
  0
LINE
  5
D2
100
AcDbEntity
100
AcDbLine
  8
color#fdfdfdfd
 62
256
370
-1
  6
BYLAYER
 10
3.9126453052661407
 20
5.6642258686065805
 30
0.0
 11
3.9048174700722904
 21
5.6464673186738326
 31
0.0
  0
LINE
  5
D3
100
AcDbEntity
100
AcDbLine
  8
color#fdfdfdfd
 62
256
370
-1
  6
BYLAYER
 10
3.9048174700722904
 20
5.6464673186738326
 30
0.0
 11
3.8960055945675816
 21
5.6291318414897047
 31
0.0
  0
LINE
  5
D4
100
AcDbEntity
100
AcDbLine
  8
color#fdfdfdfd
 62
256
370
-1
  6
BYLAYER
 10
3.8960055945675816
 20
5.6291318414897047
 30
0.0
 11
3.8862089839512088
 21
5.6122690369981489
 31
0.0
  0
LINE
  5
D5
100
AcDbEntity
100
AcDbLine
  8
color#fdfdfdfd
 62
256
370
-1
  6
BYLAYER
 10
3.8862089839512088
 20
5.6122690369981489
 30
0.0
 11
3.8754269434223669
 21
5.5959285051431165
 31
0.0
  0
LINE
  5
D6
100
AcDbEntity
100
AcDbLine
  8
color#fdfdfdfd
 62
256
370
-1
  6
BYLAYER
 10
3.8754269434223669
 20
5.5959285051431165
 30
0.0
 11
3.8636587781802518
 21
5.5801598458685566
 31
0.0
  0
LINE
  5
D7
100
AcDbEntity
100
AcDbLine
  8
color#fdfdfdfd
 62
256
370
-1
  6
BYLAYER
 10
3.8636587781802518
 20
5.5801598458685566
 30
0.0
 11
3.8509037934240578
 21
5.565012659118425
 31
0.0
  0
LINE
  5
D8
100
AcDbEntity
100
AcDbLine
  8
color#fdfdfdfd
 62
256
370
-1
  6
BYLAYER
 10
3.8509037934240578
 20
5.565012659118425
 30
0.0
 11
3.8371612943529803
 21
5.5505365448366701
 31
0.0
  0
LINE
  5
D9
100
AcDbEntity
100
AcDbLine
  8
color#fdfdfdfd
 62
256
370
-1
  6
BYLAYER
 10
3.8371612943529803
 20
5.5505365448366701
 30
0.0
 11
1.6300267576863658
 21
3.3425650658395165
 31
0.0
  0
LINE
  5
DA
100
AcDbEntity
100
AcDbLine
  8
color#fdfdfdfd
 62
256
370
-1
  6
BYLAYER
 10
1.6300267576863658
 20
3.3425650658395165
 30
0.0
 11
1.6150415616693772
 21
3.3283258297165279
 31
0.0
  0
LINE
  5
DB
100
AcDbEntity
100
AcDbLine
  8
color#fdfdfdfd
 62
256
370
-1
  6
BYLAYER
 10
1.6150415616693772
 20
3.3283258297165279
 30
0.0
 11
1.5993463058300688
 21
3.3151621600542001
 31
0.0
  0
LINE
  5
DC
100
AcDbEntity
100
AcDbLine
  8
color#fdfdfdfd
 62
256
370
-1
  6
BYLAYER
 10
1.5993463058300688
 20
3.3151621600542001
 30
0.0
 11
1.5829951436774607
 21
3.3030708995455567
 31
0.0
  0
LINE
  5
DD
100
AcDbEntity
100
AcDbLine
  8
color#fdfdfdfd
 62
256
370
-1
  6
BYLAYER
 10
1.5829951436774607
 20
3.3030708995455567
 30
0.0
 11
1.5660422287205709
 21
3.2920488908836258
 31
0.0
  0
LINE
  5
DE
100
AcDbEntity
100
AcDbLine
  8
color#fdfdfdfd
 62
256
370
-1
  6
BYLAYER
 10
1.5660422287205709
 20
3.2920488908836258
 30
0.0
 11
1.5485417144684195
 21
3.2820929767614322
 31
0.0
  0
LINE
  5
DF
100
AcDbEntity
100
AcDbLine
  8
color#fdfdfdfd
 62
256
370
-1
  6
BYLAYER
 10
1.5485417144684195
 20
3.2820929767614322
 30
0.0
 11
1.5305477544300239
 21
3.2731999998720034
 31
0.0
  0
LINE
  5
E0
100
AcDbEntity
100
AcDbLine
  8
color#fdfdfdfd
 62
256
370
-1
  6
BYLAYER
 10
1.5305477544300239
 20
3.2731999998720034
 30
0.0
 11
1.5121145021144038
 21
3.2653668029083676
 31
0.0
  0
LINE
  5
E1
100
AcDbEntity
100
AcDbLine
  8
color#fdfdfdfd
 62
256
370
-1
  6
BYLAYER
 10
1.5121145021144038
 20
3.2653668029083676
 30
0.0
 11
1.4932961110305785
 21
3.2585902285635444
 31
0.0
  0
LINE
  5
E2
100
AcDbEntity
100
AcDbLine
  8
color#fdfdfdfd
 62
256
370
-1
  6
BYLAYER
 10
1.4932961110305785
 20
3.2585902285635444
 30
0.0
 11
1.4741467346875663
 21
3.2528671195305652
 31
0.0
  0
LINE
  5
E3
100
AcDbEntity
100
AcDbLine
  8
color#fdfdfdfd
 62
256
370
-1
  6
BYLAYER
 10
1.4741467346875663
 20
3.2528671195305652
 30
0.0
 11
1.4547205265943861
 21
3.2481943185024553
 31
0.0
  0
LINE
  5
E4
100
AcDbEntity
100
AcDbLine
  8
color#fdfdfdfd
 62
256
370
-1
  6
BYLAYER
 10
1.4547205265943861
 20
3.2481943185024553
 30
0.0
 11
1.435071640260057
 21
3.2445686681722403
 31
0.0
  0
LINE
  5
E5
100
AcDbEntity
100
AcDbLine
  8
color#fdfdfdfd
 62
256
370
-1
  6
BYLAYER
 10
1.435071640260057
 20
3.2445686681722403
 30
0.0
 11
1.4152542291935983
 21
3.2419870112329456
 31
0.0
  0
LINE
  5
E6
100
AcDbEntity
100
AcDbLine
  8
color#fdfdfdfd
 62
256
370
-1
  6
BYLAYER
 10
1.4152542291935983
 20
3.2419870112329456
 30
0.0
 11
1.3953224469040277
 21
3.2404461903775998
 31
0.0
  0
LINE
  5
E7
100
AcDbEntity
100
AcDbLine
  8
color#fdfdfdfd
 62
256
370
-1
  6
BYLAYER
 10
1.3953224469040277
 20
3.2404461903775998
 30
0.0
 11
1.3753304469003651
 21
3.2399430482992266
 31
0.0
  0
LINE
  5
E8
100
AcDbEntity
100
AcDbLine
  8
color#fdfdfdfd
 62
256
370
-1
  6
BYLAYER
 10
1.3753304469003651
 20
3.2399430482992266
 30
0.0
 11
1.3553323826916295
 21
3.2404744276908537
 31
0.0
  0
LINE
  5
E9
100
AcDbEntity
100
AcDbLine
  8
color#fdfdfdfd
 62
256
370
-1
  6
BYLAYER
 10
1.3553323826916295
 20
3.2404744276908537
 30
0.0
 11
1.3353824077868393
 21
3.2420371712455074
 31
0.0
  0
LINE
  5
EA
100
AcDbEntity
100
AcDbLine
  8
color#fdfdfdfd
 62
256
370
-1
  6
BYLAYER
 10
1.3353824077868393
 20
3.2420371712455074
 30
0.0
 11
1.3155346756950139
 21
3.2446281216562118
 31
0.0
  0
LINE
  5
EB
100
AcDbEntity
100
AcDbLine
  8
color#fdfdfdfd
 62
256
370
-1
  6
BYLAYER
 10
1.3155346756950139
 20
3.2446281216562118
 30
0.0
 11
1.2958433399251719
 21
3.2482441216159939
 31
0.0
  0
LINE
  5
EC
100
AcDbEntity
100
AcDbLine
  8
color#fdfdfdfd
 62
256
370
-1
  6
BYLAYER
 10
1.2958433399251719
 20
3.2482441216159939
 30
0.0
 11
1.2763625539863321
 21
3.2528820138178816
 31
0.0
  0
LINE
  5
ED
100
AcDbEntity
100
AcDbLine
  8
color#fdfdfdfd
 62
256
370
-1
  6
BYLAYER
 10
1.2763625539863321
 20
3.2528820138178816
 30
0.0
 11
1.2571464713875136
 21
3.2585386409548991
 31
0.0
  0
LINE
  5
EE
100
AcDbEntity
100
AcDbLine
  8
color#fdfdfdfd
 62
256
370
-1
  6
BYLAYER
 10
1.2571464713875136
 20
3.2585386409548991
 30
0.0
 11
1.2382492456377356
 21
3.2652108457200737
 31
0.0
  0
LINE
  5
EF
100
AcDbEntity
100
AcDbLine
  8
color#fdfdfdfd
 62
256
370
-1
  6
BYLAYER
 10
1.2382492456377356
 20
3.2652108457200737
 30
0.0
 11
1.2197250302460165
 21
3.2728954708064313
 31
0.0
  0
LINE
  5
F0
100
AcDbEntity
100
AcDbLine
  8
color#fdfdfdfd
 62
256
370
-1
  6
BYLAYER
 10
1.2197250302460165
 20
3.2728954708064313
 30
0.0
 11
1.2016279787213751
 21
3.2815893589069978
 31
0.0
  0
LINE
  5
F1
100
AcDbEntity
100
AcDbLine
  8
color#fdfdfdfd
 62
256
370
-1
  6
BYLAYER
 10
1.2016279787213751
 20
3.2815893589069978
 30
0.0
 11
1.1840122445728309
 21
3.2912893527148004
 31
0.0
  0
LINE
  5
F2
100
AcDbEntity
100
AcDbLine
  8
color#fdfdfdfd
 62
256
370
-1
  6
BYLAYER
 10
1.1840122445728309
 20
3.2912893527148004
 30
0.0
 11
1.1669319813094023
 21
3.3019922949228624
 31
0.0
  0
LINE
  5
F3
100
AcDbEntity
100
AcDbLine
  8
color#fdfdfdfd
 62
256
370
-1
  6
BYLAYER
 10
1.1669319813094023
 20
3.3019922949228624
 30
0.0
 11
1.1504413424401085
 21
3.3136950282242128
 31
0.0
  0
LINE
  5
F4
100
AcDbEntity
100
AcDbLine
  8
color#fdfdfdfd
 62
256
370
-1
  6
BYLAYER
 10
1.1504413424401085
 20
3.3136950282242128
 30
0.0
 11
1.1345944814739686
 21
3.3263943953118766
 31
0.0
  0
LINE
  5
F5
100
AcDbEntity
100
AcDbLine
  8
color#fdfdfdfd
 62
256
370
-1
  6
BYLAYER
 10
1.1345944814739686
 20
3.3263943953118766
 30
0.0
 11
1.1194455519200008
 21
3.3400872388788816
 31
0.0
  0
LINE
  5
F6
100
AcDbEntity
100
AcDbLine
  8
color#fdfdfdfd
 62
256
370
-1
  6
BYLAYER
 10
1.1194455519200008
 20
3.3400872388788816
 30
0.0
 11
1.1050487072872246
 21
3.3547704016182514
 31
0.0
  0
LINE
  5
F7
100
AcDbEntity
100
AcDbLine
  8
color#fdfdfdfd
 62
256
370
-1
  6
BYLAYER
 10
1.1050487072872246
 20
3.3547704016182514
 30
0.0
 11
1.0842234150687338
 21
3.3772988863844113
 31
0.0
  0
LINE
  5
F8
100
AcDbEntity
100
AcDbLine
  8
color#fdfdfdfd
 62
256
370
-1
  6
BYLAYER
 10
1.0842234150687338
 20
3.3772988863844113
 30
0.0
 11
0.9734636415694319
 21
3.4857999672896889
 31
0.0
  0
LINE
  5
F9
100
AcDbEntity
100
AcDbLine
  8
color#fdfdfdfd
 62
256
370
-1
  6
BYLAYER
 10
0.9734636415694319
 20
3.4857999672896889
 30
0.0
 11
0.9300102733195738
 21
3.5300031581607527
 31
0.0
  0
LINE
  5
FA
100
AcDbEntity
100
AcDbLine
  8
color#fdfdfdfd
 62
256
370
-1
  6
BYLAYER
 10
0.9300102733195738
 20
3.5300031581607527
 30
0.0
 11
0.9093114380709848
 21
3.5528629272498171
 31
0.0
  0
LINE
  5
FB
100
AcDbEntity
100
AcDbLine
  8
color#fdfdfdfd
 62
256
370
-1
  6
BYLAYER
 10
0.9093114380709848
 20
3.5528629272498171
 30
0.0
 11
0.8993114690784252
 21
3.5645464657985335
 31
0.0
  0
LINE
  5
FC
100
AcDbEntity
100
AcDbLine
  8
color#fdfdfdfd
 62
256
370
-1
  6
BYLAYER
 10
0.8993114690784252
 20
3.5645464657985335
 30
0.0
 11
0.8895796987594602
 21
3.5764235300989151
 31
0.0
  0
LINE
  5
FD
100
AcDbEntity
100
AcDbLine
  8
color#fdfdfdfd
 62
256
370
-1
  6
BYLAYER
 10
0.8895796987594602
 20
3.5764235300989151
 30
0.0
 11
0.8801425518034183
 21
3.5885124374626218
 31
0.0
  0
LINE
  5
FE
100
AcDbEntity
100
AcDbLine
  8
color#fdfdfdfd
 62
256
370
-1
  6
BYLAYER
 10
0.8801425518034183
 20
3.5885124374626218
 30
0.0
 11
0.8710264528996281
 21
3.60083150520131
 31
0.0
  0
LINE
  5
FF
100
AcDbEntity
100
AcDbLine
  8
color#fdfdfdfd
 62
256
370
-1
  6
BYLAYER
 10
0.8710264528996281
 20
3.60083150520131
 30
0.0
 11
0.8622578267374178
 21
3.6133990506266369
 31
0.0
  0
LINE
  5
100
100
AcDbEntity
100
AcDbLine
  8
color#fdfdfdfd
 62
256
370
-1
  6
BYLAYER
 10
0.8622578267374178
 20
3.6133990506266369
 30
0.0
 11
0.8538630980061162
 21
3.6262333910502602
 31
0.0
  0
LINE
  5
101
100
AcDbEntity
100
AcDbLine
  8
color#fdfdfdfd
 62
256
370
-1
  6
BYLAYER
 10
0.8538630980061162
 20
3.6262333910502602
 30
0.0
 11
0.8458686913950516
 21
3.6393528437838381
 31
0.0
  0
LINE
  5
102
100
AcDbEntity
100
AcDbLine
  8
color#fdfdfdfd
 62
256
370
-1
  6
BYLAYER
 10
0.8458686913950516
 20
3.6393528437838381
 30
0.0
 11
0.8383010315935527
 21
3.6527757261390281
 31
0.0
  0
LINE
  5
103
100
AcDbEntity
100
AcDbLine
  8
color#fdfdfdfd
 62
256
370
-1
  6
BYLAYER
 10
0.8383010315935527
 20
3.6527757261390281
 30
0.0
 11
0.831186543290948
 21
3.6665203554274868
 31
0.0
  0
LINE
  5
104
100
AcDbEntity
100
AcDbLine
  8
color#fdfdfdfd
 62
256
370
-1
  6
BYLAYER
 10
0.831186543290948
 20
3.6665203554274868
 30
0.0
 11
0.824551651176566
 21
3.6806050489608726
 31
0.0
  0
LINE
  5
105
100
AcDbEntity
100
AcDbLine
  8
color#fdfdfdfd
 62
256
370
-1
  6
BYLAYER
 10
0.824551651176566
 20
3.6806050489608726
 30
0.0
 11
0.8184227799397351
 21
3.6950481240508424
 31
0.0
  0
LINE
  5
106
100
AcDbEntity
100
AcDbLine
  8
color#fdfdfdfd
 62
256
370
-1
  6
BYLAYER
 10
0.8184227799397351
 20
3.6950481240508424
 30
0.0
 11
0.8062478989395951
 21
3.7643650120074832
 31
0.0
  0
LINE
  5
107
100
AcDbEntity
100
AcDbLine
  8
color#fdfdfdfd
 62
256
370
-1
  6
BYLAYER
 10
0.8062478989395951
 20
3.7643650120074832
 30
0.0
 11
0.8020381232877617
 21
3.8535959619566773
 31
0.0
  0
LINE
  5
108
100
AcDbEntity
100
AcDbLine
  8
color#fdfdfdfd
 62
256
370
-1
  6
BYLAYER
 10
0.8020381232877617
 20
3.8535959619566773
 30
0.0
 11
0.8077354593418422
 21
3.8549907352517212
 31
0.0
  0
LINE
  5
109
100
AcDbEntity
100
AcDbLine
  8
color#fdfdfdfd
 62
256
370
-1
  6
BYLAYER
 10
0.8077354593418422
 20
3.8549907352517212
 30
0.0
 11
0.8112422280465691
 21
3.8826476277263504
 31
0.0
  0
LINE
  5
10A
100
AcDbEntity
100
AcDbLine
  8
color#fdfdfdfd
 62
256
370
-1
  6
BYLAYER
 10
0.8112422280465691
 20
3.8826476277263504
 30
0.0
 11
0.816704413603993
 21
3.9088151984404584
 31
0.0
  0
LINE
  5
10B
100
AcDbEntity
100
AcDbLine
  8
color#fdfdfdfd
 62
256
370
-1
  6
BYLAYER
 10
0.816704413603993
 20
3.9088151984404584
 30
0.0
 11
0.8240236529942204
 21
3.93355989397371
 31
0.0
  0
LINE
  5
10C
100
AcDbEntity
100
AcDbLine
  8
color#fdfdfdfd
 62
256
370
-1
  6
BYLAYER
 10
0.8240236529942204
 20
3.93355989397371
 30
0.0
 11
0.8331015831973569
 21
3.9569481609057724
 31
0.0
  0
LINE
  5
10D
100
AcDbEntity
100
AcDbLine
  8
color#fdfdfdfd
 62
256
370
-1
  6
BYLAYER
 10
0.8331015831973569
 20
3.9569481609057724
 30
0.0
 11
0.8438398411935086
 21
3.9790464458163104
 31
0.0
  0
LINE
  5
10E
100
AcDbEntity
100
AcDbLine
  8
color#fdfdfdfd
 62
256
370
-1
  6
BYLAYER
 10
0.8438398411935086
 20
3.9790464458163104
 30
0.0
 11
0.8561400639627815
 21
3.9999211952849913
 31
0.0
  0
LINE
  5
10F
100
AcDbEntity
100
AcDbLine
  8
color#fdfdfdfd
 62
256
370
-1
  6
BYLAYER
 10
0.8561400639627815
 20
3.9999211952849913
 30
0.0
 11
0.8699038884852812
 21
4.0196388558914817
 31
0.0
  0
LINE
  5
110
100
AcDbEntity
100
AcDbLine
  8
color#fdfdfdfd
 62
256
370
-1
  6
BYLAYER
 10
0.8699038884852812
 20
4.0196388558914817
 30
0.0
 11
0.8850329517411142
 21
4.0382658742154449
 31
0.0
  0
LINE
  5
111
100
AcDbEntity
100
AcDbLine
  8
color#fdfdfdfd
 62
256
370
-1
  6
BYLAYER
 10
0.8850329517411142
 20
4.0382658742154449
 30
0.0
 11
0.901428890710386
 21
4.0558686968365496
 31
0.0
  0
LINE
  5
112
100
AcDbEntity
100
AcDbLine
  8
color#fdfdfdfd
 62
256
370
-1
  6
BYLAYER
 10
0.901428890710386
 20
4.0558686968365496
 30
0.0
 11
0.9189933423732026
 21
4.0725137703344627
 31
0.0
  0
LINE
  5
113
100
AcDbEntity
100
AcDbLine
  8
color#fdfdfdfd
 62
256
370
-1
  6
BYLAYER
 10
0.9189933423732026
 20
4.0725137703344627
 30
0.0
 11
0.9376279437096703
 21
4.0882675412888467
 31
0.0
  0
LINE
  5
114
100
AcDbEntity
100
AcDbLine
  8
color#fdfdfdfd
 62
256
370
-1
  6
BYLAYER
 10
0.9376279437096703
 20
4.0882675412888467
 30
0.0
 11
0.9572343316998949
 21
4.1031964562793695
 31
0.0
  0
LINE
  5
115
100
AcDbEntity
100
AcDbLine
  8
color#fdfdfdfd
 62
256
370
-1
  6
BYLAYER
 10
0.9572343316998949
 20
4.1031964562793695
 30
0.0
 11
0.9777141433239819
 21
4.1173669618856996
 31
0.0
  0
LINE
  5
116
100
AcDbEntity
100
AcDbLine
  8
color#fdfdfdfd
 62
256
370
-1
  6
BYLAYER
 10
0.9777141433239819
 20
4.1173669618856996
 30
0.0
 11
0.9989690155620379
 21
4.1308455046874997
 31
0.0
  0
LINE
  5
117
100
AcDbEntity
100
AcDbLine
  8
color#fdfdfdfd
 62
256
370
-1
  6
BYLAYER
 10
0.9989690155620379
 20
4.1308455046874997
 30
0.0
 11
1.0209005853941684
 21
4.1436985312644374
 31
0.0
  0
LINE
  5
118
100
AcDbEntity
100
AcDbLine
  8
color#fdfdfdfd
 62
256
370
-1
  6
BYLAYER
 10
1.0209005853941684
 20
4.1436985312644374
 30
0.0
 11
1.0434104898004797
 21
4.1559924881961772
 31
0.0
  0
LINE
  5
119
100
AcDbEntity
100
AcDbLine
  8
color#fdfdfdfd
 62
256
370
-1
  6
BYLAYER
 10
1.0434104898004797
 20
4.1559924881961772
 30
0.0
 11
1.0664003657610772
 21
4.1677938220623867
 31
0.0
  0
LINE
  5
11A
100
AcDbEntity
100
AcDbLine
  8
color#fdfdfdfd
 62
256
370
-1
  6
BYLAYER
 10
1.0664003657610772
 20
4.1677938220623867
 30
0.0
 11
1.0897718502560676
 21
4.179168979442732
 31
0.0
  0
LINE
  5
11B
100
AcDbEntity
100
AcDbLine
  8
color#fdfdfdfd
 62
256
370
-1
  6
BYLAYER
 10
1.0897718502560676
 20
4.179168979442732
 30
0.0
 11
1.1134265802655565
 21
4.1901844069168792
 31
0.0
  0
LINE
  5
11C
100
AcDbEntity
100
AcDbLine
  8
color#fdfdfdfd
 62
256
370
-1
  6
BYLAYER
 10
1.1134265802655565
 20
4.1901844069168792
 30
0.0
 11
1.1851066131820736
 21
4.2217367756987905
 31
0.0
  0
LINE
  5
11D
100
AcDbEntity
100
AcDbLine
  8
color#fdfdfdfd
 62
256
370
-1
  6
BYLAYER
 10
1.1851066131820736
 20
4.2217367756987905
 30
0.0
 11
1.2325062073341868
 21
4.2421912259829497
 31
0.0
  0
LINE
  5
11E
100
AcDbEntity
100
AcDbLine
  8
color#fdfdfdfd
 62
256
370
-1
  6
BYLAYER
 10
1.2325062073341868
 20
4.2421912259829497
 30
0.0
 11
1.2557947870128914
 21
4.2524436521928948
 31
0.0
  0
LINE
  5
11F
100
AcDbEntity
100
AcDbLine
  8
color#fdfdfdfd
 62
256
370
-1
  6
BYLAYER
 10
1.2557947870128914
 20
4.2524436521928948
 30
0.0
 11
1.2786780710668366
 21
4.2628014745543021
 31
0.0
  0
LINE
  5
120
100
AcDbEntity
100
AcDbLine
  8
color#fdfdfdfd
 62
256
370
-1
  6
BYLAYER
 10
1.2786780710668366
 20
4.2628014745543021
 30
0.0
 11
1.3010576964761276
 21
4.2733311396468405
 31
0.0
  0
LINE
  5
121
100
AcDbEntity
100
AcDbLine
  8
color#fdfdfdfd
 62
256
370
-1
  6
BYLAYER
 10
1.3010576964761276
 20
4.2733311396468405
 30
0.0
 11
1.3228353002208708
 21
4.2840990940501751
 31
0.0
  0
LINE
  5
122
100
AcDbEntity
100
AcDbLine
  8
color#fdfdfdfd
 62
256
370
-1
  6
BYLAYER
 10
1.3228353002208708
 20
4.2840990940501751
 30
0.0
 11
1.3439125192811721
 21
4.2951717843439727
 31
0.0
  0
LINE
  5
123
100
AcDbEntity
100
AcDbLine
  8
color#fdfdfdfd
 62
256
370
-1
  6
BYLAYER
 10
1.3439125192811721
 20
4.2951717843439727
 30
0.0
 11
1.6097588130834164
 21
4.4200423494912275
 31
0.0
  0
LINE
  5
124
100
AcDbEntity
100
AcDbLine
  8
color#fdfdfdfd
 62
256
370
-1
  6
BYLAYER
 10
1.6097588130834164
 20
4.4200423494912275
 30
0.0
 11
1.8804344991986979
 21
4.5466756781346964
 31
0.0
  0
LINE
  5
125
100
AcDbEntity
100
AcDbLine
  8
color#fdfdfdfd
 62
256
370
-1
  6
BYLAYER
 10
1.8804344991986979
 20
4.5466756781346964
 30
0.0
 11
1.9380965961353651
 21
4.5701482609313064
 31
0.0
  0
LINE
  5
126
100
AcDbEntity
100
AcDbLine
  8
color#fdfdfdfd
 62
256
370
-1
  6
BYLAYER
 10
1.9380965961353651
 20
4.5701482609313064
 30
0.0
 11
1.2671128476236833
 21
5.2455069467551168
 31
0.0
  0
LINE
  5
127
100
AcDbEntity
100
AcDbLine
  8
color#fdfdfdfd
 62
256
370
-1
  6
BYLAYER
 10
1.2671128476236833
 20
5.2455069467551168
 30
0.0
 11
1.182494122830398
 21
5.2342124681738742
 31
0.0
  0
LINE
  5
128
100
AcDbEntity
100
AcDbLine
  8
color#fdfdfdfd
 62
256
370
-1
  6
BYLAYER
 10
1.182494122830398
 20
5.2342124681738742
 30
0.0
 11
1.0804895174601805
 21
5.2340629895861355
 31
0.0
  0
LINE
  5
129
100
AcDbEntity
100
AcDbLine
  8
color#fdfdfdfd
 62
256
370
-1
  6
BYLAYER
 10
1.0804895174601805
 20
5.2340629895861355
 30
0.0
 11
0.8845609435566353
 21
5.2715792812825999
 31
0.0
  0
LINE
  5
12A
100
AcDbEntity
100
AcDbLine
  8
color#fdfdfdfd
 62
256
370
-1
  6
BYLAYER
 10
0.8845609435566353
 20
5.2715792812825999
 30
0.0
 11
0.8626523554734509
 21
5.2791040375631333
 31
0.0
  0
LINE
  5
12B
100
AcDbEntity
100
AcDbLine
  8
color#fdfdfdfd
 62
256
370
-1
  6
BYLAYER
 10
0.8626523554734509
 20
5.2791040375631333
 30
0.0
 11
0.8415175574499854
 21
5.2870918245080061
 31
0.0
  0
LINE
  5
12C
100
AcDbEntity
100
AcDbLine
  8
color#fdfdfdfd
 62
256
370
-1
  6
BYLAYER
 10
0.8415175574499854
 20
5.2870918245080061
 30
0.0
 11
0.8206081571997492
 21
5.2956593092702224
 31
0.0
  0
LINE
  5
12D
100
AcDbEntity
100
AcDbLine
  8
color#fdfdfdfd
 62
256
370
-1
  6
BYLAYER
 10
0.8206081571997492
 20
5.2956593092702224
 30
0.0
 11
0.7999381776202417
 21
5.304796822373044
 31
0.0
  0
LINE
  5
12E
100
AcDbEntity
100
AcDbLine
  8
color#fdfdfdfd
 62
256
370
-1
  6
BYLAYER
 10
0.7999381776202417
 20
5.304796822373044
 30
0.0
 11
0.7795216416089605
 21
5.3144946943397349
 31
0.0
  0
LINE
  5
12F
100
AcDbEntity
100
AcDbLine
  8
color#fdfdfdfd
 62
256
370
-1
  6
BYLAYER
 10
0.7795216416089605
 20
5.3144946943397349
 30
0.0
 11
0.7593725720634059
 21
5.324743255693555
 31
0.0
  0
LINE
  5
130
100
AcDbEntity
100
AcDbLine
  8
color#fdfdfdfd
 62
256
370
-1
  6
BYLAYER
 10
0.7593725720634059
 20
5.324743255693555
 30
0.0
 11
0.7395049918810757
 21
5.3355328369577668
 31
0.0
  0
LINE
  5
131
100
AcDbEntity
100
AcDbLine
  8
color#fdfdfdfd
 62
256
370
-1
  6
BYLAYER
 10
0.7395049918810757
 20
5.3355328369577668
 30
0.0
 11
0.7199329239594682
 21
5.3468537686556346
 31
0.0
  0
LINE
  5
132
100
AcDbEntity
100
AcDbLine
  8
color#fdfdfdfd
 62
256
370
-1
  6
BYLAYER
 10
0.7199329239594682
 20
5.3468537686556346
 30
0.0
 11
0.7006703911960832
 21
5.3586963813104154
 31
0.0
  0
LINE
  5
133
100
AcDbEntity
100
AcDbLine
  8
color#fdfdfdfd
 62
256
370
-1
  6
BYLAYER
 10
0.7006703911960832
 20
5.3586963813104154
 30
0.0
 11
0.6817314164884187
 21
5.3710510054453753
 31
0.0
  0
LINE
  5
134
100
AcDbEntity
100
AcDbLine
  8
color#fdfdfdfd
 62
256
370
-1
  6
BYLAYER
 10
0.6817314164884187
 20
5.3710510054453753
 30
0.0
 11
0.6631300227339733
 21
5.3839079715837759
 31
0.0
  0
LINE
  5
135
100
AcDbEntity
100
AcDbLine
  8
color#fdfdfdfd
 62
256
370
-1
  6
BYLAYER
 10
0.6631300227339733
 20
5.3839079715837759
 30
0.0
 11
0.644880232830246
 21
5.397257610248877
 31
0.0
  0
LINE
  5
136
100
AcDbEntity
100
AcDbLine
  8
color#fdfdfdfd
 62
256
370
-1
  6
BYLAYER
 10
0.644880232830246
 20
5.397257610248877
 30
0.0
 11
0.6269960696747358
 21
5.4110902519639419
 31
0.0
  0
LINE
  5
137
100
AcDbEntity
100
AcDbLine
  8
color#fdfdfdfd
 62
256
370
-1
  6
BYLAYER
 10
0.6269960696747358
 20
5.4110902519639419
 30
0.0
 11
0.6094915561649407
 21
5.4253962272522323
 31
0.0
  0
LINE
  5
138
100
AcDbEntity
100
AcDbLine
  8
color#fdfdfdfd
 62
256
370
-1
  6
BYLAYER
 10
0.6094915561649407
 20
5.4253962272522323
 30
0.0
 11
0.59238071519836
 21
5.4401658666370105
 31
0.0
  0
LINE
  5
139
100
AcDbEntity
100
AcDbLine
  8
color#fdfdfdfd
 62
256
370
-1
  6
BYLAYER
 10
0.59238071519836
 20
5.4401658666370105
 30
0.0
 11
0.5756775696724922
 21
5.4553895006415392
 31
0.0
  0
LINE
  5
13A
100
AcDbEntity
100
AcDbLine
  8
color#fdfdfdfd
 62
256
370
-1
  6
BYLAYER
 10
0.5756775696724922
 20
5.4553895006415392
 30
0.0
 11
0.5593961424848362
 21
5.471057459789078
 31
0.0
  0
LINE
  5
13B
100
AcDbEntity
100
AcDbLine
  8
color#fdfdfdfd
 62
256
370
-1
  6
BYLAYER
 10
0.5593961424848362
 20
5.471057459789078
 30
0.0
 11
0.5435504565328901
 21
5.4871600746028912
 31
0.0
  0
LINE
  5
13C
100
AcDbEntity
100
AcDbLine
  8
color#fdfdfdfd
 62
256
370
-1
  6
BYLAYER
 10
0.5435504565328901
 20
5.4871600746028912
 30
0.0
 11
0.5281545347141534
 21
5.5036876756062387
 31
0.0
  0
LINE
  5
13D
100
AcDbEntity
100
AcDbLine
  8
color#fdfdfdfd
 62
256
370
-1
  6
BYLAYER
 10
0.5281545347141534
 20
5.5036876756062387
 30
0.0
 11
0.5132223999261245
 21
5.5206305933223838
 31
0.0
  0
LINE
  5
13E
100
AcDbEntity
100
AcDbLine
  8
color#fdfdfdfd
 62
256
370
-1
  6
BYLAYER
 10
0.5132223999261245
 20
5.5206305933223838
 30
0.0
 11
0.4987680750663019
 21
5.537979158274589
 31
0.0
  0
LINE
  5
13F
100
AcDbEntity
100
AcDbLine
  8
color#fdfdfdfd
 62
256
370
-1
  6
BYLAYER
 10
0.4987680750663019
 20
5.537979158274589
 30
0.0
 11
0.4848055830321847
 21
5.555723700986114
 31
0.0
  0
LINE
  5
140
100
AcDbEntity
100
AcDbLine
  8
color#fdfdfdfd
 62
256
370
-1
  6
BYLAYER
 10
0.4848055830321847
 20
5.555723700986114
 30
0.0
 11
0.4713489467212713
 21
5.5738545519802232
 31
0.0
  0
LINE
  5
141
100
AcDbEntity
100
AcDbLine
  8
color#fdfdfdfd
 62
256
370
-1
  6
BYLAYER
 10
0.4713489467212713
 20
5.5738545519802232
 30
0.0
 11
0.4584121890310606
 21
5.5923620417801772
 31
0.0
  0
LINE
  5
142
100
AcDbEntity
100
AcDbLine
  8
color#fdfdfdfd
 62
256
370
-1
  6
BYLAYER
 10
0.4584121890310606
 20
5.5923620417801772
 30
0.0
 11
0.4460093328590511
 21
5.6112365009092393
 31
0.0
  0
LINE
  5
143
100
AcDbEntity
100
AcDbLine
  8
color#fdfdfdfd
 62
256
370
-1
  6
BYLAYER
 10
0.4460093328590511
 20
5.6112365009092393
 30
0.0
 11
0.4341544011027418
 21
5.6304682598906686
 31
0.0
  0
LINE
  5
144
100
AcDbEntity
100
AcDbLine
  8
color#fdfdfdfd
 62
256
370
-1
  6
BYLAYER
 10
0.4341544011027418
 20
5.6304682598906686
 30
0.0
 11
0.4228614166596312
 21
5.6500476492477301
 31
0.0
  0
LINE
  5
145
100
AcDbEntity
100
AcDbLine
  8
color#fdfdfdfd
 62
256
370
-1
  6
BYLAYER
 10
0.4228614166596312
 20
5.6500476492477301
 30
0.0
 11
0.4121444024272181
 21
5.6699649995036845
 31
0.0
  0
LINE
  5
146
100
AcDbEntity
100
AcDbLine
  8
color#fdfdfdfd
 62
256
370
-1
  6
BYLAYER
 10
0.4121444024272181
 20
5.6699649995036845
 30
0.0
 11
0.4020173813030012
 21
5.6902106411817943
 31
0.0
  0
LINE
  5
147
100
AcDbEntity
100
AcDbLine
  8
color#fdfdfdfd
 62
256
370
-1
  6
BYLAYER
 10
0.4020173813030012
 20
5.6902106411817943
 30
0.0
 11
0.3924943761844792
 21
5.7107749048053194
 31
0.0
  0
LINE
  5
148
100
AcDbEntity
100
AcDbLine
  8
color#fdfdfdfd
 62
256
370
-1
  6
BYLAYER
 10
0.3924943761844792
 20
5.7107749048053194
 30
0.0
 11
0.3836501910153327
 21
5.7311466870910657
 31
0.0
  0
LINE
  5
149
100
AcDbEntity
100
AcDbLine
  8
color#fdfdfdfd
 62
256
370
-1
  6
BYLAYER
 10
0.3836501910153327
 20
5.7311466870910657
 30
0.0
 11
0.3753832167015551
 21
5.7517353003167919
 31
0.0
  0
LINE
  5
14A
100
AcDbEntity
100
AcDbLine
  8
color#fdfdfdfd
 62
256
370
-1
  6
BYLAYER
 10
0.3753832167015551
 20
5.7517353003167919
 30
0.0
 11
0.3676940703991198
 21
5.7725260657337607
 31
0.0
  0
LINE
  5
14B
100
AcDbEntity
100
AcDbLine
  8
color#fdfdfdfd
 62
256
370
-1
  6
BYLAYER
 10
0.3676940703991198
 20
5.7725260657337607
 30
0.0
 11
0.3605833692639994
 21
5.7935043045932337
 31
0.0
  0
LINE
  5
14C
100
AcDbEntity
100
AcDbLine
  8
color#fdfdfdfd
 62
256
370
-1
  6
BYLAYER
 10
0.3605833692639994
 20
5.7935043045932337
 30
0.0
 11
0.3540517304521671
 21
5.8146553381464727
 31
0.0
  0
LINE
  5
14D
100
AcDbEntity
100
AcDbLine
  8
color#fdfdfdfd
 62
256
370
-1
  6
BYLAYER
 10
0.3540517304521671
 20
5.8146553381464727
 30
0.0
 11
0.3480997711195955
 21
5.8359644876447403
 31
0.0
  0
LINE
  5
14E
100
AcDbEntity
100
AcDbLine
  8
color#fdfdfdfd
 62
256
370
-1
  6
BYLAYER
 10
0.3480997711195955
 20
5.8359644876447403
 30
0.0
 11
0.3427281084222572
 21
5.857417074339299
 31
0.0
  0
LINE
  5
14F
100
AcDbEntity
100
AcDbLine
  8
color#fdfdfdfd
 62
256
370
-1
  6
BYLAYER
 10
0.3427281084222572
 20
5.857417074339299
 30
0.0
 11
0.3379373595161257
 21
5.8789984194814089
 31
0.0
  0
LINE
  5
150
100
AcDbEntity
100
AcDbLine
  8
color#fdfdfdfd
 62
256
370
-1
  6
BYLAYER
 10
0.3379373595161257
 20
5.8789984194814089
 30
0.0
 11
0.3337281415571736
 21
5.9006938443223333
 31
0.0
  0
LINE
  5
151
100
AcDbEntity
100
AcDbLine
  8
color#fdfdfdfd
 62
256
370
-1
  6
BYLAYER
 10
0.3337281415571736
 20
5.9006938443223333
 30
0.0
 11
0.3301010717013736
 21
5.922488670113335
 31
0.0
  0
LINE
  5
152
100
AcDbEntity
100
AcDbLine
  8
color#fdfdfdfd
 62
256
370
-1
  6
BYLAYER
 10
0.3301010717013736
 20
5.922488670113335
 30
0.0
 11
0.3270567671046988
 21
5.9443682181056765
 31
0.0
  0
LINE
  5
153
100
AcDbEntity
100
AcDbLine
  8
color#fdfdfdfd
 62
256
370
-1
  6
BYLAYER
 10
0.3270567671046988
 20
5.9443682181056765
 30
0.0
 11
0.3245958449231221
 21
5.9663178095506186
 31
0.0
  0
LINE
  5
154
100
AcDbEntity
100
AcDbLine
  8
color#fdfdfdfd
 62
256
370
-1
  6
BYLAYER
 10
0.3245958449231221
 20
5.9663178095506186
 30
0.0
 11
0.3227189223126162
 21
5.988322765699424
 31
0.0
  0
LINE
  5
155
100
AcDbEntity
100
AcDbLine
  8
color#fdfdfdfd
 62
256
370
-1
  6
BYLAYER
 10
0.3227189223126162
 20
5.988322765699424
 30
0.0
 11
0.3214266164291541
 21
6.0103684078033535
 31
0.0
  0
LINE
  5
156
100
AcDbEntity
100
AcDbLine
  8
color#fdfdfdfd
 62
256
370
-1
  6
BYLAYER
 10
0.3214266164291541
 20
6.0103684078033535
 30
0.0
 11
0.3207195444287087
 21
6.0324400571136714
 31
0.0
  0
LINE
  5
157
100
AcDbEntity
100
AcDbLine
  8
color#fdfdfdfd
 62
256
370
-1
  6
BYLAYER
 10
0.3207195444287087
 20
6.0324400571136714
 30
0.0
 11
0.3205983234672528
 21
6.0545230348816386
 31
0.0
  0
LINE
  5
158
100
AcDbEntity
100
AcDbLine
  8
color#fdfdfdfd
 62
256
370
-1
  6
BYLAYER
 10
0.3205983234672528
 20
6.0545230348816386
 30
0.0
 11
0.3210635707007593
 21
6.0766026623585176
 31
0.0
  0
LINE
  5
159
100
AcDbEntity
100
AcDbLine
  8
color#fdfdfdfd
 62
256
370
-1
  6
BYLAYER
 10
0.3210635707007593
 20
6.0766026623585176
 30
0.0
 11
0.3221159032852012
 21
6.0986642607955694
 31
0.0
  0
LINE
  5
15A
100
AcDbEntity
100
AcDbLine
  8
color#fdfdfdfd
 62
256
370
-1
  6
BYLAYER
 10
0.3221159032852012
 20
6.0986642607955694
 30
0.0
 11
0.3237559383765512
 21
6.1206931514440583
 31
0.0
  0
LINE
  5
15B
100
AcDbEntity
100
AcDbLine
  8
color#fdfdfdfd
 62
256
370
-1
  6
BYLAYER
 10
0.3237559383765512
 20
6.1206931514440583
 30
0.0
 11
0.3259842931307823
 21
6.1426746555552443
 31
0.0
  0
LINE
  5
15C
100
AcDbEntity
100
AcDbLine
  8
color#fdfdfdfd
 62
256
370
-1
  6
BYLAYER
 10
0.3259842931307823
 20
6.1426746555552443
 30
0.0
 11
0.3288015847038673
 21
6.1645940943803907
 31
0.0
  0
LINE
  5
15D
100
AcDbEntity
100
AcDbLine
  8
color#fdfdfdfd
 62
256
370
-1
  6
BYLAYER
 10
0.3288015847038673
 20
6.1645940943803907
 30
0.0
 11
0.3322084302517792
 21
6.1864367891707595
 31
0.0
  0
LINE
  5
15E
100
AcDbEntity
100
AcDbLine
  8
color#fdfdfdfd
 62
256
370
-1
  6
BYLAYER
 10
0.3322084302517792
 20
6.1864367891707595
 30
0.0
 11
0.3362054469304907
 21
6.2081880611776121
 31
0.0
  0
LINE
  5
15F
100
AcDbEntity
100
AcDbLine
  8
color#fdfdfdfd
 62
256
370
-1
  6
BYLAYER
 10
0.3362054469304907
 20
6.2081880611776121
 30
0.0
 11
0.3407932518959748
 21
6.2298332316522114
 31
0.0
  0
LINE
  5
160
100
AcDbEntity
100
AcDbLine
  8
color#fdfdfdfd
 62
256
370
-1
  6
BYLAYER
 10
0.3407932518959748
 20
6.2298332316522114
 30
0.0
 11
0.3459724623042043
 21
6.251357621845818
 31
0.0
  0
LINE
  5
161
100
AcDbEntity
100
AcDbLine
  8
color#fdfdfdfd
 62
256
370
-1
  6
BYLAYER
 10
0.3459724623042043
 20
6.251357621845818
 30
0.0
 11
0.3517436953111522
 21
6.2727465530096964
 31
0.0
  0
LINE
  5
162
100
AcDbEntity
100
AcDbLine
  8
color#fdfdfdfd
 62
256
370
-1
  6
BYLAYER
 10
0.3517436953111522
 20
6.2727465530096964
 30
0.0
 11
0.3581075680727912
 21
6.2939853463951074
 31
0.0
  0
LINE
  5
163
100
AcDbEntity
100
AcDbLine
  8
color#fdfdfdfd
 62
256
370
-1
  6
BYLAYER
 10
0.3581075680727912
 20
6.2939853463951074
 30
0.0
 11
0.3650646977450944
 21
6.3150593232533119
 31
0.0
  0
LINE
  5
164
100
AcDbEntity
100
AcDbLine
  8
color#fdfdfdfd
 62
256
370
-1
  6
BYLAYER
 10
0.3650646977450944
 20
6.3150593232533119
 30
0.0
 11
0.3726157014840346
 21
6.3359538048355741
 31
0.0
  0
LINE
  5
165
100
AcDbEntity
100
AcDbLine
  8
color#fdfdfdfd
 62
256
370
-1
  6
BYLAYER
 10
0.3726157014840346
 20
6.3359538048355741
 30
0.0
 11
0.3813100099019813
 21
6.3580296864390871
 31
0.0
  0
LINE
  5
166
100
AcDbEntity
100
AcDbLine
  8
color#fdfdfdfd
 62
256
370
-1
  6
BYLAYER
 10
0.3813100099019813
 20
6.3580296864390871
 30
0.0
 11
0.3906739584388539
 21
6.3798182362986839
 31
0.0
  0
LINE
  5
167
100
AcDbEntity
100
AcDbLine
  8
color#fdfdfdfd
 62
256
370
-1
  6
BYLAYER
 10
0.3906739584388539
 20
6.3798182362986839
 30
0.0
 11
0.4006933299230652
 21
6.4013053476656445
 31
0.0
  0
LINE
  5
168
100
AcDbEntity
100
AcDbLine
  8
color#fdfdfdfd
 62
256
370
-1
  6
BYLAYER
 10
0.4006933299230652
 20
6.4013053476656445
 30
0.0
 11
0.4113539071830272
 21
6.4224769137912494
 31
0.0
  0
LINE
  5
169
100
AcDbEntity
100
AcDbLine
  8
color#fdfdfdfd
 62
256
370
-1
  6
BYLAYER
 10
0.4113539071830272
 20
6.4224769137912494
 30
0.0
 11
0.4226414730471532
 21
6.443318827926781
 31
0.0
  0
LINE
  5
16A
100
AcDbEntity
100
AcDbLine
  8
color#fdfdfdfd
 62
256
370
-1
  6
BYLAYER
 10
0.4226414730471532
 20
6.443318827926781
 30
0.0
 11
0.4345418103438551
 21
6.4638169833235182
 31
0.0
  0
LINE
  5
16B
100
AcDbEntity
100
AcDbLine
  8
color#fdfdfdfd
 62
256
370
-1
  6
BYLAYER
 10
0.4345418103438551
 20
6.4638169833235182
 30
0.0
 11
0.4470407019015456
 21
6.4839572732327433
 31
0.0
  0
LINE
  5
16C
100
AcDbEntity
100
AcDbLine
  8
color#fdfdfdfd
 62
256
370
-1
  6
BYLAYER
 10
0.4470407019015456
 20
6.4839572732327433
 30
0.0
 11
0.4601239305486375
 21
6.5037255909057361
 31
0.0
  0
LINE
  5
16D
100
AcDbEntity
100
AcDbLine
  8
color#fdfdfdfd
 62
256
370
-1
  6
BYLAYER
 10
0.4601239305486375
 20
6.5037255909057361
 30
0.0
 11
0.4737772791135431
 21
6.523107829593779
 31
0.0
  0
LINE
  5
16E
100
AcDbEntity
100
AcDbLine
  8
color#fdfdfdfd
 62
256
370
-1
  6
BYLAYER
 10
0.4737772791135431
 20
6.523107829593779
 30
0.0
 11
0.4879865304246748
 21
6.5420898825481508
 31
0.0
  0
LINE
  5
16F
100
AcDbEntity
100
AcDbLine
  8
color#fdfdfdfd
 62
256
370
-1
  6
BYLAYER
 10
0.4879865304246748
 20
6.5420898825481508
 30
0.0
 11
0.5027374673104457
 21
6.5606576430201322
 31
0.0
  0
LINE
  5
170
100
AcDbEntity
100
AcDbLine
  8
color#fdfdfdfd
 62
256
370
-1
  6
BYLAYER
 10
0.5027374673104457
 20
6.5606576430201322
 30
0.0
 11
0.5180158725992675
 21
6.5787970042610064
 31
0.0
  0
LINE
  5
171
100
AcDbEntity
100
AcDbLine
  8
color#fdfdfdfd
 62
256
370
-1
  6
BYLAYER
 10
0.5180158725992675
 20
6.5787970042610064
 30
0.0
 11
0.5338075291195534
 21
6.5964938595220524
 31
0.0
  0
LINE
  5
172
100
AcDbEntity
100
AcDbLine
  8
color#fdfdfdfd
 62
256
370
-1
  6
BYLAYER
 10
0.5338075291195534
 20
6.5964938595220524
 30
0.0
 11
0.5500982196997158
 21
6.6137341020545506
 31
0.0
  0
LINE
  5
173
100
AcDbEntity
100
AcDbLine
  8
color#fdfdfdfd
 62
256
370
-1
  6
BYLAYER
 10
0.5500982196997158
 20
6.6137341020545506
 30
0.0
 11
0.5668737271681671
 21
6.6305036251097826
 31
0.0
  0
LINE
  5
174
100
AcDbEntity
100
AcDbLine
  8
color#fdfdfdfd
 62
256
370
-1
  6
BYLAYER
 10
0.5668737271681671
 20
6.6305036251097826
 30
0.0
 11
0.5841198343533199
 21
6.6467883219390291
 31
0.0
  0
LINE
  5
175
100
AcDbEntity
100
AcDbLine
  8
color#fdfdfdfd
 62
256
370
-1
  6
BYLAYER
 10
0.5841198343533199
 20
6.6467883219390291
 30
0.0
 11
0.6018223240835867
 21
6.6625740857935716
 31
0.0
  0
LINE
  5
176
100
AcDbEntity
100
AcDbLine
  8
color#fdfdfdfd
 62
256
370
-1
  6
BYLAYER
 10
0.6018223240835867
 20
6.6625740857935716
 30
0.0
 11
0.6199669791873803
 21
6.6778468099246897
 31
0.0
  0
LINE
  5
177
100
AcDbEntity
100
AcDbLine
  8
color#fdfdfdfd
 62
256
370
-1
  6
BYLAYER
 10
0.6199669791873803
 20
6.6778468099246897
 30
0.0
 11
0.638539582493113
 21
6.6925923875836641
 31
0.0
  0
LINE
  5
178
100
AcDbEntity
100
AcDbLine
  8
color#fdfdfdfd
 62
256
370
-1
  6
BYLAYER
 10
0.638539582493113
 20
6.6925923875836641
 30
0.0
 11
0.6575259168291974
 21
6.7067967120217773
 31
0.0
  0
LINE
  5
179
100
AcDbEntity
100
AcDbLine
  8
color#fdfdfdfd
 62
256
370
-1
  6
BYLAYER
 10
0.6575259168291974
 20
6.7067967120217773
 30
0.0
 11
0.6769117650240459
 21
6.7204456764903089
 31
0.0
  0
LINE
  5
17A
100
AcDbEntity
100
AcDbLine
  8
color#fdfdfdfd
 62
256
370
-1
  6
BYLAYER
 10
0.6769117650240459
 20
6.7204456764903089
 30
0.0
 11
0.6966829099060712
 21
6.7335251742405386
 31
0.0
  0
LINE
  5
17B
100
AcDbEntity
100
AcDbLine
  8
color#fdfdfdfd
 62
256
370
-1
  6
BYLAYER
 10
0.6966829099060712
 20
6.7335251742405386
 30
0.0
 11
0.7168251343036858
 21
6.7460210985237499
 31
0.0
  0
LINE
  5
17C
100
AcDbEntity
100
AcDbLine
  8
color#fdfdfdfd
 62
256
370
-1
  6
BYLAYER
 10
0.7168251343036858
 20
6.7460210985237499
 30
0.0
 11
0.7373242210453022
 21
6.7579193425912205
 31
0.0
  0
LINE
  5
17D
100
AcDbEntity
100
AcDbLine
  8
color#fdfdfdfd
 62
256
370
-1
  6
BYLAYER
 10
0.7373242210453022
 20
6.7579193425912205
 30
0.0
 11
0.7581659529593329
 21
6.7692057996942339
 31
0.0
  0
LINE
  5
17E
100
AcDbEntity
100
AcDbLine
  8
color#fdfdfdfd
 62
256
370
-1
  6
BYLAYER
 10
0.7581659529593329
 20
6.7692057996942339
 30
0.0
 11
0.7793361128741908
 21
6.7798663630840696
 31
0.0
  0
LINE
  5
17F
100
AcDbEntity
100
AcDbLine
  8
color#fdfdfdfd
 62
256
370
-1
  6
BYLAYER
 10
0.7793361128741908
 20
6.7798663630840696
 30
0.0
 11
0.8008204836182878
 21
6.7898869260120076
 31
0.0
  0
LINE
  5
180
100
AcDbEntity
100
AcDbLine
  8
color#fdfdfdfd
 62
256
370
-1
  6
BYLAYER
 10
0.8008204836182878
 20
6.7898869260120076
 30
0.0
 11
0.822604848020037
 21
6.799253381729331
 31
0.0
  0
LINE
  5
181
100
AcDbEntity
100
AcDbLine
  8
color#fdfdfdfd
 62
256
370
-1
  6
BYLAYER
 10
0.822604848020037
 20
6.799253381729331
 30
0.0
 11
0.8446749889078506
 21
6.8079516234873187
 31
0.0
  0
LINE
  5
182
100
AcDbEntity
100
AcDbLine
  8
color#fdfdfdfd
 62
256
370
-1
  6
BYLAYER
 10
3.1268057199298434
 20
4.4847251657892251
 30
0.0
 11
3.156592319503515
 21
4.4939973644247271
 31
0.0
  0
LINE
  5
183
100
AcDbEntity
100
AcDbLine
  8
color#fdfdfdfd
 62
256
370
-1
  6
BYLAYER
 10
3.156592319503515
 20
4.4939973644247271
 30
0.0
 11
3.1867024972025706
 21
4.5021165788813216
 31
0.0
  0
LINE
  5
184
100
AcDbEntity
100
AcDbLine
  8
color#fdfdfdfd
 62
256
370
-1
  6
BYLAYER
 10
3.1867024972025706
 20
4.5021165788813216
 30
0.0
 11
3.2170921350575004
 21
4.5090744858028478
 31
0.0
  0
LINE
  5
185
100
AcDbEntity
100
AcDbLine
  8
color#fdfdfdfd
 62
256
370
-1
  6
BYLAYER
 10
3.2170921350575004
 20
4.5090744858028478
 30
0.0
 11
3.2477171150987889
 21
4.514862761833152
 31
0.0
  0
LINE
  5
186
100
AcDbEntity
100
AcDbLine
  8
color#fdfdfdfd
 62
256
370
-1
  6
BYLAYER
 10
3.2477171150987889
 20
4.514862761833152
 30
0.0
 11
3.2785333193569266
 21
4.5194730836160755
 31
0.0
  0
LINE
  5
187
100
AcDbEntity
100
AcDbLine
  8
color#fdfdfdfd
 62
256
370
-1
  6
BYLAYER
 10
3.2785333193569266
 20
4.5194730836160755
 30
0.0
 11
3.309496629862402
 21
4.5228971277954599
 31
0.0
  0
LINE
  5
188
100
AcDbEntity
100
AcDbLine
  8
color#fdfdfdfd
 62
256
370
-1
  6
BYLAYER
 10
3.309496629862402
 20
4.5228971277954599
 30
0.0
 11
3.3405629286457001
 21
4.52512657101515
 31
0.0
  0
LINE
  5
189
100
AcDbEntity
100
AcDbLine
  8
color#fdfdfdfd
 62
256
370
-1
  6
BYLAYER
 10
3.3405629286457001
 20
4.52512657101515
 30
0.0
 11
3.3716880977373114
 21
4.5261530899189877
 31
0.0
  0
LINE
  5
18A
100
AcDbEntity
100
AcDbLine
  8
color#fdfdfdfd
 62
256
370
-1
  6
BYLAYER
 10
3.3716880977373114
 20
4.5261530899189877
 30
0.0
 11
3.4028280191677229
 21
4.5259683611508166
 31
0.0
  0
LINE
  5
18B
100
AcDbEntity
100
AcDbLine
  8
color#fdfdfdfd
 62
256
370
-1
  6
BYLAYER
 10
3.4028280191677229
 20
4.5259683611508166
 30
0.0
 11
3.4339385749674229
 21
4.5245640613544769
 31
0.0
  0
LINE
  5
18C
100
AcDbEntity
100
AcDbLine
  8
color#fdfdfdfd
 62
256
370
-1
  6
BYLAYER
 10
3.4339385749674229
 20
4.5245640613544769
 30
0.0
 11
3.4649756471669
 21
4.5219318671738131
 31
0.0
  0
LINE
  5
18D
100
AcDbEntity
100
AcDbLine
  8
color#fdfdfdfd
 62
256
370
-1
  6
BYLAYER
 10
3.4649756471669
 20
4.5219318671738131
 30
0.0
 11
3.4804528400510817
 21
4.5201527086405608
 31
0.0
  0
LINE
  5
18E
100
AcDbEntity
100
AcDbLine
  8
color#fdfdfdfd
 62
256
370
-1
  6
BYLAYER
 10
3.4804528400510817
 20
4.5201527086405608
 30
0.0
 11
3.4958951177966409
 21
4.5180634552526682
 31
0.0
  0
LINE
  5
18F
100
AcDbEntity
100
AcDbLine
  8
color#fdfdfdfd
 62
256
370
-1
  6
BYLAYER
 10
3.4958951177966409
 20
4.5180634552526682
 30
0.0
 11
3.511296965657388
 21
4.5156630665906157
 31
0.0
  0
LINE
  5
190
100
AcDbEntity
100
AcDbLine
  8
color#fdfdfdfd
 62
256
370
-1
  6
BYLAYER
 10
3.511296965657388
 20
4.5156630665906157
 30
0.0
 11
3.526652868887135
 21
4.512950502234883
 31
0.0
  0
LINE
  5
191
100
AcDbEntity
100
AcDbLine
  8
color#fdfdfdfd
 62
256
370
-1
  6
BYLAYER
 10
3.526652868887135
 20
4.512950502234883
 30
0.0
 11
3.5419573127396911
 21
4.5099247217659526
 31
0.0
  0
LINE
  5
192
100
AcDbEntity
100
AcDbLine
  8
color#fdfdfdfd
 62
256
370
-1
  6
BYLAYER
 10
3.5419573127396911
 20
4.5099247217659526
 30
0.0
 11
3.5572047824688684
 21
4.5065846847643032
 31
0.0
  0
LINE
  5
193
100
AcDbEntity
100
AcDbLine
  8
color#fdfdfdfd
 62
256
370
-1
  6
BYLAYER
 10
3.5572047824688684
 20
4.5065846847643032
 30
0.0
 11
3.5723897633284785
 21
4.5029293508104153
 31
0.0
  0
LINE
  5
194
100
AcDbEntity
100
AcDbLine
  8
color#fdfdfdfd
 62
256
370
-1
  6
BYLAYER
 10
3.5723897633284785
 20
4.5029293508104153
 30
0.0
 11
3.7511513351177359
 21
4.4334902913414975
 31
0.0
  0
LINE
  5
195
100
AcDbEntity
100
AcDbLine
  8
color#fdfdfdfd
 62
256
370
-1
  6
BYLAYER
 10
3.7511513351177359
 20
4.4334902913414975
 30
0.0
 11
3.7833687073988154
 21
4.4103448603914206
 31
0.0
  0
LINE
  5
196
100
AcDbEntity
100
AcDbLine
  8
color#fdfdfdfd
 62
256
370
-1
  6
BYLAYER
 10
3.7833687073988154
 20
4.4103448603914206
 30
0.0
 11
3.8150819988066877
 21
4.38658716379231
 31
0.0
  0
LINE
  5
197
100
AcDbEntity
100
AcDbLine
  8
color#fdfdfdfd
 62
256
370
-1
  6
BYLAYER
 10
3.8150819988066877
 20
4.38658716379231
 30
0.0
 11
3.8463201497787014
 21
4.3622524216576659
 31
0.0
  0
LINE
  5
198
100
AcDbEntity
100
AcDbLine
  8
color#fdfdfdfd
 62
256
370
-1
  6
BYLAYER
 10
3.8463201497787014
 20
4.3622524216576659
 30
0.0
 11
3.8771121007522007
 21
4.3373758541009915
 31
0.0
  0
LINE
  5
199
100
AcDbEntity
100
AcDbLine
  8
color#fdfdfdfd
 62
256
370
-1
  6
BYLAYER
 10
3.8771121007522007
 20
4.3373758541009915
 30
0.0
 11
3.9074867921645353
 21
4.3119926812357869
 31
0.0
  0
LINE
  5
19A
100
AcDbEntity
100
AcDbLine
  8
color#fdfdfdfd
 62
256
370
-1
  6
BYLAYER
 10
3.9074867921645353
 20
4.3119926812357869
 30
0.0
 11
3.9374731644530518
 21
4.2861381231755562
 31
0.0
  0
LINE
  5
19B
100
AcDbEntity
100
AcDbLine
  8
color#fdfdfdfd
 62
256
370
-1
  6
BYLAYER
 10
3.9374731644530518
 20
4.2861381231755562
 30
0.0
 11
3.9671001580550964
 21
4.2598474000338014
 31
0.0
  0
LINE
  5
19C
100
AcDbEntity
100
AcDbLine
  8
color#fdfdfdfd
 62
256
370
-1
  6
BYLAYER
 10
3.9671001580550964
 20
4.2598474000338014
 30
0.0
 11
3.9963967134080196
 21
4.2331557319240209
 31
0.0
  0
LINE
  5
19D
100
AcDbEntity
100
AcDbLine
  8
color#fdfdfdfd
 62
256
370
-1
  6
BYLAYER
 10
3.9963967134080196
 20
4.2331557319240209
 30
0.0
 11
4.0253917709491667
 21
4.2060983389597197
 31
0.0
  0
LINE
  5
19E
100
AcDbEntity
100
AcDbLine
  8
color#fdfdfdfd
 62
256
370
-1
  6
BYLAYER
 10
4.0253917709491667
 20
4.2060983389597197
 30
0.0
 11
4.054114271115882
 21
4.1787104412544007
 31
0.0
  0
LINE
  5
19F
100
AcDbEntity
100
AcDbLine
  8
color#fdfdfdfd
 62
256
370
-1
  6
BYLAYER
 10
4.054114271115882
 20
4.1787104412544007
 30
0.0
 11
4.0825931543455178
 21
4.1510272589215633
 31
0.0
  0
LINE
  5
1A0
100
AcDbEntity
100
AcDbLine
  8
color#fdfdfdfd
 62
256
370
-1
  6
BYLAYER
 10
4.0825931543455178
 20
4.1510272589215633
 30
0.0
 11
4.1389358317429332
 21
4.0949159208273453
 31
0.0
  0
LINE
  5
1A1
100
AcDbEntity
100
AcDbLine
  8
color#fdfdfdfd
 62
256
370
-1
  6
BYLAYER
 10
4.1389358317429332
 20
4.0949159208273453
 30
0.0
 11
4.3603499513187813
 21
3.8657032060501777
 31
0.0
  0
LINE
  5
1A2
100
AcDbEntity
100
AcDbLine
  8
color#fdfdfdfd
 62
256
370
-1
  6
BYLAYER
 10
4.3603499513187813
 20
3.8657032060501777
 30
0.0
 11
4.4438173940493568
 21
3.780300139134007
 31
0.0
  0
LINE
  5
1A3
100
AcDbEntity
100
AcDbLine
  8
color#fdfdfdfd
 62
256
370
-1
  6
BYLAYER
 10
4.4438173940493568
 20
3.780300139134007
 30
0.0
 11
4.5002218677363963
 21
3.7242950458082742
 31
0.0
  0
LINE
  5
1A4
100
AcDbEntity
100
AcDbLine
  8
color#fdfdfdfd
 62
256
370
-1
  6
BYLAYER
 10
4.5002218677363963
 20
3.7242950458082742
 30
0.0
 11
4.5287387794519542
 21
3.6966772448714287
 31
0.0
  0
LINE
  5
1A5
100
AcDbEntity
100
AcDbLine
  8
color#fdfdfdfd
 62
256
370
-1
  6
BYLAYER
 10
4.5287387794519542
 20
3.6966772448714287
 30
0.0
 11
4.5575040616653339
 21
3.6693629012365978
 31
0.0
  0
LINE
  5
1A6
100
AcDbEntity
100
AcDbLine
  8
color#fdfdfdfd
 62
256
370
-1
  6
BYLAYER
 10
4.5575040616653339
 20
3.6693629012365978
 30
0.0
 11
4.5865466548138834
 21
3.6423872350172863
 31
0.0
  0
LINE
  5
1A7
100
AcDbEntity
100
AcDbLine
  8
color#fdfdfdfd
 62
256
370
-1
  6
BYLAYER
 10
4.5865466548138834
 20
3.6423872350172863
 30
0.0
 11
4.6144799738955546
 21
3.6166275997867023
 31
0.0
  0
LINE
  5
1A8
100
AcDbEntity
100
AcDbLine
  8
color#fdfdfdfd
 62
256
370
-1
  6
BYLAYER
 10
4.6144799738955546
 20
3.6166275997867023
 30
0.0
 11
4.6408998116327105
 21
3.5895163836691668
 31
0.0
  0
LINE
  5
1A9
100
AcDbEntity
100
AcDbLine
  8
color#fdfdfdfd
 62
256
370
-1
  6
BYLAYER
 10
4.6408998116327105
 20
3.5895163836691668
 30
0.0
 11
4.6657908527523535
 21
3.5611362408237017
 31
0.0
  0
LINE
  5
1AA
100
AcDbEntity
100
AcDbLine
  8
color#fdfdfdfd
 62
256
370
-1
  6
BYLAYER
 10
4.6657908527523535
 20
3.5611362408237017
 30
0.0
 11
4.6891377819814801
 21
3.5315698254093357
 31
0.0
  0
LINE
  5
1AB
100
AcDbEntity
100
AcDbLine
  8
color#fdfdfdfd
 62
256
370
-1
  6
BYLAYER
 10
4.6891377819814801
 20
3.5315698254093357
 30
0.0
 11
4.7109252840470948
 21
3.5008997915850921
 31
0.0
  0
LINE
  5
1AC
100
AcDbEntity
100
AcDbLine
  8
color#fdfdfdfd
 62
256
370
-1
  6
BYLAYER
 10
4.7109252840470948
 20
3.5008997915850921
 30
0.0
 11
4.7311380436761921
 21
3.4692087935099991
 31
0.0
  0
LINE
  5
1AD
100
AcDbEntity
100
AcDbLine
  8
color#fdfdfdfd
 62
256
370
-1
  6
BYLAYER
 10
4.7311380436761921
 20
3.4692087935099991
 30
0.0
 11
4.7497607455957693
 21
3.4365794853430822
 31
0.0
  0
LINE
  5
1AE
100
AcDbEntity
100
AcDbLine
  8
color#fdfdfdfd
 62
256
370
-1
  6
BYLAYER
 10
4.7497607455957693
 20
3.4365794853430822
 30
0.0
 11
4.7667780745328345
 21
3.4030945212433656
 31
0.0
  0
LINE
  5
1AF
100
AcDbEntity
100
AcDbLine
  8
color#fdfdfdfd
 62
256
370
-1
  6
BYLAYER
 10
4.7667780745328345
 20
3.4030945212433656
 30
0.0
 11
4.7821747152143805
 21
3.3688365553698785
 31
0.0
  0
LINE
  5
1B0
100
AcDbEntity
100
AcDbLine
  8
color#fdfdfdfd
 62
256
370
-1
  6
BYLAYER
 10
4.7821747152143805
 20
3.3688365553698785
 30
0.0
 11
4.7959353523674064
 21
3.3338882418816453
 31
0.0
  0
LINE
  5
1B1
100
AcDbEntity
100
AcDbLine
  8
color#fdfdfdfd
 62
256
370
-1
  6
BYLAYER
 10
4.7959353523674064
 20
3.3338882418816453
 30
0.0
 11
4.8080446707189148
 21
3.2983322349376913
 31
0.0
  0
LINE
  5
1B2
100
AcDbEntity
100
AcDbLine
  8
color#fdfdfdfd
 62
256
370
-1
  6
BYLAYER
 10
4.8080446707189148
 20
3.2983322349376913
 30
0.0
 11
4.8184873549959049
 21
3.2622511886970411
 31
0.0
  0
LINE
  5
1B3
100
AcDbEntity
100
AcDbLine
  8
color#fdfdfdfd
 62
256
370
-1
  6
BYLAYER
 10
4.8184873549959049
 20
3.2622511886970411
 30
0.0
 11
4.8272480899253729
 21
3.2257277573187255
 31
0.0
  0
LINE
  5
1B4
100
AcDbEntity
100
AcDbLine
  8
color#fdfdfdfd
 62
256
370
-1
  6
BYLAYER
 10
4.8272480899253729
 20
3.2257277573187255
 30
0.0
 11
4.8343115602343207
 21
3.1888445949617656
 31
0.0
  0
LINE
  5
1B5
100
AcDbEntity
100
AcDbLine
  8
color#fdfdfdfd
 62
256
370
-1
  6
BYLAYER
 10
4.8343115602343207
 20
3.1888445949617656
 30
0.0
 11
4.8396624506497465
 21
3.1516843557851897
 31
0.0
  0
LINE
  5
1B6
100
AcDbEntity
100
AcDbLine
  8
color#fdfdfdfd
 62
256
370
-1
  6
BYLAYER
 10
4.8396624506497465
 20
3.1516843557851897
 30
0.0
 11
4.8432854458986521
 21
3.1143296939480232
 31
0.0
  0
LINE
  5
1B7
100
AcDbEntity
100
AcDbLine
  8
color#fdfdfdfd
 62
256
370
-1
  6
BYLAYER
 10
4.8432854458986521
 20
3.1143296939480232
 30
0.0
 11
4.8451652307080328
 21
3.0768632636092921
 31
0.0
  0
LINE
  5
1B8
100
AcDbEntity
100
AcDbLine
  8
color#fdfdfdfd
 62
256
370
-1
  6
BYLAYER
 10
4.8451652307080328
 20
3.0768632636092921
 30
0.0
 11
4.8452864898048915
 21
3.0393677189280215
 31
0.0
  0
LINE
  5
1B9
100
AcDbEntity
100
AcDbLine
  8
color#fdfdfdfd
 62
256
370
-1
  6
BYLAYER
 10
4.8452864898048915
 20
3.0393677189280215
 30
0.0
 11
4.8436339079162272
 21
3.0019257140632383
 31
0.0
  0
LINE
  5
1BA
100
AcDbEntity
100
AcDbLine
  8
color#fdfdfdfd
 62
256
370
-1
  6
BYLAYER
 10
4.8436339079162272
 20
3.0019257140632383
 30
0.0
 11
4.840192169769038
 21
2.9646199031739684
 31
0.0
  0
LINE
  5
1BB
100
AcDbEntity
100
AcDbLine
  8
color#fdfdfdfd
 62
256
370
-1
  6
BYLAYER
 10
4.840192169769038
 20
2.9646199031739684
 30
0.0
 11
4.8349459600903248
 21
2.9275329404192383
 31
0.0
  0
LINE
  5
1BC
100
AcDbEntity
100
AcDbLine
  8
color#fdfdfdfd
 62
256
370
-1
  6
BYLAYER
 10
4.8349459600903248
 20
2.9275329404192383
 30
0.0
 11
4.8278799636070859
 21
2.8907474799580717
 31
0.0
  0
LINE
  5
1BD
100
AcDbEntity
100
AcDbLine
  8
color#fdfdfdfd
 62
256
370
-1
  6
BYLAYER
 10
4.8278799636070859
 20
2.8907474799580717
 30
0.0
 11
4.8189788650463203
 21
2.8543461759494968
 31
0.0
  0
LINE
  5
1BE
100
AcDbEntity
100
AcDbLine
  8
color#fdfdfdfd
 62
256
370
-1
  6
BYLAYER
 10
4.8189788650463203
 20
2.8543461759494968
 30
0.0
 11
4.808227349135028
 21
2.8184116825525396
 31
0.0
  0
LINE
  5
1BF
100
AcDbEntity
100
AcDbLine
  8
color#fdfdfdfd
 62
256
370
-1
  6
BYLAYER
 10
4.808227349135028
 20
2.8184116825525396
 30
0.0
 11
4.7956101006002099
 21
2.7830266539262261
 31
0.0
  0
LINE
  5
1C0
100
AcDbEntity
100
AcDbLine
  8
color#fdfdfdfd
 62
256
370
-1
  6
BYLAYER
 10
4.7956101006002099
 20
2.7830266539262261
 30
0.0
 11
4.7811118041688623
 21
2.7482737442295795
 31
0.0
  0
LINE
  5
1C1
100
AcDbEntity
100
AcDbLine
  8
color#fdfdfdfd
 62
256
370
-1
  6
BYLAYER
 10
4.7811118041688623
 20
2.7482737442295795
 30
0.0
 11
4.764717144567987
 21
2.7142356076216285
 31
0.0
  0
LINE
  5
1C2
100
AcDbEntity
100
AcDbLine
  8
color#fdfdfdfd
 62
256
370
-1
  6
BYLAYER
 10
4.764717144567987
 20
2.7142356076216285
 30
0.0
 11
4.7464108065245831
 21
2.6809948982613983
 31
0.0
  0
LINE
  5
1C3
100
AcDbEntity
100
AcDbLine
  8
color#fdfdfdfd
 62
256
370
-1
  6
BYLAYER
 10
4.7464108065245831
 20
2.6809948982613983
 30
0.0
 11
4.726177474765648
 21
2.6486342703079142
 31
0.0
  0
LINE
  5
1C4
100
AcDbEntity
100
AcDbLine
  8
color#fdfdfdfd
 62
256
370
-1
  6
BYLAYER
 10
4.726177474765648
 20
2.6486342703079142
 30
0.0
 11
4.6792550787246148
 21
2.5828930280497895
 31
0.0
  0
LINE
  5
1C5
100
AcDbEntity
100
AcDbLine
  8
color#fdfdfdfd
 62
256
370
-1
  6
BYLAYER
 10
4.6792550787246148
 20
2.5828930280497895
 30
0.0
 11
4.6333814938733004
 21
2.529135565791039
 31
0.0
  0
LINE
  5
1C6
100
AcDbEntity
100
AcDbLine
  8
color#fdfdfdfd
 62
256
370
-1
  6
BYLAYER
 10
4.6333814938733004
 20
2.529135565791039
 30
0.0
 11
4.5904719963915817
 21
2.4864231936168064
 31
0.0
  0
LINE
  5
1C7
100
AcDbEntity
100
AcDbLine
  8
color#fdfdfdfd
 62
256
370
-1
  6
BYLAYER
 10
4.5904719963915817
 20
2.4864231936168064
 30
0.0
 11
4.5521763366809873
 21
2.4535457773343694
 31
0.0
  0
LINE
  5
1C8
100
AcDbEntity
100
AcDbLine
  8
color#fdfdfdfd
 62
256
370
-1
  6
BYLAYER
 10
4.5521763366809873
 20
2.4535457773343694
 30
0.0
 11
4.5280892392799252
 21
2.4351210539253794
 31
0.0
  0
LINE
  5
1C9
100
AcDbEntity
100
AcDbLine
  8
color#fdfdfdfd
 62
256
370
-1
  6
BYLAYER
 10
4.5280892392799252
 20
2.4351210539253794
 30
0.0
 11
4.2827039657594774
 21
2.6790683783527225
 31
0.0
  0
LINE
  5
1CA
100
AcDbEntity
100
AcDbLine
  8
color#fdfdfdfd
 62
256
370
-1
  6
BYLAYER
 10
4.2827039657594774
 20
2.6790683783527225
 30
0.0
 11
4.2834932706918174
 21
2.6961508966090455
 31
0.0
  0
LINE
  5
1CB
100
AcDbEntity
100
AcDbLine
  8
color#fdfdfdfd
 62
256
370
-1
  6
BYLAYER
 10
4.2834932706918174
 20
2.6961508966090455
 30
0.0
 11
4.3063726830924454
 21
2.7109056896166135
 31
0.0
  0
LINE
  5
1CC
100
AcDbEntity
100
AcDbLine
  8
color#fdfdfdfd
 62
256
370
-1
  6
BYLAYER
 10
4.3063726830924454
 20
2.7109056896166135
 30
0.0
 11
4.3282971548149121
 21
2.7270613709376104
 31
0.0
  0
LINE
  5
1CD
100
AcDbEntity
100
AcDbLine
  8
color#fdfdfdfd
 62
256
370
-1
  6
BYLAYER
 10
4.3282971548149121
 20
2.7270613709376104
 30
0.0
 11
4.3491901937119231
 21
2.7445431528864939
 31
0.0
  0
LINE
  5
1CE
100
AcDbEntity
100
AcDbLine
  8
color#fdfdfdfd
 62
256
370
-1
  6
BYLAYER
 10
4.3491901937119231
 20
2.7445431528864939
 30
0.0
 11
4.3689753076361839
 21
2.7632762477777248
 31
0.0
  0
LINE
  5
1CF
100
AcDbEntity
100
AcDbLine
  8
color#fdfdfdfd
 62
256
370
-1
  6
BYLAYER
 10
4.3689753076361839
 20
2.7632762477777248
 30
0.0
 11
4.3875760044404011
 21
2.7831858679257633
 31
0.0
  0
LINE
  5
1D0
100
AcDbEntity
100
AcDbLine
  8
color#fdfdfdfd
 62
256
370
-1
  6
BYLAYER
 10
4.3875760044404011
 20
2.7831858679257633
 30
0.0
 11
4.4049157919772828
 21
2.8041972256450673
 31
0.0
  0
LINE
  5
1D1
100
AcDbEntity
100
AcDbLine
  8
color#fdfdfdfd
 62
256
370
-1
  6
BYLAYER
 10
4.4049157919772828
 20
2.8041972256450673
 30
0.0
 11
4.4209181780995346
 21
2.826235533250097
 31
0.0
  0
LINE
  5
1D2
100
AcDbEntity
100
AcDbLine
  8
color#fdfdfdfd
 62
256
370
-1
  6
BYLAYER
 10
4.4209181780995346
 20
2.826235533250097
 30
0.0
 11
4.4355066706598629
 21
2.8492260030553132
 31
0.0
  0
LINE
  5
1D3
100
AcDbEntity
100
AcDbLine
  8
color#fdfdfdfd
 62
256
370
-1
  6
BYLAYER
 10
4.4355066706598629
 20
2.8492260030553132
 30
0.0
 11
4.4486047775109743
 21
2.8730938473751735
 31
0.0
  0
LINE
  5
1D4
100
AcDbEntity
100
AcDbLine
  8
color#fdfdfdfd
 62
256
370
-1
  6
BYLAYER
 10
4.4486047775109743
 20
2.8730938473751735
 30
0.0
 11
4.4564710827844749
 21
2.8894562416839369
 31
0.0
  0
LINE
  5
1D5
100
AcDbEntity
100
AcDbLine
  8
color#fdfdfdfd
 62
256
370
-1
  6
BYLAYER
 10
4.4564710827844749
 20
2.8894562416839369
 30
0.0
 11
4.4759430797096842
 21
2.9416577794143186
 31
0.0
  0
LINE
  5
1D6
100
AcDbEntity
100
AcDbLine
  8
color#fdfdfdfd
 62
256
370
-1
  6
BYLAYER
 10
4.4759430797096842
 20
2.9416577794143186
 30
0.0
 11
4.4891947370969074
 21
2.9970390233221877
 31
0.0
  0
LINE
  5
1D7
100
AcDbEntity
100
AcDbLine
  8
color#fdfdfdfd
 62
256
370
-1
  6
BYLAYER
 10
4.4891947370969074
 20
2.9970390233221877
 30
0.0
 11
4.4891418856488672
 21
3.1280041144753046
 31
0.0
  0
LINE
  5
1D8
100
AcDbEntity
100
AcDbLine
  8
color#fdfdfdfd
 62
256
370
-1
  6
BYLAYER
 10
4.4891418856488672
 20
3.1280041144753046
 30
0.0
 11
4.4757724114177764
 21
3.1829514084789778
 31
0.0
  0
LINE
  5
1D9
100
AcDbEntity
100
AcDbLine
  8
color#fdfdfdfd
 62
256
370
-1
  6
BYLAYER
 10
4.4757724114177764
 20
3.1829514084789778
 30
0.0
 11
4.4560771244477788
 21
3.2353627480546638
 31
0.0
  0
LINE
  5
1DA
100
AcDbEntity
100
AcDbLine
  8
color#fdfdfdfd
 62
256
370
-1
  6
BYLAYER
 10
4.4560771244477788
 20
3.2353627480546638
 30
0.0
 11
4.4390940672174999
 21
3.2601353620108489
 31
0.0
  0
LINE
  5
1DB
100
AcDbEntity
100
AcDbLine
  8
color#fdfdfdfd
 62
256
370
-1
  6
BYLAYER
 10
4.4390940672174999
 20
3.2601353620108489
 30
0.0
 11
4.421568046430961
 21
3.2844875493058954
 31
0.0
  0
LINE
  5
1DC
100
AcDbEntity
100
AcDbLine
  8
color#fdfdfdfd
 62
256
370
-1
  6
BYLAYER
 10
4.421568046430961
 20
3.2844875493058954
 30
0.0
 11
4.4035302837561776
 21
3.308443384063819
 31
0.0
  0
LINE
  5
1DD
100
AcDbEntity
100
AcDbLine
  8
color#fdfdfdfd
 62
256
370
-1
  6
BYLAYER
 10
4.4035302837561776
 20
3.308443384063819
 30
0.0
 11
4.3850120008611562
 21
3.332026940408642
 31
0.0
  0
LINE
  5
1DE
100
AcDbEntity
100
AcDbLine
  8
color#fdfdfdfd
 62
256
370
-1
  6
BYLAYER
 10
4.3850120008611562
 20
3.332026940408642
 30
0.0
 11
4.3660444194139147
 21
3.3552622924643791
 31
0.0
  0
LINE
  5
1DF
100
AcDbEntity
100
AcDbLine
  8
color#fdfdfdfd
 62
256
370
-1
  6
BYLAYER
 10
4.3660444194139147
 20
3.3552622924643791
 30
0.0
 11
4.3466587610824581
 21
3.3781735143550509
 31
0.0
  0
LINE
  5
1E0
100
AcDbEntity
100
AcDbLine
  8
color#fdfdfdfd
 62
256
370
-1
  6
BYLAYER
 10
4.3466587610824581
 20
3.3781735143550509
 30
0.0
 11
4.3268862475347971
 21
3.4007846802046768
 31
0.0
  0
LINE
  5
1E1
100
AcDbEntity
100
AcDbLine
  8
color#fdfdfdfd
 62
256
370
-1
  6
BYLAYER
 10
4.3268862475347971
 20
3.4007846802046768
 30
0.0
 11
4.3067581004389464
 21
3.4231198641372718
 31
0.0
  0
LINE
  5
1E2
100
AcDbEntity
100
AcDbLine
  8
color#fdfdfdfd
 62
256
370
-1
  6
BYLAYER
 10
4.3067581004389464
 20
3.4231198641372718
 30
0.0
 11
4.2863055414629159
 21
3.4452031402768566
 31
0.0
  0
LINE
  5
1E3
100
AcDbEntity
100
AcDbLine
  8
color#fdfdfdfd
 62
256
370
-1
  6
BYLAYER
 10
4.2863055414629159
 20
3.4452031402768566
 30
0.0
 11
4.2655597922747148
 21
3.4670585827474514
 31
0.0
  0
LINE
  5
1E4
100
AcDbEntity
100
AcDbLine
  8
color#fdfdfdfd
 62
256
370
-1
  6
BYLAYER
 10
4.2655597922747148
 20
3.4670585827474514
 30
0.0
 11
4.2233136099338484
 21
3.5101822631777364
 31
0.0
  0
LINE
  5
1E5
100
AcDbEntity
100
AcDbLine
  8
color#fdfdfdfd
 62
256
370
-1
  6
BYLAYER
 10
4.2233136099338484
 20
3.5101822631777364
 30
0.0
 11
4.1366767160985631
 21
3.5947548814672223
 31
0.0
  0
LINE
  5
1E6
100
AcDbEntity
100
AcDbLine
  8
color#fdfdfdfd
 62
256
370
-1
  6
BYLAYER
 10
4.1366767160985631
 20
3.5947548814672223
 30
0.0
 11
3.961818465448244
 21
3.7625937515419801
 31
0.0
  0
LINE
  5
1E7
100
AcDbEntity
100
AcDbLine
  8
color#fdfdfdfd
 62
256
370
-1
  6
BYLAYER
 10
3.961818465448244
 20
3.7625937515419801
 30
0.0
 11
3.9192308175053956
 21
3.8054047684931556
 31
0.0
  0
LINE
  5
1E8
100
AcDbEntity
100
AcDbLine
  8
color#fdfdfdfd
 62
256
370
-1
  6
BYLAYER
 10
3.9192308175053956
 20
3.8054047684931556
 30
0.0
 11
3.89827774991599
 21
3.8270703795657175
 31
0.0
  0
LINE
  5
1E9
100
AcDbEntity
100
AcDbLine
  8
color#fdfdfdfd
 62
256
370
-1
  6
BYLAYER
 10
3.89827774991599
 20
3.8270703795657175
 30
0.0
 11
3.8775934821386135
 21
3.8489414912016207
 31
0.0
  0
LINE
  5
1EA
100
AcDbEntity
100
AcDbLine
  8
color#fdfdfdfd
 62
256
370
-1
  6
BYLAYER
 10
3.8775934821386135
 20
3.8489414912016207
 30
0.0
 11
3.8572092358412764
 21
3.8710421775248829
 31
0.0
  0
LINE
  5
1EB
100
AcDbEntity
100
AcDbLine
  8
color#fdfdfdfd
 62
256
370
-1
  6
BYLAYER
 10
3.8572092358412764
 20
3.8710421775248829
 30
0.0
 11
3.7558104454690033
 21
3.9736572807584074
 31
0.0
  0
LINE
  5
1EC
100
AcDbEntity
100
AcDbLine
  8
color#fdfdfdfd
 62
256
370
-1
  6
BYLAYER
 10
3.7558104454690033
 20
3.9736572807584074
 30
0.0
 11
3.694509094539085
 21
4.0350562164248869
 31
0.0
  0
LINE
  5
1ED
100
AcDbEntity
100
AcDbLine
  8
color#fdfdfdfd
 62
256
370
-1
  6
BYLAYER
 10
3.694509094539085
 20
4.0350562164248869
 30
0.0
 11
3.6733084079143348
 21
4.0545447689938543
 31
0.0
  0
LINE
  5
1EE
100
AcDbEntity
100
AcDbLine
  8
color#fdfdfdfd
 62
256
370
-1
  6
BYLAYER
 10
3.6733084079143348
 20
4.0545447689938543
 30
0.0
 11
3.6515326336330238
 21
4.0732807183081929
 31
0.0
  0
LINE
  5
1EF
100
AcDbEntity
100
AcDbLine
  8
color#fdfdfdfd
 62
256
370
-1
  6
BYLAYER
 10
3.6515326336330238
 20
4.0732807183081929
 30
0.0
 11
3.6290667899956497
 21
4.0911058302110819
 31
0.0
  0
LINE
  5
1F0
100
AcDbEntity
100
AcDbLine
  8
color#fdfdfdfd
 62
256
370
-1
  6
BYLAYER
 10
3.6290667899956497
 20
4.0911058302110819
 30
0.0
 11
3.6175391603873441
 21
4.0996273739592271
 31
0.0
  0
LINE
  5
1F1
100
AcDbEntity
100
AcDbLine
  8
color#fdfdfdfd
 62
256
370
-1
  6
BYLAYER
 10
3.6175391603873441
 20
4.0996273739592271
 30
0.0
 11
3.6057958953027094
 21
4.1078618705457028
 31
0.0
  0
LINE
  5
1F2
100
AcDbEntity
100
AcDbLine
  8
color#fdfdfdfd
 62
256
370
-1
  6
BYLAYER
 10
3.6057958953027094
 20
4.1078618705457028
 30
0.0
 11
3.5938226220293075
 21
4.1157895407009066
 31
0.0
  0
LINE
  5
1F3
100
AcDbEntity
100
AcDbLine
  8
color#fdfdfdfd
 62
256
370
-1
  6
BYLAYER
 10
3.5938226220293075
 20
4.1157895407009066
 30
0.0
 11
3.5816049678546995
 21
4.1233906051552349
 31
0.0
  0
LINE
  5
1F4
100
AcDbEntity
100
AcDbLine
  8
color#fdfdfdfd
 62
256
370
-1
  6
BYLAYER
 10
3.5816049678546995
 20
4.1233906051552349
 30
0.0
 11
3.5691285600664489
 21
4.1306452846390869
 31
0.0
  0
LINE
  5
1F5
100
AcDbEntity
100
AcDbLine
  8
color#fdfdfdfd
 62
256
370
-1
  6
BYLAYER
 10
3.5691285600664489
 20
4.1306452846390869
 30
0.0
 11
3.5563790259521166
 21
4.1375337998828581
 31
0.0
  0
LINE
  5
1F6
100
AcDbEntity
100
AcDbLine
  8
color#fdfdfdfd
 62
256
370
-1
  6
BYLAYER
 10
3.5563790259521166
 20
4.1375337998828581
 30
0.0
 11
3.5433419927992662
 21
4.1440363716169486
 31
0.0
  0
LINE
  5
1F7
100
AcDbEntity
100
AcDbLine
  8
color#fdfdfdfd
 62
256
370
-1
  6
BYLAYER
 10
3.5433419927992662
 20
4.1440363716169486
 30
0.0
 11
3.4704895089895427
 21
4.1652506478504367
 31
0.0
  0
LINE
  5
1F8
100
AcDbEntity
100
AcDbLine
  8
color#fdfdfdfd
 62
256
370
-1
  6
BYLAYER
 10
3.4704895089895427
 20
4.1652506478504367
 30
0.0
 11
3.4354868713853786
 21
4.1719450571554546
 31
0.0
  0
LINE
  5
1F9
100
AcDbEntity
100
AcDbLine
  8
color#fdfdfdfd
 62
256
370
-1
  6
BYLAYER
 10
3.4354868713853786
 20
4.1719450571554546
 30
0.0
 11
3.2991128375852279
 21
4.1707791317475484
 31
0.0
  0
LINE
  5
1FA
100
AcDbEntity
100
AcDbLine
  8
color#fdfdfdfd
 62
256
370
-1
  6
BYLAYER
 10
3.2991128375852279
 20
4.1707791317475484
 30
0.0
 11
3.297686543046404
 21
4.164013669597832
 31
0.0
  0
LINE
  5
1FB
100
AcDbEntity
100
AcDbLine
  8
color#fdfdfdfd
 62
256
370
-1
  6
BYLAYER
 10
3.297686543046404
 20
4.164013669597832
 30
0.0
 11
3.2375422632223114
 21
4.1523869428294518
 31
0.0
  0
LINE
  5
1FC
100
AcDbEntity
100
AcDbLine
  8
color#fdfdfdfd
 62
256
370
-1
  6
BYLAYER
 10
3.2375422632223114
 20
4.1523869428294518
 30
0.0
 11
3.2253707787380903
 21
4.1471369608418076
 31
0.0
  0
LINE
  5
1FD
100
AcDbEntity
100
AcDbLine
  8
color#fdfdfdfd
 62
256
370
-1
  6
BYLAYER
 10
3.2253707787380903
 20
4.1471369608418076
 30
0.0
 11
3.2133504193552582
 21
4.1415534903013089
 31
0.0
  0
LINE
  5
1FE
100
AcDbEntity
100
AcDbLine
  8
color#fdfdfdfd
 62
256
370
-1
  6
BYLAYER
 10
3.2133504193552582
 20
4.1415534903013089
 30
0.0
 11
3.2014886243506355
 21
4.1356427095147454
 31
0.0
  0
LINE
  5
1FF
100
AcDbEntity
100
AcDbLine
  8
color#fdfdfdfd
 62
256
370
-1
  6
BYLAYER
 10
3.2014886243506355
 20
4.1356427095147454
 30
0.0
 11
3.1897928330010368
 21
4.1294107967889175
 31
0.0
  0
LINE
  5
200
100
AcDbEntity
100
AcDbLine
  8
color#fdfdfdfd
 62
256
370
-1
  6
BYLAYER
 10
3.1897928330010368
 20
4.1294107967889175
 30
0.0
 11
3.1782704845832814
 21
4.1228639304306194
 31
0.0
  0
LINE
  5
201
100
AcDbEntity
100
AcDbLine
  8
color#fdfdfdfd
 62
256
370
-1
  6
BYLAYER
 10
3.1782704845832814
 20
4.1228639304306194
 30
0.0
 11
3.1669290183741845
 21
4.116008288746646
 31
0.0
  0
LINE
  5
202
100
AcDbEntity
100
AcDbLine
  8
color#fdfdfdfd
 62
256
370
-1
  6
BYLAYER
 10
3.1669290183741845
 20
4.116008288746646
 30
0.0
 11
3.155775873650561
 21
4.1088500500437961
 31
0.0
  0
LINE
  5
203
100
AcDbEntity
100
AcDbLine
  8
color#fdfdfdfd
 62
256
370
-1
  6
BYLAYER
 10
3.155775873650561
 20
4.1088500500437961
 30
0.0
 11
3.1448184896892331
 21
4.1013953926288629
 31
0.0
  0
LINE
  5
204
100
AcDbEntity
100
AcDbLine
  8
color#fdfdfdfd
 62
256
370
-1
  6
BYLAYER
 10
3.1448184896892331
 20
4.1013953926288629
 30
0.0
 11
3.1340643057670126
 21
4.0936504948086423
 31
0.0
  0
LINE
  5
205
100
AcDbEntity
100
AcDbLine
  8
color#fdfdfdfd
 62
256
370
-1
  6
BYLAYER
 10
3.1340643057670126
 20
4.0936504948086423
 30
0.0
 11
3.1235207611607172
 21
4.085621534889933
 31
0.0
  0
LINE
  5
206
100
AcDbEntity
100
AcDbLine
  8
color#fdfdfdfd
 62
256
370
-1
  6
BYLAYER
 10
3.1235207611607172
 20
4.085621534889933
 30
0.0
 11
3.1131952951471651
 21
4.0773146911795273
 31
0.0
  0
LINE
  5
207
100
AcDbEntity
100
AcDbLine
  8
color#fdfdfdfd
 62
256
370
-1
  6
BYLAYER
 10
3.1131952951471651
 20
4.0773146911795273
 30
0.0
 11
3.1030953470031739
 21
4.0687361419842238
 31
0.0
  0
LINE
  5
208
100
AcDbEntity
100
AcDbLine
  8
color#fdfdfdfd
 62
256
370
-1
  6
BYLAYER
 10
3.1030953470031739
 20
4.0687361419842238
 30
0.0
 11
3.0932283560055573
 21
4.0598920656108177
 31
0.0
  0
LINE
  5
209
100
AcDbEntity
100
AcDbLine
  8
color#fdfdfdfd
 62
256
370
-1
  6
BYLAYER
 10
3.0932283560055573
 20
4.0598920656108177
 30
0.0
 11
3.0836017614311348
 21
4.0507886403661058
 31
0.0
  0
LINE
  5
20A
100
AcDbEntity
100
AcDbLine
  8
color#fdfdfdfd
 62
256
370
-1
  6
BYLAYER
 10
3.0836017614311348
 20
4.0507886403661058
 30
0.0
 11
3.0742230025567228
 21
4.0414320445568812
 31
0.0
  0
LINE
  5
20B
100
AcDbEntity
100
AcDbLine
  8
color#fdfdfdfd
 62
256
370
-1
  6
BYLAYER
 10
3.0742230025567228
 20
4.0414320445568812
 30
0.0
 11
3.065099518659137
 21
4.0318284564899436
 31
0.0
  0
LINE
  5
20C
100
AcDbEntity
100
AcDbLine
  8
color#fdfdfdfd
 62
256
370
-1
  6
BYLAYER
 10
3.065099518659137
 20
4.0318284564899436
 30
0.0
 11
3.0562387490151952
 21
4.0219840544720853
 31
0.0
  0
LINE
  5
20D
100
AcDbEntity
100
AcDbLine
  8
color#fdfdfdfd
 62
256
370
-1
  6
BYLAYER
 10
3.0562387490151952
 20
4.0219840544720853
 30
0.0
 11
3.0476481329017142
 21
4.0119050168101049
 31
0.0
  0
LINE
  5
20E
100
AcDbEntity
100
AcDbLine
  8
color#fdfdfdfd
 62
256
370
-1
  6
BYLAYER
 10
3.0476481329017142
 20
4.0119050168101049
 30
0.0
 11
3.0393351095955103
 21
4.0015975218107975
 31
0.0
  0
LINE
  5
20F
100
AcDbEntity
100
AcDbLine
  8
color#fdfdfdfd
 62
256
370
-1
  6
BYLAYER
 10
3.0393351095955103
 20
4.0015975218107975
 30
0.0
 11
3.0313071183734004
 21
3.9910677477809577
 31
0.0
  0
LINE
  5
210
100
AcDbEntity
100
AcDbLine
  8
color#fdfdfdfd
 62
256
370
-1
  6
BYLAYER
 10
3.0313071183734004
 20
3.9910677477809577
 30
0.0
 11
3.0235715985122025
 21
3.9803218730273833
 31
0.0
  0
LINE
  5
211
100
AcDbEntity
100
AcDbLine
  8
color#fdfdfdfd
 62
256
370
-1
  6
BYLAYER
 10
3.0235715985122025
 20
3.9803218730273833
 30
0.0
 11
3.0161359892887316
 21
3.9693660758568701
 31
0.0
  0
LINE
  5
212
100
AcDbEntity
100
AcDbLine
  8
color#fdfdfdfd
 62
256
370
-1
  6
BYLAYER
 10
3.0161359892887316
 20
3.9693660758568701
 30
0.0
 11
3.0090077299798055
 21
3.9582065345762123
 31
0.0
  0
LINE
  5
213
100
AcDbEntity
100
AcDbLine
  8
color#fdfdfdfd
 62
256
370
-1
  6
BYLAYER
 10
3.0090077299798055
 20
3.9582065345762123
 30
0.0
 11
3.0021942598622413
 21
3.9468494274922077
 31
0.0
  0
LINE
  5
214
100
AcDbEntity
100
AcDbLine
  8
color#fdfdfdfd
 62
256
370
-1
  6
BYLAYER
 10
3.0021942598622413
 20
3.9468494274922077
 30
0.0
 11
2.9957030182128546
 21
3.9353009329116517
 31
0.0
  0
LINE
  5
215
100
AcDbEntity
100
AcDbLine
  8
color#fdfdfdfd
 62
256
370
-1
  6
BYLAYER
 10
2.9957030182128546
 20
3.9353009329116517
 30
0.0
 11
2.9895414443084642
 21
3.923567229141339
 31
0.0
  0
LINE
  5
216
100
AcDbEntity
100
AcDbLine
  8
color#fdfdfdfd
 62
256
370
-1
  6
BYLAYER
 10
2.9895414443084642
 20
3.923567229141339
 30
0.0
 11
2.9837169774258854
 21
3.9116544944880687
 31
0.0
  0
LINE
  5
217
100
AcDbEntity
100
AcDbLine
  8
color#fdfdfdfd
 62
256
370
-1
  6
BYLAYER
 10
2.9837169774258854
 20
3.9116544944880687
 30
0.0
 11
2.9782370568419356
 21
3.899568907258633
 31
0.0
  0
LINE
  5
218
100
AcDbEntity
100
AcDbLine
  8
color#fdfdfdfd
 62
256
370
-1
  6
BYLAYER
 10
2.9782370568419356
 20
3.899568907258633
 30
0.0
 11
2.9731091218334305
 21
3.8873166457598298
 31
0.0
  0
LINE
  5
219
100
AcDbEntity
100
AcDbLine
  8
color#fdfdfdfd
 62
256
370
-1
  6
BYLAYER
 10
2.9731091218334305
 20
3.8873166457598298
 30
0.0
 11
2.9550819256764242
 21
3.8215605604320393
 31
0.0
  0
LINE
  5
21A
100
AcDbEntity
100
AcDbLine
  8
color#fdfdfdfd
 62
256
370
-1
  6
BYLAYER
 10
2.9550819256764242
 20
3.8215605604320393
 30
0.0
 11
2.955276441810359
 21
3.6648841865639983
 31
0.0
  0
LINE
  5
21B
100
AcDbEntity
100
AcDbLine
  8
color#fdfdfdfd
 62
256
370
-1
  6
BYLAYER
 10
2.955276441810359
 20
3.6648841865639983
 30
0.0
 11
2.9810151738245878
 21
3.5815811261914439
 31
0.0
  0
LINE
  5
21C
100
AcDbEntity
100
AcDbLine
  8
color#fdfdfdfd
 62
256
370
-1
  6
BYLAYER
 10
2.9810151738245878
 20
3.5815811261914439
 30
0.0
 11
2.9913285167376169
 21
3.5635573592087804
 31
0.0
  0
LINE
  5
21D
100
AcDbEntity
100
AcDbLine
  8
color#fdfdfdfd
 62
256
370
-1
  6
BYLAYER
 10
2.9913285167376169
 20
3.5635573592087804
 30
0.0
 11
3.0021441612046424
 21
3.5459194284580886
 31
0.0
  0
LINE
  5
21E
100
AcDbEntity
100
AcDbLine
  8
color#fdfdfdfd
 62
256
370
-1
  6
BYLAYER
 10
3.0021441612046424
 20
3.5459194284580886
 30
0.0
 11
3.0134345928233599
 21
3.528646482825808
 31
0.0
  0
LINE
  5
21F
100
AcDbEntity
100
AcDbLine
  8
color#fdfdfdfd
 62
256
370
-1
  6
BYLAYER
 10
3.0134345928233599
 20
3.528646482825808
 30
0.0
 11
3.0251722971914581
 21
3.5117176711983862
 31
0.0
  0
LINE
  5
220
100
AcDbEntity
100
AcDbLine
  8
color#fdfdfdfd
 62
256
370
-1
  6
BYLAYER
 10
3.0251722971914581
 20
3.5117176711983862
 30
0.0
 11
3.0373297599066311
 21
3.4951121424622644
 31
0.0
  0
LINE
  5
221
100
AcDbEntity
100
AcDbLine
  8
color#fdfdfdfd
 62
256
370
-1
  6
BYLAYER
 10
3.0373297599066311
 20
3.4951121424622644
 30
0.0
 11
3.0498794665665705
 21
3.4788090455038909
 31
0.0
  0
LINE
  5
222
100
AcDbEntity
100
AcDbLine
  8
color#fdfdfdfd
 62
256
370
-1
  6
BYLAYER
 10
3.0498794665665705
 20
3.4788090455038909
 30
0.0
 11
3.0627939027689672
 21
3.4627875292097108
 31
0.0
  0
LINE
  5
223
100
AcDbEntity
100
AcDbLine
  8
color#fdfdfdfd
 62
256
370
-1
  6
BYLAYER
 10
3.0627939027689672
 20
3.4627875292097108
 30
0.0
 11
3.0760455541115168
 21
3.4470267424661611
 31
0.0
  0
LINE
  5
224
100
AcDbEntity
100
AcDbLine
  8
color#fdfdfdfd
 62
256
370
-1
  6
BYLAYER
 10
3.0760455541115168
 20
3.4470267424661611
 30
0.0
 11
3.0896069061919076
 21
3.4315058341596929
 31
0.0
  0
LINE
  5
225
100
AcDbEntity
100
AcDbLine
  8
color#fdfdfdfd
 62
256
370
-1
  6
BYLAYER
 10
3.0896069061919076
 20
3.4315058341596929
 30
0.0
 11
3.1034504446078324
 21
3.4162039531767507
 31
0.0
  0
LINE
  5
226
100
AcDbEntity
100
AcDbLine
  8
color#fdfdfdfd
 62
256
370
-1
  6
BYLAYER
 10
3.1034504446078324
 20
3.4162039531767507
 30
0.0
 11
3.1318740228370561
 21
3.3861738687272114
 31
0.0
  0
LINE
  5
227
100
AcDbEntity
100
AcDbLine
  8
color#fdfdfdfd
 62
256
370
-1
  6
BYLAYER
 10
3.1318740228370561
 20
3.3861738687272114
 30
0.0
 11
3.1759379276397008
 21
3.3422501691404443
 31
0.0
  0
LINE
  5
228
100
AcDbEntity
100
AcDbLine
  8
color#fdfdfdfd
 62
256
370
-1
  6
BYLAYER
 10
3.1759379276397008
 20
3.3422501691404443
 30
0.0
 11
3.3262560875414722
 21
3.1987802600376449
 31
0.0
  0
LINE
  5
229
100
AcDbEntity
100
AcDbLine
  8
color#fdfdfdfd
 62
256
370
-1
  6
BYLAYER
 10
3.3262560875414722
 20
3.1987802600376449
 30
0.0
 11
3.3553036511789727
 21
3.1693784279304711
 31
0.0
  0
LINE
  5
22A
100
AcDbEntity
100
AcDbLine
  8
color#fdfdfdfd
 62
256
370
-1
  6
BYLAYER
 10
3.3553036511789727
 20
3.1693784279304711
 30
0.0
 11
3.3834989231924397
 21
3.1393514249413883
 31
0.0
  0
LINE
  5
22B
100
AcDbEntity
100
AcDbLine
  8
color#fdfdfdfd
 62
256
370
-1
  6
BYLAYER
 10
3.3834989231924397
 20
3.1393514249413883
 30
0.0
 11
3.3796066701887275
 21
3.1094802934534331
 31
0.0
  0
LINE
  5
22C
100
AcDbEntity
100
AcDbLine
  8
color#fdfdfdfd
 62
256
370
-1
  6
BYLAYER
 10
3.3796066701887262
 20
3.1094802934534349
 30
0.0
 11
3.3508840177703862
 21
3.0210619038755717
 31
0.0
  0
LINE
  5
22D
100
AcDbEntity
100
AcDbLine
  8
color#fdfdfdfd
 62
256
370
-1
  6
BYLAYER
 10
3.3508840177703862
 20
3.0210619038755717
 30
0.0
 11
3.34431287784638
 21
3.0192045877181592
 31
0.0
  0
LINE
  5
22E
100
AcDbEntity
100
AcDbLine
  8
color#fdfdfdfd
 62
256
370
-1
  6
BYLAYER
 10
3.34431287784638
 20
3.0192045877181592
 30
0.0
 11
3.3305998071114638
 21
2.9459860131200042
 31
0.0
  0
LINE
  5
22F
100
AcDbEntity
100
AcDbLine
  8
color#fdfdfdfd
 62
256
370
-1
  6
BYLAYER
 10
3.3305998071114638
 20
2.9459860131200042
 30
0.0
 11
3.3103112145167124
 21
2.7205447077210567
 31
0.0
  0
LINE
  5
230
100
AcDbEntity
100
AcDbLine
  8
color#fdfdfdfd
 62
256
370
-1
  6
BYLAYER
 10
3.3103112145167124
 20
2.7205447077210567
 30
0.0
 11
3.1079352634580562
 21
2.9129470762408292
 31
0.0
  0
LINE
  5
231
100
AcDbEntity
100
AcDbLine
  8
color#fdfdfdfd
 62
256
370
-1
  6
BYLAYER
 10
3.1079352634580562
 20
2.9129470762408292
 30
0.0
 11
2.9952514032635751
 21
3.0210539843347584
 31
0.0
  0
LINE
  5
232
100
AcDbEntity
100
AcDbLine
  8
color#fdfdfdfd
 62
256
370
-1
  6
BYLAYER
 10
2.9952514032635751
 20
3.0210539843347584
 30
0.0
 11
2.9510363990684607
 21
3.065139162297938
 31
0.0
  0
LINE
  5
233
100
AcDbEntity
100
AcDbLine
  8
color#fdfdfdfd
 62
256
370
-1
  6
BYLAYER
 10
2.9510363990684607
 20
3.065139162297938
 30
0.0
 11
2.9076041982432881
 21
3.1098982796215111
 31
0.0
  0
LINE
  5
234
100
AcDbEntity
100
AcDbLine
  8
color#fdfdfdfd
 62
256
370
-1
  6
BYLAYER
 10
2.9076041982432881
 20
3.1098982796215111
 30
0.0
 11
2.8862425260009439
 21
3.1325706821095229
 31
0.0
  0
LINE
  5
235
100
AcDbEntity
100
AcDbLine
  8
color#fdfdfdfd
 62
256
370
-1
  6
BYLAYER
 10
2.8862425260009439
 20
3.1325706821095229
 30
0.0
 11
2.8651496068889033
 21
3.155459709316931
 31
0.0
  0
LINE
  5
236
100
AcDbEntity
100
AcDbLine
  8
color#fdfdfdfd
 62
256
370
-1
  6
BYLAYER
 10
2.8651496068889033
 20
3.155459709316931
 30
0.0
 11
2.84434979166977
 21
3.1785814078701637
 31
0.0
  0
LINE
  5
237
100
AcDbEntity
100
AcDbLine
  8
color#fdfdfdfd
 62
256
370
-1
  6
BYLAYER
 10
2.84434979166977
 20
3.1785814078701637
 30
0.0
 11
2.8238674311061516
 21
3.2019518243956546
 31
0.0
  0
LINE
  5
238
100
AcDbEntity
100
AcDbLine
  8
color#fdfdfdfd
 62
256
370
-1
  6
BYLAYER
 10
2.8238674311061516
 20
3.2019518243956546
 30
0.0
 11
2.8037268759606522
 21
3.2255870055198366
 31
0.0
  0
LINE
  5
239
100
AcDbEntity
100
AcDbLine
  8
color#fdfdfdfd
 62
256
370
-1
  6
BYLAYER
 10
2.8037268759606522
 20
3.2255870055198366
 30
0.0
 11
2.7839524769958777
 21
3.2495029978691417
 31
0.0
  0
LINE
  5
23A
100
AcDbEntity
100
AcDbLine
  8
color#fdfdfdfd
 62
256
370
-1
  6
BYLAYER
 10
2.7839524769958777
 20
3.2495029978691417
 30
0.0
 11
2.7645685849744348
 21
3.2737158480700006
 31
0.0
  0
LINE
  5
23B
100
AcDbEntity
100
AcDbLine
  8
color#fdfdfdfd
 62
256
370
-1
  6
BYLAYER
 10
2.7645685849744348
 20
3.2737158480700006
 30
0.0
 11
2.7455995506589286
 21
3.2982416027488473
 31
0.0
  0
LINE
  5
23C
100
AcDbEntity
100
AcDbLine
  8
color#fdfdfdfd
 62
256
370
-1
  6
BYLAYER
 10
2.7455995506589286
 20
3.2982416027488473
 30
0.0
 11
2.7270697248119649
 21
3.3230963085321119
 31
0.0
  0
LINE
  5
23D
100
AcDbEntity
100
AcDbLine
  8
color#fdfdfdfd
 62
256
370
-1
  6
BYLAYER
 10
2.7270697248119649
 20
3.3230963085321119
 30
0.0
 11
2.7090034581961491
 21
3.3482960120462275
 31
0.0
  0
LINE
  5
23E
100
AcDbEntity
100
AcDbLine
  8
color#fdfdfdfd
 62
256
370
-1
  6
BYLAYER
 10
2.7090034581961491
 20
3.3482960120462275
 30
0.0
 11
2.6914251015740875
 21
3.373856759917627
 31
0.0
  0
LINE
  5
23F
100
AcDbEntity
100
AcDbLine
  8
color#fdfdfdfd
 62
256
370
-1
  6
BYLAYER
 10
2.6914251015740875
 20
3.373856759917627
 30
0.0
 11
2.6220806336694644
 21
3.5526458445375306
 31
0.0
  0
LINE
  5
240
100
AcDbEntity
100
AcDbLine
  8
color#fdfdfdfd
 62
256
370
-1
  6
BYLAYER
 10
2.6220806336694644
 20
3.5526458445375306
 30
0.0
 11
2.6184678523704985
 21
3.5674758097981174
 31
0.0
  0
LINE
  5
241
100
AcDbEntity
100
AcDbLine
  8
color#fdfdfdfd
 62
256
370
-1
  6
BYLAYER
 10
2.6184678523704985
 20
3.5674758097981174
 30
0.0
 11
2.6151675238284149
 21
3.5823620360894544
 31
0.0
  0
LINE
  5
242
100
AcDbEntity
100
AcDbLine
  8
color#fdfdfdfd
 62
256
370
-1
  6
BYLAYER
 10
2.6151675238284149
 20
3.5823620360894544
 30
0.0
 11
2.6121774569318776
 21
3.5972997405649716
 31
0.0
  0
LINE
  5
243
100
AcDbEntity
100
AcDbLine
  8
color#fdfdfdfd
 62
256
370
-1
  6
BYLAYER
 10
2.6121774569318776
 20
3.5972997405649716
 30
0.0
 11
2.6071193436300977
 21
3.6273104526823059
 31
0.0
  0
LINE
  5
244
100
AcDbEntity
100
AcDbLine
  8
color#fdfdfdfd
 62
256
370
-1
  6
BYLAYER
 10
2.6071193436300977
 20
3.6273104526823059
 30
0.0
 11
2.6032759835744721
 21
3.6574696833776148
 31
0.0
  0
LINE
  5
245
100
AcDbEntity
100
AcDbLine
  8
color#fdfdfdfd
 62
256
370
-1
  6
BYLAYER
 10
2.6032759835744721
 20
3.6574696833776148
 30
0.0
 11
2.6006298478743171
 21
3.6877391698783857
 31
0.0
  0
LINE
  5
246
100
AcDbEntity
100
AcDbLine
  8
color#fdfdfdfd
 62
256
370
-1
  6
BYLAYER
 10
2.6006298478743171
 20
3.6877391698783857
 30
0.0
 11
2.5991634076389398
 21
3.7180806494121148
 31
0.0
  0
LINE
  5
247
100
AcDbEntity
100
AcDbLine
  8
color#fdfdfdfd
 62
256
370
-1
  6
BYLAYER
 10
2.5991634076389398
 20
3.7180806494121148
 30
0.0
 11
2.5988591339776583
 21
3.7484558592062935
 31
0.0
  0
LINE
  5
248
100
AcDbEntity
100
AcDbLine
  8
color#fdfdfdfd
 62
256
370
-1
  6
BYLAYER
 10
2.5988591339776583
 20
3.7484558592062935
 30
0.0
 11
2.5996994979997847
 21
3.7788265364884128
 31
0.0
  0
LINE
  5
249
100
AcDbEntity
100
AcDbLine
  8
color#fdfdfdfd
 62
256
370
-1
  6
BYLAYER
 10
2.5996994979997847
 20
3.7788265364884128
 30
0.0
 11
2.6016669708146312
 21
3.8091544184859671
 31
0.0
  0
LINE
  5
24A
100
AcDbEntity
100
AcDbLine
  8
color#fdfdfdfd
 62
256
370
-1
  6
BYLAYER
 10
2.6016669708146312
 20
3.8091544184859671
 30
0.0
 11
2.6047440235315116
 21
3.8394012424264456
 31
0.0
  0
LINE
  5
24B
100
AcDbEntity
100
AcDbLine
  8
color#fdfdfdfd
 62
256
370
-1
  6
BYLAYER
 10
2.6047440235315116
 20
3.8394012424264456
 30
0.0
 11
2.608913127259739
 21
3.8695287455373428
 31
0.0
  0
LINE
  5
24C
100
AcDbEntity
100
AcDbLine
  8
color#fdfdfdfd
 62
256
370
-1
  6
BYLAYER
 10
2.608913127259739
 20
3.8695287455373428
 30
0.0
 11
2.6141567531086274
 21
3.8994986650461496
 31
0.0
  0
LINE
  5
24D
100
AcDbEntity
100
AcDbLine
  8
color#fdfdfdfd
 62
256
370
-1
  6
BYLAYER
 10
2.6141567531086274
 20
3.8994986650461496
 30
0.0
 11
2.6204573721874889
 21
3.9292727381803587
 31
0.0
  0
LINE
  5
24E
100
AcDbEntity
100
AcDbLine
  8
color#fdfdfdfd
 62
256
370
-1
  6
BYLAYER
 10
2.6204573721874889
 20
3.9292727381803587
 30
0.0
 11
2.6277974556056365
 21
3.9588127021674619
 31
0.0
  0
LINE
  5
24F
100
AcDbEntity
100
AcDbLine
  8
color#fdfdfdfd
 62
256
370
-1
  6
BYLAYER
 10
2.6277974556056365
 20
3.9588127021674619
 30
0.0
 11
2.6361594744723842
 21
3.9880802942349525
 31
0.0
  0
LINE
  5
250
100
AcDbEntity
100
AcDbLine
  8
color#fdfdfdfd
 62
256
370
-1
  6
BYLAYER
 10
2.6361594744723842
 20
3.9880802942349525
 30
0.0
 11
2.6773034657279968
 21
4.0852808765363839
 31
0.0
  0
LINE
  5
251
100
AcDbEntity
100
AcDbLine
  8
color#fdfdfdfd
 62
256
370
-1
  6
BYLAYER
 10
2.6773034657279968
 20
4.0852808765363839
 30
0.0
 11
2.6905864078698865
 21
4.112802747529865
 31
0.0
  0
LINE
  5
252
100
AcDbEntity
100
AcDbLine
  8
color#fdfdfdfd
 62
256
370
-1
  6
BYLAYER
 10
2.6905864078698865
 20
4.112802747529865
 30
0.0
 11
2.7026877130115388
 21
4.1344104361865108
 31
0.0
  0
LINE
  5
253
100
AcDbEntity
100
AcDbLine
  8
color#fdfdfdfd
 62
256
370
-1
  6
BYLAYER
 10
2.7026877130115388
 20
4.1344104361865108
 30
0.0
 11
2.7222287115168537
 21
4.1659211185097043
 31
0.0
  0
LINE
  5
254
100
AcDbEntity
100
AcDbLine
  8
color#fdfdfdfd
 62
256
370
-1
  6
BYLAYER
 10
2.7222287115168537
 20
4.1659211185097043
 30
0.0
 11
2.7433360625276944
 21
4.1963581826259224
 31
0.0
  0
LINE
  5
255
100
AcDbEntity
100
AcDbLine
  8
color#fdfdfdfd
 62
256
370
-1
  6
BYLAYER
 10
2.7433360625276944
 20
4.1963581826259224
 30
0.0
 11
2.7658967075424488
 21
4.2257299564457211
 31
0.0
  0
LINE
  5
256
100
AcDbEntity
100
AcDbLine
  8
color#fdfdfdfd
 62
256
370
-1
  6
BYLAYER
 10
2.7658967075424488
 20
4.2257299564457211
 30
0.0
 11
2.7897975880595065
 21
4.2540447678796509
 31
0.0
  0
LINE
  5
257
100
AcDbEntity
100
AcDbLine
  8
color#fdfdfdfd
 62
256
370
-1
  6
BYLAYER
 10
2.7897975880595065
 20
4.2540447678796509
 30
0.0
 11
2.8235548297744009
 21
4.2901680799996811
 31
0.0
  0
LINE
  5
258
100
AcDbEntity
100
AcDbLine
  8
color#fdfdfdfd
 62
256
370
-1
  6
BYLAYER
 10
2.8235548297744009
 20
4.2901680799996811
 30
0.0
 11
2.8592257289681831
 21
4.3244468932849038
 31
0.0
  0
LINE
  5
259
100
AcDbEntity
100
AcDbLine
  8
color#fdfdfdfd
 62
256
370
-1
  6
BYLAYER
 10
2.8592257289681831
 20
4.3244468932849038
 30
0.0
 11
2.9060971669787188
 21
4.3647316564153167
 31
0.0
  0
LINE
  5
25A
100
AcDbEntity
100
AcDbLine
  8
color#fdfdfdfd
 62
256
370
-1
  6
BYLAYER
 10
2.9060971669787188
 20
4.3647316564153167
 30
0.0
 11
2.9254484756228987
 21
4.3800558661306228
 31
0.0
  0
LINE
  5
25B
100
AcDbEntity
100
AcDbLine
  8
color#fdfdfdfd
 62
256
370
-1
  6
BYLAYER
 10
2.9254484756228987
 20
4.3800558661306228
 30
0.0
 11
3.0121692035056942
 21
4.4344509281727005
 31
0.0
  0
LINE
  5
25C
100
AcDbEntity
100
AcDbLine
  8
color#fdfdfdfd
 62
256
370
-1
  6
BYLAYER
 10
3.0121692035056942
 20
4.4344509281727005
 30
0.0
 11
3.0397249229784378
 21
4.447646619313236
 31
0.0
  0
LINE
  5
25D
100
AcDbEntity
100
AcDbLine
  8
color#fdfdfdfd
 62
256
370
-1
  6
BYLAYER
 10
3.0397249229784378
 20
4.447646619313236
 30
0.0
 11
3.1268057199298434
 21
4.4847251657892251
 31
0.0
  0
LINE
  5
25E
100
AcDbEntity
100
AcDbLine
  8
color#fdfdfdfd
 62
256
370
-1
  6
BYLAYER
 10
3.7321834514244481
 20
3.1430318443584273
 30
0.0
 11
3.7791155286606131
 21
3.208696899207252
 31
0.0
  0
LINE
  5
25F
100
AcDbEntity
100
AcDbLine
  8
color#fdfdfdfd
 62
256
370
-1
  6
BYLAYER
 10
3.7791155286606131
 20
3.208696899207252
 30
0.0
 11
3.8249409843643543
 21
3.2624277605511462
 31
0.0
  0
LINE
  5
260
100
AcDbEntity
100
AcDbLine
  8
color#fdfdfdfd
 62
256
370
-1
  6
BYLAYER
 10
3.8249409843643543
 20
3.2624277605511462
 30
0.0
 11
3.8678125505021237
 21
3.3051074370944025
 31
0.0
  0
LINE
  5
261
100
AcDbEntity
100
AcDbLine
  8
color#fdfdfdfd
 62
256
370
-1
  6
BYLAYER
 10
3.8678125505021237
 20
3.3051074370944025
 30
0.0
 11
3.9061063636056712
 21
3.3379266619801533
 31
0.0
  0
LINE
  5
262
100
AcDbEntity
100
AcDbLine
  8
color#fdfdfdfd
 62
256
370
-1
  6
BYLAYER
 10
3.9061063636056712
 20
3.3379266619801533
 30
0.0
 11
3.9302146467368848
 21
3.3562948327013555
 31
0.0
  0
LINE
  5
263
100
AcDbEntity
100
AcDbLine
  8
color#fdfdfdfd
 62
256
370
-1
  6
BYLAYER
 10
3.9302146467368848
 20
3.3562948327013555
 30
0.0
 11
4.1755083484949269
 21
3.112764736718332
 31
0.0
  0
LINE
  5
264
100
AcDbEntity
100
AcDbLine
  8
color#fdfdfdfd
 62
256
370
-1
  6
BYLAYER
 10
4.1755083484949269
 20
3.112764736718332
 30
0.0
 11
4.1750951942761843
 21
3.0957882856708485
 31
0.0
  0
LINE
  5
265
100
AcDbEntity
100
AcDbLine
  8
color#fdfdfdfd
 62
256
370
-1
  6
BYLAYER
 10
4.1750951942761843
 20
3.0957882856708485
 30
0.0
 11
4.1521879647765187
 21
3.0810070001385079
 31
0.0
  0
LINE
  5
266
100
AcDbEntity
100
AcDbLine
  8
color#fdfdfdfd
 62
256
370
-1
  6
BYLAYER
 10
4.1521879647765187
 20
3.0810070001385079
 30
0.0
 11
4.1302464439598312
 21
3.0648265517901518
 31
0.0
  0
LINE
  5
267
100
AcDbEntity
100
AcDbLine
  8
color#fdfdfdfd
 62
256
370
-1
  6
BYLAYER
 10
4.1302464439598312
 20
3.0648265517901518
 30
0.0
 11
4.1093432160864403
 21
3.0473218795486705
 31
0.0
  0
LINE
  5
268
100
AcDbEntity
100
AcDbLine
  8
color#fdfdfdfd
 62
256
370
-1
  6
BYLAYER
 10
4.1093432160864403
 20
3.0473218795486705
 30
0.0
 11
4.0895508654166575
 21
3.028567922336955
 31
0.0
  0
LINE
  5
269
100
AcDbEntity
100
AcDbLine
  8
color#fdfdfdfd
 62
256
370
-1
  6
BYLAYER
 10
4.0895508654166575
 20
3.028567922336955
 30
0.0
 11
4.0709419762108006
 21
3.008639619077897
 31
0.0
  0
LINE
  5
26A
100
AcDbEntity
100
AcDbLine
  8
color#fdfdfdfd
 62
256
370
-1
  6
BYLAYER
 10
4.0709419762108006
 20
3.008639619077897
 30
0.0
 11
4.0535891327291838
 21
2.9876119086943871
 31
0.0
  0
LINE
  5
26B
100
AcDbEntity
100
AcDbLine
  8
color#fdfdfdfd
 62
256
370
-1
  6
BYLAYER
 10
4.0535891327291838
 20
2.9876119086943871
 30
0.0
 11
4.0375649192321257
 21
2.9655597301093164
 31
0.0
  0
LINE
  5
26C
100
AcDbEntity
100
AcDbLine
  8
color#fdfdfdfd
 62
256
370
-1
  6
BYLAYER
 10
4.0375649192321257
 20
2.9655597301093164
 30
0.0
 11
4.0229419199799388
 21
2.9425580222455761
 31
0.0
  0
LINE
  5
26D
100
AcDbEntity
100
AcDbLine
  8
color#fdfdfdfd
 62
256
370
-1
  6
BYLAYER
 10
4.0229419199799388
 20
2.9425580222455761
 30
0.0
 11
4.0097927192329408
 21
2.918681724026059
 31
0.0
  0
LINE
  5
26E
100
AcDbEntity
100
AcDbLine
  8
color#fdfdfdfd
 62
256
370
-1
  6
BYLAYER
 10
4.0097927192329408
 20
2.918681724026059
 30
0.0
 11
4.0018812064281031
 21
2.9023153152242278
 31
0.0
  0
LINE
  5
26F
100
AcDbEntity
100
AcDbLine
  8
color#fdfdfdfd
 62
256
370
-1
  6
BYLAYER
 10
4.0018812064281031
 20
2.9023153152242278
 30
0.0
 11
3.9824508852765357
 21
2.8500474058239456
 31
0.0
  0
LINE
  5
270
100
AcDbEntity
100
AcDbLine
  8
color#fdfdfdfd
 62
256
370
-1
  6
BYLAYER
 10
3.9824508852765357
 20
2.8500474058239456
 30
0.0
 11
3.9691307877269679
 21
2.794623211266126
 31
0.0
  0
LINE
  5
271
100
AcDbEntity
100
AcDbLine
  8
color#fdfdfdfd
 62
256
370
-1
  6
BYLAYER
 10
3.9691307877269679
 20
2.794623211266126
 30
0.0
 11
3.9691941766208405
 21
2.6636454482535306
 31
0.0
  0
LINE
  5
272
100
AcDbEntity
100
AcDbLine
  8
color#fdfdfdfd
 62
256
370
-1
  6
BYLAYER
 10
3.9691941766208405
 20
2.6636454482535306
 30
0.0
 11
3.9825848417049823
 21
2.6087468840645389
 31
0.0
  0
LINE
  5
273
100
AcDbEntity
100
AcDbLine
  8
color#fdfdfdfd
 62
256
370
-1
  6
BYLAYER
 10
3.9825848417049823
 20
2.6087468840645389
 30
0.0
 11
4.0021777206564746
 21
2.5561077212261449
 31
0.0
  0
LINE
  5
274
100
AcDbEntity
100
AcDbLine
  8
color#fdfdfdfd
 62
256
370
-1
  6
BYLAYER
 10
4.0021777206564746
 20
2.5561077212261449
 30
0.0
 11
4.0191984813389423
 21
2.5313608246599841
 31
0.0
  0
LINE
  5
275
100
AcDbEntity
100
AcDbLine
  8
color#fdfdfdfd
 62
256
370
-1
  6
BYLAYER
 10
4.0191984813389423
 20
2.5313608246599841
 30
0.0
 11
4.0367567134177982
 21
2.5070314726686629
 31
0.0
  0
LINE
  5
276
100
AcDbEntity
100
AcDbLine
  8
color#fdfdfdfd
 62
256
370
-1
  6
BYLAYER
 10
4.0367567134177982
 20
2.5070314726686629
 30
0.0
 11
4.0548215285510807
 21
2.4830957658245345
 31
0.0
  0
LINE
  5
277
100
AcDbEntity
100
AcDbLine
  8
color#fdfdfdfd
 62
256
370
-1
  6
BYLAYER
 10
4.0548215285510807
 20
2.4830957658245345
 30
0.0
 11
4.0733620383968212
 21
2.4595298046999687
 31
0.0
  0
LINE
  5
278
100
AcDbEntity
100
AcDbLine
  8
color#fdfdfdfd
 62
256
370
-1
  6
BYLAYER
 10
4.0733620383968212
 20
2.4595298046999687
 30
0.0
 11
4.092347354613052
 21
2.4363096898673202
 31
0.0
  0
LINE
  5
279
100
AcDbEntity
100
AcDbLine
  8
color#fdfdfdfd
 62
256
370
-1
  6
BYLAYER
 10
4.092347354613052
 20
2.4363096898673202
 30
0.0
 11
4.111746588857808
 21
2.4134115218989556
 31
0.0
  0
LINE
  5
27A
100
AcDbEntity
100
AcDbLine
  8
color#fdfdfdfd
 62
256
370
-1
  6
BYLAYER
 10
4.111746588857808
 20
2.4134115218989556
 30
0.0
 11
4.1315288527891196
 21
2.3908114013672352
 31
0.0
  0
LINE
  5
27B
100
AcDbEntity
100
AcDbLine
  8
color#fdfdfdfd
 62
256
370
-1
  6
BYLAYER
 10
4.1315288527891196
 20
2.3908114013672352
 30
0.0
 11
4.1516632580650237
 21
2.3684854288445183
 31
0.0
  0
LINE
  5
27C
100
AcDbEntity
100
AcDbLine
  8
color#fdfdfdfd
 62
256
370
-1
  6
BYLAYER
 10
4.1516632580650237
 20
2.3684854288445183
 30
0.0
 11
4.1721189163435497
 21
2.3464097049031682
 31
0.0
  0
LINE
  5
27D
100
AcDbEntity
100
AcDbLine
  8
color#fdfdfdfd
 62
256
370
-1
  6
BYLAYER
 10
4.1721189163435497
 20
2.3464097049031682
 30
0.0
 11
4.19286493928273
 21
2.3245603301155495
 31
0.0
  0
LINE
  5
27E
100
AcDbEntity
100
AcDbLine
  8
color#fdfdfdfd
 62
256
370
-1
  6
BYLAYER
 10
4.19286493928273
 20
2.3245603301155495
 30
0.0
 11
4.2351045257751929
 21
2.2814450302909415
 31
0.0
  0
LINE
  5
27F
100
AcDbEntity
100
AcDbLine
  8
color#fdfdfdfd
 62
256
370
-1
  6
BYLAYER
 10
4.2351045257751929
 20
2.2814450302909415
 30
0.0
 11
4.3217089876414398
 21
2.1968790456703879
 31
0.0
  0
LINE
  5
280
100
AcDbEntity
100
AcDbLine
  8
color#fdfdfdfd
 62
256
370
-1
  6
BYLAYER
 10
4.3217089876414398
 20
2.1968790456703879
 30
0.0
 11
4.4965000782986202
 21
2.0290520647529271
 31
0.0
  0
LINE
  5
281
100
AcDbEntity
100
AcDbLine
  8
color#fdfdfdfd
 62
256
370
-1
  6
BYLAYER
 10
4.4965000782986202
 20
2.0290520647529271
 30
0.0
 11
4.5390860131137645
 21
1.9862518854678686
 31
0.0
  0
LINE
  5
282
100
AcDbEntity
100
AcDbLine
  8
color#fdfdfdfd
 62
256
370
-1
  6
BYLAYER
 10
4.5390860131137645
 20
1.9862518854678686
 30
0.0
 11
4.5600423189631449
 21
1.9645938338649733
 31
0.0
  0
LINE
  5
283
100
AcDbEntity
100
AcDbLine
  8
color#fdfdfdfd
 62
256
370
-1
  6
BYLAYER
 10
4.5600423189631449
 20
1.9645938338649733
 30
0.0
 11
4.5807329993177754
 21
1.9427319417183182
 31
0.0
  0
LINE
  5
284
100
AcDbEntity
100
AcDbLine
  8
color#fdfdfdfd
 62
256
370
-1
  6
BYLAYER
 10
4.5807329993177754
 20
1.9427319417183182
 30
0.0
 11
4.6011271658356883
 21
1.9206423096002625
 31
0.0
  0
LINE
  5
285
100
AcDbEntity
100
AcDbLine
  8
color#fdfdfdfd
 62
256
370
-1
  6
BYLAYER
 10
4.6011271658356883
 20
1.9206423096002625
 30
0.0
 11
4.6624198304097693
 21
1.8598267107168225
 31
0.0
  0
LINE
  5
286
100
AcDbEntity
100
AcDbLine
  8
color#fdfdfdfd
 62
256
370
-1
  6
BYLAYER
 10
4.6624198304097693
 20
1.8598267107168225
 30
0.0
 11
4.7637882074548106
 21
1.7565696644671869
 31
0.0
  0
LINE
  5
287
100
AcDbEntity
100
AcDbLine
  8
color#fdfdfdfd
 62
256
370
-1
  6
BYLAYER
 10
4.7637882074548106
 20
1.7565696644671869
 30
0.0
 11
4.7849855943142181
 21
1.7370721417991737
 31
0.0
  0
LINE
  5
288
100
AcDbEntity
100
AcDbLine
  8
color#fdfdfdfd
 62
256
370
-1
  6
BYLAYER
 10
4.7849855943142181
 20
1.7370721417991737
 30
0.0
 11
4.8067609348889517
 21
1.7183322037914099
 31
0.0
  0
LINE
  5
289
100
AcDbEntity
100
AcDbLine
  8
color#fdfdfdfd
 62
256
370
-1
  6
BYLAYER
 10
4.8067609348889517
 20
1.7183322037914099
 30
0.0
 11
4.817901505216688
 21
1.7092962784725689
 31
0.0
  0
LINE
  5
28A
100
AcDbEntity
100
AcDbLine
  8
color#fdfdfdfd
 62
256
370
-1
  6
BYLAYER
 10
4.817901505216688
 20
1.7092962784725689
 30
0.0
 11
4.8292299648498043
 21
1.7005096886437281
 31
0.0
  0
LINE
  5
28B
100
AcDbEntity
100
AcDbLine
  8
color#fdfdfdfd
 62
256
370
-1
  6
BYLAYER
 10
4.8292299648498043
 20
1.7005096886437281
 30
0.0
 11
4.84076078074715
 21
1.6919924140798659
 31
0.0
  0
LINE
  5
28C
100
AcDbEntity
100
AcDbLine
  8
color#fdfdfdfd
 62
256
370
-1
  6
BYLAYER
 10
4.84076078074715
 20
1.6919924140798659
 30
0.0
 11
4.8525084198675721
 21
1.6837644345559619
 31
0.0
  0
LINE
  5
28D
100
AcDbEntity
100
AcDbLine
  8
color#fdfdfdfd
 62
256
370
-1
  6
BYLAYER
 10
4.8525084198675721
 20
1.6837644345559619
 30
0.0
 11
4.8644873491699236
 21
1.6758457298469946
 31
0.0
  0
LINE
  5
28E
100
AcDbEntity
100
AcDbLine
  8
color#fdfdfdfd
 62
256
370
-1
  6
BYLAYER
 10
4.8644873491699236
 20
1.6758457298469946
 30
0.0
 11
4.8767120356130533
 21
1.6682562797279432
 31
0.0
  0
LINE
  5
28F
100
AcDbEntity
100
AcDbLine
  8
color#fdfdfdfd
 62
256
370
-1
  6
BYLAYER
 10
4.8767120356130533
 20
1.6682562797279432
 30
0.0
 11
4.8891969461558098
 21
1.6610160639737883
 31
0.0
  0
LINE
  5
290
100
AcDbEntity
100
AcDbLine
  8
color#fdfdfdfd
 62
256
370
-1
  6
BYLAYER
 10
4.8891969461558098
 20
1.6610160639737883
 30
0.0
 11
4.9019565477570426
 21
1.654145062359508
 31
0.0
  0
LINE
  5
291
100
AcDbEntity
100
AcDbLine
  8
color#fdfdfdfd
 62
256
370
-1
  6
BYLAYER
 10
4.9019565477570426
 20
1.654145062359508
 30
0.0
 11
4.9150053073756004
 21
1.647663254660082
 31
0.0
  0
LINE
  5
292
100
AcDbEntity
100
AcDbLine
  8
color#fdfdfdfd
 62
256
370
-1
  6
BYLAYER
 10
4.9150053073756004
 20
1.647663254660082
 30
0.0
 11
4.987827644369923
 21
1.6265026875989537
 31
0.0
  0
LINE
  5
293
100
AcDbEntity
100
AcDbLine
  8
color#fdfdfdfd
 62
256
370
-1
  6
BYLAYER
 10
4.987827644369923
 20
1.6265026875989537
 30
0.0
 11
5.0227994634951898
 21
1.6197391297246979
 31
0.0
  0
LINE
  5
294
100
AcDbEntity
100
AcDbLine
  8
color#fdfdfdfd
 62
256
370
-1
  6
BYLAYER
 10
5.0227994634951898
 20
1.6197391297246979
 30
0.0
 11
5.1592243824426998
 21
1.6208672946090101
 31
0.0
  0
LINE
  5
295
100
AcDbEntity
100
AcDbLine
  8
color#fdfdfdfd
 62
256
370
-1
  6
BYLAYER
 10
5.1592243824426998
 20
1.6208672946090101
 30
0.0
 11
5.1606493687432007
 21
1.627616745818639
 31
0.0
  0
LINE
  5
296
100
AcDbEntity
100
AcDbLine
  8
color#fdfdfdfd
 62
256
370
-1
  6
BYLAYER
 10
5.1606493687432007
 20
1.627616745818639
 30
0.0
 11
5.22083267124742
 21
1.6393211679513995
 31
0.0
  0
LINE
  5
297
100
AcDbEntity
100
AcDbLine
  8
color#fdfdfdfd
 62
256
370
-1
  6
BYLAYER
 10
5.22083267124742
 20
1.6393211679513995
 30
0.0
 11
5.2330317164729614
 21
1.6445492921176965
 31
0.0
  0
LINE
  5
298
100
AcDbEntity
100
AcDbLine
  8
color#fdfdfdfd
 62
256
370
-1
  6
BYLAYER
 10
5.2330317164729614
 20
1.6445492921176965
 30
0.0
 11
5.2450729212960701
 21
1.6501155762498645
 31
0.0
  0
LINE
  5
299
100
AcDbEntity
100
AcDbLine
  8
color#fdfdfdfd
 62
256
370
-1
  6
BYLAYER
 10
5.2450729212960701
 20
1.6501155762498645
 30
0.0
 11
5.2569494569403581
 21
1.656013465654725
 31
0.0
  0
LINE
  5
29A
100
AcDbEntity
100
AcDbLine
  8
color#fdfdfdfd
 62
256
370
-1
  6
BYLAYER
 10
5.2569494569403581
 20
1.656013465654725
 30
0.0
 11
5.2686544946294278
 21
1.6622364056391055
 31
0.0
  0
LINE
  5
29B
100
AcDbEntity
100
AcDbLine
  8
color#fdfdfdfd
 62
256
370
-1
  6
BYLAYER
 10
5.2686544946294278
 20
1.6622364056391055
 30
0.0
 11
5.2801812055868913
 21
1.6687778415098262
 31
0.0
  0
LINE
  5
29C
100
AcDbEntity
100
AcDbLine
  8
color#fdfdfdfd
 62
256
370
-1
  6
BYLAYER
 10
5.2801812055868913
 20
1.6687778415098262
 30
0.0
 11
5.2915227610363527
 21
1.6756312185737161
 31
0.0
  0
LINE
  5
29D
100
AcDbEntity
100
AcDbLine
  8
color#fdfdfdfd
 62
256
370
-1
  6
BYLAYER
 10
5.2915227610363527
 20
1.6756312185737161
 30
0.0
 11
5.3026723322014151
 21
1.6827899821376002
 31
0.0
  0
LINE
  5
29E
100
AcDbEntity
100
AcDbLine
  8
color#fdfdfdfd
 62
256
370
-1
  6
BYLAYER
 10
5.3026723322014151
 20
1.6827899821376002
 30
0.0
 11
5.3136230903056942
 21
1.6902475775083003
 31
0.0
  0
LINE
  5
29F
100
AcDbEntity
100
AcDbLine
  8
color#fdfdfdfd
 62
256
370
-1
  6
BYLAYER
 10
5.3136230903056942
 20
1.6902475775083003
 30
0.0
 11
5.3243682065727889
 21
1.6979974499926422
 31
0.0
  0
LINE
  5
2A0
100
AcDbEntity
100
AcDbLine
  8
color#fdfdfdfd
 62
256
370
-1
  6
BYLAYER
 10
5.3243682065727889
 20
1.6979974499926422
 30
0.0
 11
5.3349008522263093
 21
1.7060330448974541
 31
0.0
  0
LINE
  5
2A1
100
AcDbEntity
100
AcDbLine
  8
color#fdfdfdfd
 62
256
370
-1
  6
BYLAYER
 10
5.3349008522263093
 20
1.7060330448974541
 30
0.0
 11
5.3452141984898622
 21
1.7143478075295571
 31
0.0
  0
LINE
  5
2A2
100
AcDbEntity
100
AcDbLine
  8
color#fdfdfdfd
 62
256
370
-1
  6
BYLAYER
 10
5.3452141984898622
 20
1.7143478075295571
 30
0.0
 11
5.3553014165870563
 21
1.722935183195776
 31
0.0
  0
LINE
  5
2A3
100
AcDbEntity
100
AcDbLine
  8
color#fdfdfdfd
 62
256
370
-1
  6
BYLAYER
 10
5.3553014165870563
 20
1.722935183195776
 30
0.0
 11
5.3651556777414946
 21
1.73178861720294
 31
0.0
  0
LINE
  5
2A4
100
AcDbEntity
100
AcDbLine
  8
color#fdfdfdfd
 62
256
370
-1
  6
BYLAYER
 10
5.3651556777414946
 20
1.73178861720294
 30
0.0
 11
5.3747701531767857
 21
1.7409015548578677
 31
0.0
  0
LINE
  5
2A5
100
AcDbEntity
100
AcDbLine
  8
color#fdfdfdfd
 62
256
370
-1
  6
BYLAYER
 10
5.3747701531767857
 20
1.7409015548578677
 30
0.0
 11
5.3841380141165374
 21
1.7502674414673893
 31
0.0
  0
LINE
  5
2A6
100
AcDbEntity
100
AcDbLine
  8
color#fdfdfdfd
 62
256
370
-1
  6
BYLAYER
 10
5.3841380141165374
 20
1.7502674414673893
 30
0.0
 11
5.3932524317843553
 21
1.7598797223383258
 31
0.0
  0
LINE
  5
2A7
100
AcDbEntity
100
AcDbLine
  8
color#fdfdfdfd
 62
256
370
-1
  6
BYLAYER
 10
5.3932524317843553
 20
1.7598797223383258
 30
0.0
 11
5.4021065774038481
 21
1.7697318427775055
 31
0.0
  0
LINE
  5
2A8
100
AcDbEntity
100
AcDbLine
  8
color#fdfdfdfd
 62
256
370
-1
  6
BYLAYER
 10
5.4021065774038481
 20
1.7697318427775055
 30
0.0
 11
5.4106936221986217
 21
1.7798172480917505
 31
0.0
  0
LINE
  5
2A9
100
AcDbEntity
100
AcDbLine
  8
color#fdfdfdfd
 62
256
370
-1
  6
BYLAYER
 10
5.4106936221986217
 20
1.7798172480917505
 30
0.0
 11
5.4190067373922819
 21
1.7901293835878873
 31
0.0
  0
LINE
  5
2AA
100
AcDbEntity
100
AcDbLine
  8
color#fdfdfdfd
 62
256
370
-1
  6
BYLAYER
 10
5.4190067373922819
 20
1.7901293835878873
 30
0.0
 11
5.4270390942084372
 21
1.8006616945727387
 31
0.0
  0
LINE
  5
2AB
100
AcDbEntity
100
AcDbLine
  8
color#fdfdfdfd
 62
256
370
-1
  6
BYLAYER
 10
5.4270390942084372
 20
1.8006616945727387
 30
0.0
 11
5.4347838638706936
 21
1.8114076263531318
 31
0.0
  0
LINE
  5
2AC
100
AcDbEntity
100
AcDbLine
  8
color#fdfdfdfd
 62
256
370
-1
  6
BYLAYER
 10
5.4347838638706936
 20
1.8114076263531318
 30
0.0
 11
5.4422342176026577
 21
1.8223606242358912
 31
0.0
  0
LINE
  5
2AD
100
AcDbEntity
100
AcDbLine
  8
color#fdfdfdfd
 62
256
370
-1
  6
BYLAYER
 10
5.4422342176026577
 20
1.8223606242358912
 30
0.0
 11
5.4493833266279381
 21
1.8335141335278407
 31
0.0
  0
LINE
  5
2AE
100
AcDbEntity
100
AcDbLine
  8
color#fdfdfdfd
 62
256
370
-1
  6
BYLAYER
 10
5.4493833266279381
 20
1.8335141335278407
 30
0.0
 11
5.456224362170139
 21
1.8448615995358055
 31
0.0
  0
LINE
  5
2AF
100
AcDbEntity
100
AcDbLine
  8
color#fdfdfdfd
 62
256
370
-1
  6
BYLAYER
 10
5.456224362170139
 20
1.8448615995358055
 30
0.0
 11
5.4627504954528696
 21
1.8563964675666114
 31
0.0
  0
LINE
  5
2B0
100
AcDbEntity
100
AcDbLine
  8
color#fdfdfdfd
 62
256
370
-1
  6
BYLAYER
 10
5.4627504954528696
 20
1.8563964675666114
 30
0.0
 11
5.468954897699736
 21
1.8681121829270819
 31
0.0
  0
LINE
  5
2B1
100
AcDbEntity
100
AcDbLine
  8
color#fdfdfdfd
 62
256
370
-1
  6
BYLAYER
 10
5.468954897699736
 20
1.8681121829270819
 30
0.0
 11
5.4748307401343466
 21
1.8800021909240425
 31
0.0
  0
LINE
  5
2B2
100
AcDbEntity
100
AcDbLine
  8
color#fdfdfdfd
 62
256
370
-1
  6
BYLAYER
 10
5.4748307401343466
 20
1.8800021909240425
 30
0.0
 11
5.4803711939803046
 21
1.8920599368643178
 31
0.0
  0
LINE
  5
2B3
100
AcDbEntity
100
AcDbLine
  8
color#fdfdfdfd
 62
256
370
-1
  6
BYLAYER
 10
5.4803711939803046
 20
1.8920599368643178
 30
0.0
 11
5.4855694304612195
 21
1.9042788660547332
 31
0.0
  0
LINE
  5
2B4
100
AcDbEntity
100
AcDbLine
  8
color#fdfdfdfd
 62
256
370
-1
  6
BYLAYER
 10
5.4855694304612195
 20
1.9042788660547332
 30
0.0
 11
5.4990819126759236
 21
1.9597746151308486
 31
0.0
  0
LINE
  5
2B5
100
AcDbEntity
100
AcDbLine
  8
color#fdfdfdfd
 62
256
370
-1
  6
BYLAYER
 10
5.4990819126759236
 20
1.9597746151308486
 30
0.0
 11
5.5054485218234639
 21
1.9947870096459634
 31
0.0
  0
LINE
  5
2B6
100
AcDbEntity
100
AcDbLine
  8
color#fdfdfdfd
 62
256
370
-1
  6
BYLAYER
 10
5.5054485218234639
 20
1.9947870096459634
 30
0.0
 11
5.5038465360120092
 21
2.1309495527748621
 31
0.0
  0
LINE
  5
2B7
100
AcDbEntity
100
AcDbLine
  8
color#fdfdfdfd
 62
256
370
-1
  6
BYLAYER
 10
5.5038465360120092
 20
2.1309495527748621
 30
0.0
 11
5.4972131560412993
 21
2.1325529747924921
 31
0.0
  0
LINE
  5
2B8
100
AcDbEntity
100
AcDbLine
  8
color#fdfdfdfd
 62
256
370
-1
  6
BYLAYER
 10
5.4972131560412993
 20
2.1325529747924921
 30
0.0
 11
5.4772106663556954
 21
2.2100785238089369
 31
0.0
  0
LINE
  5
2B9
100
AcDbEntity
100
AcDbLine
  8
color#fdfdfdfd
 62
256
370
-1
  6
BYLAYER
 10
5.4772106663556954
 20
2.2100785238089369
 30
0.0
 11
5.4669177687151516
 21
2.2281118787071534
 31
0.0
  0
LINE
  5
2BA
100
AcDbEntity
100
AcDbLine
  8
color#fdfdfdfd
 62
256
370
-1
  6
BYLAYER
 10
5.4669177687151516
 20
2.2281118787071534
 30
0.0
 11
5.4561203003895011
 21
2.2457576968099175
 31
0.0
  0
LINE
  5
2BB
100
AcDbEntity
100
AcDbLine
  8
color#fdfdfdfd
 62
256
370
-1
  6
BYLAYER
 10
5.4561203003895011
 20
2.2457576968099175
 30
0.0
 11
5.4448459216215177
 21
2.2630369377184931
 31
0.0
  0
LINE
  5
2BC
100
AcDbEntity
100
AcDbLine
  8
color#fdfdfdfd
 62
256
370
-1
  6
BYLAYER
 10
5.4448459216215177
 20
2.2630369377184931
 30
0.0
 11
5.4331222926539606
 21
2.2799705610341641
 31
0.0
  0
LINE
  5
2BD
100
AcDbEntity
100
AcDbLine
  8
color#fdfdfdfd
 62
256
370
-1
  6
BYLAYER
 10
5.4331222926539606
 20
2.2799705610341641
 30
0.0
 11
5.4209770737296017
 21
2.2965795263582018
 31
0.0
  0
LINE
  5
2BE
100
AcDbEntity
100
AcDbLine
  8
color#fdfdfdfd
 62
256
370
-1
  6
BYLAYER
 10
5.4209770737296017
 20
2.2965795263582018
 30
0.0
 11
5.4084379250912029
 21
2.312884793291881
 31
0.0
  0
LINE
  5
2BF
100
AcDbEntity
100
AcDbLine
  8
color#fdfdfdfd
 62
256
370
-1
  6
BYLAYER
 10
5.4084379250912029
 20
2.312884793291881
 30
0.0
 11
5.3955325069815272
 21
2.3289073214364797
 31
0.0
  0
LINE
  5
2C0
100
AcDbEntity
100
AcDbLine
  8
color#fdfdfdfd
 62
256
370
-1
  6
BYLAYER
 10
5.3955325069815272
 20
2.3289073214364797
 30
0.0
 11
5.3822884796433472
 21
2.3446680703932685
 31
0.0
  0
LINE
  5
2C1
100
AcDbEntity
100
AcDbLine
  8
color#fdfdfdfd
 62
256
370
-1
  6
BYLAYER
 10
5.3822884796433472
 20
2.3446680703932685
 30
0.0
 11
5.3687335033194232
 21
2.3601879997635269
 31
0.0
  0
LINE
  5
2C2
100
AcDbEntity
100
AcDbLine
  8
color#fdfdfdfd
 62
256
370
-1
  6
BYLAYER
 10
5.3687335033194232
 20
2.3601879997635269
 30
0.0
 11
5.3548952382525208
 21
2.3754880691485289
 31
0.0
  0
LINE
  5
2C3
100
AcDbEntity
100
AcDbLine
  8
color#fdfdfdfd
 62
256
370
-1
  6
BYLAYER
 10
5.3548952382525208
 20
2.3754880691485289
 30
0.0
 11
5.3264794828608508
 21
2.4055124663678606
 31
0.0
  0
LINE
  5
2C4
100
AcDbEntity
100
AcDbLine
  8
color#fdfdfdfd
 62
256
370
-1
  6
BYLAYER
 10
5.3264794828608508
 20
2.4055124663678606
 30
0.0
 11
5.2824226902701552
 21
2.4494241023393126
 31
0.0
  0
LINE
  5
2C5
100
AcDbEntity
100
AcDbLine
  8
color#fdfdfdfd
 62
256
370
-1
  6
BYLAYER
 10
5.2824226902701552
 20
2.4494241023393126
 30
0.0
 11
5.1321355781723659
 21
2.5928584405598349
 31
0.0
  0
LINE
  5
2C6
100
AcDbEntity
100
AcDbLine
  8
color#fdfdfdfd
 62
256
370
-1
  6
BYLAYER
 10
5.1321355781723659
 20
2.5928584405598349
 30
0.0
 11
5.1031043296795797
 21
2.622260524584882
 31
0.0
  0
LINE
  5
2C7
100
AcDbEntity
100
AcDbLine
  8
color#fdfdfdfd
 62
256
370
-1
  6
BYLAYER
 10
5.1031043296795797
 20
2.622260524584882
 30
0.0
 11
5.0749314636940088
 21
2.6522922599607131
 31
0.0
  0
LINE
  5
2C8
100
AcDbEntity
100
AcDbLine
  8
color#fdfdfdfd
 62
256
370
-1
  6
BYLAYER
 10
5.0749314636940088
 20
2.6522922599607131
 30
0.0
 11
5.0786996370483353
 21
2.6821763366516476
 31
0.0
  0
LINE
  5
2C9
100
AcDbEntity
100
AcDbLine
  8
color#fdfdfdfd
 62
256
370
-1
  6
BYLAYER
 10
5.0786996370483344
 20
2.6821763366516476
 30
0.0
 11
5.1074461117768921
 21
2.7706039835204854
 31
0.0
  0
LINE
  5
2CA
100
AcDbEntity
100
AcDbLine
  8
color#fdfdfdfd
 62
256
370
-1
  6
BYLAYER
 10
5.1074461117768921
 20
2.7706039835204854
 30
0.0
 11
5.1139810172015565
 21
2.772455757441703
 31
0.0
  0
LINE
  5
2CB
100
AcDbEntity
100
AcDbLine
  8
color#fdfdfdfd
 62
256
370
-1
  6
BYLAYER
 10
5.1139810172015565
 20
2.772455757441703
 30
0.0
 11
5.1277342749536912
 21
2.8456793444421171
 31
0.0
  0
LINE
  5
2CC
100
AcDbEntity
100
AcDbLine
  8
color#fdfdfdfd
 62
256
370
-1
  6
BYLAYER
 10
5.1277342749536912
 20
2.8456793444421171
 30
0.0
 11
5.1479434191848963
 21
3.0708217554289408
 31
0.0
  0
LINE
  5
2CD
100
AcDbEntity
100
AcDbLine
  8
color#fdfdfdfd
 62
256
370
-1
  6
BYLAYER
 10
5.1479434191848963
 20
3.0708217554289408
 30
0.0
 11
5.3731122024693763
 21
2.8572964475034532
 31
0.0
  0
LINE
  5
2CE
100
AcDbEntity
100
AcDbLine
  8
color#fdfdfdfd
 62
256
370
-1
  6
BYLAYER
 10
5.3731122024693763
 20
2.8572964475034532
 30
0.0
 11
5.4631099626221333
 21
2.7706371119968036
 31
0.0
  0
LINE
  5
2CF
100
AcDbEntity
100
AcDbLine
  8
color#fdfdfdfd
 62
256
370
-1
  6
BYLAYER
 10
5.4631099626221333
 20
2.7706371119968036
 30
0.0
 11
5.5073192504554891
 21
2.726540302623254
 31
0.0
  0
LINE
  5
2D0
100
AcDbEntity
100
AcDbLine
  8
color#fdfdfdfd
 62
256
370
-1
  6
BYLAYER
 10
5.5073192504554891
 20
2.726540302623254
 30
0.0
 11
5.5507439284144686
 21
2.6817655810820824
 31
0.0
  0
LINE
  5
2D1
100
AcDbEntity
100
AcDbLine
  8
color#fdfdfdfd
 62
256
370
-1
  6
BYLAYER
 10
5.5507439284144686
 20
2.6817655810820824
 30
0.0
 11
5.5721015195397321
 21
2.6590849834625132
 31
0.0
  0
LINE
  5
2D2
100
AcDbEntity
100
AcDbLine
  8
color#fdfdfdfd
 62
256
370
-1
  6
BYLAYER
 10
5.5721015195397321
 20
2.6590849834625132
 30
0.0
 11
5.5931903352148007
 21
2.6361880840576868
 31
0.0
  0
LINE
  5
2D3
100
AcDbEntity
100
AcDbLine
  8
color#fdfdfdfd
 62
256
370
-1
  6
BYLAYER
 10
5.5931903352148007
 20
2.6361880840576868
 30
0.0
 11
5.6139861677791396
 21
2.6130592749531538
 31
0.0
  0
LINE
  5
2D4
100
AcDbEntity
100
AcDbLine
  8
color#fdfdfdfd
 62
256
370
-1
  6
BYLAYER
 10
5.6139861677791396
 20
2.6130592749531538
 30
0.0
 11
5.6344648095722132
 21
2.5896829482344645
 31
0.0
  0
LINE
  5
2D5
100
AcDbEntity
100
AcDbLine
  8
color#fdfdfdfd
 62
256
370
-1
  6
BYLAYER
 10
5.6344648095722132
 20
2.5896829482344645
 30
0.0
 11
5.6546020529334902
 21
2.5660434959871674
 31
0.0
  0
LINE
  5
2D6
100
AcDbEntity
100
AcDbLine
  8
color#fdfdfdfd
 62
256
370
-1
  6
BYLAYER
 10
5.6546020529334902
 20
2.5660434959871674
 30
0.0
 11
5.6743736902024358
 21
2.5421253102968109
 31
0.0
  0
LINE
  5
2D7
100
AcDbEntity
100
AcDbLine
  8
color#fdfdfdfd
 62
256
370
-1
  6
BYLAYER
 10
5.6743736902024358
 20
2.5421253102968109
 30
0.0
 11
5.6937555137185161
 21
2.5179127832489479
 31
0.0
  0
LINE
  5
2D8
100
AcDbEntity
100
AcDbLine
  8
color#fdfdfdfd
 62
256
370
-1
  6
BYLAYER
 10
5.6937555137185161
 20
2.5179127832489479
 30
0.0
 11
5.7127233158211972
 21
2.4933903069291241
 31
0.0
  0
LINE
  5
2D9
100
AcDbEntity
100
AcDbLine
  8
color#fdfdfdfd
 62
256
370
-1
  6
BYLAYER
 10
5.7127233158211972
 20
2.4933903069291241
 30
0.0
 11
5.7312528888499434
 21
2.468542273422893
 31
0.0
  0
LINE
  5
2DA
100
AcDbEntity
100
AcDbLine
  8
color#fdfdfdfd
 62
256
370
-1
  6
BYLAYER
 10
5.7312528888499434
 20
2.468542273422893
 30
0.0
 11
5.7493200251442245
 21
2.4433530748158012
 31
0.0
  0
LINE
  5
2DB
100
AcDbEntity
100
AcDbLine
  8
color#fdfdfdfd
 62
256
370
-1
  6
BYLAYER
 10
5.7493200251442245
 20
2.4433530748158012
 30
0.0
 11
5.7669005170435028
 21
2.417807103193399
 31
0.0
  0
LINE
  5
2DC
100
AcDbEntity
100
AcDbLine
  8
color#fdfdfdfd
 62
256
370
-1
  6
BYLAYER
 10
5.7669005170435028
 20
2.417807103193399
 30
0.0
 11
5.8363254335605994
 21
2.2388484661521821
 31
0.0
  0
LINE
  5
2DD
100
AcDbEntity
100
AcDbLine
  8
color#fdfdfdfd
 62
256
370
-1
  6
BYLAYER
 10
5.8363254335605994
 20
2.2388484661521821
 30
0.0
 11
5.8399187974273978
 21
2.2240224898281644
 31
0.0
  0
LINE
  5
2DE
100
AcDbEntity
100
AcDbLine
  8
color#fdfdfdfd
 62
256
370
-1
  6
BYLAYER
 10
5.8399187974273978
 20
2.2240224898281644
 30
0.0
 11
5.8432020306424137
 21
2.2091404872247944
 31
0.0
  0
LINE
  5
2DF
100
AcDbEntity
100
AcDbLine
  8
color#fdfdfdfd
 62
256
370
-1
  6
BYLAYER
 10
5.8432020306424137
 20
2.2091404872247944
 30
0.0
 11
5.848846409916483
 21
2.1792274387458872
 31
0.0
  0
LINE
  5
2E0
100
AcDbEntity
100
AcDbLine
  8
color#fdfdfdfd
 62
256
370
-1
  6
BYLAYER
 10
5.848846409916483
 20
2.1792274387458872
 30
0.0
 11
5.8532751809815702
 21
2.1491473918472539
 31
0.0
  0
LINE
  5
2E1
100
AcDbEntity
100
AcDbLine
  8
color#fdfdfdfd
 62
256
370
-1
  6
BYLAYER
 10
5.8532751809815702
 20
2.1491473918472539
 30
0.0
 11
5.8565049534364322
 21
2.1189384176606954
 31
0.0
  0
LINE
  5
2E2
100
AcDbEntity
100
AcDbLine
  8
color#fdfdfdfd
 62
256
370
-1
  6
BYLAYER
 10
5.8565049534364322
 20
2.1189384176606954
 30
0.0
 11
5.8585523368798329
 21
2.0886385873180049
 31
0.0
  0
LINE
  5
2E3
100
AcDbEntity
100
AcDbLine
  8
color#fdfdfdfd
 62
256
370
-1
  6
BYLAYER
 10
5.8585523368798329
 20
2.0886385873180049
 30
0.0
 11
5.8594339409105327
 21
2.0582859719509781
 31
0.0
  0
LINE
  5
2E4
100
AcDbEntity
100
AcDbLine
  8
color#fdfdfdfd
 62
256
370
-1
  6
BYLAYER
 10
5.8594339409105327
 20
2.0582859719509781
 30
0.0
 11
5.8591663751272893
 21
2.0279186426914149
 31
0.0
  0
LINE
  5
2E5
100
AcDbEntity
100
AcDbLine
  8
color#fdfdfdfd
 62
256
370
-1
  6
BYLAYER
 10
5.8591663751272893
 20
2.0279186426914149
 30
0.0
 11
5.8577662491288667
 21
1.9975746706711095
 31
0.0
  0
LINE
  5
2E6
100
AcDbEntity
100
AcDbLine
  8
color#fdfdfdfd
 62
256
370
-1
  6
BYLAYER
 10
5.8577662491288667
 20
1.9975746706711095
 30
0.0
 11
5.8552501725140234
 21
1.9672921270218575
 31
0.0
  0
LINE
  5
2E7
100
AcDbEntity
100
AcDbLine
  8
color#fdfdfdfd
 62
256
370
-1
  6
BYLAYER
 10
5.8552501725140234
 20
1.9672921270218575
 30
0.0
 11
5.8516347548815224
 21
1.9371090828754549
 31
0.0
  0
LINE
  5
2E8
100
AcDbEntity
100
AcDbLine
  8
color#fdfdfdfd
 62
256
370
-1
  6
BYLAYER
 10
5.8516347548815224
 20
1.9371090828754549
 30
0.0
 11
5.8469366058301242
 21
1.9070636093637003
 31
0.0
  0
LINE
  5
2E9
100
AcDbEntity
100
AcDbLine
  8
color#fdfdfdfd
 62
256
370
-1
  6
BYLAYER
 10
5.8469366058301242
 20
1.9070636093637003
 30
0.0
 11
5.8411723349585873
 21
1.8771937776183876
 31
0.0
  0
LINE
  5
2EA
100
AcDbEntity
100
AcDbLine
  8
color#fdfdfdfd
 62
256
370
-1
  6
BYLAYER
 10
5.8411723349585873
 20
1.8771937776183876
 30
0.0
 11
5.8343585518656731
 21
1.8475376587713142
 31
0.0
  0
LINE
  5
2EB
100
AcDbEntity
100
AcDbLine
  8
color#fdfdfdfd
 62
256
370
-1
  6
BYLAYER
 10
5.8343585518656731
 20
1.8475376587713142
 30
0.0
 11
5.8265118661501454
 21
1.8181333239542772
 31
0.0
  0
LINE
  5
2EC
100
AcDbEntity
100
AcDbLine
  8
color#fdfdfdfd
 62
256
370
-1
  6
BYLAYER
 10
5.8265118661501454
 20
1.8181333239542772
 30
0.0
 11
5.8222063753085118
 21
1.8035374727857085
 31
0.0
  0
LINE
  5
2ED
100
AcDbEntity
100
AcDbLine
  8
color#fdfdfdfd
 62
256
370
-1
  6
BYLAYER
 10
5.8222063753085118
 20
1.8035374727857085
 30
0.0
 11
5.7813660452688955
 21
1.7060315212462338
 31
0.0
  0
LINE
  5
2EE
100
AcDbEntity
100
AcDbLine
  8
color#fdfdfdfd
 62
256
370
-1
  6
BYLAYER
 10
5.7813660452688955
 20
1.7060315212462338
 30
0.0
 11
5.7692893549772215
 21
1.6820092474378359
 31
0.0
  0
LINE
  5
2EF
100
AcDbEntity
100
AcDbLine
  8
color#fdfdfdfd
 62
256
370
-1
  6
BYLAYER
 10
5.7692893549772215
 20
1.6820092474378359
 30
0.0
 11
5.7562827708026463
 21
1.6585427111930175
 31
0.0
  0
LINE
  5
2F0
100
AcDbEntity
100
AcDbLine
  8
color#fdfdfdfd
 62
256
370
-1
  6
BYLAYER
 10
5.7562827708026463
 20
1.6585427111930175
 30
0.0
 11
5.7423894959837778
 21
1.6356306970957766
 31
0.0
  0
LINE
  5
2F1
100
AcDbEntity
100
AcDbLine
  8
color#fdfdfdfd
 62
256
370
-1
  6
BYLAYER
 10
5.7423894959837778
 20
1.6356306970957766
 30
0.0
 11
5.7276527337592196
 21
1.6132719897301189
 31
0.0
  0
LINE
  5
2F2
100
AcDbEntity
100
AcDbLine
  8
color#fdfdfdfd
 62
256
370
-1
  6
BYLAYER
 10
5.7276527337592196
 20
1.6132719897301189
 30
0.0
 11
5.7121156873675787
 21
1.5914653736800437
 31
0.0
  0
LINE
  5
2F3
100
AcDbEntity
100
AcDbLine
  8
color#fdfdfdfd
 62
256
370
-1
  6
BYLAYER
 10
5.7121156873675787
 20
1.5914653736800437
 30
0.0
 11
5.6958215600474604
 21
1.5702096335295499
 31
0.0
  0
LINE
  5
2F4
100
AcDbEntity
100
AcDbLine
  8
color#fdfdfdfd
 62
256
370
-1
  6
BYLAYER
 10
5.6958215600474604
 20
1.5702096335295499
 30
0.0
 11
5.670055349410835
 21
1.5393562568930348
 31
0.0
  0
LINE
  5
2F5
100
AcDbEntity
100
AcDbLine
  8
color#fdfdfdfd
 62
256
370
-1
  6
BYLAYER
 10
5.670055349410835
 20
1.5393562568930348
 30
0.0
 11
5.6428287249022917
 21
1.5097355143155875
 31
0.0
  0
LINE
  5
2F6
100
AcDbEntity
100
AcDbLine
  8
color#fdfdfdfd
 62
256
370
-1
  6
BYLAYER
 10
5.6428287249022917
 20
1.5097355143155875
 30
0.0
 11
5.6142874974521249
 21
1.4813433037682122
 31
0.0
  0
LINE
  5
2F7
100
AcDbEntity
100
AcDbLine
  8
color#fdfdfdfd
 62
256
370
-1
  6
BYLAYER
 10
5.6142874974521249
 20
1.4813433037682122
 30
0.0
 11
5.5845774779906296
 21
1.454175523221914
 31
0.0
  0
LINE
  5
2F8
100
AcDbEntity
100
AcDbLine
  8
color#fdfdfdfd
 62
256
370
-1
  6
BYLAYER
 10
5.5845774779906296
 20
1.454175523221914
 30
0.0
 11
5.5433980166939865
 21
1.4198493947907547
 31
0.0
  0
LINE
  5
2F9
100
AcDbEntity
100
AcDbLine
  8
color#fdfdfdfd
 62
256
370
-1
  6
BYLAYER
 10
5.5433980166939865
 20
1.4198493947907547
 30
0.0
 11
5.5328594929946195
 21
1.411605703222711
 31
0.0
  0
LINE
  5
2FA
100
AcDbEntity
100
AcDbLine
  8
color#fdfdfdfd
 62
256
370
-1
  6
BYLAYER
 10
5.5328594929946195
 20
1.411605703222711
 30
0.0
 11
5.4462733893359578
 21
1.3571667384221269
 31
0.0
  0
LINE
  5
2FB
100
AcDbEntity
100
AcDbLine
  8
color#fdfdfdfd
 62
256
370
-1
  6
BYLAYER
 10
5.4462733893359578
 20
1.3571667384221269
 30
0.0
 11
5.4186218263767474
 21
1.3440252086350124
 31
0.0
  0
LINE
  5
2FC
100
AcDbEntity
100
AcDbLine
  8
color#fdfdfdfd
 62
256
370
-1
  6
BYLAYER
 10
5.4186218263767474
 20
1.3440252086350124
 30
0.0
 11
5.321458409404503
 21
1.3028700997466993
 31
0.0
  0
LINE
  5
2FD
100
AcDbEntity
100
AcDbLine
  8
color#fdfdfdfd
 62
256
370
-1
  6
BYLAYER
 10
5.321458409404503
 20
1.3028700997466993
 30
0.0
 11
5.2921801623008244
 21
1.2944957792717473
 31
0.0
  0
LINE
  5
2FE
100
AcDbEntity
100
AcDbLine
  8
color#fdfdfdfd
 62
256
370
-1
  6
BYLAYER
 10
5.2921801623008244
 20
1.2944957792717473
 30
0.0
 11
5.2626299015938507
 21
1.2871474424388683
 31
0.0
  0
LINE
  5
2FF
100
AcDbEntity
100
AcDbLine
  8
color#fdfdfdfd
 62
256
370
-1
  6
BYLAYER
 10
5.2626299015938507
 20
1.2871474424388683
 30
0.0
 11
5.2328458540134521
 21
1.2808418994986903
 31
0.0
  0
LINE
  5
300
100
AcDbEntity
100
AcDbLine
  8
color#fdfdfdfd
 62
256
370
-1
  6
BYLAYER
 10
5.2328458540134521
 20
1.2808418994986903
 30
0.0
 11
5.2028662462894948
 21
1.2755959607018497
 31
0.0
  0
LINE
  5
301
100
AcDbEntity
100
AcDbLine
  8
color#fdfdfdfd
 62
256
370
-1
  6
BYLAYER
 10
5.2028662462894948
 20
1.2755959607018497
 30
0.0
 11
5.1727293051518437
 21
1.2714264362989738
 31
0.0
  0
LINE
  5
302
100
AcDbEntity
100
AcDbLine
  8
color#fdfdfdfd
 62
256
370
-1
  6
BYLAYER
 10
5.1727293051518437
 20
1.2714264362989738
 30
0.0
 11
5.1424732573303711
 21
1.2683501365406937
 31
0.0
  0
LINE
  5
303
100
AcDbEntity
100
AcDbLine
  8
color#fdfdfdfd
 62
256
370
-1
  6
BYLAYER
 10
5.1424732573303711
 20
1.2683501365406937
 30
0.0
 11
5.1121363295549402
 21
1.2663838716776437
 31
0.0
  0
LINE
  5
304
100
AcDbEntity
100
AcDbLine
  8
color#fdfdfdfd
 62
256
370
-1
  6
BYLAYER
 10
5.1121363295549402
 20
1.2663838716776437
 30
0.0
 11
5.0817567485554225
 21
1.2655444519604515
 31
0.0
  0
LINE
  5
305
100
AcDbEntity
100
AcDbLine
  8
color#fdfdfdfd
 62
256
370
-1
  6
BYLAYER
 10
5.0817567485554225
 20
1.2655444519604515
 30
0.0
 11
5.0513727410616811
 21
1.2658486876397501
 31
0.0
  0
LINE
  5
306
100
AcDbEntity
100
AcDbLine
  8
color#fdfdfdfd
 62
256
370
-1
  6
BYLAYER
 10
5.0513727410616811
 20
1.2658486876397501
 30
0.0
 11
5.0210225338035883
 21
1.2673133889661681
 31
0.0
  0
LINE
  5
307
100
AcDbEntity
100
AcDbLine
  8
color#fdfdfdfd
 62
256
370
-1
  6
BYLAYER
 10
5.0210225338035883
 20
1.2673133889661681
 30
0.0
 11
4.9907443535110083
 21
1.2699553661903389
 31
0.0
  0
LINE
  5
308
100
AcDbEntity
100
AcDbLine
  8
color#fdfdfdfd
 62
256
370
-1
  6
BYLAYER
 10
4.9907443535110083
 20
1.2699553661903389
 30
0.0
 11
4.9605764269138106
 21
1.2737914295628943
 31
0.0
  0
LINE
  5
309
100
AcDbEntity
100
AcDbLine
  8
color#fdfdfdfd
 62
256
370
-1
  6
BYLAYER
 10
4.9605764269138106
 20
1.2737914295628943
 30
0.0
 11
4.9305569807418612
 21
1.2788383893344626
 31
0.0
  0
LINE
  5
30A
100
AcDbEntity
100
AcDbLine
  8
color#fdfdfdfd
 62
256
370
-1
  6
BYLAYER
 10
4.9305569807418612
 20
1.2788383893344626
 30
0.0
 11
4.9156148836684377
 21
1.2818212085732001
 31
0.0
  0
LINE
  5
30B
100
AcDbEntity
100
AcDbLine
  8
color#fdfdfdfd
 62
256
370
-1
  6
BYLAYER
 10
4.9156148836684377
 20
1.2818212085732001
 30
0.0
 11
4.9007242417250279
 21
1.2851130557556776
 31
0.0
  0
LINE
  5
30C
100
AcDbEntity
100
AcDbLine
  8
color#fdfdfdfd
 62
256
370
-1
  6
BYLAYER
 10
4.9007242417250279
 20
1.2851130557556776
 30
0.0
 11
4.8858898332528637
 21
1.2887160321632247
 31
0.0
  0
LINE
  5
30D
100
AcDbEntity
100
AcDbLine
  8
color#fdfdfdfd
 62
256
370
-1
  6
BYLAYER
 10
4.8858898332528637
 20
1.2887160321632247
 30
0.0
 11
4.7071521387047257
 21
1.3581653557777358
 31
0.0
  0
LINE
  5
30E
100
AcDbEntity
100
AcDbLine
  8
color#fdfdfdfd
 62
256
370
-1
  6
BYLAYER
 10
4.7071521387047257
 20
1.3581653557777358
 30
0.0
 11
4.6749356848008903
 21
1.3813190623083855
 31
0.0
  0
LINE
  5
30F
100
AcDbEntity
100
AcDbLine
  8
color#fdfdfdfd
 62
256
370
-1
  6
BYLAYER
 10
4.6749356848008903
 20
1.3813190623083855
 30
0.0
 11
4.6432221502131625
 21
1.4050836886260885
 31
0.0
  0
LINE
  5
310
100
AcDbEntity
100
AcDbLine
  8
color#fdfdfdfd
 62
256
370
-1
  6
BYLAYER
 10
4.6432221502131625
 20
1.4050836886260885
 30
0.0
 11
4.6119826539441746
 21
1.4294240803314564
 31
0.0
  0
LINE
  5
311
100
AcDbEntity
100
AcDbLine
  8
color#fdfdfdfd
 62
256
370
-1
  6
BYLAYER
 10
4.6119826539441746
 20
1.4294240803314564
 30
0.0
 11
4.5811883149965542
 21
1.4543050830251127
 31
0.0
  0
LINE
  5
312
100
AcDbEntity
100
AcDbLine
  8
color#fdfdfdfd
 62
256
370
-1
  6
BYLAYER
 10
4.5811883149965542
 20
1.4543050830251127
 30
0.0
 11
4.5508102523729326
 21
1.4796915423076713
 31
0.0
  0
LINE
  5
313
100
AcDbEntity
100
AcDbLine
  8
color#fdfdfdfd
 62
256
370
-1
  6
BYLAYER
 10
4.5508102523729326
 20
1.4796915423076713
 30
0.0
 11
4.5208195850759392
 21
1.5055483037797543
 31
0.0
  0
LINE
  5
314
100
AcDbEntity
100
AcDbLine
  8
color#fdfdfdfd
 62
256
370
-1
  6
BYLAYER
 10
4.5208195850759392
 20
1.5055483037797543
 30
0.0
 11
4.4911874321082017
 21
1.5318402130419804
 31
0.0
  0
LINE
  5
315
100
AcDbEntity
100
AcDbLine
  8
color#fdfdfdfd
 62
256
370
-1
  6
BYLAYER
 10
4.4911874321082017
 20
1.5318402130419804
 30
0.0
 11
4.461884912472355
 21
1.558532115694963
 31
0.0
  0
LINE
  5
316
100
AcDbEntity
100
AcDbLine
  8
color#fdfdfdfd
 62
256
370
-1
  6
BYLAYER
 10
4.461884912472355
 20
1.558532115694963
 30
0.0
 11
4.432883145171024
 21
1.5855888573393275
 31
0.0
  0
LINE
  5
317
100
AcDbEntity
100
AcDbLine
  8
color#fdfdfdfd
 62
256
370
-1
  6
BYLAYER
 10
4.432883145171024
 20
1.5855888573393275
 30
0.0
 11
4.4041532492068383
 21
1.6129752835756901
 31
0.0
  0
LINE
  5
318
100
AcDbEntity
100
AcDbLine
  8
color#fdfdfdfd
 62
256
370
-1
  6
BYLAYER
 10
4.4041532492068383
 20
1.6129752835756901
 30
0.0
 11
4.3756663435824308
 21
1.6406562400046676
 31
0.0
  0
LINE
  5
319
100
AcDbEntity
100
AcDbLine
  8
color#fdfdfdfd
 62
256
370
-1
  6
BYLAYER
 10
4.3756663435824308
 20
1.6406562400046676
 30
0.0
 11
4.3193059793634623
 21
1.6967611258429456
 31
0.0
  0
LINE
  5
31A
100
AcDbEntity
100
AcDbLine
  8
color#fdfdfdfd
 62
256
370
-1
  6
BYLAYER
 10
4.3193059793634623
 20
1.6967611258429456
 30
0.0
 11
4.0978079366045961
 21
1.925930997024409
 31
0.0
  0
LINE
  5
31B
100
AcDbEntity
100
AcDbLine
  8
color#fdfdfdfd
 62
256
370
-1
  6
BYLAYER
 10
4.0978079366045961
 20
1.925930997024409
 30
0.0
 11
4.0143078375813097
 21
2.0113156693908798
 31
0.0
  0
LINE
  5
31C
100
AcDbEntity
100
AcDbLine
  8
color#fdfdfdfd
 62
256
370
-1
  6
BYLAYER
 10
4.0143078375813097
 20
2.0113156693908798
 30
0.0
 11
3.9578825217776998
 21
2.0673092179738748
 31
0.0
  0
LINE
  5
31D
100
AcDbEntity
100
AcDbLine
  8
color#fdfdfdfd
 62
256
370
-1
  6
BYLAYER
 10
3.9578825217776998
 20
2.0673092179738748
 30
0.0
 11
3.9293556459473566
 21
2.0949216591688327
 31
0.0
  0
LINE
  5
31E
100
AcDbEntity
100
AcDbLine
  8
color#fdfdfdfd
 62
256
370
-1
  6
BYLAYER
 10
3.9293556459473566
 20
2.0949216591688327
 30
0.0
 11
3.9005807835014972
 21
2.1222310057669214
 31
0.0
  0
LINE
  5
31F
100
AcDbEntity
100
AcDbLine
  8
color#fdfdfdfd
 62
256
370
-1
  6
BYLAYER
 10
3.9005807835014972
 20
2.1222310057669214
 30
0.0
 11
3.8715290534427473
 21
2.1492021033687609
 31
0.0
  0
LINE
  5
320
100
AcDbEntity
100
AcDbLine
  8
color#fdfdfdfd
 62
256
370
-1
  6
BYLAYER
 10
3.8715290534427473
 20
2.1492021033687609
 30
0.0
 11
3.8436358261805657
 21
2.1749944839685704
 31
0.0
  0
LINE
  5
321
100
AcDbEntity
100
AcDbLine
  8
color#fdfdfdfd
 62
256
370
-1
  6
BYLAYER
 10
3.8436358261805657
 20
2.1749944839685704
 30
0.0
 11
3.8172518283192036
 21
2.2021342833184474
 31
0.0
  0
LINE
  5
322
100
AcDbEntity
100
AcDbLine
  8
color#fdfdfdfd
 62
256
370
-1
  6
BYLAYER
 10
3.8172518283192036
 20
2.2021342833184474
 30
0.0
 11
3.7923926074371681
 21
2.2305390708467039
 31
0.0
  0
LINE
  5
323
100
AcDbEntity
100
AcDbLine
  8
color#fdfdfdfd
 62
256
370
-1
  6
BYLAYER
 10
3.7923926074371681
 20
2.2305390708467039
 30
0.0
 11
3.7690737111129611
 21
2.2601264159816625
 31
0.0
  0
LINE
  5
324
100
AcDbEntity
100
AcDbLine
  8
color#fdfdfdfd
 62
256
370
-1
  6
BYLAYER
 10
3.7690737111129611
 20
2.2601264159816625
 30
0.0
 11
3.7473106869250881
 21
2.2908138881516322
 31
0.0
  0
LINE
  5
325
100
AcDbEntity
100
AcDbLine
  8
color#fdfdfdfd
 62
256
370
-1
  6
BYLAYER
 10
3.7473106869250881
 20
2.2908138881516322
 30
0.0
 11
3.7271190824520488
 21
2.3225190567849356
 31
0.0
  0
LINE
  5
326
100
AcDbEntity
100
AcDbLine
  8
color#fdfdfdfd
 62
256
370
-1
  6
BYLAYER
 10
3.7271190824520488
 20
2.3225190567849356
 30
0.0
 11
3.7085144452723475
 21
2.3551594913098879
 31
0.0
  0
LINE
  5
327
100
AcDbEntity
100
AcDbLine
  8
color#fdfdfdfd
 62
256
370
-1
  6
BYLAYER
 10
3.7085144452723475
 20
2.3551594913098879
 30
0.0
 11
3.6915123229644902
 21
2.3886527611548019
 31
0.0
  0
LINE
  5
328
100
AcDbEntity
100
AcDbLine
  8
color#fdfdfdfd
 62
256
370
-1
  6
BYLAYER
 10
3.6915123229644902
 20
2.3886527611548019
 30
0.0
 11
3.6761282631069787
 21
2.422916435747998
 31
0.0
  0
LINE
  5
329
100
AcDbEntity
100
AcDbLine
  8
color#fdfdfdfd
 62
256
370
-1
  6
BYLAYER
 10
3.6761282631069787
 20
2.422916435747998
 30
0.0
 11
3.6623778132783138
 21
2.4578680845177936
 31
0.0
  0
LINE
  5
32A
100
AcDbEntity
100
AcDbLine
  8
color#fdfdfdfd
 62
256
370
-1
  6
BYLAYER
 10
3.6623778132783138
 20
2.4578680845177936
 30
0.0
 11
3.6502765210570018
 21
2.4934252768925029
 31
0.0
  0
LINE
  5
32B
100
AcDbEntity
100
AcDbLine
  8
color#fdfdfdfd
 62
256
370
-1
  6
BYLAYER
 10
3.6502765210570018
 20
2.4934252768925029
 30
0.0
 11
3.639839934021547
 21
2.5295055823004415
 31
0.0
  0
LINE
  5
32C
100
AcDbEntity
100
AcDbLine
  8
color#fdfdfdfd
 62
256
370
-1
  6
BYLAYER
 10
3.639839934021547
 20
2.5295055823004415
 30
0.0
 11
3.6310835997504491
 21
2.5660265701699285
 31
0.0
  0
LINE
  5
32D
100
AcDbEntity
100
AcDbLine
  8
color#fdfdfdfd
 62
256
370
-1
  6
BYLAYER
 10
3.6310835997504491
 20
2.5660265701699285
 30
0.0
 11
3.6240230658222146
 21
2.6029058099292794
 31
0.0
  0
LINE
  5
32E
100
AcDbEntity
100
AcDbLine
  8
color#fdfdfdfd
 62
256
370
-1
  6
BYLAYER
 10
3.6240230658222146
 20
2.6029058099292794
 30
0.0
 11
3.6186738798153462
 21
2.6400608710068099
 31
0.0
  0
LINE
  5
32F
100
AcDbEntity
100
AcDbLine
  8
color#fdfdfdfd
 62
256
370
-1
  6
BYLAYER
 10
3.6186738798153462
 20
2.6400608710068099
 30
0.0
 11
3.6150515893083455
 21
2.677409322830838
 31
0.0
  0
LINE
  5
330
100
AcDbEntity
100
AcDbLine
  8
color#fdfdfdfd
 62
256
370
-1
  6
BYLAYER
 10
3.6150515893083455
 20
2.677409322830838
 30
0.0
 11
3.613171741879718
 21
2.7148687348296781
 31
0.0
  0
LINE
  5
331
100
AcDbEntity
100
AcDbLine
  8
color#fdfdfdfd
 62
256
370
-1
  6
BYLAYER
 10
3.613171741879718
 20
2.7148687348296781
 30
0.0
 11
3.6130498851079653
 21
2.7523566764316505
 31
0.0
  0
LINE
  5
332
100
AcDbEntity
100
AcDbLine
  8
color#fdfdfdfd
 62
256
370
-1
  6
BYLAYER
 10
3.6130498851079653
 20
2.7523566764316505
 30
0.0
 11
3.614701566571592
 21
2.7897907170650669
 31
0.0
  0
LINE
  5
333
100
AcDbEntity
100
AcDbLine
  8
color#fdfdfdfd
 62
256
370
-1
  6
BYLAYER
 10
3.614701566571592
 20
2.7897907170650669
 30
0.0
 11
3.6181423338491023
 21
2.8270884261582472
 31
0.0
  0
LINE
  5
334
100
AcDbEntity
100
AcDbLine
  8
color#fdfdfdfd
 62
256
370
-1
  6
BYLAYER
 10
3.6181423338491023
 20
2.8270884261582472
 30
0.0
 11
3.6233877345189973
 21
2.864167373139507
 31
0.0
  0
LINE
  5
335
100
AcDbEntity
100
AcDbLine
  8
color#fdfdfdfd
 62
256
370
-1
  6
BYLAYER
 10
3.6233877345189973
 20
2.864167373139507
 30
0.0
 11
3.6304533161597821
 21
2.9009451274371632
 31
0.0
  0
LINE
  5
336
100
AcDbEntity
100
AcDbLine
  8
color#fdfdfdfd
 62
256
370
-1
  6
BYLAYER
 10
3.6304533161597821
 20
2.9009451274371632
 30
0.0
 11
3.6393546263499581
 21
2.9373392584795304
 31
0.0
  0
LINE
  5
337
100
AcDbEntity
100
AcDbLine
  8
color#fdfdfdfd
 62
256
370
-1
  6
BYLAYER
 10
3.6393546263499581
 20
2.9373392584795304
 30
0.0
 11
3.650107212668031
 21
2.9732673356949277
 31
0.0
  0
LINE
  5
338
100
AcDbEntity
100
AcDbLine
  8
color#fdfdfdfd
 62
256
370
-1
  6
BYLAYER
 10
3.650107212668031
 20
2.9732673356949277
 30
0.0
 11
3.6627266226925022
 21
3.0086469285116704
 31
0.0
  0
LINE
  5
339
100
AcDbEntity
100
AcDbLine
  8
color#fdfdfdfd
 62
256
370
-1
  6
BYLAYER
 10
3.6627266226925022
 20
3.0086469285116704
 30
0.0
 11
3.6772284040018772
 21
3.0433956063580752
 31
0.0
  0
LINE
  5
33A
100
AcDbEntity
100
AcDbLine
  8
color#fdfdfdfd
 62
256
370
-1
  6
BYLAYER
 10
3.6772284040018772
 20
3.0433956063580752
 30
0.0
 11
3.6936281041746568
 21
3.0774309386624585
 31
0.0
  0
LINE
  5
33B
100
AcDbEntity
100
AcDbLine
  8
color#fdfdfdfd
 62
256
370
-1
  6
BYLAYER
 10
3.6936281041746568
 20
3.0774309386624585
 30
0.0
 11
3.711941270789346
 21
3.110670494853137
 31
0.0
  0
LINE
  5
33C
100
AcDbEntity
100
AcDbLine
  8
color#fdfdfdfd
 62
256
370
-1
  6
BYLAYER
 10
3.711941270789346
 20
3.110670494853137
 30
0.0
 11
3.7321834514244481
 21
3.1430318443584273
 31
0.0
  0
LINE
  5
33D
100
AcDbEntity
100
AcDbLine
  8
color#fdfdfdfd
 62
256
370
-1
  6
BYLAYER
 10
5.8615590483739251
 20
1.5022684893330533
 30
0.0
 11
6.2731973954974993
 21
1.9107695598635697
 31
0.0
  0
LINE
  5
33E
100
AcDbEntity
100
AcDbLine
  8
color#fdfdfdfd
 62
256
370
-1
  6
BYLAYER
 10
6.2731973954974993
 20
1.9107695598635697
 30
0.0
 11
6.4014399489594958
 21
1.7828991889718782
 31
0.0
  0
LINE
  5
33F
100
AcDbEntity
100
AcDbLine
  8
color#fdfdfdfd
 62
256
370
-1
  6
BYLAYER
 10
6.4014399489594958
 20
1.7828991889718782
 30
0.0
 11
6.4357933524328708
 21
1.747272801443297
 31
0.0
  0
LINE
  5
340
100
AcDbEntity
100
AcDbLine
  8
color#fdfdfdfd
 62
256
370
-1
  6
BYLAYER
 10
6.4357933524328708
 20
1.747272801443297
 30
0.0
 11
6.4578993595340002
 21
1.7229195311804786
 31
0.0
  0
LINE
  5
341
100
AcDbEntity
100
AcDbLine
  8
color#fdfdfdfd
 62
256
370
-1
  6
BYLAYER
 10
6.4578993595340002
 20
1.7229195311804786
 30
0.0
 11
6.4791414853368323
 21
1.6979362847217194
 31
0.0
  0
LINE
  5
342
100
AcDbEntity
100
AcDbLine
  8
color#fdfdfdfd
 62
256
370
-1
  6
BYLAYER
 10
6.4791414853368323
 20
1.6979362847217194
 30
0.0
 11
6.4893778235210124
 21
1.6851687507757573
 31
0.0
  0
LINE
  5
343
100
AcDbEntity
100
AcDbLine
  8
color#fdfdfdfd
 62
256
370
-1
  6
BYLAYER
 10
6.4893778235210124
 20
1.6851687507757573
 30
0.0
 11
6.4993252683041662
 21
1.6721961192090815
 31
0.0
  0
LINE
  5
344
100
AcDbEntity
100
AcDbLine
  8
color#fdfdfdfd
 62
256
370
-1
  6
BYLAYER
 10
6.4993252683041662
 20
1.6721961192090815
 30
0.0
 11
6.5089595119941457
 21
1.6590025221644511
 31
0.0
  0
LINE
  5
345
100
AcDbEntity
100
AcDbLine
  8
color#fdfdfdfd
 62
256
370
-1
  6
BYLAYER
 10
6.5089595119941457
 20
1.6590025221644511
 30
0.0
 11
6.518256246898801
 21
1.6455720917846246
 31
0.0
  0
LINE
  5
346
100
AcDbEntity
100
AcDbLine
  8
color#fdfdfdfd
 62
256
370
-1
  6
BYLAYER
 10
6.518256246898801
 20
1.6455720917846246
 30
0.0
 11
6.5271911653259798
 21
1.6318889602123576
 31
0.0
  0
LINE
  5
347
100
AcDbEntity
100
AcDbLine
  8
color#fdfdfdfd
 62
256
370
-1
  6
BYLAYER
 10
6.5271911653259798
 20
1.6318889602123576
 30
0.0
 11
6.5357399595835339
 21
1.6179372595904096
 31
0.0
  0
LINE
  5
348
100
AcDbEntity
100
AcDbLine
  8
color#fdfdfdfd
 62
256
370
-1
  6
BYLAYER
 10
6.5357399595835339
 20
1.6179372595904096
 30
0.0
 11
6.5438783219793129
 21
1.6037011220615378
 31
0.0
  0
LINE
  5
349
100
AcDbEntity
100
AcDbLine
  8
color#fdfdfdfd
 62
256
370
-1
  6
BYLAYER
 10
6.5438783219793129
 20
1.6037011220615378
 30
0.0
 11
6.5515819448211676
 21
1.5891646797684982
 31
0.0
  0
LINE
  5
34A
100
AcDbEntity
100
AcDbLine
  8
color#fdfdfdfd
 62
256
370
-1
  6
BYLAYER
 10
6.5515819448211676
 20
1.5891646797684982
 30
0.0
 11
6.5588265204169449
 21
1.5743120648540498
 31
0.0
  0
LINE
  5
34B
100
AcDbEntity
100
AcDbLine
  8
color#fdfdfdfd
 62
256
370
-1
  6
BYLAYER
 10
6.5588265204169449
 20
1.5743120648540498
 30
0.0
 11
6.5655877410744976
 21
1.5591274094609513
 31
0.0
  0
LINE
  5
34C
100
AcDbEntity
100
AcDbLine
  8
color#fdfdfdfd
 62
256
370
-1
  6
BYLAYER
 10
6.5655877410744976
 20
1.5591274094609513
 30
0.0
 11
6.5718412991016741
 21
1.5435948457319582
 31
0.0
  0
LINE
  5
34D
100
AcDbEntity
100
AcDbLine
  8
color#fdfdfdfd
 62
256
370
-1
  6
BYLAYER
 10
6.5718412991016741
 20
1.5435948457319582
 30
0.0
 11
6.584584892339433
 21
1.5073639702288242
 31
0.0
  0
LINE
  5
34E
100
AcDbEntity
100
AcDbLine
  8
color#fdfdfdfd
 62
256
370
-1
  6
BYLAYER
 10
6.584584892339433
 20
1.5073639702288242
 30
0.0
 11
6.5991616749858091
 21
1.4583986710809624
 31
0.0
  0
LINE
  5
34F
100
AcDbEntity
100
AcDbLine
  8
color#fdfdfdfd
 62
256
370
-1
  6
BYLAYER
 10
6.5991616749858091
 20
1.4583986710809624
 30
0.0
 11
6.6505646348494336
 21
1.2079954275015912
 31
0.0
  0
LINE
  5
350
100
AcDbEntity
100
AcDbLine
  8
color#fdfdfdfd
 62
256
370
-1
  6
BYLAYER
 10
6.6505646348494336
 20
1.2079954275015912
 30
0.0
 11
6.6554936378657921
 21
1.1829465271205484
 31
0.0
  0
LINE
  5
351
100
AcDbEntity
100
AcDbLine
  8
color#fdfdfdfd
 62
256
370
-1
  6
BYLAYER
 10
6.6554936378657921
 20
1.1829465271205484
 30
0.0
 11
6.6670738040335262
 21
1.112683412928873
 31
0.0
  0
LINE
  5
352
100
AcDbEntity
100
AcDbLine
  8
color#fdfdfdfd
 62
256
370
-1
  6
BYLAYER
 10
6.6670738040335262
 20
1.112683412928873
 30
0.0
 11
6.7519620545276462
 21
0.6689587884515752
 31
0.0
  0
LINE
  5
353
100
AcDbEntity
100
AcDbLine
  8
color#fdfdfdfd
 62
256
370
-1
  6
BYLAYER
 10
6.7519620545276462
 20
0.6689587884515752
 30
0.0
 11
6.7523444641087256
 21
0.658261901651588
 31
0.0
  0
LINE
  5
354
100
AcDbEntity
100
AcDbLine
  8
color#fdfdfdfd
 62
256
370
-1
  6
BYLAYER
 10
6.7523444641087256
 20
0.658261901651588
 30
0.0
 11
6.7533323619244001
 21
0.647262344621152
 31
0.0
  0
LINE
  5
355
100
AcDbEntity
100
AcDbLine
  8
color#fdfdfdfd
 62
256
370
-1
  6
BYLAYER
 10
6.7533323619244001
 20
0.647262344621152
 30
0.0
 11
6.7548483398204091
 21
0.6359927696335785
 31
0.0
  0
LINE
  5
356
100
AcDbEntity
100
AcDbLine
  8
color#fdfdfdfd
 62
256
370
-1
  6
BYLAYER
 10
6.7548483398204091
 20
0.6359927696335785
 30
0.0
 11
6.7568149896424785
 21
0.6244858289621939
 31
0.0
  0
LINE
  5
357
100
AcDbEntity
100
AcDbLine
  8
color#fdfdfdfd
 62
256
370
-1
  6
BYLAYER
 10
6.7568149896424785
 20
0.6244858289621939
 30
0.0
 11
6.7591549032363458
 21
0.6127741748803098
 31
0.0
  0
LINE
  5
358
100
AcDbEntity
100
AcDbLine
  8
color#fdfdfdfd
 62
256
370
-1
  6
BYLAYER
 10
6.7591549032363458
 20
0.6127741748803098
 30
0.0
 11
6.7646448891223914
 21
0.5888673355783283
 31
0.0
  0
LINE
  5
359
100
AcDbEntity
100
AcDbLine
  8
color#fdfdfdfd
 62
256
370
-1
  6
BYLAYER
 10
6.7646448891223914
 20
0.5888673355783283
 30
0.0
 11
6.7794833990451746
 21
0.5278034117719762
 31
0.0
  0
LINE
  5
35A
100
AcDbEntity
100
AcDbLine
  8
color#fdfdfdfd
 62
256
370
-1
  6
BYLAYER
 10
6.7794833990451746
 20
0.5278034117719762
 30
0.0
 11
6.7820227292597579
 21
0.5156295322455873
 31
0.0
  0
LINE
  5
35B
100
AcDbEntity
100
AcDbLine
  8
color#fdfdfdfd
 62
256
370
-1
  6
BYLAYER
 10
6.7820227292597579
 20
0.5156295322455873
 30
0.0
 11
6.7842386498577261
 21
0.5035448097685686
 31
0.0
  0
LINE
  5
35C
100
AcDbEntity
100
AcDbLine
  8
color#fdfdfdfd
 62
256
370
-1
  6
BYLAYER
 10
6.7842386498577261
 20
0.5035448097685686
 30
0.0
 11
6.7860537526848104
 21
0.4915818966142369
 31
0.0
  0
LINE
  5
35D
100
AcDbEntity
100
AcDbLine
  8
color#fdfdfdfd
 62
256
370
-1
  6
BYLAYER
 10
6.7860537526848104
 20
0.4915818966142369
 30
0.0
 11
6.7873906295867421
 21
0.4797734450559127
 31
0.0
  0
LINE
  5
35E
100
AcDbEntity
100
AcDbLine
  8
color#fdfdfdfd
 62
256
370
-1
  6
BYLAYER
 10
6.7873906295867421
 20
0.4797734450559127
 30
0.0
 11
6.7881718724092552
 21
0.4681521073669141
 31
0.0
  0
LINE
  5
35F
100
AcDbEntity
100
AcDbLine
  8
color#fdfdfdfd
 62
256
370
-1
  6
BYLAYER
 10
6.7881718724092552
 20
0.4681521073669141
 30
0.0
 11
6.7883200729980793
 21
0.4567505358205608
 31
0.0
  0
LINE
  5
360
100
AcDbEntity
100
AcDbLine
  8
color#fdfdfdfd
 62
256
370
-1
  6
BYLAYER
 10
6.7883200729980793
 20
0.4567505358205608
 30
0.0
 11
6.787757823198949
 21
0.4456013826901679
 31
0.0
  0
LINE
  5
361
100
AcDbEntity
100
AcDbLine
  8
color#fdfdfdfd
 62
256
370
-1
  6
BYLAYER
 10
6.787757823198949
 20
0.4456013826901679
 30
0.0
 11
6.7864077148575968
 21
0.4347373002490574
 31
0.0
  0
LINE
  5
362
100
AcDbEntity
100
AcDbLine
  8
color#fdfdfdfd
 62
256
370
-1
  6
BYLAYER
 10
6.7864077148575968
 20
0.4347373002490574
 30
0.0
 11
6.7841923398197519
 21
0.4241909407705451
 31
0.0
  0
LINE
  5
363
100
AcDbEntity
100
AcDbLine
  8
color#fdfdfdfd
 62
256
370
-1
  6
BYLAYER
 10
6.7841923398197519
 20
0.4241909407705451
 30
0.0
 11
6.7810342899311475
 21
0.4139949565279516
 31
0.0
  0
LINE
  5
364
100
AcDbEntity
100
AcDbLine
  8
color#fdfdfdfd
 62
256
370
-1
  6
BYLAYER
 10
6.7810342899311475
 20
0.4139949565279516
 30
0.0
 11
6.7768561570375168
 21
0.404181999794595
 31
0.0
  0
LINE
  5
365
100
AcDbEntity
100
AcDbLine
  8
color#fdfdfdfd
 62
256
370
-1
  6
BYLAYER
 10
6.7768561570375168
 20
0.404181999794595
 30
0.0
 11
6.77158053298459
 21
0.3947847228437927
 31
0.0
  0
LINE
  5
366
100
AcDbEntity
100
AcDbLine
  8
color#fdfdfdfd
 62
256
370
-1
  6
BYLAYER
 10
6.77158053298459
 20
0.3947847228437927
 30
0.0
 11
6.7651300096181011
 21
0.3858357779488652
 31
0.0
  0
LINE
  5
367
100
AcDbEntity
100
AcDbLine
  8
color#fdfdfdfd
 62
256
370
-1
  6
BYLAYER
 10
6.7651300096181011
 20
0.3858357779488652
 30
0.0
 11
6.7574271787837814
 21
0.3773678173831283
 31
0.0
  0
LINE
  5
368
100
AcDbEntity
100
AcDbLine
  8
color#fdfdfdfd
 62
256
370
-1
  6
BYLAYER
 10
6.7574271787837814
 20
0.3773678173831283
 30
0.0
 11
6.7483946323273631
 21
0.3694134934199024
 31
0.0
  0
LINE
  5
369
100
AcDbEntity
100
AcDbLine
  8
color#fdfdfdfd
 62
256
370
-1
  6
BYLAYER
 10
6.7483946323273631
 20
0.3694134934199024
 30
0.0
 11
6.7379549620945776
 21
0.3620054583325059
 31
0.0
  0
LINE
  5
36A
100
AcDbEntity
100
AcDbLine
  8
color#fdfdfdfd
 62
256
370
-1
  6
BYLAYER
 10
6.7379549620945776
 20
0.3620054583325059
 30
0.0
 11
6.7260307599311568
 21
0.3551763643942568
 31
0.0
  0
LINE
  5
36B
100
AcDbEntity
100
AcDbLine
  8
color#fdfdfdfd
 62
256
370
-1
  6
BYLAYER
 10
6.7260307599311568
 20
0.3551763643942568
 30
0.0
 11
6.7171614978568597
 21
0.3536754335149013
 31
0.0
  0
LINE
  5
36C
100
AcDbEntity
100
AcDbLine
  8
color#fdfdfdfd
 62
256
370
-1
  6
BYLAYER
 10
6.7171614978568597
 20
0.3536754335149013
 30
0.0
 11
6.7083014713605005
 21
0.3525774012081884
 31
0.0
  0
LINE
  5
36D
100
AcDbEntity
100
AcDbLine
  8
color#fdfdfdfd
 62
256
370
-1
  6
BYLAYER
 10
6.7083014713605005
 20
0.3525774012081884
 30
0.0
 11
6.6994499915898587
 21
0.3518581905473823
 31
0.0
  0
LINE
  5
36E
100
AcDbEntity
100
AcDbLine
  8
color#fdfdfdfd
 62
256
370
-1
  6
BYLAYER
 10
6.6994499915898587
 20
0.3518581905473823
 30
0.0
 11
6.6906063696927021
 21
0.3514937246057591
 31
0.0
  0
LINE
  5
36F
100
AcDbEntity
100
AcDbLine
  8
color#fdfdfdfd
 62
256
370
-1
  6
BYLAYER
 10
6.6906063696927021
 20
0.3514937246057591
 30
0.0
 11
6.6729399441099613
 21
0.3517327191731339
 31
0.0
  0
LINE
  5
370
100
AcDbEntity
100
AcDbLine
  8
color#fdfdfdfd
 62
256
370
-1
  6
BYLAYER
 10
6.6729399441099613
 20
0.3517327191731339
 30
0.0
 11
6.6552966837944707
 21
0.3531017694964775
 31
0.0
  0
LINE
  5
371
100
AcDbEntity
100
AcDbLine
  8
color#fdfdfdfd
 62
256
370
-1
  6
BYLAYER
 10
6.6552966837944707
 20
0.3531017694964775
 30
0.0
 11
6.6288631732833867
 21
0.3568528533061723
 31
0.0
  0
LINE
  5
372
100
AcDbEntity
100
AcDbLine
  8
color#fdfdfdfd
 62
256
370
-1
  6
BYLAYER
 10
6.6288631732833867
 20
0.3568528533061723
 30
0.0
 11
6.5143232527551991
 21
0.3816223296378898
 31
0.0
  0
LINE
  5
373
100
AcDbEntity
100
AcDbLine
  8
color#fdfdfdfd
 62
256
370
-1
  6
BYLAYER
 10
6.5143232527551991
 20
0.3816223296378898
 30
0.0
 11
6.4877874790226997
 21
0.3856436189645807
 31
0.0
  0
LINE
  5
374
100
AcDbEntity
100
AcDbLine
  8
color#fdfdfdfd
 62
256
370
-1
  6
BYLAYER
 10
6.4877874790226997
 20
0.3856436189645807
 30
0.0
 11
6.4700547383884706
 21
0.3872490991152968
 31
0.0
  0
LINE
  5
375
100
AcDbEntity
100
AcDbLine
  8
color#fdfdfdfd
 62
256
370
-1
  6
BYLAYER
 10
6.4700547383884706
 20
0.3872490991152968
 30
0.0
 11
5.946225334807874
 21
0.4879825894274698
 31
0.0
  0
LINE
  5
376
100
AcDbEntity
100
AcDbLine
  8
color#fdfdfdfd
 62
256
370
-1
  6
BYLAYER
 10
5.946225334807874
 20
0.4879825894274698
 30
0.0
 11
5.9165185930017241
 21
0.4897968851639405
 31
0.0
  0
LINE
  5
377
100
AcDbEntity
100
AcDbLine
  8
color#fdfdfdfd
 62
256
370
-1
  6
BYLAYER
 10
5.9165185930017241
 20
0.4897968851639405
 30
0.0
 11
5.8870861378588719
 21
0.4925562686933158
 31
0.0
  0
LINE
  5
378
100
AcDbEntity
100
AcDbLine
  8
color#fdfdfdfd
 62
256
370
-1
  6
BYLAYER
 10
5.8870861378588719
 20
0.4925562686933158
 30
0.0
 11
5.8579369579808365
 21
0.4962460921130771
 31
0.0
  0
LINE
  5
379
100
AcDbEntity
100
AcDbLine
  8
color#fdfdfdfd
 62
256
370
-1
  6
BYLAYER
 10
5.8579369579808365
 20
0.4962460921130771
 30
0.0
 11
5.8290800419691244
 21
0.500851707520719
 31
0.0
  0
LINE
  5
37A
100
AcDbEntity
100
AcDbLine
  8
color#fdfdfdfd
 62
256
370
-1
  6
BYLAYER
 10
5.8290800419691244
 20
0.500851707520719
 30
0.0
 11
5.8005243784252514
 21
0.5063584670137205
 31
0.0
  0
LINE
  5
37B
100
AcDbEntity
100
AcDbLine
  8
color#fdfdfdfd
 62
256
370
-1
  6
BYLAYER
 10
5.8005243784252514
 20
0.5063584670137205
 30
0.0
 11
5.7722789559507302
 21
0.5127517226895767
 31
0.0
  0
LINE
  5
37C
100
AcDbEntity
100
AcDbLine
  8
color#fdfdfdfd
 62
256
370
-1
  6
BYLAYER
 10
5.7722789559507302
 20
0.5127517226895767
 30
0.0
 11
5.7443527631470692
 21
0.5200168266457754
 31
0.0
  0
LINE
  5
37D
100
AcDbEntity
100
AcDbLine
  8
color#fdfdfdfd
 62
256
370
-1
  6
BYLAYER
 10
5.7443527631470692
 20
0.5200168266457754
 30
0.0
 11
5.7167547886157903
 21
0.5281391309797985
 31
0.0
  0
LINE
  5
37E
100
AcDbEntity
100
AcDbLine
  8
color#fdfdfdfd
 62
256
370
-1
  6
BYLAYER
 10
5.7167547886157903
 20
0.5281391309797985
 30
0.0
 11
5.6894940209583966
 21
0.5371039877891362
 31
0.0
  0
LINE
  5
37F
100
AcDbEntity
100
AcDbLine
  8
color#fdfdfdfd
 62
256
370
-1
  6
BYLAYER
 10
5.6894940209583966
 20
0.5371039877891362
 30
0.0
 11
5.6625794487764018
 21
0.5468967491712802
 31
0.0
  0
LINE
  5
380
100
AcDbEntity
100
AcDbLine
  8
color#fdfdfdfd
 62
256
370
-1
  6
BYLAYER
 10
5.6625794487764018
 20
0.5468967491712802
 30
0.0
 11
5.6360200606713216
 21
0.557502767223713
 31
0.0
  0
LINE
  5
381
100
AcDbEntity
100
AcDbLine
  8
color#fdfdfdfd
 62
256
370
-1
  6
BYLAYER
 10
5.6360200606713216
 20
0.557502767223713
 30
0.0
 11
5.6098248452446686
 21
0.5689073940439242
 31
0.0
  0
LINE
  5
382
100
AcDbEntity
100
AcDbLine
  8
color#fdfdfdfd
 62
256
370
-1
  6
BYLAYER
 10
5.6098248452446686
 20
0.5689073940439242
 30
0.0
 11
5.5840027910979524
 21
0.581095981729404
 31
0.0
  0
LINE
  5
383
100
AcDbEntity
100
AcDbLine
  8
color#fdfdfdfd
 62
256
370
-1
  6
BYLAYER
 10
5.5840027910979524
 20
0.581095981729404
 30
0.0
 11
5.5585628868326875
 21
0.5940538823776365
 31
0.0
  0
LINE
  5
384
100
AcDbEntity
100
AcDbLine
  8
color#fdfdfdfd
 62
256
370
-1
  6
BYLAYER
 10
5.5585628868326875
 20
0.5940538823776365
 30
0.0
 11
5.533514121050386
 21
0.607766448086111
 31
0.0
  0
LINE
  5
385
100
AcDbEntity
100
AcDbLine
  8
color#fdfdfdfd
 62
256
370
-1
  6
BYLAYER
 10
5.533514121050386
 20
0.607766448086111
 30
0.0
 11
5.5088654823525598
 21
0.6222190309523157
 31
0.0
  0
LINE
  5
386
100
AcDbEntity
100
AcDbLine
  8
color#fdfdfdfd
 62
256
370
-1
  6
BYLAYER
 10
5.5088654823525598
 20
0.6222190309523157
 30
0.0
 11
5.4846259593407227
 21
0.6373969830737383
 31
0.0
  0
LINE
  5
387
100
AcDbEntity
100
AcDbLine
  8
color#fdfdfdfd
 62
256
370
-1
  6
BYLAYER
 10
5.4846259593407227
 20
0.6373969830737383
 30
0.0
 11
5.4608045406163868
 21
0.6532856565478653
 31
0.0
  0
LINE
  5
388
100
AcDbEntity
100
AcDbLine
  8
color#fdfdfdfd
 62
256
370
-1
  6
BYLAYER
 10
5.4608045406163868
 20
0.6532856565478653
 30
0.0
 11
5.4374102147810639
 21
0.6698704034721854
 31
0.0
  0
LINE
  5
389
100
AcDbEntity
100
AcDbLine
  8
color#fdfdfdfd
 62
256
370
-1
  6
BYLAYER
 10
5.4374102147810639
 20
0.6698704034721854
 30
0.0
 11
5.4144519704362679
 21
0.6871365759441849
 31
0.0
  0
LINE
  5
38A
100
AcDbEntity
100
AcDbLine
  8
color#fdfdfdfd
 62
256
370
-1
  6
BYLAYER
 10
5.4144519704362679
 20
0.6871365759441849
 30
0.0
 11
5.3919387961835099
 21
0.7050695260613532
 31
0.0
  0
LINE
  5
38B
100
AcDbEntity
100
AcDbLine
  8
color#fdfdfdfd
 62
256
370
-1
  6
BYLAYER
 10
5.3919387961835099
 20
0.7050695260613532
 30
0.0
 11
5.3698796806243037
 21
0.7236546059211785
 31
0.0
  0
LINE
  5
38C
100
AcDbEntity
100
AcDbLine
  8
color#fdfdfdfd
 62
256
370
-1
  6
BYLAYER
 10
5.3698796806243037
 20
0.7236546059211785
 30
0.0
 11
5.3482836123601594
 21
0.742877167621147
 31
0.0
  0
LINE
  5
38D
100
AcDbEntity
100
AcDbLine
  8
color#fdfdfdfd
 62
256
370
-1
  6
BYLAYER
 10
5.3482836123601594
 20
0.742877167621147
 30
0.0
 11
5.3271595799925917
 21
0.7627225632587474
 31
0.0
  0
LINE
  5
38E
100
AcDbEntity
100
AcDbLine
  8
color#fdfdfdfd
 62
256
370
-1
  6
BYLAYER
 10
5.3271595799925917
 20
0.7627225632587474
 30
0.0
 11
5.3065165721231118
 21
0.7831761449314677
 31
0.0
  0
LINE
  5
38F
100
AcDbEntity
100
AcDbLine
  8
color#fdfdfdfd
 62
256
370
-1
  6
BYLAYER
 10
5.3065165721231118
 20
0.7831761449314677
 30
0.0
 11
5.2863635773532343
 21
0.8042232647367942
 31
0.0
  0
LINE
  5
390
100
AcDbEntity
100
AcDbLine
  8
color#fdfdfdfd
 62
256
370
-1
  6
BYLAYER
 10
5.2863635773532343
 20
0.8042232647367942
 30
0.0
 11
5.2667095842844693
 21
0.8258492747722157
 31
0.0
  0
LINE
  5
391
100
AcDbEntity
100
AcDbLine
  8
color#fdfdfdfd
 62
256
370
-1
  6
BYLAYER
 10
5.2667095842844693
 20
0.8258492747722157
 30
0.0
 11
5.2475635815183317
 21
0.8480395271352192
 31
0.0
  0
LINE
  5
392
100
AcDbEntity
100
AcDbLine
  8
color#fdfdfdfd
 62
256
370
-1
  6
BYLAYER
 10
5.2475635815183317
 20
0.8480395271352192
 30
0.0
 11
5.2289345576563306
 21
0.8707793739232943
 31
0.0
  0
LINE
  5
393
100
AcDbEntity
100
AcDbLine
  8
color#fdfdfdfd
 62
256
370
-1
  6
BYLAYER
 10
5.2289345576563306
 20
0.8707793739232943
 30
0.0
 11
5.6397367823466551
 21
1.28029711518724
 31
0.0
  0
LINE
  5
394
100
AcDbEntity
100
AcDbLine
  8
color#fdfdfdfd
 62
256
370
-1
  6
BYLAYER
 10
5.6397367823466551
 20
1.28029711518724
 30
0.0
 11
5.6547584201172221
 21
1.2621730725130433
 31
0.0
  0
LINE
  5
395
100
AcDbEntity
100
AcDbLine
  8
color#fdfdfdfd
 62
256
370
-1
  6
BYLAYER
 10
5.6547584201172221
 20
1.2621730725130433
 30
0.0
 11
5.6705809388482864
 21
1.2472089562886666
 31
0.0
  0
LINE
  5
396
100
AcDbEntity
100
AcDbLine
  8
color#fdfdfdfd
 62
256
370
-1
  6
BYLAYER
 10
5.6705809388482864
 20
1.2472089562886666
 30
0.0
 11
5.6870568391147582
 21
1.2352582526862648
 31
0.0
  0
LINE
  5
397
100
AcDbEntity
100
AcDbLine
  8
color#fdfdfdfd
 62
256
370
-1
  6
BYLAYER
 10
5.6870568391147582
 20
1.2352582526862648
 30
0.0
 11
5.7040386214915451
 21
1.2261744478780026
 31
0.0
  0
LINE
  5
398
100
AcDbEntity
100
AcDbLine
  8
color#fdfdfdfd
 62
256
370
-1
  6
BYLAYER
 10
5.7040386214915451
 20
1.2261744478780026
 30
0.0
 11
5.7213787865535588
 21
1.2198110280360348
 31
0.0
  0
LINE
  5
399
100
AcDbEntity
100
AcDbLine
  8
color#fdfdfdfd
 62
256
370
-1
  6
BYLAYER
 10
5.7213787865535588
 20
1.2198110280360348
 30
0.0
 11
5.738929834875707
 21
1.2160214793325237
 31
0.0
  0
LINE
  5
39A
100
AcDbEntity
100
AcDbLine
  8
color#fdfdfdfd
 62
256
370
-1
  6
BYLAYER
 10
5.738929834875707
 20
1.2160214793325237
 30
0.0
 11
5.756544267032897
 21
1.2146592879396307
 31
0.0
  0
LINE
  5
39B
100
AcDbEntity
100
AcDbLine
  8
color#fdfdfdfd
 62
256
370
-1
  6
BYLAYER
 10
5.756544267032897
 20
1.2146592879396307
 30
0.0
 11
5.7740745836000436
 21
1.2155779400295093
 31
0.0
  0
LINE
  5
39C
100
AcDbEntity
100
AcDbLine
  8
color#fdfdfdfd
 62
256
370
-1
  6
BYLAYER
 10
5.7740745836000436
 20
1.2155779400295093
 30
0.0
 11
5.791373285152055
 21
1.2186309217743256
 31
0.0
  0
LINE
  5
39D
100
AcDbEntity
100
AcDbLine
  8
color#fdfdfdfd
 62
256
370
-1
  6
BYLAYER
 10
5.791373285152055
 20
1.2186309217743256
 30
0.0
 11
5.8082928722638343
 21
1.2236717193462385
 31
0.0
  0
LINE
  5
39E
100
AcDbEntity
100
AcDbLine
  8
color#fdfdfdfd
 62
256
370
-1
  6
BYLAYER
 10
5.8082928722638343
 20
1.2236717193462385
 30
0.0
 11
5.8246858455102988
 21
1.2305538189174063
 31
0.0
  0
LINE
  5
39F
100
AcDbEntity
100
AcDbLine
  8
color#fdfdfdfd
 62
256
370
-1
  6
BYLAYER
 10
5.8246858455102988
 20
1.2305538189174063
 30
0.0
 11
5.840404705466355
 21
1.2391307066599859
 31
0.0
  0
LINE
  5
3A0
100
AcDbEntity
100
AcDbLine
  8
color#fdfdfdfd
 62
256
370
-1
  6
BYLAYER
 10
5.840404705466355
 20
1.2391307066599859
 30
0.0
 11
5.8553019527069088
 21
1.2492558687461437
 31
0.0
  0
LINE
  5
3A1
100
AcDbEntity
100
AcDbLine
  8
color#fdfdfdfd
 62
256
370
-1
  6
BYLAYER
 10
5.8553019527069088
 20
1.2492558687461437
 30
0.0
 11
5.8692300878068728
 21
1.2607827913480325
 31
0.0
  0
LINE
  5
3A2
100
AcDbEntity
100
AcDbLine
  8
color#fdfdfdfd
 62
256
370
-1
  6
BYLAYER
 10
5.8692300878068728
 20
1.2607827913480325
 30
0.0
 11
5.8820416113411573
 21
1.2735649606378157
 31
0.0
  0
LINE
  5
3A3
100
AcDbEntity
100
AcDbLine
  8
color#fdfdfdfd
 62
256
370
-1
  6
BYLAYER
 10
5.8820416113411573
 20
1.2735649606378157
 30
0.0
 11
5.8935890238846707
 21
1.2874558627876524
 31
0.0
  0
LINE
  5
3A4
100
AcDbEntity
100
AcDbLine
  8
color#fdfdfdfd
 62
256
370
-1
  6
BYLAYER
 10
5.8935890238846707
 20
1.2874558627876524
 30
0.0
 11
5.9037248260123221
 21
1.3023089839697031
 31
0.0
  0
LINE
  5
3A5
100
AcDbEntity
100
AcDbLine
  8
color#fdfdfdfd
 62
256
370
-1
  6
BYLAYER
 10
5.9037248260123221
 20
1.3023089839697031
 30
0.0
 11
5.9123015182990208
 21
1.3179778103561262
 31
0.0
  0
LINE
  5
3A6
100
AcDbEntity
100
AcDbLine
  8
color#fdfdfdfd
 62
256
370
-1
  6
BYLAYER
 10
5.9123015182990208
 20
1.3179778103561262
 30
0.0
 11
5.9191716013196771
 21
1.334315828119081
 31
0.0
  0
LINE
  5
3A7
100
AcDbEntity
100
AcDbLine
  8
color#fdfdfdfd
 62
256
370
-1
  6
BYLAYER
 10
5.9191716013196771
 20
1.334315828119081
 30
0.0
 11
5.9241875756491993
 21
1.351176523430728
 31
0.0
  0
LINE
  5
3A8
100
AcDbEntity
100
AcDbLine
  8
color#fdfdfdfd
 62
256
370
-1
  6
BYLAYER
 10
5.9241875756491993
 20
1.351176523430728
 30
0.0
 11
5.9272019418624957
 21
1.3684133824632265
 31
0.0
  0
LINE
  5
3A9
100
AcDbEntity
100
AcDbLine
  8
color#fdfdfdfd
 62
256
370
-1
  6
BYLAYER
 10
5.9272019418624957
 20
1.3684133824632265
 30
0.0
 11
5.9280672005344801
 21
1.3858798913887382
 31
0.0
  0
LINE
  5
3AA
100
AcDbEntity
100
AcDbLine
  8
color#fdfdfdfd
 62
256
370
-1
  6
BYLAYER
 10
5.9280672005344801
 20
1.3858798913887382
 30
0.0
 11
5.9266358522400573
 21
1.40342953637942
 31
0.0
  0
LINE
  5
3AB
100
AcDbEntity
100
AcDbLine
  8
color#fdfdfdfd
 62
256
370
-1
  6
BYLAYER
 10
5.9266358522400573
 20
1.40342953637942
 30
0.0
 11
5.9227603975541374
 21
1.4209158036074332
 31
0.0
  0
LINE
  5
3AC
100
AcDbEntity
100
AcDbLine
  8
color#fdfdfdfd
 62
256
370
-1
  6
BYLAYER
 10
5.9227603975541374
 20
1.4209158036074332
 30
0.0
 11
5.9162933370516306
 21
1.438192179244937
 31
0.0
  0
LINE
  5
3AD
100
AcDbEntity
100
AcDbLine
  8
color#fdfdfdfd
 62
256
370
-1
  6
BYLAYER
 10
5.9162933370516306
 20
1.438192179244937
 30
0.0
 11
5.9070871713074471
 21
1.4551121494640908
 31
0.0
  0
LINE
  5
3AE
100
AcDbEntity
100
AcDbLine
  8
color#fdfdfdfd
 62
256
370
-1
  6
BYLAYER
 10
5.9070871713074471
 20
1.4551121494640908
 30
0.0
 11
5.8949944008964952
 21
1.4715292004370564
 31
0.0
  0
LINE
  5
3AF
100
AcDbEntity
100
AcDbLine
  8
color#fdfdfdfd
 62
256
370
-1
  6
BYLAYER
 10
5.8949944008964952
 20
1.4715292004370564
 30
0.0
 11
5.879867526393685
 21
1.48729681833599
 31
0.0
  0
LINE
  5
3B0
100
AcDbEntity
100
AcDbLine
  8
color#fdfdfdfd
 62
256
370
-1
  6
BYLAYER
 10
5.879867526393685
 20
1.48729681833599
 30
0.0
 11
5.8615590483739251
 21
1.5022684893330533
 31
0.0
  0
ENDSEC
  0
SECTION
  2
OBJECTS
  0
DICTIONARY
  5
C
100
AcDbDictionary
280
0
281
1
  3
ACAD_GROUP
350
D
  3
ACAD_LAYOUT
350
1A
  3
ACAD_MLINESTYLE
350
17
  3
ACAD_PLOTSETTINGS
350
19
  3
ACAD_PLOTSTYLENAME
350
E
  3
AcDbVariableDictionary
350
3B1
  0
DICTIONARY
  5
D
100
AcDbDictionary
280
0
281
1
  0
ACDBDICTIONARYWDFLT
  5
E
100
AcDbDictionary
281
1
  3
Normal
350
F
100
AcDbDictionaryWithDefault
340
F
  0
ACDBPLACEHOLDER
  5
F
  0
DICTIONARY
  5
17
100
AcDbDictionary
280
0
281
1
  3
Standard
350
18
  0
MLINESTYLE
  5
18
100
AcDbMlineStyle
  2
STANDARD
 70
0
  3

 62
256
 51
90.0
 52
90.0
 71
2
 49
0.5
 62
256
  6
BYLAYER
 49
-0.5
 62
256
  6
BYLAYER
  0
DICTIONARY
  5
19
100
AcDbDictionary
280
0
281
1
  0
DICTIONARY
  5
1A
100
AcDbDictionary
281
1
  3
Layout1
350
1E
  3
Layout2
350
26
  3
Model
350
22
  0
LAYOUT
  5
1E
100
AcDbPlotSettings
  1

  2
C:\Program Files\AutoCAD 2002\plotters\DWF ePlot (optimized for plotting).pc3
  4

  6

 40
0.0
 41
0.0
 42
0.0
 43
0.0
 44
0.0
 45
0.0
 46
0.0
 47
0.0
 48
0.0
 49
0.0
140
0.0
141
0.0
142
1.0
143
1.0
 70
688
 72
0
 73
0
 74
5
  7

 75
16
147
1.0
148
0.0
149
0.0
100
AcDbLayout
  1
Layout1
 70
1
 71
1
 10
0.0
 20
0.0
 11
420.0
 21
297.0
 12
0.0
 22
0.0
 32
0.0
 14
100000000000000000000.0
 24
100000000000000000000.0
 34
100000000000000000000.0
 15
-100000000000000000000.0
 25
-100000000000000000000.0
 35
-100000000000000000000.0
146
0.0
 13
0.0
 23
0.0
 33
0.0
 16
1.0
 26
0.0
 36
0.0
 17
0.0
 27
1.0
 37
0.0
 76
0
330
1B
  0
LAYOUT
  5
22
100
AcDbPlotSettings
  1

  2
C:\Program Files\AutoCAD 2002\plotters\DWF ePlot (optimized for plotting).pc3
  4

  6

 40
0.0
 41
0.0
 42
0.0
 43
0.0
 44
0.0
 45
0.0
 46
0.0
 47
0.0
 48
0.0
 49
0.0
140
0.0
141
0.0
142
1.0
143
1.0
 70
1712
 72
0
 73
0
 74
0
  7

 75
0
147
1.0
148
0.0
149
0.0
100
AcDbLayout
  1
Model
 70
1
 71
0
 10
0.0
 20
0.0
 11
12.0
 21
9.0
 12
0.0
 22
0.0
 32
0.0
 14
0.0
 24
0.0
 34
0.0
 15
0.0
 25
0.0
 35
0.0
146
0.0
 13
0.0
 23
0.0
 33
0.0
 16
1.0
 26
0.0
 36
0.0
 17
0.0
 27
1.0
 37
0.0
 76
0
330
1F
  0
LAYOUT
  5
26
100
AcDbPlotSettings
  1

  2
C:\Program Files\AutoCAD 2002\plotters\DWF ePlot (optimized for plotting).pc3
  4

  6

 40
0.0
 41
0.0
 42
0.0
 43
0.0
 44
0.0
 45
0.0
 46
0.0
 47
0.0
 48
0.0
 49
0.0
140
0.0
141
0.0
142
1.0
143
1.0
 70
688
 72
0
 73
0
 74
5
  7

 75
16
147
1.0
148
0.0
149
0.0
100
AcDbLayout
  1
Layout2
 70
1
 71
2
 10
0.0
 20
0.0
 11
12.0
 21
9.0
 12
0.0
 22
0.0
 32
0.0
 14
0.0
 24
0.0
 34
0.0
 15
0.0
 25
0.0
 35
0.0
146
0.0
 13
0.0
 23
0.0
 33
0.0
 16
1.0
 26
0.0
 36
0.0
 17
0.0
 27
1.0
 37
0.0
 76
0
330
23
  0
DICTIONARY
  5
3B1
100
AcDbDictionary
281
1
  3
DIMASSOC
350
3B3
  3
HIDETEXT
350
3B2
  0
DICTIONARYVAR
  5
3B2
100
DictionaryVariables
280
0
  1
2
  0
DICTIONARYVAR
  5
3B3
100
DictionaryVariables
280
0
  1
1
  0
ENDSEC
  0
EOF
