999
dxflib 2.2.0.0
  0
SECTION
  2
HEADER
  9
$ACADVER
  1
AC1015
  9
$HANDSEED
  5
FFFF
  9
$INSUNITS
 70
4
  9
$DIMEXE
 40
1.25
  9
$TEXTSTYLE
  7
Standard
  9
$LIMMIN
 10
0.0
 20
0.0
  0
ENDSEC
  0
SECTION
  2
TABLES
  0
TABLE
  2
VPORT
  5
8
100
AcDbSymbolTable
 70
1
  0
VPORT
  5
30
100
AcDbSymbolTableRecord
100
AcDbViewportTableRecord
  2
*Active
 70
0
 10
0.0
 20
0.0
 11
1.0
 21
1.0
 12
286.30555555555549
 22
148.5
 13
0.0
 23
0.0
 14
10.0
 24
10.0
 15
10.0
 25
10.0
 16
0.0
 26
0.0
 36
1.0
 17
0.0
 27
0.0
 37
0.0
 40
297.0
 41
1.92798353909465
 42
50.0
 43
0.0
 44
0.0
 50
0.0
 51
0.0
 71
0
 72
100
 73
1
 74
3
 75
1
 76
1
 77
0
 78
0
281
0
 65
1
110
0.0
120
0.0
130
0.0
111
1.0
121
0.0
131
0.0
112
0.0
122
1.0
132
0.0
 79
0
146
0.0
  0
ENDTAB
  0
TABLE
  2
LTYPE
  5
5
100
AcDbSymbolTable
 70
25
  0
LTYPE
  5
14
100
AcDbSymbolTableRecord
100
AcDbLinetypeTableRecord
  2
BYBLOCK
 70
0
  3

 72
65
 73
0
 40
0.0
  0
LTYPE
  5
15
100
AcDbSymbolTableRecord
100
AcDbLinetypeTableRecord
  2
BYLAYER
 70
0
  3

 72
65
 73
0
 40
0.0
  0
LTYPE
  5
16
100
AcDbSymbolTableRecord
100
AcDbLinetypeTableRecord
  2
CONTINUOUS
 70
0
  3
Solid line
 72
65
 73
0
 40
0.0
  0
LTYPE
  5
31
100
AcDbSymbolTableRecord
100
AcDbLinetypeTableRecord
  2
ACAD_ISO02W100
 70
0
  3
ISO Dashed __ __ __ __ __ __ __ __ __ __ _
 72
65
 73
2
 40
15.0
 49
12.0
 74
0
 49
-3.0
 74
0
  0
LTYPE
  5
32
100
AcDbSymbolTableRecord
100
AcDbLinetypeTableRecord
  2
ACAD_ISO03W100
 70
0
  3
ISO Dashed with Distance __    __    __    _
 72
65
 73
2
 40
30.0
 49
12.0
 74
0
 49
-18.0
 74
0
  0
LTYPE
  5
33
100
AcDbSymbolTableRecord
100
AcDbLinetypeTableRecord
  2
ACAD_ISO04W100
 70
0
  3
ISO Long Dashed Dotted ____ . ____ . __
 72
65
 73
4
 40
30.0
 49
24.0
 74
0
 49
-3.0
 74
0
 49
0.0
 74
0
 49
-3.0
 74
0
  0
LTYPE
  5
34
100
AcDbSymbolTableRecord
100
AcDbLinetypeTableRecord
  2
ACAD_ISO05W100
 70
0
  3
ISO Long Dashed Double Dotted ____ .. __
 72
65
 73
6
 40
33.0
 49
24.0
 74
0
 49
-3.0
 74
0
 49
0.0
 74
0
 49
-3.0
 74
0
 49
0.0
 74
0
 49
-3.0
 74
0
  0
LTYPE
  5
35
100
AcDbSymbolTableRecord
100
AcDbLinetypeTableRecord
  2
BORDER
 70
0
  3
Border __ __ . __ __ . __ __ . __ __ . __ __ .
 72
65
 73
6
 40
44.450000000000003
 49
12.699999999999999
 74
0
 49
-6.3499999999999996
 74
0
 49
12.699999999999999
 74
0
 49
-6.3499999999999996
 74
0
 49
0.0
 74
0
 49
-6.3499999999999996
 74
0
  0
LTYPE
  5
36
100
AcDbSymbolTableRecord
100
AcDbLinetypeTableRecord
  2
BORDER2
 70
0
  3
Border (.5x) __.__.__.__.__.__.__.__.__.__.__.
 72
65
 73
6
 40
22.225000000000001
 49
6.3499999999999996
 74
0
 49
-3.1749999999999998
 74
0
 49
6.3499999999999996
 74
0
 49
-3.1749999999999998
 74
0
 49
0.0
 74
0
 49
-3.1749999999999998
 74
0
  0
LTYPE
  5
37
100
AcDbSymbolTableRecord
100
AcDbLinetypeTableRecord
  2
BORDERX2
 70
0
  3
Border (2x) ____  ____  .  ____  ____  .  ___
 72
65
 73
6
 40
88.900000000000006
 49
25.399999999999999
 74
0
 49
-12.699999999999999
 74
0
 49
25.399999999999999
 74
0
 49
-12.699999999999999
 74
0
 49
0.0
 74
0
 49
-12.699999999999999
 74
0
  0
LTYPE
  5
38
100
AcDbSymbolTableRecord
100
AcDbLinetypeTableRecord
  2
CENTER
 70
0
  3
Center ____ _ ____ _ ____ _ ____ _ ____ _ ____
 72
65
 73
4
 40
50.799999999999997
 49
31.75
 74
0
 49
-6.3499999999999996
 74
0
 49
6.3499999999999996
 74
0
 49
-6.3499999999999996
 74
0
  0
LTYPE
  5
39
100
AcDbSymbolTableRecord
100
AcDbLinetypeTableRecord
  2
CENTER2
 70
0
  3
Center (.5x) ___ _ ___ _ ___ _ ___ _ ___ _ ___
 72
65
 73
4
 40
28.574999999999999
 49
19.050000000000001
 74
0
 49
-3.1749999999999998
 74
0
 49
3.1749999999999998
 74
0
 49
-3.1749999999999998
 74
0
  0
LTYPE
  5
3A
100
AcDbSymbolTableRecord
100
AcDbLinetypeTableRecord
  2
CENTERX2
 70
0
  3
Center (2x) ________  __  ________  __  _____
 72
65
 73
4
 40
101.59999999999999
 49
63.5
 74
0
 49
-12.699999999999999
 74
0
 49
12.699999999999999
 74
0
 49
-12.699999999999999
 74
0
  0
LTYPE
  5
3B
100
AcDbSymbolTableRecord
100
AcDbLinetypeTableRecord
  2
DASHDOT
 70
0
  3
Dash dot __ . __ . __ . __ . __ . __ . __ . __
 72
65
 73
4
 40
25.399999999999999
 49
12.699999999999999
 74
0
 49
-6.3499999999999996
 74
0
 49
0.0
 74
0
 49
-6.3499999999999996
 74
0
  0
LTYPE
  5
3C
100
AcDbSymbolTableRecord
100
AcDbLinetypeTableRecord
  2
DASHDOT2
 70
0
  3
Dash dot (.5x) _._._._._._._._._._._._._._._.
 72
65
 73
4
 40
12.699999999999999
 49
6.3499999999999996
 74
0
 49
-3.1749999999999998
 74
0
 49
0.0
 74
0
 49
-3.1749999999999998
 74
0
  0
LTYPE
  5
3D
100
AcDbSymbolTableRecord
100
AcDbLinetypeTableRecord
  2
DASHDOTX2
 70
0
  3
Dash dot (2x) ____  .  ____  .  ____  .  ___
 72
65
 73
4
 40
50.799999999999997
 49
25.399999999999999
 74
0
 49
-12.699999999999999
 74
0
 49
0.0
 74
0
 49
-12.699999999999999
 74
0
  0
LTYPE
  5
3E
100
AcDbSymbolTableRecord
100
AcDbLinetypeTableRecord
  2
DASHED
 70
0
  3
Dashed __ __ __ __ __ __ __ __ __ __ __ __ __ _
 72
65
 73
2
 40
19.050000000000001
 49
12.699999999999999
 74
0
 49
-6.3499999999999996
 74
0
  0
LTYPE
  5
3F
100
AcDbSymbolTableRecord
100
AcDbLinetypeTableRecord
  2
DASHED2
 70
0
  3
Dashed (.5x) _ _ _ _ _ _ _ _ _ _ _ _ _ _ _ _ _
 72
65
 73
2
 40
9.5250000000000004
 49
6.3499999999999996
 74
0
 49
-3.1749999999999998
 74
0
  0
LTYPE
  5
40
100
AcDbSymbolTableRecord
100
AcDbLinetypeTableRecord
  2
DASHEDX2
 70
0
  3
Dashed (2x) ____  ____  ____  ____  ____  ___
 72
65
 73
2
 40
38.100000000000001
 49
25.399999999999999
 74
0
 49
-12.699999999999999
 74
0
  0
LTYPE
  5
41
100
AcDbSymbolTableRecord
100
AcDbLinetypeTableRecord
  2
DIVIDE
 70
0
  3
Divide ____ . . ____ . . ____ . . ____ . . ____
 72
65
 73
6
 40
31.75
 49
12.699999999999999
 74
0
 49
-6.3499999999999996
 74
0
 49
0.0
 74
0
 49
-6.3499999999999996
 74
0
 49
0.0
 74
0
 49
-6.3499999999999996
 74
0
  0
LTYPE
  5
42
100
AcDbSymbolTableRecord
100
AcDbLinetypeTableRecord
  2
DIVIDE2
 70
0
  3
Divide (.5x) __..__..__..__..__..__..__..__.._
 72
65
 73
6
 40
15.875
 49
6.3499999999999996
 74
0
 49
-3.1749999999999998
 74
0
 49
0.0
 74
0
 49
-3.1749999999999998
 74
0
 49
0.0
 74
0
 49
-3.1749999999999998
 74
0
  0
LTYPE
  5
43
100
AcDbSymbolTableRecord
100
AcDbLinetypeTableRecord
  2
DIVIDEX2
 70
0
  3
Divide (2x) ________  .  .  ________  .  .  _
 72
65
 73
6
 40
63.5
 49
25.399999999999999
 74
0
 49
-12.699999999999999
 74
0
 49
0.0
 74
0
 49
-12.699999999999999
 74
0
 49
0.0
 74
0
 49
-12.699999999999999
 74
0
  0
LTYPE
  5
44
100
AcDbSymbolTableRecord
100
AcDbLinetypeTableRecord
  2
DOT
 70
0
  3
Dot . . . . . . . . . . . . . . . . . . . . . .
 72
65
 73
2
 40
6.3499999999999996
 49
0.0
 74
0
 49
-6.3499999999999996
 74
0
  0
LTYPE
  5
45
100
AcDbSymbolTableRecord
100
AcDbLinetypeTableRecord
  2
DOT2
 70
0
  3
Dot (.5x) .....................................
 72
65
 73
2
 40
3.1749999999999998
 49
0.0
 74
0
 49
-3.1749999999999998
 74
0
  0
LTYPE
  5
46
100
AcDbSymbolTableRecord
100
AcDbLinetypeTableRecord
  2
DOTX2
 70
0
  3
Dot (2x) .  .  .  .  .  .  .  .  .  .  .  .  .
 72
65
 73
2
 40
12.699999999999999
 49
0.0
 74
0
 49
-12.699999999999999
 74
0
  0
ENDTAB
  0
TABLE
  2
LAYER
  5
2
100
AcDbSymbolTable
 70
3
  0
LAYER
  5
10
100
AcDbSymbolTableRecord
100
AcDbLayerTableRecord
  2
0
 70
0
 62
250
  6
CONTINUOUS
370
100
390
F
  0
LAYER
  5
47
100
AcDbSymbolTableRecord
100
AcDbLayerTableRecord
  2
color#00000001
 70
0
 62
7
  6
CONTINUOUS
370
100
390
F
  0
LAYER
  5
48
100
AcDbSymbolTableRecord
100
AcDbLayerTableRecord
  2
color#000000fd
 70
0
 62
7
  6
CONTINUOUS
370
100
390
F
  0
ENDTAB
  0
TABLE
  2
STYLE
  5
3
100
AcDbSymbolTable
 70
1
  0
STYLE
  5
11
100
AcDbSymbolTableRecord
100
AcDbTextStyleTableRecord
  2
Standard
 70
0
 40
0.0
 41
0.75
 50
0.0
 71
0
 42
2.5
  3
txt
  4

  0
ENDTAB
  0
TABLE
  2
VIEW
  5
6
100
AcDbSymbolTable
 70
0
  0
ENDTAB
  0
TABLE
  2
UCS
  5
7
100
AcDbSymbolTable
 70
0
  0
ENDTAB
  0
TABLE
  2
APPID
  5
9
100
AcDbSymbolTable
 70
1
  0
APPID
  5
12
100
AcDbSymbolTableRecord
100
AcDbRegAppTableRecord
  2
ACAD
 70
0
  0
ENDTAB
  0
TABLE
  2
DIMSTYLE
  5
A
100
AcDbSymbolTable
 70
1
100
AcDbDimStyleTable
 71
0
  0
DIMSTYLE
105
27
100
AcDbSymbolTableRecord
100
AcDbDimStyleTableRecord
  2
Standard
 41
1.0
 42
1.0
 43
3.75
 44
1.0
 70
0
 73
0
 74
0
 77
1
 78
8
140
1.0
141
2.5
143
0.03937007874016
147
1.0
171
3
172
1
271
2
272
2
274
3
278
44
283
0
284
8
340
11
  0
ENDTAB
  0
TABLE
  2
BLOCK_RECORD
  5
1
100
AcDbSymbolTable
 70
1
  0
BLOCK_RECORD
  5
1F
100
AcDbSymbolTableRecord
100
AcDbBlockTableRecord
  2
*Model_Space
340
22
  0
BLOCK_RECORD
  5
1B
100
AcDbSymbolTableRecord
100
AcDbBlockTableRecord
  2
*Paper_Space
340
1E
  0
BLOCK_RECORD
  5
23
100
AcDbSymbolTableRecord
100
AcDbBlockTableRecord
  2
*Paper_Space0
340
26
  0
ENDTAB
  0
ENDSEC
  0
SECTION
  2
BLOCKS
  0
BLOCK
  5
20
100
AcDbEntity
  8
0
100
AcDbBlockBegin
  2
*Model_Space
 70
0
 10
0.0
 20
0.0
 30
0.0
  3
*Model_Space
  1

  0
ENDBLK
  5
21
100
AcDbEntity
  8
0
100
AcDbBlockEnd
  0
BLOCK
  5
1C
100
AcDbEntity
 67
1
  8
0
100
AcDbBlockBegin
  2
*Paper_Space
 70
0
 10
0.0
 20
0.0
 30
0.0
  3
*Paper_Space
  1

  0
ENDBLK
  5
1D
100
AcDbEntity
 67
1
  8
0
100
AcDbBlockEnd
  0
BLOCK
  5
24
100
AcDbEntity
  8
0
100
AcDbBlockBegin
  2
*Paper_Space0
 70
0
 10
0.0
 20
0.0
 30
0.0
  3
*Paper_Space0
  1

  0
ENDBLK
  5
25
100
AcDbEntity
  8
0
100
AcDbBlockEnd
  0
ENDSEC
  0
SECTION
  2
ENTITIES
  0
LINE
  5
49
100
AcDbEntity
100
AcDbLine
  8
color#000000fd
 62
256
370
-1
  6
BYLAYER
 10
0.52476472197069
 20
6.5863355797758718
 30
0.0
 11
0.5526592443207317
 21
6.6174293606193872
 31
0.0
  0
LINE
  5
4A
100
AcDbEntity
100
AcDbLine
  8
color#000000fd
 62
256
370
-1
  6
BYLAYER
 10
0.5526592443207317
 20
6.6174293606193872
 30
0.0
 11
0.5821570635153305
 21
6.6466976343601454
 31
0.0
  0
LINE
  5
4B
100
AcDbEntity
100
AcDbLine
  8
color#000000fd
 62
256
370
-1
  6
BYLAYER
 10
0.5821570635153305
 20
6.6466976343601454
 30
0.0
 11
0.6131555654113947
 21
6.6741291817547506
 31
0.0
  0
LINE
  5
4C
100
AcDbEntity
100
AcDbLine
  8
color#000000fd
 62
256
370
-1
  6
BYLAYER
 10
0.6131555654113947
 20
6.6741291817547506
 30
0.0
 11
0.6455521358658314
 21
6.6997127835598071
 31
0.0
  0
LINE
  5
4D
100
AcDbEntity
100
AcDbLine
  8
color#000000fd
 62
256
370
-1
  6
BYLAYER
 10
0.6455521358658314
 20
6.6997127835598071
 30
0.0
 11
0.6792441607355492
 21
6.7234372205319195
 31
0.0
  0
LINE
  5
4E
100
AcDbEntity
100
AcDbLine
  8
color#000000fd
 62
256
370
-1
  6
BYLAYER
 10
0.6792441607355492
 20
6.7234372205319195
 30
0.0
 11
0.714129025877455
 21
6.7452912734276929
 31
0.0
  0
LINE
  5
4F
100
AcDbEntity
100
AcDbLine
  8
color#000000fd
 62
256
370
-1
  6
BYLAYER
 10
0.714129025877455
 20
6.7452912734276929
 30
0.0
 11
0.7501041171484565
 21
6.7652637230037316
 31
0.0
  0
LINE
  5
50
100
AcDbEntity
100
AcDbLine
  8
color#000000fd
 62
256
370
-1
  6
BYLAYER
 10
0.7501041171484565
 20
6.7652637230037316
 30
0.0
 11
0.7870668204054622
 21
6.7833433500166409
 31
0.0
  0
LINE
  5
51
100
AcDbEntity
100
AcDbLine
  8
color#000000fd
 62
256
370
-1
  6
BYLAYER
 10
0.7870668204054622
 20
6.7833433500166409
 30
0.0
 11
0.824914521505379
 21
6.7995189352230261
 31
0.0
  0
LINE
  5
52
100
AcDbEntity
100
AcDbLine
  8
color#000000fd
 62
256
370
-1
  6
BYLAYER
 10
0.824914521505379
 20
6.7995189352230261
 30
0.0
 11
0.863544606305115
 21
6.8137792593794906
 31
0.0
  0
LINE
  5
53
100
AcDbEntity
100
AcDbLine
  8
color#000000fd
 62
256
370
-1
  6
BYLAYER
 10
0.863544606305115
 20
6.8137792593794906
 30
0.0
 11
0.9028544606615776
 21
6.8261131032426379
 31
0.0
  0
LINE
  5
54
100
AcDbEntity
100
AcDbLine
  8
color#000000fd
 62
256
370
-1
  6
BYLAYER
 10
0.9028544606615776
 20
6.8261131032426379
 30
0.0
 11
0.9427414704316751
 21
6.8365092475690759
 31
0.0
  0
LINE
  5
55
100
AcDbEntity
100
AcDbLine
  8
color#000000fd
 62
256
370
-1
  6
BYLAYER
 10
0.9427414704316751
 20
6.8365092475690759
 30
0.0
 11
0.9831030214723145
 21
6.8449564731154071
 31
0.0
  0
LINE
  5
56
100
AcDbEntity
100
AcDbLine
  8
color#000000fd
 62
256
370
-1
  6
BYLAYER
 10
0.9831030214723145
 20
6.8449564731154071
 30
0.0
 11
1.0238364996404039
 21
6.8514435606382378
 31
0.0
  0
LINE
  5
57
100
AcDbEntity
100
AcDbLine
  8
color#000000fd
 62
256
370
-1
  6
BYLAYER
 10
1.0238364996404039
 20
6.8514435606382378
 30
0.0
 11
1.0648392907928512
 21
6.8559592908941713
 31
0.0
  0
LINE
  5
58
100
AcDbEntity
100
AcDbLine
  8
color#000000fd
 62
256
370
-1
  6
BYLAYER
 10
1.0648392907928512
 20
6.8559592908941713
 30
0.0
 11
1.1060087807865637
 21
6.8584924446398112
 31
0.0
  0
LINE
  5
59
100
AcDbEntity
100
AcDbLine
  8
color#000000fd
 62
256
370
-1
  6
BYLAYER
 10
1.1060087807865637
 20
6.8584924446398112
 30
0.0
 11
1.1472423554784494
 21
6.8590318026317654
 31
0.0
  0
LINE
  5
5A
100
AcDbEntity
100
AcDbLine
  8
color#000000fd
 62
256
370
-1
  6
BYLAYER
 10
1.1472423554784494
 20
6.8590318026317654
 30
0.0
 11
1.1884374007254155
 21
6.8575661456266372
 31
0.0
  0
LINE
  5
5B
100
AcDbEntity
100
AcDbLine
  8
color#000000fd
 62
256
370
-1
  6
BYLAYER
 10
1.1884374007254155
 20
6.8575661456266372
 30
0.0
 11
1.2294913023843708
 21
6.8540842543810294
 31
0.0
  0
LINE
  5
5C
100
AcDbEntity
100
AcDbLine
  8
color#000000fd
 62
256
370
-1
  6
BYLAYER
 10
1.2294913023843708
 20
6.8540842543810294
 30
0.0
 11
1.2703014463122217
 21
6.8485749096515498
 31
0.0
  0
LINE
  5
5D
100
AcDbEntity
100
AcDbLine
  8
color#000000fd
 62
256
370
-1
  6
BYLAYER
 10
1.2703014463122217
 20
6.8485749096515498
 30
0.0
 11
1.3107652183658769
 21
6.841026892194801
 31
0.0
  0
LINE
  5
5E
100
AcDbEntity
100
AcDbLine
  8
color#000000fd
 62
256
370
-1
  6
BYLAYER
 10
1.3107652183658769
 20
6.841026892194801
 30
0.0
 11
1.3507800044022436
 21
6.8314289827673882
 31
0.0
  0
LINE
  5
5F
100
AcDbEntity
100
AcDbLine
  8
color#000000fd
 62
256
370
-1
  6
BYLAYER
 10
1.3507800044022436
 20
6.8314289827673882
 30
0.0
 11
1.3902431902782295
 21
6.8197699621259158
 31
0.0
  0
LINE
  5
60
100
AcDbEntity
100
AcDbLine
  8
color#000000fd
 62
256
370
-1
  6
BYLAYER
 10
1.3902431902782295
 20
6.8197699621259158
 30
0.0
 11
1.4290521618507428
 21
6.8060386110269899
 31
0.0
  0
LINE
  5
61
100
AcDbEntity
100
AcDbLine
  8
color#000000fd
 62
256
370
-1
  6
BYLAYER
 10
1.4290521618507428
 20
6.8060386110269899
 30
0.0
 11
1.4671043049766905
 21
6.7902237102272132
 31
0.0
  0
LINE
  5
62
100
AcDbEntity
100
AcDbLine
  8
color#000000fd
 62
256
370
-1
  6
BYLAYER
 10
1.4671043049766905
 20
6.7902237102272132
 30
0.0
 11
1.504297005512981
 21
6.7723140404831925
 31
0.0
  0
LINE
  5
63
100
AcDbEntity
100
AcDbLine
  8
color#000000fd
 62
256
370
-1
  6
BYLAYER
 10
1.504297005512981
 20
6.7723140404831925
 30
0.0
 11
1.5405276493165214
 21
6.7522983825515315
 31
0.0
  0
LINE
  5
64
100
AcDbEntity
100
AcDbLine
  8
color#000000fd
 62
256
370
-1
  6
BYLAYER
 10
1.5405276493165214
 20
6.7522983825515315
 30
0.0
 11
1.5756936222442197
 21
6.7301655171888335
 31
0.0
  0
LINE
  5
65
100
AcDbEntity
100
AcDbLine
  8
color#000000fd
 62
256
370
-1
  6
BYLAYER
 10
1.5756936222442197
 20
6.7301655171888335
 30
0.0
 11
1.6096923101529839
 21
6.7059042251517056
 31
0.0
  0
LINE
  5
66
100
AcDbEntity
100
AcDbLine
  8
color#000000fd
 62
256
370
-1
  6
BYLAYER
 10
1.6096923101529839
 20
6.7059042251517056
 30
0.0
 11
1.6349058410757789
 21
6.6873197867108711
 31
0.0
  0
LINE
  5
67
100
AcDbEntity
100
AcDbLine
  8
color#000000fd
 62
256
370
-1
  6
BYLAYER
 10
1.6349058410757789
 20
6.6873197867108711
 30
0.0
 11
1.6592619219661955
 21
6.667736677212929
 31
0.0
  0
LINE
  5
68
100
AcDbEntity
100
AcDbLine
  8
color#000000fd
 62
256
370
-1
  6
BYLAYER
 10
1.6592619219661955
 20
6.667736677212929
 30
0.0
 11
1.6827447091219081
 21
6.6471962444812469
 31
0.0
  0
LINE
  5
69
100
AcDbEntity
100
AcDbLine
  8
color#000000fd
 62
256
370
-1
  6
BYLAYER
 10
1.6827447091219081
 20
6.6471962444812469
 30
0.0
 11
1.7053383588405888
 21
6.6257398363391919
 31
0.0
  0
LINE
  5
6A
100
AcDbEntity
100
AcDbLine
  8
color#000000fd
 62
256
370
-1
  6
BYLAYER
 10
1.7053383588405888
 20
6.6257398363391919
 30
0.0
 11
1.7270270274199135
 21
6.6034088006101337
 31
0.0
  0
LINE
  5
6B
100
AcDbEntity
100
AcDbLine
  8
color#000000fd
 62
256
370
-1
  6
BYLAYER
 10
1.7270270274199135
 20
6.6034088006101337
 30
0.0
 11
1.7477948711575544
 21
6.58024448511744
 31
0.0
  0
LINE
  5
6C
100
AcDbEntity
100
AcDbLine
  8
color#000000fd
 62
256
370
-1
  6
BYLAYER
 10
1.7477948711575544
 20
6.58024448511744
 30
0.0
 11
1.7676260463511841
 21
6.5562882376844778
 31
0.0
  0
LINE
  5
6D
100
AcDbEntity
100
AcDbLine
  8
color#000000fd
 62
256
370
-1
  6
BYLAYER
 10
1.7676260463511841
 20
6.5562882376844778
 30
0.0
 11
1.7865047092984787
 21
6.5315814061346158
 31
0.0
  0
LINE
  5
6E
100
AcDbEntity
100
AcDbLine
  8
color#000000fd
 62
256
370
-1
  6
BYLAYER
 10
1.7865047092984787
 20
6.5315814061346158
 30
0.0
 11
1.8044150162971104
 21
6.506165338291221
 31
0.0
  0
LINE
  5
6F
100
AcDbEntity
100
AcDbLine
  8
color#000000fd
 62
256
370
-1
  6
BYLAYER
 10
1.8044150162971104
 20
6.506165338291221
 30
0.0
 11
1.8213411236447519
 21
6.4800813819776621
 31
0.0
  0
LINE
  5
70
100
AcDbEntity
100
AcDbLine
  8
color#000000fd
 62
256
370
-1
  6
BYLAYER
 10
1.8213411236447519
 20
6.4800813819776621
 30
0.0
 11
1.8372671876390783
 21
6.4533708850173079
 31
0.0
  0
LINE
  5
71
100
AcDbEntity
100
AcDbLine
  8
color#000000fd
 62
256
370
-1
  6
BYLAYER
 10
1.8372671876390783
 20
6.4533708850173079
 30
0.0
 11
1.8521773645777624
 21
6.4260751952335253
 31
0.0
  0
LINE
  5
72
100
AcDbEntity
100
AcDbLine
  8
color#000000fd
 62
256
370
-1
  6
BYLAYER
 10
1.8521773645777624
 20
6.4260751952335253
 30
0.0
 11
1.8660558107584779
 21
6.3982356604496822
 31
0.0
  0
LINE
  5
73
100
AcDbEntity
100
AcDbLine
  8
color#000000fd
 62
256
370
-1
  6
BYLAYER
 10
1.8660558107584779
 20
6.3982356604496822
 30
0.0
 11
1.8788866824788988
 21
6.3698936284891481
 31
0.0
  0
LINE
  5
74
100
AcDbEntity
100
AcDbLine
  8
color#000000fd
 62
256
370
-1
  6
BYLAYER
 10
1.8788866824788988
 20
6.3698936284891481
 30
0.0
 11
1.8906541360366984
 21
6.3410904471752882
 31
0.0
  0
LINE
  5
75
100
AcDbEntity
100
AcDbLine
  8
color#000000fd
 62
256
370
-1
  6
BYLAYER
 10
1.8906541360366984
 20
6.3410904471752882
 30
0.0
 11
1.90134232772955
 21
6.3118674643314741
 31
0.0
  0
LINE
  5
76
100
AcDbEntity
100
AcDbLine
  8
color#000000fd
 62
256
370
-1
  6
BYLAYER
 10
1.90134232772955
 20
6.3118674643314741
 30
0.0
 11
1.9109354138551273
 21
6.2822660277810707
 31
0.0
  0
LINE
  5
77
100
AcDbEntity
100
AcDbLine
  8
color#000000fd
 62
256
370
-1
  6
BYLAYER
 10
1.9109354138551273
 20
6.2822660277810707
 30
0.0
 11
1.9194175507111046
 21
6.2523274853474469
 31
0.0
  0
LINE
  5
78
100
AcDbEntity
100
AcDbLine
  8
color#000000fd
 62
256
370
-1
  6
BYLAYER
 10
1.9194175507111046
 20
6.2523274853474469
 30
0.0
 11
1.9267728945951548
 21
6.2220931848539713
 31
0.0
  0
LINE
  5
79
100
AcDbEntity
100
AcDbLine
  8
color#000000fd
 62
256
370
-1
  6
BYLAYER
 10
1.9267728945951548
 20
6.2220931848539713
 30
0.0
 11
1.9329856018049516
 21
6.1916044741240119
 31
0.0
  0
LINE
  5
7A
100
AcDbEntity
100
AcDbLine
  8
color#000000fd
 62
256
370
-1
  6
BYLAYER
 10
1.9329856018049516
 20
6.1916044741240119
 30
0.0
 11
1.9380398286381686
 21
6.1609027009809365
 31
0.0
  0
LINE
  5
7B
100
AcDbEntity
100
AcDbLine
  8
color#000000fd
 62
256
370
-1
  6
BYLAYER
 10
1.9380398286381686
 20
6.1609027009809365
 30
0.0
 11
1.9419197313924796
 21
6.1300292132481111
 31
0.0
  0
LINE
  5
7C
100
AcDbEntity
100
AcDbLine
  8
color#000000fd
 62
256
370
-1
  6
BYLAYER
 10
1.9419197313924796
 20
6.1300292132481111
 30
0.0
 11
1.9446094663655578
 21
6.0990253587489072
 31
0.0
  0
LINE
  5
7D
100
AcDbEntity
100
AcDbLine
  8
color#000000fd
 62
256
370
-1
  6
BYLAYER
 10
1.9446094663655578
 20
6.0990253587489072
 30
0.0
 11
1.9460931898550768
 21
6.0679324853066898
 31
0.0
  0
LINE
  5
7E
100
AcDbEntity
100
AcDbLine
  8
color#000000fd
 62
256
370
-1
  6
BYLAYER
 10
1.9460931898550768
 20
6.0679324853066898
 30
0.0
 11
1.946355058158711
 21
6.0367919407448296
 31
0.0
  0
LINE
  5
7F
100
AcDbEntity
100
AcDbLine
  8
color#000000fd
 62
256
370
-1
  6
BYLAYER
 10
1.946355058158711
 20
6.0367919407448296
 30
0.0
 11
1.9453792275741333
 21
6.0056450728866917
 31
0.0
  0
LINE
  5
80
100
AcDbEntity
100
AcDbLine
  8
color#000000fd
 62
256
370
-1
  6
BYLAYER
 10
1.9453792275741333
 20
6.0056450728866917
 30
0.0
 11
1.9431498543990164
 21
5.9745332295556457
 31
0.0
  0
LINE
  5
81
100
AcDbEntity
100
AcDbLine
  8
color#000000fd
 62
256
370
-1
  6
BYLAYER
 10
1.9431498543990164
 20
5.9745332295556457
 30
0.0
 11
1.9396510949310359
 21
5.9434977585750595
 31
0.0
  0
LINE
  5
82
100
AcDbEntity
100
AcDbLine
  8
color#000000fd
 62
256
370
-1
  6
BYLAYER
 10
1.9396510949310359
 20
5.9434977585750595
 30
0.0
 11
1.9348671054678641
 21
5.9125800077683017
 31
0.0
  0
LINE
  5
83
100
AcDbEntity
100
AcDbLine
  8
color#000000fd
 62
256
370
-1
  6
BYLAYER
 10
1.9348671054678641
 20
5.9125800077683017
 30
0.0
 11
2.6087550463925391
 21
5.2429606247778686
 31
0.0
  0
LINE
  5
84
100
AcDbEntity
100
AcDbLine
  8
color#000000fd
 62
256
370
-1
  6
BYLAYER
 10
2.6087550463925391
 20
5.2429606247778686
 30
0.0
 11
3.0393659633114143
 21
6.166546520247782
 31
0.0
  0
LINE
  5
85
100
AcDbEntity
100
AcDbLine
  8
color#000000fd
 62
256
370
-1
  6
BYLAYER
 10
3.0393659633114143
 20
6.166546520247782
 30
0.0
 11
3.0451605427977788
 21
6.1782027734430747
 31
0.0
  0
LINE
  5
86
100
AcDbEntity
100
AcDbLine
  8
color#000000fd
 62
256
370
-1
  6
BYLAYER
 10
3.0451605427977788
 20
6.1782027734430747
 30
0.0
 11
3.0513600077576482
 21
6.1896298737939537
 31
0.0
  0
LINE
  5
87
100
AcDbEntity
100
AcDbLine
  8
color#000000fd
 62
256
370
-1
  6
BYLAYER
 10
3.0513600077576482
 20
6.1896298737939537
 30
0.0
 11
3.0579532920409247
 21
6.2008185767586346
 31
0.0
  0
LINE
  5
88
100
AcDbEntity
100
AcDbLine
  8
color#000000fd
 62
256
370
-1
  6
BYLAYER
 10
3.0579532920409247
 20
6.2008185767586346
 30
0.0
 11
3.0649293294975024
 21
6.2117596377953328
 31
0.0
  0
LINE
  5
89
100
AcDbEntity
100
AcDbLine
  8
color#000000fd
 62
256
370
-1
  6
BYLAYER
 10
3.0649293294975024
 20
6.2117596377953328
 30
0.0
 11
3.0722770539772823
 21
6.2224438123622638
 31
0.0
  0
LINE
  5
8A
100
AcDbEntity
100
AcDbLine
  8
color#000000fd
 62
256
370
-1
  6
BYLAYER
 10
3.0722770539772823
 20
6.2224438123622638
 30
0.0
 11
3.0799853993301602
 21
6.2328618559176432
 31
0.0
  0
LINE
  5
8B
100
AcDbEntity
100
AcDbLine
  8
color#000000fd
 62
256
370
-1
  6
BYLAYER
 10
3.0799853993301602
 20
6.2328618559176432
 30
0.0
 11
3.0880432994060332
 21
6.2430045239196863
 31
0.0
  0
LINE
  5
8C
100
AcDbEntity
100
AcDbLine
  8
color#000000fd
 62
256
370
-1
  6
BYLAYER
 10
3.0880432994060332
 20
6.2430045239196863
 30
0.0
 11
3.0964396880548026
 21
6.2528625718266078
 31
0.0
  0
LINE
  5
8D
100
AcDbEntity
100
AcDbLine
  8
color#000000fd
 62
256
370
-1
  6
BYLAYER
 10
3.0964396880548026
 20
6.2528625718266078
 30
0.0
 11
3.1051634991263635
 21
6.2624267550966248
 31
0.0
  0
LINE
  5
8E
100
AcDbEntity
100
AcDbLine
  8
color#000000fd
 62
256
370
-1
  6
BYLAYER
 10
3.1051634991263635
 20
6.2624267550966248
 30
0.0
 11
3.1142036664706123
 21
6.271687829187953
 31
0.0
  0
LINE
  5
8F
100
AcDbEntity
100
AcDbLine
  8
color#000000fd
 62
256
370
-1
  6
BYLAYER
 10
3.1142036664706123
 20
6.271687829187953
 30
0.0
 11
3.1235491239374502
 21
6.280636549558805
 31
0.0
  0
LINE
  5
90
100
AcDbEntity
100
AcDbLine
  8
color#000000fd
 62
256
370
-1
  6
BYLAYER
 10
3.1235491239374502
 20
6.280636549558805
 30
0.0
 11
3.1331888053767738
 21
6.2892636716673991
 31
0.0
  0
LINE
  5
91
100
AcDbEntity
100
AcDbLine
  8
color#000000fd
 62
256
370
-1
  6
BYLAYER
 10
3.1331888053767738
 20
6.2892636716673991
 30
0.0
 11
3.1431116446384797
 21
6.2975599509719498
 31
0.0
  0
LINE
  5
92
100
AcDbEntity
100
AcDbLine
  8
color#000000fd
 62
256
370
-1
  6
BYLAYER
 10
3.1431116446384797
 20
6.2975599509719498
 30
0.0
 11
3.1533065755724681
 21
6.3055161429306725
 31
0.0
  0
LINE
  5
93
100
AcDbEntity
100
AcDbLine
  8
color#000000fd
 62
256
370
-1
  6
BYLAYER
 10
3.1533065755724681
 20
6.3055161429306725
 30
0.0
 11
3.1637625320286347
 21
6.313123003001782
 31
0.0
  0
LINE
  5
94
100
AcDbEntity
100
AcDbLine
  8
color#000000fd
 62
256
370
-1
  6
BYLAYER
 10
3.1637625320286347
 20
6.313123003001782
 30
0.0
 11
3.1744684478568779
 21
6.3203712866434953
 31
0.0
  0
LINE
  5
95
100
AcDbEntity
100
AcDbLine
  8
color#000000fd
 62
256
370
-1
  6
BYLAYER
 10
3.1744684478568779
 20
6.3203712866434953
 30
0.0
 11
3.1854132569070961
 21
6.3272517493140263
 31
0.0
  0
LINE
  5
96
100
AcDbEntity
100
AcDbLine
  8
color#000000fd
 62
256
370
-1
  6
BYLAYER
 10
3.1854132569070961
 20
6.3272517493140263
 30
0.0
 11
3.1965858930291864
 21
6.3337551464715913
 31
0.0
  0
LINE
  5
97
100
AcDbEntity
100
AcDbLine
  8
color#000000fd
 62
256
370
-1
  6
BYLAYER
 10
3.1965858930291864
 20
6.3337551464715913
 30
0.0
 11
3.2079752900730467
 21
6.3398722335744058
 31
0.0
  0
LINE
  5
98
100
AcDbEntity
100
AcDbLine
  8
color#000000fd
 62
256
370
-1
  6
BYLAYER
 10
3.2079752900730467
 20
6.3398722335744058
 30
0.0
 11
3.2195703818885755
 21
6.3455937660806851
 31
0.0
  0
LINE
  5
99
100
AcDbEntity
100
AcDbLine
  8
color#000000fd
 62
256
370
-1
  6
BYLAYER
 10
3.2195703818885755
 20
6.3455937660806851
 30
0.0
 11
3.2313601023256706
 21
6.3509104994486441
 31
0.0
  0
LINE
  5
9A
100
AcDbEntity
100
AcDbLine
  8
color#000000fd
 62
256
370
-1
  6
BYLAYER
 10
3.2313601023256706
 20
6.3509104994486441
 30
0.0
 11
3.2433333852342292
 21
6.3558131891364997
 31
0.0
  0
LINE
  5
9B
100
AcDbEntity
100
AcDbLine
  8
color#000000fd
 62
256
370
-1
  6
BYLAYER
 10
3.2433333852342292
 20
6.3558131891364997
 30
0.0
 11
3.2554791644641492
 21
6.3602925906024659
 31
0.0
  0
LINE
  5
9C
100
AcDbEntity
100
AcDbLine
  8
color#000000fd
 62
256
370
-1
  6
BYLAYER
 10
3.2554791644641492
 20
6.3602925906024659
 30
0.0
 11
3.2677863738653286
 21
6.3643394593047589
 31
0.0
  0
LINE
  5
9D
100
AcDbEntity
100
AcDbLine
  8
color#000000fd
 62
256
370
-1
  6
BYLAYER
 10
3.2677863738653286
 20
6.3643394593047589
 30
0.0
 11
3.2802439472876648
 21
6.3679445507015933
 31
0.0
  0
LINE
  5
9E
100
AcDbEntity
100
AcDbLine
  8
color#000000fd
 62
256
370
-1
  6
BYLAYER
 10
3.2802439472876648
 20
6.3679445507015933
 30
0.0
 11
3.2928408185810571
 21
6.3710986202511855
 31
0.0
  0
LINE
  5
9F
100
AcDbEntity
100
AcDbLine
  8
color#000000fd
 62
256
370
-1
  6
BYLAYER
 10
3.2928408185810571
 20
6.3710986202511855
 30
0.0
 11
3.3055659215954005
 21
6.3737924234117518
 31
0.0
  0
LINE
  5
A0
100
AcDbEntity
100
AcDbLine
  8
color#000000fd
 62
256
370
-1
  6
BYLAYER
 10
3.3055659215954005
 20
6.3737924234117518
 30
0.0
 11
3.318408190180596
 21
6.376016715641506
 31
0.0
  0
LINE
  5
A1
100
AcDbEntity
100
AcDbLine
  8
color#000000fd
 62
256
370
-1
  6
BYLAYER
 10
3.318408190180596
 20
6.376016715641506
 30
0.0
 11
3.3313565581865396
 21
6.3777622523986643
 31
0.0
  0
LINE
  5
A2
100
AcDbEntity
100
AcDbLine
  8
color#000000fd
 62
256
370
-1
  6
BYLAYER
 10
3.3313565581865396
 20
6.3777622523986643
 30
0.0
 11
3.4045846596096947
 21
6.3779935007229005
 31
0.0
  0
LINE
  5
A3
100
AcDbEntity
100
AcDbLine
  8
color#000000fd
 62
256
370
-1
  6
BYLAYER
 10
3.4045846596096947
 20
6.3779935007229005
 30
0.0
 11
3.423884902811491
 21
6.3754477146633555
 31
0.0
  0
LINE
  5
A4
100
AcDbEntity
100
AcDbLine
  8
color#000000fd
 62
256
370
-1
  6
BYLAYER
 10
3.423884902811491
 20
6.3754477146633555
 30
0.0
 11
3.4426287967719165
 21
6.3718497993424208
 31
0.0
  0
LINE
  5
A5
100
AcDbEntity
100
AcDbLine
  8
color#000000fd
 62
256
370
-1
  6
BYLAYER
 10
3.4426287967719165
 20
6.3718497993424208
 30
0.0
 11
3.4608418705685868
 21
6.367251922175484
 31
0.0
  0
LINE
  5
A6
100
AcDbEntity
100
AcDbLine
  8
color#000000fd
 62
256
370
-1
  6
BYLAYER
 10
3.4608418705685868
 20
6.367251922175484
 30
0.0
 11
3.4785496532791131
 21
6.3617062505779352
 31
0.0
  0
LINE
  5
A7
100
AcDbEntity
100
AcDbLine
  8
color#000000fd
 62
256
370
-1
  6
BYLAYER
 10
3.4785496532791131
 20
6.3617062505779352
 30
0.0
 11
3.4957776739811122
 21
6.3552649519651609
 31
0.0
  0
LINE
  5
A8
100
AcDbEntity
100
AcDbLine
  8
color#000000fd
 62
256
370
-1
  6
BYLAYER
 10
3.4957776739811122
 20
6.3552649519651609
 30
0.0
 11
3.5125514617521953
 21
6.3479801937525524
 31
0.0
  0
LINE
  5
A9
100
AcDbEntity
100
AcDbLine
  8
color#000000fd
 62
256
370
-1
  6
BYLAYER
 10
3.5125514617521953
 20
6.3479801937525524
 30
0.0
 11
3.528896545669975
 21
6.3399041433554979
 31
0.0
  0
LINE
  5
AA
100
AcDbEntity
100
AcDbLine
  8
color#000000fd
 62
256
370
-1
  6
BYLAYER
 10
3.528896545669975
 20
6.3399041433554979
 30
0.0
 11
3.5448384548120706
 21
6.3310889681893858
 31
0.0
  0
LINE
  5
AB
100
AcDbEntity
100
AcDbLine
  8
color#000000fd
 62
256
370
-1
  6
BYLAYER
 10
3.5448384548120706
 20
6.3310889681893858
 30
0.0
 11
3.5604027182560904
 21
6.3215868356696046
 31
0.0
  0
LINE
  5
AC
100
AcDbEntity
100
AcDbLine
  8
color#000000fd
 62
256
370
-1
  6
BYLAYER
 10
3.5604027182560904
 20
6.3215868356696046
 30
0.0
 11
3.5756148650796487
 21
6.3114499132115434
 31
0.0
  0
LINE
  5
AD
100
AcDbEntity
100
AcDbLine
  8
color#000000fd
 62
256
370
-1
  6
BYLAYER
 10
3.5756148650796487
 20
6.3114499132115434
 30
0.0
 11
3.5905004243603602
 21
6.3007303682305924
 31
0.0
  0
LINE
  5
AE
100
AcDbEntity
100
AcDbLine
  8
color#000000fd
 62
256
370
-1
  6
BYLAYER
 10
3.5905004243603602
 20
6.3007303682305924
 30
0.0
 11
3.6050849251758397
 21
6.2894803681421392
 31
0.0
  0
LINE
  5
AF
100
AcDbEntity
100
AcDbLine
  8
color#000000fd
 62
256
370
-1
  6
BYLAYER
 10
3.6050849251758397
 20
6.2894803681421392
 30
0.0
 11
3.6193938966036976
 21
6.2777520803615721
 31
0.0
  0
LINE
  5
B0
100
AcDbEntity
100
AcDbLine
  8
color#000000fd
 62
256
370
-1
  6
BYLAYER
 10
3.6193938966036976
 20
6.2777520803615721
 30
0.0
 11
3.6334528677215507
 21
6.2655976723042803
 31
0.0
  0
LINE
  5
B1
100
AcDbEntity
100
AcDbLine
  8
color#000000fd
 62
256
370
-1
  6
BYLAYER
 10
3.6334528677215507
 20
6.2655976723042803
 30
0.0
 11
3.6472873676070114
 21
6.2530693113856524
 31
0.0
  0
LINE
  5
B2
100
AcDbEntity
100
AcDbLine
  8
color#000000fd
 62
256
370
-1
  6
BYLAYER
 10
3.6472873676070114
 20
6.2530693113856524
 30
0.0
 11
3.6609229253376938
 21
6.2402191650210783
 31
0.0
  0
LINE
  5
B3
100
AcDbEntity
100
AcDbLine
  8
color#000000fd
 62
256
370
-1
  6
BYLAYER
 10
3.6609229253376938
 20
6.2402191650210783
 30
0.0
 11
3.6876993306451769
 21
6.2137621856156446
 31
0.0
  0
LINE
  5
B4
100
AcDbEntity
100
AcDbLine
  8
color#000000fd
 62
256
370
-1
  6
BYLAYER
 10
3.6876993306451769
 20
6.2137621856156446
 30
0.0
 11
3.7789028457550509
 21
6.1186951262114535
 31
0.0
  0
LINE
  5
B5
100
AcDbEntity
100
AcDbLine
  8
color#000000fd
 62
256
370
-1
  6
BYLAYER
 10
3.7789028457550509
 20
6.1186951262114535
 30
0.0
 11
3.8050851943573187
 21
6.0925495963794667
 31
0.0
  0
LINE
  5
B6
100
AcDbEntity
100
AcDbLine
  8
color#000000fd
 62
256
370
-1
  6
BYLAYER
 10
3.8050851943573187
 20
6.0925495963794667
 30
0.0
 11
3.8183247142845236
 21
6.0799070830638566
 31
0.0
  0
LINE
  5
B7
100
AcDbEntity
100
AcDbLine
  8
color#000000fd
 62
256
370
-1
  6
BYLAYER
 10
3.8183247142845236
 20
6.0799070830638566
 30
0.0
 11
3.8316971700659272
 21
6.0676209607023548
 31
0.0
  0
LINE
  5
B8
100
AcDbEntity
100
AcDbLine
  8
color#000000fd
 62
256
370
-1
  6
BYLAYER
 10
3.8316971700659272
 20
6.0676209607023548
 30
0.0
 11
3.8457938350956322
 21
6.0531686513503047
 31
0.0
  0
LINE
  5
B9
100
AcDbEntity
100
AcDbLine
  8
color#000000fd
 62
256
370
-1
  6
BYLAYER
 10
3.8457938350956322
 20
6.0531686513503047
 30
0.0
 11
3.858918088452655
 21
6.0380140454974747
 31
0.0
  0
LINE
  5
BA
100
AcDbEntity
100
AcDbLine
  8
color#000000fd
 62
256
370
-1
  6
BYLAYER
 10
3.858918088452655
 20
6.0380140454974747
 30
0.0
 11
3.8710676817084493
 21
6.0222085302373403
 31
0.0
  0
LINE
  5
BB
100
AcDbEntity
100
AcDbLine
  8
color#000000fd
 62
256
370
-1
  6
BYLAYER
 10
3.8710676817084493
 20
6.0222085302373403
 30
0.0
 11
3.8822403664344662
 21
6.0058034926633752
 31
0.0
  0
LINE
  5
BC
100
AcDbEntity
100
AcDbLine
  8
color#000000fd
 62
256
370
-1
  6
BYLAYER
 10
3.8822403664344662
 20
6.0058034926633752
 30
0.0
 11
3.8924338942021617
 21
5.9888503198690524
 31
0.0
  0
LINE
  5
BD
100
AcDbEntity
100
AcDbLine
  8
color#000000fd
 62
256
370
-1
  6
BYLAYER
 10
3.8924338942021617
 20
5.9888503198690524
 30
0.0
 11
3.9016460165829878
 21
5.9714003989478464
 31
0.0
  0
LINE
  5
BE
100
AcDbEntity
100
AcDbLine
  8
color#000000fd
 62
256
370
-1
  6
BYLAYER
 10
3.9016460165829878
 20
5.9714003989478464
 30
0.0
 11
3.9098744851483938
 21
5.9535051169932318
 31
0.0
  0
LINE
  5
BF
100
AcDbEntity
100
AcDbLine
  8
color#000000fd
 62
256
370
-1
  6
BYLAYER
 10
3.9098744851483938
 20
5.9535051169932318
 30
0.0
 11
3.9171170514698384
 21
5.9352158610986834
 31
0.0
  0
LINE
  5
C0
100
AcDbEntity
100
AcDbLine
  8
color#000000fd
 62
256
370
-1
  6
BYLAYER
 10
3.9171170514698384
 20
5.9352158610986834
 30
0.0
 11
3.9233714671187716
 21
5.9165840183576721
 31
0.0
  0
LINE
  5
C1
100
AcDbEntity
100
AcDbLine
  8
color#000000fd
 62
256
370
-1
  6
BYLAYER
 10
3.9233714671187716
 20
5.9165840183576721
 30
0.0
 11
3.9286354836666431
 21
5.8976609758636762
 31
0.0
  0
LINE
  5
C2
100
AcDbEntity
100
AcDbLine
  8
color#000000fd
 62
256
370
-1
  6
BYLAYER
 10
3.9286354836666431
 20
5.8976609758636762
 30
0.0
 11
3.9329068526849102
 21
5.8784981207101659
 31
0.0
  0
LINE
  5
C3
100
AcDbEntity
100
AcDbLine
  8
color#000000fd
 62
256
370
-1
  6
BYLAYER
 10
3.9329068526849102
 20
5.8784981207101659
 30
0.0
 11
3.9361833257450254
 21
5.8591468399906166
 31
0.0
  0
LINE
  5
C4
100
AcDbEntity
100
AcDbLine
  8
color#000000fd
 62
256
370
-1
  6
BYLAYER
 10
3.9361833257450254
 20
5.8591468399906166
 30
0.0
 11
3.9384626544184393
 21
5.8396585207985039
 31
0.0
  0
LINE
  5
C5
100
AcDbEntity
100
AcDbLine
  8
color#000000fd
 62
256
370
-1
  6
BYLAYER
 10
3.9384626544184393
 20
5.8396585207985039
 30
0.0
 11
3.939742590276607
 21
5.8200845502272998
 31
0.0
  0
LINE
  5
C6
100
AcDbEntity
100
AcDbLine
  8
color#000000fd
 62
256
370
-1
  6
BYLAYER
 10
3.939742590276607
 20
5.8200845502272998
 30
0.0
 11
3.9400208848909801
 21
5.8004763153704788
 31
0.0
  0
LINE
  5
C7
100
AcDbEntity
100
AcDbLine
  8
color#000000fd
 62
256
370
-1
  6
BYLAYER
 10
3.9400208848909801
 20
5.8004763153704788
 30
0.0
 11
3.9392952898330122
 21
5.7808852033215148
 31
0.0
  0
LINE
  5
C8
100
AcDbEntity
100
AcDbLine
  8
color#000000fd
 62
256
370
-1
  6
BYLAYER
 10
3.9392952898330122
 20
5.7808852033215148
 30
0.0
 11
3.9375635566741547
 21
5.7613626011738823
 31
0.0
  0
LINE
  5
C9
100
AcDbEntity
100
AcDbLine
  8
color#000000fd
 62
256
370
-1
  6
BYLAYER
 10
3.9375635566741547
 20
5.7613626011738823
 30
0.0
 11
3.9348234369858628
 21
5.7419598960210552
 31
0.0
  0
LINE
  5
CA
100
AcDbEntity
100
AcDbLine
  8
color#000000fd
 62
256
370
-1
  6
BYLAYER
 10
3.9348234369858628
 20
5.7419598960210552
 30
0.0
 11
3.9310726823395878
 21
5.7227284749565079
 31
0.0
  0
LINE
  5
CB
100
AcDbEntity
100
AcDbLine
  8
color#000000fd
 62
256
370
-1
  6
BYLAYER
 10
3.9310726823395878
 20
5.7227284749565079
 30
0.0
 11
3.926309044306783
 21
5.7037197250737135
 31
0.0
  0
LINE
  5
CC
100
AcDbEntity
100
AcDbLine
  8
color#000000fd
 62
256
370
-1
  6
BYLAYER
 10
3.926309044306783
 20
5.7037197250737135
 30
0.0
 11
3.9205302744589008
 21
5.6849850334661465
 31
0.0
  0
LINE
  5
CD
100
AcDbEntity
100
AcDbLine
  8
color#000000fd
 62
256
370
-1
  6
BYLAYER
 10
3.9205302744589008
 20
5.6849850334661465
 30
0.0
 11
3.9137341243673953
 21
5.6665757872272815
 31
0.0
  0
LINE
  5
CE
100
AcDbEntity
100
AcDbLine
  8
color#000000fd
 62
256
370
-1
  6
BYLAYER
 10
3.9137341243673953
 20
5.6665757872272815
 30
0.0
 11
3.9059183456037179
 21
5.6485433734505905
 31
0.0
  0
LINE
  5
CF
100
AcDbEntity
100
AcDbLine
  8
color#000000fd
 62
256
370
-1
  6
BYLAYER
 10
3.9059183456037179
 20
5.6485433734505905
 30
0.0
 11
3.897080689739322
 21
5.6309391792295509
 31
0.0
  0
LINE
  5
D0
100
AcDbEntity
100
AcDbLine
  8
color#000000fd
 62
256
370
-1
  6
BYLAYER
 10
3.897080689739322
 20
5.6309391792295509
 30
0.0
 11
3.8872189083456608
 21
5.6138145916576327
 31
0.0
  0
LINE
  5
D1
100
AcDbEntity
100
AcDbLine
  8
color#000000fd
 62
256
370
-1
  6
BYLAYER
 10
3.8872189083456608
 20
5.6138145916576327
 30
0.0
 11
3.8763307529941877
 21
5.5972209978283125
 31
0.0
  0
LINE
  5
D2
100
AcDbEntity
100
AcDbLine
  8
color#000000fd
 62
256
370
-1
  6
BYLAYER
 10
3.8763307529941877
 20
5.5972209978283125
 30
0.0
 11
3.8644139752563538
 21
5.5812097848350657
 31
0.0
  0
LINE
  5
D3
100
AcDbEntity
100
AcDbLine
  8
color#000000fd
 62
256
370
-1
  6
BYLAYER
 10
3.8644139752563538
 20
5.5812097848350657
 30
0.0
 11
3.8514663267036138
 21
5.5658323397713634
 31
0.0
  0
LINE
  5
D4
100
AcDbEntity
100
AcDbLine
  8
color#000000fd
 62
256
370
-1
  6
BYLAYER
 10
3.8514663267036138
 20
5.5658323397713634
 30
0.0
 11
3.8374855589074195
 21
5.5511400497306802
 31
0.0
  0
LINE
  5
D5
100
AcDbEntity
100
AcDbLine
  8
color#000000fd
 62
256
370
-1
  6
BYLAYER
 10
3.8374855589074195
 20
5.5511400497306802
 30
0.0
 11
1.6298376283510081
 21
3.3426493796378076
 31
0.0
  0
LINE
  5
D6
100
AcDbEntity
100
AcDbLine
  8
color#000000fd
 62
256
370
-1
  6
BYLAYER
 10
1.6298376283510081
 20
3.3426493796378076
 30
0.0
 11
1.6151580312704374
 21
3.3286602326442898
 31
0.0
  0
LINE
  5
D7
100
AcDbEntity
100
AcDbLine
  8
color#000000fd
 62
256
370
-1
  6
BYLAYER
 10
1.6151580312704374
 20
3.3286602326442898
 30
0.0
 11
1.599783499932669
 21
3.3156999976701105
 31
0.0
  0
LINE
  5
D8
100
AcDbEntity
100
AcDbLine
  8
color#000000fd
 62
256
370
-1
  6
BYLAYER
 10
1.599783499932669
 20
3.3156999976701105
 30
0.0
 11
1.5837661338119344
 21
3.3037668578422106
 31
0.0
  0
LINE
  5
D9
100
AcDbEntity
100
AcDbLine
  8
color#000000fd
 62
256
370
-1
  6
BYLAYER
 10
1.5837661338119344
 20
3.3037668578422106
 30
0.0
 11
1.5671580323824637
 21
3.2928589962875359
 31
0.0
  0
LINE
  5
DA
100
AcDbEntity
100
AcDbLine
  8
color#000000fd
 62
256
370
-1
  6
BYLAYER
 10
1.5671580323824637
 20
3.2928589962875359
 30
0.0
 11
1.5500112951184883
 21
3.2829745961330281
 31
0.0
  0
LINE
  5
DB
100
AcDbEntity
100
AcDbLine
  8
color#000000fd
 62
256
370
-1
  6
BYLAYER
 10
1.5500112951184883
 20
3.2829745961330281
 30
0.0
 11
1.5323780214942386
 21
3.2741118405056349
 31
0.0
  0
LINE
  5
DC
100
AcDbEntity
100
AcDbLine
  8
color#000000fd
 62
256
370
-1
  6
BYLAYER
 10
1.5323780214942386
 20
3.2741118405056349
 30
0.0
 11
1.5143103109839449
 21
3.2662689125322992
 31
0.0
  0
LINE
  5
DD
100
AcDbEntity
100
AcDbLine
  8
color#000000fd
 62
256
370
-1
  6
BYLAYER
 10
1.5143103109839449
 20
3.2662689125322992
 30
0.0
 11
1.4958602630618387
 21
3.2594439953399621
 31
0.0
  0
LINE
  5
DE
100
AcDbEntity
100
AcDbLine
  8
color#000000fd
 62
256
370
-1
  6
BYLAYER
 10
1.4958602630618387
 20
3.2594439953399621
 30
0.0
 11
1.4770799772021503
 21
3.2536352720555692
 31
0.0
  0
LINE
  5
DF
100
AcDbEntity
100
AcDbLine
  8
color#000000fd
 62
256
370
-1
  6
BYLAYER
 10
1.4770799772021503
 20
3.2536352720555692
 30
0.0
 11
1.4580215528791101
 21
3.2488409258060673
 31
0.0
  0
LINE
  5
E0
100
AcDbEntity
100
AcDbLine
  8
color#000000fd
 62
256
370
-1
  6
BYLAYER
 10
1.4580215528791101
 20
3.2488409258060673
 30
0.0
 11
1.4387370895669493
 21
3.2450591397183968
 31
0.0
  0
LINE
  5
E1
100
AcDbEntity
100
AcDbLine
  8
color#000000fd
 62
256
370
-1
  6
BYLAYER
 10
1.4387370895669493
 20
3.2450591397183968
 30
0.0
 11
1.419278686739899
 21
3.242288096919502
 31
0.0
  0
LINE
  5
E2
100
AcDbEntity
100
AcDbLine
  8
color#000000fd
 62
256
370
-1
  6
BYLAYER
 10
1.419278686739899
 20
3.242288096919502
 30
0.0
 11
1.3996984438721887
 21
3.240525980536328
 31
0.0
  0
LINE
  5
E3
100
AcDbEntity
100
AcDbLine
  8
color#000000fd
 62
256
370
-1
  6
BYLAYER
 10
1.3996984438721887
 20
3.240525980536328
 30
0.0
 11
1.3800484604380499
 21
3.2397709736958191
 31
0.0
  0
LINE
  5
E4
100
AcDbEntity
100
AcDbLine
  8
color#000000fd
 62
256
370
-1
  6
BYLAYER
 10
1.3800484604380499
 20
3.2397709736958191
 30
0.0
 11
1.3603808359117133
 21
3.240021259524918
 31
0.0
  0
LINE
  5
E5
100
AcDbEntity
100
AcDbLine
  8
color#000000fd
 62
256
370
-1
  6
BYLAYER
 10
1.3603808359117133
 20
3.240021259524918
 30
0.0
 11
1.3407476697674094
 21
3.2412750211505692
 31
0.0
  0
LINE
  5
E6
100
AcDbEntity
100
AcDbLine
  8
color#000000fd
 62
256
370
-1
  6
BYLAYER
 10
1.3407476697674094
 20
3.2412750211505692
 30
0.0
 11
1.3212010614793692
 21
3.2435304416997175
 31
0.0
  0
LINE
  5
E7
100
AcDbEntity
100
AcDbLine
  8
color#000000fd
 62
256
370
-1
  6
BYLAYER
 10
1.3212010614793692
 20
3.2435304416997175
 30
0.0
 11
1.3017931105218232
 21
3.2467857042993051
 31
0.0
  0
LINE
  5
E8
100
AcDbEntity
100
AcDbLine
  8
color#000000fd
 62
256
370
-1
  6
BYLAYER
 10
1.3017931105218232
 20
3.2467857042993051
 30
0.0
 11
1.2825759163690025
 21
3.251038992076277
 31
0.0
  0
LINE
  5
E9
100
AcDbEntity
100
AcDbLine
  8
color#000000fd
 62
256
370
-1
  6
BYLAYER
 10
1.2825759163690025
 20
3.251038992076277
 30
0.0
 11
1.2636015784951371
 21
3.2562884881575775
 31
0.0
  0
LINE
  5
EA
100
AcDbEntity
100
AcDbLine
  8
color#000000fd
 62
256
370
-1
  6
BYLAYER
 10
1.2636015784951371
 20
3.2562884881575775
 30
0.0
 11
1.2449221963744581
 21
3.2625323756701494
 31
0.0
  0
LINE
  5
EB
100
AcDbEntity
100
AcDbLine
  8
color#000000fd
 62
256
370
-1
  6
BYLAYER
 10
1.2449221963744581
 20
3.2625323756701494
 30
0.0
 11
1.2265898694811963
 21
3.2697688377409375
 31
0.0
  0
LINE
  5
EC
100
AcDbEntity
100
AcDbLine
  8
color#000000fd
 62
256
370
-1
  6
BYLAYER
 10
1.2265898694811963
 20
3.2697688377409375
 30
0.0
 11
1.2086566972895827
 21
3.2779960574968863
 31
0.0
  0
LINE
  5
ED
100
AcDbEntity
100
AcDbLine
  8
color#000000fd
 62
256
370
-1
  6
BYLAYER
 10
1.2086566972895827
 20
3.2779960574968863
 30
0.0
 11
1.1911747792738472
 21
3.2872122180649388
 31
0.0
  0
LINE
  5
EE
100
AcDbEntity
100
AcDbLine
  8
color#000000fd
 62
256
370
-1
  6
BYLAYER
 10
1.1911747792738472
 20
3.2872122180649388
 30
0.0
 11
1.174196214908221
 21
3.2974155025720395
 31
0.0
  0
LINE
  5
EF
100
AcDbEntity
100
AcDbLine
  8
color#000000fd
 62
256
370
-1
  6
BYLAYER
 10
1.174196214908221
 20
3.2974155025720395
 30
0.0
 11
1.157773103666935
 21
3.3086040941451316
 31
0.0
  0
LINE
  5
F0
100
AcDbEntity
100
AcDbLine
  8
color#000000fd
 62
256
370
-1
  6
BYLAYER
 10
1.157773103666935
 20
3.3086040941451316
 30
0.0
 11
1.1419575450242196
 21
3.3207761759111603
 31
0.0
  0
LINE
  5
F1
100
AcDbEntity
100
AcDbLine
  8
color#000000fd
 62
256
370
-1
  6
BYLAYER
 10
1.1419575450242196
 20
3.3207761759111603
 30
0.0
 11
1.1268016384543058
 21
3.3339299309970678
 31
0.0
  0
LINE
  5
F2
100
AcDbEntity
100
AcDbLine
  8
color#000000fd
 62
256
370
-1
  6
BYLAYER
 10
1.1268016384543058
 20
3.3339299309970678
 30
0.0
 11
1.1123574834314238
 21
3.3480635425298004
 31
0.0
  0
LINE
  5
F3
100
AcDbEntity
100
AcDbLine
  8
color#000000fd
 62
256
370
-1
  6
BYLAYER
 10
1.1123574834314238
 20
3.3480635425298004
 30
0.0
 11
1.1001071188194103
 21
3.361470103454042
 31
0.0
  0
LINE
  5
F4
100
AcDbEntity
100
AcDbLine
  8
color#000000fd
 62
256
370
-1
  6
BYLAYER
 10
1.1001071188194103
 20
3.361470103454042
 30
0.0
 11
1.0874931240743071
 21
3.3747401514461917
 31
0.0
  0
LINE
  5
F5
100
AcDbEntity
100
AcDbLine
  8
color#000000fd
 62
256
370
-1
  6
BYLAYER
 10
1.0874931240743071
 20
3.3747401514461917
 30
0.0
 11
1.0613854178377888
 21
3.400973774012233
 31
0.0
  0
LINE
  5
F6
100
AcDbEntity
100
AcDbLine
  8
color#000000fd
 62
256
370
-1
  6
BYLAYER
 10
1.0613854178377888
 20
3.400973774012233
 30
0.0
 11
0.9663147285638001
 21
3.4922789482747598
 31
0.0
  0
LINE
  5
F7
100
AcDbEntity
100
AcDbLine
  8
color#000000fd
 62
256
370
-1
  6
BYLAYER
 10
0.9663147285638001
 20
3.4922789482747598
 30
0.0
 11
0.9398385092806407
 21
3.5190700003702751
 31
0.0
  0
LINE
  5
F8
100
AcDbEntity
100
AcDbLine
  8
color#000000fd
 62
256
370
-1
  6
BYLAYER
 10
0.9398385092806407
 20
3.5190700003702751
 30
0.0
 11
0.9269788391711104
 21
3.5327116680487416
 31
0.0
  0
LINE
  5
F9
100
AcDbEntity
100
AcDbLine
  8
color#000000fd
 62
256
370
-1
  6
BYLAYER
 10
0.9269788391711104
 20
3.5327116680487416
 30
0.0
 11
0.9144418533005978
 21
3.5465517852736861
 31
0.0
  0
LINE
  5
FA
100
AcDbEntity
100
AcDbLine
  8
color#000000fd
 62
256
370
-1
  6
BYLAYER
 10
0.9144418533005978
 20
3.5465517852736861
 30
0.0
 11
0.9022803450823422
 21
3.5606161183896159
 31
0.0
  0
LINE
  5
FB
100
AcDbEntity
100
AcDbLine
  8
color#000000fd
 62
256
370
-1
  6
BYLAYER
 10
0.9022803450823422
 20
3.5606161183896159
 30
0.0
 11
0.890547107929583
 21
3.5749304337410361
 31
0.0
  0
LINE
  5
FC
100
AcDbEntity
100
AcDbLine
  8
color#000000fd
 62
256
370
-1
  6
BYLAYER
 10
0.890547107929583
 20
3.5749304337410361
 30
0.0
 11
0.8792949352555588
 21
3.5895204976724528
 31
0.0
  0
LINE
  5
FD
100
AcDbEntity
100
AcDbLine
  8
color#000000fd
 62
256
370
-1
  6
BYLAYER
 10
0.8792949352555588
 20
3.5895204976724528
 30
0.0
 11
0.8685766204735089
 21
3.6044120765283711
 31
0.0
  0
LINE
  5
FE
100
AcDbEntity
100
AcDbLine
  8
color#000000fd
 62
256
370
-1
  6
BYLAYER
 10
0.8685766204735089
 20
3.6044120765283711
 30
0.0
 11
0.8584449569966721
 21
3.6196309366532962
 31
0.0
  0
LINE
  5
FF
100
AcDbEntity
100
AcDbLine
  8
color#000000fd
 62
256
370
-1
  6
BYLAYER
 10
0.8584449569966721
 20
3.6196309366532962
 30
0.0
 11
0.8489527382382878
 21
3.6352028443917339
 31
0.0
  0
LINE
  5
100
100
AcDbEntity
100
AcDbLine
  8
color#000000fd
 62
256
370
-1
  6
BYLAYER
 10
0.8489527382382878
 20
3.6352028443917339
 30
0.0
 11
0.8401527576115946
 21
3.6511535660881895
 31
0.0
  0
LINE
  5
101
100
AcDbEntity
100
AcDbLine
  8
color#000000fd
 62
256
370
-1
  6
BYLAYER
 10
0.8401527576115946
 20
3.6511535660881895
 30
0.0
 11
0.8320978085298316
 21
3.6675088680871699
 31
0.0
  0
LINE
  5
102
100
AcDbEntity
100
AcDbLine
  8
color#000000fd
 62
256
370
-1
  6
BYLAYER
 10
0.8320978085298316
 20
3.6675088680871699
 30
0.0
 11
0.8248406844062381
 21
3.6842945167331798
 31
0.0
  0
LINE
  5
103
100
AcDbEntity
100
AcDbLine
  8
color#000000fd
 62
256
370
-1
  6
BYLAYER
 10
0.8248406844062381
 20
3.6842945167331798
 30
0.0
 11
0.8184341786540528
 21
3.7015362783707237
 31
0.0
  0
LINE
  5
104
100
AcDbEntity
100
AcDbLine
  8
color#000000fd
 62
256
370
-1
  6
BYLAYER
 10
0.8184341786540528
 20
3.7015362783707237
 30
0.0
 11
0.812931084686515
 21
3.7192599193443083
 31
0.0
  0
LINE
  5
105
100
AcDbEntity
100
AcDbLine
  8
color#000000fd
 62
256
370
-1
  6
BYLAYER
 10
0.812931084686515
 20
3.7192599193443083
 30
0.0
 11
0.8083841959168636
 21
3.7374912059984404
 31
0.0
  0
LINE
  5
106
100
AcDbEntity
100
AcDbLine
  8
color#000000fd
 62
256
370
-1
  6
BYLAYER
 10
0.8083841959168636
 20
3.7374912059984404
 30
0.0
 11
0.8048463057583377
 21
3.7562559046776238
 31
0.0
  0
LINE
  5
107
100
AcDbEntity
100
AcDbLine
  8
color#000000fd
 62
256
370
-1
  6
BYLAYER
 10
0.8048463057583377
 20
3.7562559046776238
 30
0.0
 11
0.8023702076241762
 21
3.7755797817263641
 31
0.0
  0
LINE
  5
108
100
AcDbEntity
100
AcDbLine
  8
color#000000fd
 62
256
370
-1
  6
BYLAYER
 10
0.8023702076241762
 20
3.7755797817263641
 30
0.0
 11
0.8027584424809336
 21
3.8492858742562919
 31
0.0
  0
LINE
  5
109
100
AcDbEntity
100
AcDbLine
  8
color#000000fd
 62
256
370
-1
  6
BYLAYER
 10
0.8027584424809336
 20
3.8492858742562919
 30
0.0
 11
0.8045256543990196
 21
3.8622109253823584
 31
0.0
  0
LINE
  5
10A
100
AcDbEntity
100
AcDbLine
  8
color#000000fd
 62
256
370
-1
  6
BYLAYER
 10
0.8045256543990196
 20
3.8622109253823584
 30
0.0
 11
0.8067698862412613
 21
3.8750300374073228
 31
0.0
  0
LINE
  5
10B
100
AcDbEntity
100
AcDbLine
  8
color#000000fd
 62
256
370
-1
  6
BYLAYER
 10
0.8067698862412613
 20
3.8750300374073228
 30
0.0
 11
0.8094820082033688
 21
3.8877320298276112
 31
0.0
  0
LINE
  5
10C
100
AcDbEntity
100
AcDbLine
  8
color#000000fd
 62
256
370
-1
  6
BYLAYER
 10
0.8094820082033688
 20
3.8877320298276112
 30
0.0
 11
0.8126528904810512
 21
3.9003057221396529
 31
0.0
  0
LINE
  5
10D
100
AcDbEntity
100
AcDbLine
  8
color#000000fd
 62
256
370
-1
  6
BYLAYER
 10
0.8126528904810512
 20
3.9003057221396529
 30
0.0
 11
0.8162734032700185
 21
3.9127399338398732
 31
0.0
  0
LINE
  5
10E
100
AcDbEntity
100
AcDbLine
  8
color#000000fd
 62
256
370
-1
  6
BYLAYER
 10
0.8162734032700185
 20
3.9127399338398732
 30
0.0
 11
0.8203344167659799
 21
3.9250234844247007
 31
0.0
  0
LINE
  5
10F
100
AcDbEntity
100
AcDbLine
  8
color#000000fd
 62
256
370
-1
  6
BYLAYER
 10
0.8203344167659799
 20
3.9250234844247007
 30
0.0
 11
0.8248268011646447
 21
3.937145193390565
 31
0.0
  0
LINE
  5
110
100
AcDbEntity
100
AcDbLine
  8
color#000000fd
 62
256
370
-1
  6
BYLAYER
 10
0.8248268011646447
 20
3.937145193390565
 30
0.0
 11
0.8297414266617234
 21
3.9490938802338889
 31
0.0
  0
LINE
  5
111
100
AcDbEntity
100
AcDbLine
  8
color#000000fd
 62
256
370
-1
  6
BYLAYER
 10
0.8297414266617234
 20
3.9490938802338889
 30
0.0
 11
0.8350691634529248
 21
3.9608583644511035
 31
0.0
  0
LINE
  5
112
100
AcDbEntity
100
AcDbLine
  8
color#000000fd
 62
256
370
-1
  6
BYLAYER
 10
0.8350691634529248
 20
3.9608583644511035
 30
0.0
 11
0.8408008817339582
 21
3.9724274655386358
 31
0.0
  0
LINE
  5
113
100
AcDbEntity
100
AcDbLine
  8
color#000000fd
 62
256
370
-1
  6
BYLAYER
 10
0.8408008817339582
 20
3.9724274655386358
 30
0.0
 11
0.8469274517005337
 21
3.9837900029929134
 31
0.0
  0
LINE
  5
114
100
AcDbEntity
100
AcDbLine
  8
color#000000fd
 62
256
370
-1
  6
BYLAYER
 10
0.8469274517005337
 20
3.9837900029929134
 30
0.0
 11
0.8534397435483609
 21
3.9949347963103623
 31
0.0
  0
LINE
  5
115
100
AcDbEntity
100
AcDbLine
  8
color#000000fd
 62
256
370
-1
  6
BYLAYER
 10
0.8534397435483609
 20
3.9949347963103623
 30
0.0
 11
0.8603286274731489
 21
4.0058506649874124
 31
0.0
  0
LINE
  5
116
100
AcDbEntity
100
AcDbLine
  8
color#000000fd
 62
256
370
-1
  6
BYLAYER
 10
0.8603286274731489
 20
4.0058506649874124
 30
0.0
 11
0.8675849736706075
 21
4.0165264285204909
 31
0.0
  0
LINE
  5
117
100
AcDbEntity
100
AcDbLine
  8
color#000000fd
 62
256
370
-1
  6
BYLAYER
 10
0.8675849736706075
 20
4.0165264285204909
 30
0.0
 11
0.8751996523364463
 21
4.0269509064060234
 31
0.0
  0
LINE
  5
118
100
AcDbEntity
100
AcDbLine
  8
color#000000fd
 62
256
370
-1
  6
BYLAYER
 10
0.8751996523364463
 20
4.0269509064060234
 30
0.0
 11
0.8831635336663744
 21
4.0371129181404388
 31
0.0
  0
LINE
  5
119
100
AcDbEntity
100
AcDbLine
  8
color#000000fd
 62
256
370
-1
  6
BYLAYER
 10
0.8831635336663744
 20
4.0371129181404388
 30
0.0
 11
0.8914674878561021
 21
4.0470012832201645
 31
0.0
  0
LINE
  5
11A
100
AcDbEntity
100
AcDbLine
  8
color#000000fd
 62
256
370
-1
  6
BYLAYER
 10
0.8914674878561021
 20
4.0470012832201645
 30
0.0
 11
0.9001023851013383
 21
4.0566048211416277
 31
0.0
  0
LINE
  5
11B
100
AcDbEntity
100
AcDbLine
  8
color#000000fd
 62
256
370
-1
  6
BYLAYER
 10
0.9001023851013383
 20
4.0566048211416277
 30
0.0
 11
0.9090590955977925
 21
4.0659123514012556
 31
0.0
  0
LINE
  5
11C
100
AcDbEntity
100
AcDbLine
  8
color#000000fd
 62
256
370
-1
  6
BYLAYER
 10
0.9090590955977925
 20
4.0659123514012556
 30
0.0
 11
0.918328489541175
 21
4.0749126934954774
 31
0.0
  0
LINE
  5
11D
100
AcDbEntity
100
AcDbLine
  8
color#000000fd
 62
256
370
-1
  6
BYLAYER
 10
0.918328489541175
 20
4.0749126934954774
 30
0.0
 11
0.9279014371271946
 21
4.0835946669207193
 31
0.0
  0
LINE
  5
11E
100
AcDbEntity
100
AcDbLine
  8
color#000000fd
 62
256
370
-1
  6
BYLAYER
 10
0.9279014371271946
 20
4.0835946669207193
 30
0.0
 11
0.9377688085515613
 21
4.0919470911734095
 31
0.0
  0
LINE
  5
11F
100
AcDbEntity
100
AcDbLine
  8
color#000000fd
 62
256
370
-1
  6
BYLAYER
 10
0.9377688085515613
 20
4.0919470911734095
 30
0.0
 11
0.9479214740099844
 21
4.0999587857499744
 31
0.0
  0
LINE
  5
120
100
AcDbEntity
100
AcDbLine
  8
color#000000fd
 62
256
370
-1
  6
BYLAYER
 10
0.9479214740099844
 20
4.0999587857499744
 30
0.0
 11
0.9583503036981733
 21
4.1076185701468431
 31
0.0
  0
LINE
  5
121
100
AcDbEntity
100
AcDbLine
  8
color#000000fd
 62
256
370
-1
  6
BYLAYER
 10
0.9583503036981733
 20
4.1076185701468431
 30
0.0
 11
0.9690461678118378
 21
4.1149152638604427
 31
0.0
  0
LINE
  5
122
100
AcDbEntity
100
AcDbLine
  8
color#000000fd
 62
256
370
-1
  6
BYLAYER
 10
0.9690461678118378
 20
4.1149152638604427
 30
0.0
 11
0.9799999365466877
 21
4.1218376863871988
 31
0.0
  0
LINE
  5
123
100
AcDbEntity
100
AcDbLine
  8
color#000000fd
 62
256
370
-1
  6
BYLAYER
 10
0.9799999365466877
 20
4.1218376863871988
 30
0.0
 11
0.9912024800984318
 21
4.1283746572235422
 31
0.0
  0
LINE
  5
124
100
AcDbEntity
100
AcDbLine
  8
color#000000fd
 62
256
370
-1
  6
BYLAYER
 10
0.9912024800984318
 20
4.1283746572235422
 30
0.0
 11
1.0026446686627803
 21
4.1345149958658975
 31
0.0
  0
LINE
  5
125
100
AcDbEntity
100
AcDbLine
  8
color#000000fd
 62
256
370
-1
  6
BYLAYER
 10
1.0026446686627803
 20
4.1345149958658975
 30
0.0
 11
1.0143173724354424
 21
4.1402475218106947
 31
0.0
  0
LINE
  5
126
100
AcDbEntity
100
AcDbLine
  8
color#000000fd
 62
256
370
-1
  6
BYLAYER
 10
1.0143173724354424
 20
4.1402475218106947
 30
0.0
 11
1.9370729353557838
 21
4.5708952279572799
 31
0.0
  0
LINE
  5
127
100
AcDbEntity
100
AcDbLine
  8
color#000000fd
 62
256
370
-1
  6
BYLAYER
 10
1.9370729353557838
 20
4.5708952279572799
 30
0.0
 11
1.2679617977419511
 21
5.2451601518323976
 31
0.0
  0
LINE
  5
128
100
AcDbEntity
100
AcDbLine
  8
color#000000fd
 62
256
370
-1
  6
BYLAYER
 10
1.2679617977419511
 20
5.2451601518323976
 30
0.0
 11
1.2305839733395487
 21
5.2392264782400311
 31
0.0
  0
LINE
  5
129
100
AcDbEntity
100
AcDbLine
  8
color#000000fd
 62
256
370
-1
  6
BYLAYER
 10
1.2305839733395487
 20
5.2392264782400311
 30
0.0
 11
1.1930887285017067
 21
5.2352455727740406
 31
0.0
  0
LINE
  5
12A
100
AcDbEntity
100
AcDbLine
  8
color#000000fd
 62
256
370
-1
  6
BYLAYER
 10
1.1930887285017067
 20
5.2352455727740406
 30
0.0
 11
1.1555438933931987
 21
5.2331803471776057
 31
0.0
  0
LINE
  5
12B
100
AcDbEntity
100
AcDbLine
  8
color#000000fd
 62
256
370
-1
  6
BYLAYER
 10
1.1555438933931987
 20
5.2331803471776057
 30
0.0
 11
1.1180172981787984
 21
5.2329937131939133
 31
0.0
  0
LINE
  5
12C
100
AcDbEntity
100
AcDbLine
  8
color#000000fd
 62
256
370
-1
  6
BYLAYER
 10
1.1180172981787984
 20
5.2329937131939133
 30
0.0
 11
1.0805767730232798
 21
5.2346485825661411
 31
0.0
  0
LINE
  5
12D
100
AcDbEntity
100
AcDbLine
  8
color#000000fd
 62
256
370
-1
  6
BYLAYER
 10
1.0805767730232798
 20
5.2346485825661411
 30
0.0
 11
1.043290148091415
 21
5.238107867037475
 31
0.0
  0
LINE
  5
12E
100
AcDbEntity
100
AcDbLine
  8
color#000000fd
 62
256
370
-1
  6
BYLAYER
 10
1.043290148091415
 20
5.238107867037475
 30
0.0
 11
1.0062252535479779
 21
5.2433344783510973
 31
0.0
  0
LINE
  5
12F
100
AcDbEntity
100
AcDbLine
  8
color#000000fd
 62
256
370
-1
  6
BYLAYER
 10
1.0062252535479779
 20
5.2433344783510973
 30
0.0
 11
0.9694499195577429
 21
5.2502913282501886
 31
0.0
  0
LINE
  5
130
100
AcDbEntity
100
AcDbLine
  8
color#000000fd
 62
256
370
-1
  6
BYLAYER
 10
0.9694499195577429
 20
5.2502913282501886
 30
0.0
 11
0.9330319762854826
 21
5.2589413284779329
 31
0.0
  0
LINE
  5
131
100
AcDbEntity
100
AcDbLine
  8
color#000000fd
 62
256
370
-1
  6
BYLAYER
 10
0.9330319762854826
 20
5.2589413284779329
 30
0.0
 11
0.89703925389597
 21
5.2692473907775135
 31
0.0
  0
LINE
  5
132
100
AcDbEntity
100
AcDbLine
  8
color#000000fd
 62
256
370
-1
  6
BYLAYER
 10
0.89703925389597
 20
5.2692473907775135
 30
0.0
 11
0.8615395825539797
 21
5.2811724268921116
 31
0.0
  0
LINE
  5
133
100
AcDbEntity
100
AcDbLine
  8
color#000000fd
 62
256
370
-1
  6
BYLAYER
 10
0.8615395825539797
 20
5.2811724268921116
 30
0.0
 11
0.8266007924242848
 21
5.2946793485649097
 31
0.0
  0
LINE
  5
134
100
AcDbEntity
100
AcDbLine
  8
color#000000fd
 62
256
370
-1
  6
BYLAYER
 10
0.8266007924242848
 20
5.2946793485649097
 30
0.0
 11
0.7922907136716582
 21
5.3097310675390927
 31
0.0
  0
LINE
  5
135
100
AcDbEntity
100
AcDbLine
  8
color#000000fd
 62
256
370
-1
  6
BYLAYER
 10
0.7922907136716582
 20
5.3097310675390927
 30
0.0
 11
0.7586771764608741
 21
5.3262904955578403
 31
0.0
  0
LINE
  5
136
100
AcDbEntity
100
AcDbLine
  8
color#000000fd
 62
256
370
-1
  6
BYLAYER
 10
0.7586771764608741
 20
5.3262904955578403
 30
0.0
 11
0.7258280109567054
 21
5.3443205443643365
 31
0.0
  0
LINE
  5
137
100
AcDbEntity
100
AcDbLine
  8
color#000000fd
 62
256
370
-1
  6
BYLAYER
 10
0.7258280109567054
 20
5.3443205443643365
 30
0.0
 11
0.6938110473239258
 21
5.3637841257017635
 31
0.0
  0
LINE
  5
138
100
AcDbEntity
100
AcDbLine
  8
color#000000fd
 62
256
370
-1
  6
BYLAYER
 10
0.6938110473239258
 20
5.3637841257017635
 30
0.0
 11
0.662694115727309
 21
5.3846441513133048
 31
0.0
  0
LINE
  5
139
100
AcDbEntity
100
AcDbLine
  8
color#000000fd
 62
256
370
-1
  6
BYLAYER
 10
0.662694115727309
 20
5.3846441513133048
 30
0.0
 11
0.6325450463316281
 21
5.4068635329421415
 31
0.0
  0
LINE
  5
13A
100
AcDbEntity
100
AcDbLine
  8
color#000000fd
 62
256
370
-1
  6
BYLAYER
 10
0.6325450463316281
 20
5.4068635329421415
 30
0.0
 11
0.6034316693016567
 21
5.430405182331457
 31
0.0
  0
LINE
  5
13B
100
AcDbEntity
100
AcDbLine
  8
color#000000fd
 62
256
370
-1
  6
BYLAYER
 10
0.6034316693016567
 20
5.430405182331457
 30
0.0
 11
0.5754218148021683
 21
5.4552320112244344
 31
0.0
  0
LINE
  5
13C
100
AcDbEntity
100
AcDbLine
  8
color#000000fd
 62
256
370
-1
  6
BYLAYER
 10
0.5754218148021683
 20
5.4552320112244344
 30
0.0
 11
0.5485833129979364
 21
5.4813069313642551
 31
0.0
  0
LINE
  5
13D
100
AcDbEntity
100
AcDbLine
  8
color#000000fd
 62
256
370
-1
  6
BYLAYER
 10
0.5485833129979364
 20
5.4813069313642551
 30
0.0
 11
0.5229839940537344
 21
5.5085928544941014
 31
0.0
  0
LINE
  5
13E
100
AcDbEntity
100
AcDbLine
  8
color#000000fd
 62
256
370
-1
  6
BYLAYER
 10
0.5229839940537344
 20
5.5085928544941014
 30
0.0
 11
0.4986916881343356
 21
5.5370526923571584
 31
0.0
  0
LINE
  5
13F
100
AcDbEntity
100
AcDbLine
  8
color#000000fd
 62
256
370
-1
  6
BYLAYER
 10
0.4986916881343356
 20
5.5370526923571584
 30
0.0
 11
0.4757742254045138
 21
5.5666493566966055
 31
0.0
  0
LINE
  5
140
100
AcDbEntity
100
AcDbLine
  8
color#000000fd
 62
256
370
-1
  6
BYLAYER
 10
0.4757742254045138
 20
5.5666493566966055
 30
0.0
 11
0.4542994360290422
 21
5.5973457592556279
 31
0.0
  0
LINE
  5
141
100
AcDbEntity
100
AcDbLine
  8
color#000000fd
 62
256
370
-1
  6
BYLAYER
 10
0.4542994360290422
 20
5.5973457592556279
 30
0.0
 11
0.4343351501726944
 21
5.6291048117774061
 31
0.0
  0
LINE
  5
142
100
AcDbEntity
100
AcDbLine
  8
color#000000fd
 62
256
370
-1
  6
BYLAYER
 10
0.4343351501726944
 20
5.6291048117774061
 30
0.0
 11
0.4159491980002438
 21
5.661889426005124
 31
0.0
  0
LINE
  5
143
100
AcDbEntity
100
AcDbLine
  8
color#000000fd
 62
256
370
-1
  6
BYLAYER
 10
0.4159491980002438
 20
5.661889426005124
 30
0.0
 11
0.3992094096764638
 21
5.6956625136819641
 31
0.0
  0
LINE
  5
144
100
AcDbEntity
100
AcDbLine
  8
color#000000fd
 62
256
370
-1
  6
BYLAYER
 10
0.3992094096764638
 20
5.6956625136819641
 30
0.0
 11
0.384183615366128
 21
5.7303869865511086
 31
0.0
  0
LINE
  5
145
100
AcDbEntity
100
AcDbLine
  8
color#000000fd
 62
256
370
-1
  6
BYLAYER
 10
0.384183615366128
 20
5.7303869865511086
 30
0.0
 11
0.3722414095494642
 21
5.7597243689753856
 31
0.0
  0
LINE
  5
146
100
AcDbEntity
100
AcDbLine
  8
color#000000fd
 62
256
370
-1
  6
BYLAYER
 10
0.3722414095494642
 20
5.7597243689753856
 30
0.0
 11
0.3615566256216355
 21
5.7894873479081808
 31
0.0
  0
LINE
  5
147
100
AcDbEntity
100
AcDbLine
  8
color#000000fd
 62
256
370
-1
  6
BYLAYER
 10
0.3615566256216355
 20
5.7894873479081808
 30
0.0
 11
0.3521228026599332
 21
5.8196300482319421
 31
0.0
  0
LINE
  5
148
100
AcDbEntity
100
AcDbLine
  8
color#000000fd
 62
256
370
-1
  6
BYLAYER
 10
0.3521228026599332
 20
5.8196300482319421
 30
0.0
 11
0.3439334797416479
 21
5.8501065948291178
 31
0.0
  0
LINE
  5
149
100
AcDbEntity
100
AcDbLine
  8
color#000000fd
 62
256
370
-1
  6
BYLAYER
 10
0.3439334797416479
 20
5.8501065948291178
 30
0.0
 11
0.3369821959440706
 21
5.8808711125821524
 31
0.0
  0
LINE
  5
14A
100
AcDbEntity
100
AcDbLine
  8
color#000000fd
 62
256
370
-1
  6
BYLAYER
 10
0.3369821959440706
 20
5.8808711125821524
 30
0.0
 11
0.3312624903444918
 21
5.9118777263734943
 31
0.0
  0
LINE
  5
14B
100
AcDbEntity
100
AcDbLine
  8
color#000000fd
 62
256
370
-1
  6
BYLAYER
 10
0.3312624903444918
 20
5.9118777263734943
 30
0.0
 11
0.3267679020202025
 21
5.9430805610855924
 31
0.0
  0
LINE
  5
14C
100
AcDbEntity
100
AcDbLine
  8
color#000000fd
 62
256
370
-1
  6
BYLAYER
 10
0.3267679020202025
 20
5.9430805610855924
 30
0.0
 11
0.3234919700484935
 21
5.9744337416008921
 31
0.0
  0
LINE
  5
14D
100
AcDbEntity
100
AcDbLine
  8
color#000000fd
 62
256
370
-1
  6
BYLAYER
 10
0.3234919700484935
 20
5.9744337416008921
 30
0.0
 11
0.3214282335066557
 21
6.0058913928018409
 31
0.0
  0
LINE
  5
14E
100
AcDbEntity
100
AcDbLine
  8
color#000000fd
 62
256
370
-1
  6
BYLAYER
 10
0.3214282335066557
 20
6.0058913928018409
 30
0.0
 11
0.3205702314719798
 21
6.0374076395708869
 31
0.0
  0
LINE
  5
14F
100
AcDbEntity
100
AcDbLine
  8
color#000000fd
 62
256
370
-1
  6
BYLAYER
 10
0.3205702314719798
 20
6.0374076395708869
 30
0.0
 11
0.3209115030217566
 21
6.0689366067904764
 31
0.0
  0
LINE
  5
150
100
AcDbEntity
100
AcDbLine
  8
color#000000fd
 62
256
370
-1
  6
BYLAYER
 10
0.3209115030217566
 20
6.0689366067904764
 30
0.0
 11
0.322445587233277
 21
6.100432419343055
 31
0.0
  0
LINE
  5
151
100
AcDbEntity
100
AcDbLine
  8
color#000000fd
 62
256
370
-1
  6
BYLAYER
 10
0.322445587233277
 20
6.100432419343055
 30
0.0
 11
0.3251660231838318
 21
6.1318492021110744
 31
0.0
  0
LINE
  5
152
100
AcDbEntity
100
AcDbLine
  8
color#000000fd
 62
256
370
-1
  6
BYLAYER
 10
0.3251660231838318
 20
6.1318492021110744
 30
0.0
 11
0.3290663499507118
 21
6.1631410799769775
 31
0.0
  0
LINE
  5
153
100
AcDbEntity
100
AcDbLine
  8
color#000000fd
 62
256
370
-1
  6
BYLAYER
 10
0.3290663499507118
 20
6.1631410799769775
 30
0.0
 11
0.3341401066112077
 21
6.1942621778232141
 31
0.0
  0
LINE
  5
154
100
AcDbEntity
100
AcDbLine
  8
color#000000fd
 62
256
370
-1
  6
BYLAYER
 10
0.3341401066112077
 20
6.1942621778232141
 30
0.0
 11
0.3403808322426106
 21
6.2251666205322298
 31
0.0
  0
LINE
  5
155
100
AcDbEntity
100
AcDbLine
  8
color#000000fd
 62
256
370
-1
  6
BYLAYER
 10
0.3403808322426106
 20
6.2251666205322298
 30
0.0
 11
0.347782065922211
 21
6.2558085329864728
 31
0.0
  0
LINE
  5
156
100
AcDbEntity
100
AcDbLine
  8
color#000000fd
 62
256
370
-1
  6
BYLAYER
 10
0.347782065922211
 20
6.2558085329864728
 30
0.0
 11
0.3563373467272999
 21
6.2861420400683894
 31
0.0
  0
LINE
  5
157
100
AcDbEntity
100
AcDbLine
  8
color#000000fd
 62
256
370
-1
  6
BYLAYER
 10
0.3563373467272999
 20
6.2861420400683894
 30
0.0
 11
0.3660402137351681
 21
6.3161212666604278
 31
0.0
  0
LINE
  5
158
100
AcDbEntity
100
AcDbLine
  8
color#000000fd
 62
256
370
-1
  6
BYLAYER
 10
0.3660402137351681
 20
6.3161212666604278
 30
0.0
 11
0.3768842060231064
 21
6.3457003376450354
 31
0.0
  0
LINE
  5
159
100
AcDbEntity
100
AcDbLine
  8
color#000000fd
 62
256
370
-1
  6
BYLAYER
 10
0.3768842060231064
 20
6.3457003376450354
 30
0.0
 11
0.3888628626684056
 21
6.3748333779046575
 31
0.0
  0
LINE
  5
15A
100
AcDbEntity
100
AcDbLine
  8
color#000000fd
 62
256
370
-1
  6
BYLAYER
 10
0.3888628626684056
 20
6.3748333779046575
 30
0.0
 11
0.4019697227483565
 21
6.4034745123217434
 31
0.0
  0
LINE
  5
15B
100
AcDbEntity
100
AcDbLine
  8
color#000000fd
 62
256
370
-1
  6
BYLAYER
 10
0.4019697227483565
 20
6.4034745123217434
 30
0.0
 11
0.41619832534025
 21
6.4315778657787384
 31
0.0
  0
LINE
  5
15C
100
AcDbEntity
100
AcDbLine
  8
color#000000fd
 62
256
370
-1
  6
BYLAYER
 10
0.41619832534025
 20
6.4315778657787384
 30
0.0
 11
0.4315422095213768
 21
6.4590975631580925
 31
0.0
  0
LINE
  5
15D
100
AcDbEntity
100
AcDbLine
  8
color#000000fd
 62
256
370
-1
  6
BYLAYER
 10
0.4315422095213768
 20
6.4590975631580925
 30
0.0
 11
0.4479949143690278
 21
6.4859877293422503
 31
0.0
  0
LINE
  5
15E
100
AcDbEntity
100
AcDbLine
  8
color#000000fd
 62
256
370
-1
  6
BYLAYER
 10
0.4479949143690278
 20
6.4859877293422503
 30
0.0
 11
0.4655499789604939
 21
6.5122024892136601
 31
0.0
  0
LINE
  5
15F
100
AcDbEntity
100
AcDbLine
  8
color#000000fd
 62
256
370
-1
  6
BYLAYER
 10
0.4655499789604939
 20
6.5122024892136601
 30
0.0
 11
0.4842009423730657
 21
6.5376959676547681
 31
0.0
  0
LINE
  5
160
100
AcDbEntity
100
AcDbLine
  8
color#000000fd
 62
256
370
-1
  6
BYLAYER
 10
0.4842009423730657
 20
6.5376959676547681
 30
0.0
 11
0.503941343684034
 21
6.5624222895480226
 31
0.0
  0
LINE
  5
161
100
AcDbEntity
100
AcDbLine
  8
color#000000fd
 62
256
370
-1
  6
BYLAYER
 10
0.503941343684034
 20
6.5624222895480226
 30
0.0
 11
0.52476472197069
 21
6.5863355797758718
 31
0.0
  0
LINE
  5
162
100
AcDbEntity
100
AcDbLine
  8
color#000000fd
 62
256
370
-1
  6
BYLAYER
 10
2.7455410595794012
 20
4.1994569413730973
 30
0.0
 11
2.7719433746805349
 21
4.2357655469994677
 31
0.0
  0
LINE
  5
163
100
AcDbEntity
100
AcDbLine
  8
color#000000fd
 62
256
370
-1
  6
BYLAYER
 10
2.7719433746805349
 20
4.2357655469994677
 30
0.0
 11
2.8004387941045645
 21
4.2700286932190572
 31
0.0
  0
LINE
  5
164
100
AcDbEntity
100
AcDbLine
  8
color#000000fd
 62
256
370
-1
  6
BYLAYER
 10
2.8004387941045645
 20
4.2700286932190572
 30
0.0
 11
2.8308944019117082
 21
4.3022261372332888
 31
0.0
  0
LINE
  5
165
100
AcDbEntity
100
AcDbLine
  8
color#000000fd
 62
256
370
-1
  6
BYLAYER
 10
2.8308944019117082
 20
4.3022261372332888
 30
0.0
 11
2.8631772821621828
 21
4.3323376362435857
 31
0.0
  0
LINE
  5
166
100
AcDbEntity
100
AcDbLine
  8
color#000000fd
 62
256
370
-1
  6
BYLAYER
 10
2.8631772821621828
 20
4.3323376362435857
 30
0.0
 11
2.8971545189162091
 21
4.3603429474513691
 31
0.0
  0
LINE
  5
167
100
AcDbEntity
100
AcDbLine
  8
color#000000fd
 62
256
370
-1
  6
BYLAYER
 10
2.8971545189162091
 20
4.3603429474513691
 30
0.0
 11
2.9326931962340019
 21
4.3862218280580656
 31
0.0
  0
LINE
  5
168
100
AcDbEntity
100
AcDbLine
  8
color#000000fd
 62
256
370
-1
  6
BYLAYER
 10
2.9326931962340019
 20
4.3862218280580656
 30
0.0
 11
2.9696603981757801
 21
4.4099540352650948
 31
0.0
  0
LINE
  5
169
100
AcDbEntity
100
AcDbLine
  8
color#000000fd
 62
256
370
-1
  6
BYLAYER
 10
2.9696603981757801
 20
4.4099540352650948
 30
0.0
 11
3.0079232088017629
 21
4.4315193262738797
 31
0.0
  0
LINE
  5
16A
100
AcDbEntity
100
AcDbLine
  8
color#000000fd
 62
256
370
-1
  6
BYLAYER
 10
3.0079232088017629
 20
4.4315193262738797
 30
0.0
 11
3.0473487121721674
 21
4.450897458285846
 31
0.0
  0
LINE
  5
16B
100
AcDbEntity
100
AcDbLine
  8
color#000000fd
 62
256
370
-1
  6
BYLAYER
 10
3.0473487121721674
 20
4.450897458285846
 30
0.0
 11
3.0878039923472094
 21
4.4680681885024143
 31
0.0
  0
LINE
  5
16C
100
AcDbEntity
100
AcDbLine
  8
color#000000fd
 62
256
370
-1
  6
BYLAYER
 10
3.0878039923472094
 20
4.4680681885024143
 30
0.0
 11
3.1291561333871085
 21
4.4830112741250083
 31
0.0
  0
LINE
  5
16D
100
AcDbEntity
100
AcDbLine
  8
color#000000fd
 62
256
370
-1
  6
BYLAYER
 10
3.1291561333871085
 20
4.4830112741250083
 30
0.0
 11
3.1712722193520841
 21
4.4957064723550513
 31
0.0
  0
LINE
  5
16E
100
AcDbEntity
100
AcDbLine
  8
color#000000fd
 62
256
370
-1
  6
BYLAYER
 10
3.1712722193520841
 20
4.4957064723550513
 30
0.0
 11
3.2140193343023511
 21
4.5061335403939671
 31
0.0
  0
LINE
  5
16F
100
AcDbEntity
100
AcDbLine
  8
color#000000fd
 62
256
370
-1
  6
BYLAYER
 10
3.2140193343023511
 20
4.5061335403939671
 30
0.0
 11
3.2572645622981291
 21
4.5142722354431761
 31
0.0
  0
LINE
  5
170
100
AcDbEntity
100
AcDbLine
  8
color#000000fd
 62
256
370
-1
  6
BYLAYER
 10
3.2572645622981291
 20
4.5142722354431761
 30
0.0
 11
3.3008749873996357
 21
4.5201023147041042
 31
0.0
  0
LINE
  5
171
100
AcDbEntity
100
AcDbLine
  8
color#000000fd
 62
256
370
-1
  6
BYLAYER
 10
3.3008749873996357
 20
4.5201023147041042
 30
0.0
 11
3.3447176936670879
 21
4.5236035353781725
 31
0.0
  0
LINE
  5
172
100
AcDbEntity
100
AcDbLine
  8
color#000000fd
 62
256
370
-1
  6
BYLAYER
 10
3.3447176936670879
 20
4.5236035353781725
 30
0.0
 11
3.3886597651607056
 21
4.5247556546668042
 31
0.0
  0
LINE
  5
173
100
AcDbEntity
100
AcDbLine
  8
color#000000fd
 62
256
370
-1
  6
BYLAYER
 10
3.3886597651607056
 20
4.5247556546668042
 30
0.0
 11
3.4325682859407047
 21
4.5235384297714232
 31
0.0
  0
LINE
  5
174
100
AcDbEntity
100
AcDbLine
  8
color#000000fd
 62
256
370
-1
  6
BYLAYER
 10
3.4325682859407047
 20
4.5235384297714232
 30
0.0
 11
3.4763103400673039
 21
4.5199316178934508
 31
0.0
  0
LINE
  5
175
100
AcDbEntity
100
AcDbLine
  8
color#000000fd
 62
256
370
-1
  6
BYLAYER
 10
3.4763103400673039
 20
4.5199316178934508
 30
0.0
 11
3.519753011600721
 21
4.5139149762343118
 31
0.0
  0
LINE
  5
176
100
AcDbEntity
100
AcDbLine
  8
color#000000fd
 62
256
370
-1
  6
BYLAYER
 10
3.519753011600721
 20
4.5139149762343118
 30
0.0
 11
3.5627633846011739
 21
4.5054682619954276
 31
0.0
  0
LINE
  5
177
100
AcDbEntity
100
AcDbLine
  8
color#000000fd
 62
256
370
-1
  6
BYLAYER
 10
3.5627633846011739
 20
4.5054682619954276
 30
0.0
 11
3.6052085431288798
 21
4.4945712323782221
 31
0.0
  0
LINE
  5
178
100
AcDbEntity
100
AcDbLine
  8
color#000000fd
 62
256
370
-1
  6
BYLAYER
 10
3.6052085431288798
 20
4.4945712323782221
 30
0.0
 11
3.6469555712440584
 21
4.4812036445841184
 31
0.0
  0
LINE
  5
179
100
AcDbEntity
100
AcDbLine
  8
color#000000fd
 62
256
370
-1
  6
BYLAYER
 10
3.6469555712440584
 20
4.4812036445841184
 30
0.0
 11
3.6878715530069255
 21
4.4653452558145394
 31
0.0
  0
LINE
  5
17A
100
AcDbEntity
100
AcDbLine
  8
color#000000fd
 62
256
370
-1
  6
BYLAYER
 10
3.6878715530069255
 20
4.4653452558145394
 30
0.0
 11
3.7278235724776994
 21
4.4469758232709076
 31
0.0
  0
LINE
  5
17B
100
AcDbEntity
100
AcDbLine
  8
color#000000fd
 62
256
370
-1
  6
BYLAYER
 10
3.7278235724776994
 20
4.4469758232709076
 30
0.0
 11
3.7666787137165993
 21
4.4260751041546467
 31
0.0
  0
LINE
  5
17C
100
AcDbEntity
100
AcDbLine
  8
color#000000fd
 62
256
370
-1
  6
BYLAYER
 10
3.7666787137165993
 20
4.4260751041546467
 30
0.0
 11
3.8043040607838421
 21
4.4026228556671789
 31
0.0
  0
LINE
  5
17D
100
AcDbEntity
100
AcDbLine
  8
color#000000fd
 62
256
370
-1
  6
BYLAYER
 10
3.8043040607838421
 20
4.4026228556671789
 30
0.0
 11
3.8405666977396455
 21
4.3765988350099274
 31
0.0
  0
LINE
  5
17E
100
AcDbEntity
100
AcDbLine
  8
color#000000fd
 62
256
370
-1
  6
BYLAYER
 10
3.8405666977396455
 20
4.3765988350099274
 30
0.0
 11
3.8753337086442272
 21
4.3479827993843161
 31
0.0
  0
LINE
  5
17F
100
AcDbEntity
100
AcDbLine
  8
color#000000fd
 62
256
370
-1
  6
BYLAYER
 10
3.8753337086442272
 20
4.3479827993843161
 30
0.0
 11
4.6475316146335182
 21
3.5778144554250542
 31
0.0
  0
LINE
  5
180
100
AcDbEntity
100
AcDbLine
  8
color#000000fd
 62
256
370
-1
  6
BYLAYER
 10
4.6475316146335182
 20
3.5778144554250542
 30
0.0
 11
4.6780755108327856
 21
3.543820816091912
 31
0.0
  0
LINE
  5
181
100
AcDbEntity
100
AcDbLine
  8
color#000000fd
 62
256
370
-1
  6
BYLAYER
 10
4.6780755108327856
 20
3.543820816091912
 30
0.0
 11
4.7059797668036314
 21
3.5081809281938541
 31
0.0
  0
LINE
  5
182
100
AcDbEntity
100
AcDbLine
  8
color#000000fd
 62
256
370
-1
  6
BYLAYER
 10
4.7059797668036314
 20
3.5081809281938541
 30
0.0
 11
4.7312625518812412
 21
3.4710347700744535
 31
0.0
  0
LINE
  5
183
100
AcDbEntity
100
AcDbLine
  8
color#000000fd
 62
256
370
-1
  6
BYLAYER
 10
4.7312625518812412
 20
3.4710347700744535
 30
0.0
 11
4.7539420354007902
 21
3.4325223200772945
 31
0.0
  0
LINE
  5
184
100
AcDbEntity
100
AcDbLine
  8
color#000000fd
 62
256
370
-1
  6
BYLAYER
 10
4.7539420354007902
 20
3.4325223200772945
 30
0.0
 11
4.7740363866974587
 21
3.3927835565459485
 31
0.0
  0
LINE
  5
185
100
AcDbEntity
100
AcDbLine
  8
color#000000fd
 62
256
370
-1
  6
BYLAYER
 10
4.7740363866974587
 20
3.3927835565459485
 30
0.0
 11
4.7915637751064262
 21
3.3519584578239994
 31
0.0
  0
LINE
  5
186
100
AcDbEntity
100
AcDbLine
  8
color#000000fd
 62
256
370
-1
  6
BYLAYER
 10
4.7915637751064262
 20
3.3519584578239994
 30
0.0
 11
4.8065423699628687
 21
3.3101870022550242
 31
0.0
  0
LINE
  5
187
100
AcDbEntity
100
AcDbLine
  8
color#000000fd
 62
256
370
-1
  6
BYLAYER
 10
4.8065423699628687
 20
3.3101870022550242
 30
0.0
 11
4.8189903406019736
 21
3.2676091681825974
 31
0.0
  0
LINE
  5
188
100
AcDbEntity
100
AcDbLine
  8
color#000000fd
 62
256
370
-1
  6
BYLAYER
 10
4.8189903406019736
 20
3.2676091681825974
 30
0.0
 11
4.8289258563589117
 21
3.2243649339503002
 31
0.0
  0
LINE
  5
189
100
AcDbEntity
100
AcDbLine
  8
color#000000fd
 62
256
370
-1
  6
BYLAYER
 10
4.8289258563589117
 20
3.2243649339503002
 30
0.0
 11
4.8363670865688633
 21
3.1805942779017125
 31
0.0
  0
LINE
  5
18A
100
AcDbEntity
100
AcDbLine
  8
color#000000fd
 62
256
370
-1
  6
BYLAYER
 10
4.8363670865688633
 20
3.1805942779017125
 30
0.0
 11
4.8413322005670096
 21
3.1364371783804095
 31
0.0
  0
LINE
  5
18B
100
AcDbEntity
100
AcDbLine
  8
color#000000fd
 62
256
370
-1
  6
BYLAYER
 10
4.8413322005670096
 20
3.1364371783804095
 30
0.0
 11
4.8438393676885303
 21
3.0920336137299689
 31
0.0
  0
LINE
  5
18C
100
AcDbEntity
100
AcDbLine
  8
color#000000fd
 62
256
370
-1
  6
BYLAYER
 10
4.8438393676885303
 20
3.0920336137299689
 30
0.0
 11
4.843906757268603
 21
3.0475235622939727
 31
0.0
  0
LINE
  5
18D
100
AcDbEntity
100
AcDbLine
  8
color#000000fd
 62
256
370
-1
  6
BYLAYER
 10
4.843906757268603
 20
3.0475235622939727
 30
0.0
 11
4.8415525386424072
 21
3.003047002415995
 31
0.0
  0
LINE
  5
18E
100
AcDbEntity
100
AcDbLine
  8
color#000000fd
 62
256
370
-1
  6
BYLAYER
 10
4.8415525386424072
 20
3.003047002415995
 30
0.0
 11
4.8367948811451233
 21
2.9587439124396155
 31
0.0
  0
LINE
  5
18F
100
AcDbEntity
100
AcDbLine
  8
color#000000fd
 62
256
370
-1
  6
BYLAYER
 10
4.8367948811451233
 20
2.9587439124396155
 30
0.0
 11
4.8296519541119274
 21
2.9147542707084142
 31
0.0
  0
LINE
  5
190
100
AcDbEntity
100
AcDbLine
  8
color#000000fd
 62
256
370
-1
  6
BYLAYER
 10
4.8296519541119274
 20
2.9147542707084142
 30
0.0
 11
4.8201419268780024
 21
2.8712180555659663
 31
0.0
  0
LINE
  5
191
100
AcDbEntity
100
AcDbLine
  8
color#000000fd
 62
256
370
-1
  6
BYLAYER
 10
4.8201419268780024
 20
2.8712180555659663
 30
0.0
 11
4.8082829687785242
 21
2.8282752453558513
 31
0.0
  0
LINE
  5
192
100
AcDbEntity
100
AcDbLine
  8
color#000000fd
 62
256
370
-1
  6
BYLAYER
 10
4.8082829687785242
 20
2.8282752453558513
 30
0.0
 11
4.7940932491486734
 21
2.7860658184216476
 31
0.0
  0
LINE
  5
193
100
AcDbEntity
100
AcDbLine
  8
color#000000fd
 62
256
370
-1
  6
BYLAYER
 10
4.7940932491486734
 20
2.7860658184216476
 30
0.0
 11
4.7775909373236312
 21
2.7447297531069328
 31
0.0
  0
LINE
  5
194
100
AcDbEntity
100
AcDbLine
  8
color#000000fd
 62
256
370
-1
  6
BYLAYER
 10
4.7775909373236312
 20
2.7447297531069328
 30
0.0
 11
4.7587942026385726
 21
2.7044070277552845
 31
0.0
  0
LINE
  5
195
100
AcDbEntity
100
AcDbLine
  8
color#000000fd
 62
256
370
-1
  6
BYLAYER
 10
4.7587942026385726
 20
2.7044070277552845
 30
0.0
 11
4.7377212144286789
 21
2.665237620710283
 31
0.0
  0
LINE
  5
196
100
AcDbEntity
100
AcDbLine
  8
color#000000fd
 62
256
370
-1
  6
BYLAYER
 10
4.7377212144286789
 20
2.665237620710283
 30
0.0
 11
4.7143901420291296
 21
2.6273615103155046
 31
0.0
  0
LINE
  5
197
100
AcDbEntity
100
AcDbLine
  8
color#000000fd
 62
256
370
-1
  6
BYLAYER
 10
4.7143901420291296
 20
2.6273615103155046
 30
0.0
 11
4.6888191547751026
 21
2.5909186749145285
 31
0.0
  0
LINE
  5
198
100
AcDbEntity
100
AcDbLine
  8
color#000000fd
 62
256
370
-1
  6
BYLAYER
 10
4.6888191547751026
 20
2.5909186749145285
 30
0.0
 11
4.6610264220017781
 21
2.556049092850933
 31
0.0
  0
LINE
  5
199
100
AcDbEntity
100
AcDbLine
  8
color#000000fd
 62
256
370
-1
  6
BYLAYER
 10
4.6610264220017781
 20
2.556049092850933
 30
0.0
 11
4.6310301130443356
 21
2.5228927424682945
 31
0.0
  0
LINE
  5
19A
100
AcDbEntity
100
AcDbLine
  8
color#000000fd
 62
256
370
-1
  6
BYLAYER
 10
4.6310301130443356
 20
2.5228927424682945
 30
0.0
 11
4.5988483972379521
 21
2.4915896021101935
 31
0.0
  0
LINE
  5
19B
100
AcDbEntity
100
AcDbLine
  8
color#000000fd
 62
256
370
-1
  6
BYLAYER
 10
4.5988483972379521
 20
2.4915896021101935
 30
0.0
 11
4.5644994439178088
 21
2.4622796501202058
 31
0.0
  0
LINE
  5
19C
100
AcDbEntity
100
AcDbLine
  8
color#000000fd
 62
256
370
-1
  6
BYLAYER
 10
4.5644994439178088
 20
2.4622796501202058
 30
0.0
 11
4.5280014224190843
 21
2.435102864841912
 31
0.0
  0
LINE
  5
19D
100
AcDbEntity
100
AcDbLine
  8
color#000000fd
 62
256
370
-1
  6
BYLAYER
 10
4.5280014224190843
 20
2.435102864841912
 30
0.0
 11
4.2773967812005971
 21
2.6921893291073209
 31
0.0
  0
LINE
  5
19E
100
AcDbEntity
100
AcDbLine
  8
color#000000fd
 62
256
370
-1
  6
BYLAYER
 10
4.2773967812005971
 20
2.6921893291073209
 30
0.0
 11
4.2998472680874613
 21
2.7051428422719517
 31
0.0
  0
LINE
  5
19F
100
AcDbEntity
100
AcDbLine
  8
color#000000fd
 62
256
370
-1
  6
BYLAYER
 10
4.2998472680874613
 20
2.7051428422719517
 30
0.0
 11
4.321160111824458
 21
2.7195027111029253
 31
0.0
  0
LINE
  5
1A0
100
AcDbEntity
100
AcDbLine
  8
color#000000fd
 62
256
370
-1
  6
BYLAYER
 10
4.321160111824458
 20
2.7195027111029253
 30
0.0
 11
4.3413164530415465
 21
2.7351837883367378
 31
0.0
  0
LINE
  5
1A1
100
AcDbEntity
100
AcDbLine
  8
color#000000fd
 62
256
370
-1
  6
BYLAYER
 10
4.3413164530415465
 20
2.7351837883367378
 30
0.0
 11
4.3602974323686841
 21
2.7521009267098933
 31
0.0
  0
LINE
  5
1A2
100
AcDbEntity
100
AcDbLine
  8
color#000000fd
 62
256
370
-1
  6
BYLAYER
 10
4.3602974323686841
 20
2.7521009267098933
 30
0.0
 11
4.3780841904358292
 21
2.7701689789588877
 31
0.0
  0
LINE
  5
1A3
100
AcDbEntity
100
AcDbLine
  8
color#000000fd
 62
256
370
-1
  6
BYLAYER
 10
4.3780841904358292
 20
2.7701689789588877
 30
0.0
 11
4.3946578678729349
 21
2.7893027978202216
 31
0.0
  0
LINE
  5
1A4
100
AcDbEntity
100
AcDbLine
  8
color#000000fd
 62
256
370
-1
  6
BYLAYER
 10
4.3946578678729349
 20
2.7893027978202216
 30
0.0
 11
4.4099996053099604
 21
2.8094172360303995
 31
0.0
  0
LINE
  5
1A5
100
AcDbEntity
100
AcDbLine
  8
color#000000fd
 62
256
370
-1
  6
BYLAYER
 10
4.4099996053099604
 20
2.8094172360303995
 30
0.0
 11
4.4240905433768667
 21
2.8304271463259152
 31
0.0
  0
LINE
  5
1A6
100
AcDbEntity
100
AcDbLine
  8
color#000000fd
 62
256
370
-1
  6
BYLAYER
 10
4.4240905433768667
 20
2.8304271463259152
 30
0.0
 11
4.436911822703606
 21
2.8522473814432732
 31
0.0
  0
LINE
  5
1A7
100
AcDbEntity
100
AcDbLine
  8
color#000000fd
 62
256
370
-1
  6
BYLAYER
 10
4.436911822703606
 20
2.8522473814432732
 30
0.0
 11
4.4484445839201339
 21
2.8747927941189726
 31
0.0
  0
LINE
  5
1A8
100
AcDbEntity
100
AcDbLine
  8
color#000000fd
 62
256
370
-1
  6
BYLAYER
 10
4.4484445839201339
 20
2.8747927941189726
 30
0.0
 11
4.4586699676564105
 21
2.8979782370895117
 31
0.0
  0
LINE
  5
1A9
100
AcDbEntity
100
AcDbLine
  8
color#000000fd
 62
256
370
-1
  6
BYLAYER
 10
4.4586699676564105
 20
2.8979782370895117
 30
0.0
 11
4.4675691145423944
 21
2.9217185630913929
 31
0.0
  0
LINE
  5
1AA
100
AcDbEntity
100
AcDbLine
  8
color#000000fd
 62
256
370
-1
  6
BYLAYER
 10
4.4675691145423944
 20
2.9217185630913929
 30
0.0
 11
4.4751231652080383
 21
2.9459286248611147
 31
0.0
  0
LINE
  5
1AB
100
AcDbEntity
100
AcDbLine
  8
color#000000fd
 62
256
370
-1
  6
BYLAYER
 10
4.4751231652080383
 20
2.9459286248611147
 30
0.0
 11
4.4813132602833017
 21
2.9705232751351769
 31
0.0
  0
LINE
  5
1AC
100
AcDbEntity
100
AcDbLine
  8
color#000000fd
 62
256
370
-1
  6
BYLAYER
 10
4.4813132602833017
 20
2.9705232751351769
 30
0.0
 11
4.4861205403981419
 21
2.9954173666500816
 31
0.0
  0
LINE
  5
1AD
100
AcDbEntity
100
AcDbLine
  8
color#000000fd
 62
256
370
-1
  6
BYLAYER
 10
4.4861205403981419
 20
2.9954173666500816
 30
0.0
 11
4.4895261461825156
 21
3.0205257521423263
 31
0.0
  0
LINE
  5
1AE
100
AcDbEntity
100
AcDbLine
  8
color#000000fd
 62
256
370
-1
  6
BYLAYER
 10
4.4895261461825156
 20
3.0205257521423263
 30
0.0
 11
4.4915112182663774
 21
3.0457632843484128
 31
0.0
  0
LINE
  5
1AF
100
AcDbEntity
100
AcDbLine
  8
color#000000fd
 62
256
370
-1
  6
BYLAYER
 10
4.4915112182663774
 20
3.0457632843484128
 30
0.0
 11
4.4920568972796886
 21
3.0710448160048398
 31
0.0
  0
LINE
  5
1B0
100
AcDbEntity
100
AcDbLine
  8
color#000000fd
 62
256
370
-1
  6
BYLAYER
 10
4.4920568972796886
 20
3.0710448160048398
 30
0.0
 11
4.4911443238524038
 21
3.0962851998481091
 31
0.0
  0
LINE
  5
1B1
100
AcDbEntity
100
AcDbLine
  8
color#000000fd
 62
256
370
-1
  6
BYLAYER
 10
4.4911443238524038
 20
3.0962851998481091
 30
0.0
 11
4.4887546386144797
 21
3.1213992886147182
 31
0.0
  0
LINE
  5
1B2
100
AcDbEntity
100
AcDbLine
  8
color#000000fd
 62
256
370
-1
  6
BYLAYER
 10
4.4887546386144797
 20
3.1213992886147182
 30
0.0
 11
4.4848689821958736
 21
3.1463019350411696
 31
0.0
  0
LINE
  5
1B3
100
AcDbEntity
100
AcDbLine
  8
color#000000fd
 62
256
370
-1
  6
BYLAYER
 10
4.4848689821958736
 20
3.1463019350411696
 30
0.0
 11
4.4794684952265449
 21
3.1709079918639613
 31
0.0
  0
LINE
  5
1B4
100
AcDbEntity
100
AcDbLine
  8
color#000000fd
 62
256
370
-1
  6
BYLAYER
 10
4.4794684952265449
 20
3.1709079918639613
 30
0.0
 11
4.4725343183364465
 21
3.1951323118195947
 31
0.0
  0
LINE
  5
1B5
100
AcDbEntity
100
AcDbLine
  8
color#000000fd
 62
256
370
-1
  6
BYLAYER
 10
4.4725343183364465
 20
3.1951323118195947
 30
0.0
 11
4.4640475921555378
 21
3.2188897476445697
 31
0.0
  0
LINE
  5
1B6
100
AcDbEntity
100
AcDbLine
  8
color#000000fd
 62
256
370
-1
  6
BYLAYER
 10
4.4640475921555378
 20
3.2188897476445697
 30
0.0
 11
4.4539894573137762
 21
3.2420951520753869
 31
0.0
  0
LINE
  5
1B7
100
AcDbEntity
100
AcDbLine
  8
color#000000fd
 62
256
370
-1
  6
BYLAYER
 10
4.4539894573137762
 20
3.2420951520753869
 30
0.0
 11
4.4423410544411182
 21
3.2646633778485441
 31
0.0
  0
LINE
  5
1B8
100
AcDbEntity
100
AcDbLine
  8
color#000000fd
 62
256
370
-1
  6
BYLAYER
 10
4.4423410544411182
 20
3.2646633778485441
 30
0.0
 11
4.4290835241675204
 21
3.2865092777005436
 31
0.0
  0
LINE
  5
1B9
100
AcDbEntity
100
AcDbLine
  8
color#000000fd
 62
256
370
-1
  6
BYLAYER
 10
4.4290835241675204
 20
3.2865092777005436
 30
0.0
 11
4.4141980071229394
 21
3.3075477043678836
 31
0.0
  0
LINE
  5
1BA
100
AcDbEntity
100
AcDbLine
  8
color#000000fd
 62
256
370
-1
  6
BYLAYER
 10
4.4141980071229394
 20
3.3075477043678836
 30
0.0
 11
4.3976656439373336
 21
3.327693510587066
 31
0.0
  0
LINE
  5
1BB
100
AcDbEntity
100
AcDbLine
  8
color#000000fd
 62
256
370
-1
  6
BYLAYER
 10
4.3976656439373336
 20
3.327693510587066
 30
0.0
 11
3.725475699194333
 21
4.0033445396013008
 31
0.0
  0
LINE
  5
1BC
100
AcDbEntity
100
AcDbLine
  8
color#000000fd
 62
256
370
-1
  6
BYLAYER
 10
3.725475699194333
 20
4.0033445396013008
 30
0.0
 11
3.7028279711579248
 21
4.0328381771561128
 31
0.0
  0
LINE
  5
1BD
100
AcDbEntity
100
AcDbLine
  8
color#000000fd
 62
256
370
-1
  6
BYLAYER
 10
3.7028279711579248
 20
4.0328381771561128
 30
0.0
 11
3.6782467557947931
 21
4.0593372955692821
 31
0.0
  0
LINE
  5
1BE
100
AcDbEntity
100
AcDbLine
  8
color#000000fd
 62
256
370
-1
  6
BYLAYER
 10
3.6782467557947931
 20
4.0593372955692821
 30
0.0
 11
3.6519157742804853
 21
4.0828905049306066
 31
0.0
  0
LINE
  5
1BF
100
AcDbEntity
100
AcDbLine
  8
color#000000fd
 62
256
370
-1
  6
BYLAYER
 10
3.6519157742804853
 20
4.0828905049306066
 30
0.0
 11
3.6240187477905397
 21
4.1035464153298937
 31
0.0
  0
LINE
  5
1C0
100
AcDbEntity
100
AcDbLine
  8
color#000000fd
 62
256
370
-1
  6
BYLAYER
 10
3.6240187477905397
 20
4.1035464153298937
 30
0.0
 11
3.594739397500502
 21
4.1213536368569423
 31
0.0
  0
LINE
  5
1C1
100
AcDbEntity
100
AcDbLine
  8
color#000000fd
 62
256
370
-1
  6
BYLAYER
 10
3.594739397500502
 20
4.1213536368569423
 30
0.0
 11
3.5642614445859113
 21
4.1363607796015582
 31
0.0
  0
LINE
  5
1C2
100
AcDbEntity
100
AcDbLine
  8
color#000000fd
 62
256
370
-1
  6
BYLAYER
 10
3.5642614445859113
 20
4.1363607796015582
 30
0.0
 11
3.5327686102223086
 21
4.1486164536535437
 31
0.0
  0
LINE
  5
1C3
100
AcDbEntity
100
AcDbLine
  8
color#000000fd
 62
256
370
-1
  6
BYLAYER
 10
3.5327686102223086
 20
4.1486164536535437
 30
0.0
 11
3.50044461558524
 21
4.1581692691027001
 31
0.0
  0
LINE
  5
1C4
100
AcDbEntity
100
AcDbLine
  8
color#000000fd
 62
256
370
-1
  6
BYLAYER
 10
3.50044461558524
 20
4.1581692691027001
 30
0.0
 11
3.4674731818502451
 21
4.1650678360388316
 31
0.0
  0
LINE
  5
1C5
100
AcDbEntity
100
AcDbLine
  8
color#000000fd
 62
256
370
-1
  6
BYLAYER
 10
3.4674731818502451
 20
4.1650678360388316
 30
0.0
 11
3.4340380301928639
 21
4.1693607645517421
 31
0.0
  0
LINE
  5
1C6
100
AcDbEntity
100
AcDbLine
  8
color#000000fd
 62
256
370
-1
  6
BYLAYER
 10
3.4340380301928639
 20
4.1693607645517421
 30
0.0
 11
3.4003228817886413
 21
4.171096664731234
 31
0.0
  0
LINE
  5
1C7
100
AcDbEntity
100
AcDbLine
  8
color#000000fd
 62
256
370
-1
  6
BYLAYER
 10
3.4003228817886413
 20
4.171096664731234
 30
0.0
 11
3.3665114578131186
 21
4.1703241466671095
 31
0.0
  0
LINE
  5
1C8
100
AcDbEntity
100
AcDbLine
  8
color#000000fd
 62
256
370
-1
  6
BYLAYER
 10
3.3665114578131186
 20
4.1703241466671095
 30
0.0
 11
3.3327874794418362
 21
4.1670918204491718
 31
0.0
  0
LINE
  5
1C9
100
AcDbEntity
100
AcDbLine
  8
color#000000fd
 62
256
370
-1
  6
BYLAYER
 10
3.3327874794418362
 20
4.1670918204491718
 30
0.0
 11
3.2993346678503386
 21
4.1614482961672241
 31
0.0
  0
LINE
  5
1CA
100
AcDbEntity
100
AcDbLine
  8
color#000000fd
 62
256
370
-1
  6
BYLAYER
 10
3.2993346678503386
 20
4.1614482961672241
 30
0.0
 11
3.2663367442141666
 21
4.1534421839110705
 31
0.0
  0
LINE
  5
1CB
100
AcDbEntity
100
AcDbLine
  8
color#000000fd
 62
256
370
-1
  6
BYLAYER
 10
3.2663367442141666
 20
4.1534421839110705
 30
0.0
 11
3.2339774297088617
 21
4.1431220937705113
 31
0.0
  0
LINE
  5
1CC
100
AcDbEntity
100
AcDbLine
  8
color#000000fd
 62
256
370
-1
  6
BYLAYER
 10
3.2339774297088617
 20
4.1431220937705113
 30
0.0
 11
3.2024404455099664
 21
4.1305366358353517
 31
0.0
  0
LINE
  5
1CD
100
AcDbEntity
100
AcDbLine
  8
color#000000fd
 62
256
370
-1
  6
BYLAYER
 10
3.2024404455099664
 20
4.1305366358353517
 30
0.0
 11
3.1719095127930235
 21
4.1157344201953947
 31
0.0
  0
LINE
  5
1CE
100
AcDbEntity
100
AcDbLine
  8
color#000000fd
 62
256
370
-1
  6
BYLAYER
 10
3.1719095127930235
 20
4.1157344201953947
 30
0.0
 11
3.1425683527335728
 21
4.0987640569404418
 31
0.0
  0
LINE
  5
1CF
100
AcDbEntity
100
AcDbLine
  8
color#000000fd
 62
256
370
-1
  6
BYLAYER
 10
3.1425683527335728
 20
4.0987640569404418
 30
0.0
 11
3.114600686507158
 21
4.0796741561602969
 31
0.0
  0
LINE
  5
1D0
100
AcDbEntity
100
AcDbLine
  8
color#000000fd
 62
256
370
-1
  6
BYLAYER
 10
3.114600686507158
 20
4.0796741561602969
 30
0.0
 11
3.0881902352893214
 21
4.0585133279447616
 31
0.0
  0
LINE
  5
1D1
100
AcDbEntity
100
AcDbLine
  8
color#000000fd
 62
256
370
-1
  6
BYLAYER
 10
3.0881902352893214
 20
4.0585133279447616
 30
0.0
 11
3.0635207202556041
 21
4.0353301823836416
 31
0.0
  0
LINE
  5
1D2
100
AcDbEntity
100
AcDbLine
  8
color#000000fd
 62
256
370
-1
  6
BYLAYER
 10
3.0635207202556041
 20
4.0353301823836416
 30
0.0
 11
3.0407758625815475
 21
4.0101733295667366
 31
0.0
  0
LINE
  5
1D3
100
AcDbEntity
100
AcDbLine
  8
color#000000fd
 62
256
370
-1
  6
BYLAYER
 10
3.0407758625815475
 20
4.0101733295667366
 30
0.0
 11
3.0201393834426948
 21
3.9830913795838523
 31
0.0
  0
LINE
  5
1D4
100
AcDbEntity
100
AcDbLine
  8
color#000000fd
 62
256
370
-1
  6
BYLAYER
 10
3.0201393834426948
 20
3.9830913795838523
 30
0.0
 11
3.0017950040145873
 21
3.9541329425247906
 31
0.0
  0
LINE
  5
1D5
100
AcDbEntity
100
AcDbLine
  8
color#000000fd
 62
256
370
-1
  6
BYLAYER
 10
3.0017950040145873
 20
3.9541329425247906
 30
0.0
 11
2.9859264454727676
 21
3.9233466284793539
 31
0.0
  0
LINE
  5
1D6
100
AcDbEntity
100
AcDbLine
  8
color#000000fd
 62
256
370
-1
  6
BYLAYER
 10
2.9859264454727676
 20
3.9233466284793539
 30
0.0
 11
2.9727174289927767
 21
3.890781047537347
 31
0.0
  0
LINE
  5
1D7
100
AcDbEntity
100
AcDbLine
  8
color#000000fd
 62
256
370
-1
  6
BYLAYER
 10
2.9727174289927767
 20
3.890781047537347
 30
0.0
 11
2.9623516757501576
 21
3.8564848097885704
 31
0.0
  0
LINE
  5
1D8
100
AcDbEntity
100
AcDbLine
  8
color#000000fd
 62
256
370
-1
  6
BYLAYER
 10
2.9623516757501576
 20
3.8564848097885704
 30
0.0
 11
2.9550129069204512
 21
3.8205065253228288
 31
0.0
  0
LINE
  5
1D9
100
AcDbEntity
100
AcDbLine
  8
color#000000fd
 62
256
370
-1
  6
BYLAYER
 10
2.9550129069204512
 20
3.8205065253228288
 30
0.0
 11
2.9552987889383715
 21
3.665259010486968
 31
0.0
  0
LINE
  5
1DA
100
AcDbEntity
100
AcDbLine
  8
color#000000fd
 62
256
370
-1
  6
BYLAYER
 10
2.9552987889383715
 20
3.665259010486968
 30
0.0
 11
2.961820799557374
 21
3.6418888592644731
 31
0.0
  0
LINE
  5
1DB
100
AcDbEntity
100
AcDbLine
  8
color#000000fd
 62
256
370
-1
  6
BYLAYER
 10
2.961820799557374
 20
3.6418888592644731
 30
0.0
 11
2.9694728412314566
 21
3.6192231075601597
 31
0.0
  0
LINE
  5
1DC
100
AcDbEntity
100
AcDbLine
  8
color#000000fd
 62
256
370
-1
  6
BYLAYER
 10
2.9694728412314566
 20
3.6192231075601597
 30
0.0
 11
2.9781945778375492
 21
3.5972251796653052
 31
0.0
  0
LINE
  5
1DD
100
AcDbEntity
100
AcDbLine
  8
color#000000fd
 62
256
370
-1
  6
BYLAYER
 10
2.9781945778375492
 20
3.5972251796653052
 30
0.0
 11
2.987925673252577
 21
3.5758584998711882
 31
0.0
  0
LINE
  5
1DE
100
AcDbEntity
100
AcDbLine
  8
color#000000fd
 62
256
370
-1
  6
BYLAYER
 10
2.987925673252577
 20
3.5758584998711882
 30
0.0
 11
2.9986057913534703
 21
3.5550864924690879
 31
0.0
  0
LINE
  5
1DF
100
AcDbEntity
100
AcDbLine
  8
color#000000fd
 62
256
370
-1
  6
BYLAYER
 10
2.9986057913534703
 20
3.5550864924690879
 30
0.0
 11
3.0101745960171544
 21
3.5348725817502831
 31
0.0
  0
LINE
  5
1E0
100
AcDbEntity
100
AcDbLine
  8
color#000000fd
 62
256
370
-1
  6
BYLAYER
 10
3.0101745960171544
 20
3.5348725817502831
 30
0.0
 11
3.0225717511205565
 21
3.5151801920060524
 31
0.0
  0
LINE
  5
1E1
100
AcDbEntity
100
AcDbLine
  8
color#000000fd
 62
256
370
-1
  6
BYLAYER
 10
3.0225717511205565
 20
3.5151801920060524
 30
0.0
 11
3.0357369205406073
 21
3.4959727475276727
 31
0.0
  0
LINE
  5
1E2
100
AcDbEntity
100
AcDbLine
  8
color#000000fd
 62
256
370
-1
  6
BYLAYER
 10
3.0357369205406073
 20
3.4959727475276727
 30
0.0
 11
3.0496097681542316
 21
3.4772136726064247
 31
0.0
  0
LINE
  5
1E3
100
AcDbEntity
100
AcDbLine
  8
color#000000fd
 62
256
370
-1
  6
BYLAYER
 10
3.0496097681542316
 20
3.4772136726064247
 30
0.0
 11
3.0641299578383561
 21
3.4588663915335891
 31
0.0
  0
LINE
  5
1E4
100
AcDbEntity
100
AcDbLine
  8
color#000000fd
 62
256
370
-1
  6
BYLAYER
 10
3.0641299578383561
 20
3.4588663915335891
 30
0.0
 11
3.0792371534699101
 21
3.4408943286004408
 31
0.0
  0
LINE
  5
1E5
100
AcDbEntity
100
AcDbLine
  8
color#000000fd
 62
256
370
-1
  6
BYLAYER
 10
3.0792371534699101
 20
3.4408943286004408
 30
0.0
 11
3.0948710189258213
 21
3.4232609080982588
 31
0.0
  0
LINE
  5
1E6
100
AcDbEntity
100
AcDbLine
  8
color#000000fd
 62
256
370
-1
  6
BYLAYER
 10
3.0948710189258213
 20
3.4232609080982588
 30
0.0
 11
3.1109712180830158
 21
3.4059295543183246
 31
0.0
  0
LINE
  5
1E7
100
AcDbEntity
100
AcDbLine
  8
color#000000fd
 62
256
370
-1
  6
BYLAYER
 10
3.1109712180830158
 20
3.4059295543183246
 30
0.0
 11
3.1274774148184221
 21
3.3888636915519155
 31
0.0
  0
LINE
  5
1E8
100
AcDbEntity
100
AcDbLine
  8
color#000000fd
 62
256
370
-1
  6
BYLAYER
 10
3.1274774148184221
 20
3.3888636915519155
 30
0.0
 11
3.1443292730089678
 21
3.3720267440903089
 31
0.0
  0
LINE
  5
1E9
100
AcDbEntity
100
AcDbLine
  8
color#000000fd
 62
256
370
-1
  6
BYLAYER
 10
3.1443292730089678
 20
3.3720267440903089
 30
0.0
 11
3.1788286292631858
 21
3.338893292246623
 31
0.0
  0
LINE
  5
1EA
100
AcDbEntity
100
AcDbLine
  8
color#000000fd
 62
256
370
-1
  6
BYLAYER
 10
3.1788286292631858
 20
3.338893292246623
 30
0.0
 11
3.2843476161496423
 21
3.2411830303238389
 31
0.0
  0
LINE
  5
1EB
100
AcDbEntity
100
AcDbLine
  8
color#000000fd
 62
256
370
-1
  6
BYLAYER
 10
3.2843476161496423
 20
3.2411830303238389
 30
0.0
 11
3.3185852878711279
 21
3.2082009553197688
 31
0.0
  0
LINE
  5
1EC
100
AcDbEntity
100
AcDbLine
  8
color#000000fd
 62
256
370
-1
  6
BYLAYER
 10
3.3185852878711279
 20
3.2082009553197688
 30
0.0
 11
3.3352572379454197
 21
3.1914680794353978
 31
0.0
  0
LINE
  5
1ED
100
AcDbEntity
100
AcDbLine
  8
color#000000fd
 62
256
370
-1
  6
BYLAYER
 10
3.3352572379454197
 20
3.1914680794353978
 30
0.0
 11
3.3515508159979808
 21
3.1745252103511765
 31
0.0
  0
LINE
  5
1EE
100
AcDbEntity
100
AcDbLine
  8
color#000000fd
 62
256
370
-1
  6
BYLAYER
 10
3.3515508159979808
 20
3.1745252103511765
 30
0.0
 11
3.3674056859057391
 21
3.1573357723583819
 31
0.0
  0
LINE
  5
1EF
100
AcDbEntity
100
AcDbLine
  8
color#000000fd
 62
256
370
-1
  6
BYLAYER
 10
3.3674056859057391
 20
3.1573357723583819
 30
0.0
 11
3.3827615115456209
 21
3.1398631897482923
 31
0.0
  0
LINE
  5
1F0
100
AcDbEntity
100
AcDbLine
  8
color#000000fd
 62
256
370
-1
  6
BYLAYER
 10
3.3827615115456209
 20
3.1398631897482923
 30
0.0
 11
3.3800359796793114
 21
3.1104390551621486
 31
0.0
  0
LINE
  5
1F1
100
AcDbEntity
100
AcDbLine
  8
color#000000fd
 62
256
370
-1
  6
BYLAYER
 10
3.3800359796793114
 20
3.1104390551621486
 30
0.0
 11
3.3697614302547989
 21
3.0842455089298091
 31
0.0
  0
LINE
  5
1F2
100
AcDbEntity
100
AcDbLine
  8
color#000000fd
 62
256
370
-1
  6
BYLAYER
 10
3.3697614302547989
 20
3.0842455089298091
 30
0.0
 11
3.3604335961846963
 21
3.0577267964133821
 31
0.0
  0
LINE
  5
1F3
100
AcDbEntity
100
AcDbLine
  8
color#000000fd
 62
256
370
-1
  6
BYLAYER
 10
3.3604335961846963
 20
3.0577267964133821
 30
0.0
 11
3.3520182775656915
 21
3.0309130365359485
 31
0.0
  0
LINE
  5
1F4
100
AcDbEntity
100
AcDbLine
  8
color#000000fd
 62
256
370
-1
  6
BYLAYER
 10
3.3520182775656915
 20
3.0309130365359485
 30
0.0
 11
3.344481274494469
 21
3.0038343482205869
 31
0.0
  0
LINE
  5
1F5
100
AcDbEntity
100
AcDbLine
  8
color#000000fd
 62
256
370
-1
  6
BYLAYER
 10
3.344481274494469
 20
3.0038343482205869
 30
0.0
 11
3.3347477992512333
 21
2.9627854600706596
 31
0.0
  0
LINE
  5
1F6
100
AcDbEntity
100
AcDbLine
  8
color#000000fd
 62
256
370
-1
  6
BYLAYER
 10
3.3347477992512333
 20
2.9627854600706596
 30
0.0
 11
3.3267981595343743
 21
2.9213099018777027
 31
0.0
  0
LINE
  5
1F7
100
AcDbEntity
100
AcDbLine
  8
color#000000fd
 62
256
370
-1
  6
BYLAYER
 10
3.3267981595343743
 20
2.9213099018777027
 30
0.0
 11
3.3187739957391518
 21
2.8655211423825611
 31
0.0
  0
LINE
  5
1F8
100
AcDbEntity
100
AcDbLine
  8
color#000000fd
 62
256
370
-1
  6
BYLAYER
 10
3.3187739957391518
 20
2.8655211423825611
 30
0.0
 11
3.3134422964555474
 21
2.8093955232895707
 31
0.0
  0
LINE
  5
1F9
100
AcDbEntity
100
AcDbLine
  8
color#000000fd
 62
256
370
-1
  6
BYLAYER
 10
3.3134422964555474
 20
2.8093955232895707
 30
0.0
 11
3.3098946201814408
 21
2.7251025640579822
 31
0.0
  0
LINE
  5
1FA
100
AcDbEntity
100
AcDbLine
  8
color#000000fd
 62
256
370
-1
  6
BYLAYER
 10
3.3098946201814408
 20
2.7251025640579822
 30
0.0
 11
3.3097676302668426
 21
2.7110898580560763
 31
0.0
  0
LINE
  5
1FB
100
AcDbEntity
100
AcDbLine
  8
color#000000fd
 62
256
370
-1
  6
BYLAYER
 10
3.3097676302668426
 20
2.7110898580560763
 30
0.0
 11
2.7968802233566161
 21
3.2275272580085406
 31
0.0
  0
LINE
  5
1FC
100
AcDbEntity
100
AcDbLine
  8
color#000000fd
 62
256
370
-1
  6
BYLAYER
 10
2.7968802233566161
 20
3.2275272580085406
 30
0.0
 11
2.7724989173089165
 21
3.2548697395662467
 31
0.0
  0
LINE
  5
1FD
100
AcDbEntity
100
AcDbLine
  8
color#000000fd
 62
256
370
-1
  6
BYLAYER
 10
2.7724989173089165
 20
3.2548697395662467
 30
0.0
 11
2.7497148161403424
 21
3.2833569791523698
 31
0.0
  0
LINE
  5
1FE
100
AcDbEntity
100
AcDbLine
  8
color#000000fd
 62
256
370
-1
  6
BYLAYER
 10
2.7497148161403424
 20
3.2833569791523698
 30
0.0
 11
2.7285299049441312
 21
3.3129107682170007
 31
0.0
  0
LINE
  5
1FF
100
AcDbEntity
100
AcDbLine
  8
color#000000fd
 62
256
370
-1
  6
BYLAYER
 10
2.7285299049441312
 20
3.3129107682170007
 30
0.0
 11
2.7089461688135161
 21
3.3434528982102432
 31
0.0
  0
LINE
  5
200
100
AcDbEntity
100
AcDbLine
  8
color#000000fd
 62
256
370
-1
  6
BYLAYER
 10
2.7089461688135161
 20
3.3434528982102432
 30
0.0
 11
2.6909655928417342
 21
3.3749051605821885
 31
0.0
  0
LINE
  5
201
100
AcDbEntity
100
AcDbLine
  8
color#000000fd
 62
256
370
-1
  6
BYLAYER
 10
2.6909655928417342
 20
3.3749051605821885
 30
0.0
 11
2.6745901621220192
 21
3.4071893467829355
 31
0.0
  0
LINE
  5
202
100
AcDbEntity
100
AcDbLine
  8
color#000000fd
 62
256
370
-1
  6
BYLAYER
 10
2.6745901621220192
 20
3.4071893467829355
 30
0.0
 11
2.6598218617476039
 21
3.4402272482625853
 31
0.0
  0
LINE
  5
203
100
AcDbEntity
100
AcDbLine
  8
color#000000fd
 62
256
370
-1
  6
BYLAYER
 10
2.6598218617476039
 20
3.4402272482625853
 30
0.0
 11
2.6466626768117276
 21
3.4739406564712292
 31
0.0
  0
LINE
  5
204
100
AcDbEntity
100
AcDbLine
  8
color#000000fd
 62
256
370
-1
  6
BYLAYER
 10
2.6466626768117276
 20
3.4739406564712292
 30
0.0
 11
2.6351145924076222
 21
3.5082513628589678
 31
0.0
  0
LINE
  5
205
100
AcDbEntity
100
AcDbLine
  8
color#000000fd
 62
256
370
-1
  6
BYLAYER
 10
2.6351145924076222
 20
3.5082513628589678
 30
0.0
 11
2.6251795936285234
 21
3.5430811588758981
 31
0.0
  0
LINE
  5
206
100
AcDbEntity
100
AcDbLine
  8
color#000000fd
 62
256
370
-1
  6
BYLAYER
 10
2.6251795936285234
 20
3.5430811588758981
 30
0.0
 11
2.6168596655676666
 21
3.578351835972116
 31
0.0
  0
LINE
  5
207
100
AcDbEntity
100
AcDbLine
  8
color#000000fd
 62
256
370
-1
  6
BYLAYER
 10
2.6168596655676666
 20
3.578351835972116
 30
0.0
 11
2.6101567933182865
 21
3.613985185597719
 31
0.0
  0
LINE
  5
208
100
AcDbEntity
100
AcDbLine
  8
color#000000fd
 62
256
370
-1
  6
BYLAYER
 10
2.6101567933182865
 20
3.613985185597719
 30
0.0
 11
2.605072961973617
 21
3.6499029992028063
 31
0.0
  0
LINE
  5
209
100
AcDbEntity
100
AcDbLine
  8
color#000000fd
 62
256
370
-1
  6
BYLAYER
 10
2.605072961973617
 20
3.6499029992028063
 30
0.0
 11
2.6016101566268945
 21
3.6860270682374718
 31
0.0
  0
LINE
  5
20A
100
AcDbEntity
100
AcDbLine
  8
color#000000fd
 62
256
370
-1
  6
BYLAYER
 10
2.6016101566268945
 20
3.6860270682374718
 30
0.0
 11
2.5997703623713533
 21
3.7222791841518141
 31
0.0
  0
LINE
  5
20B
100
AcDbEntity
100
AcDbLine
  8
color#000000fd
 62
256
370
-1
  6
BYLAYER
 10
2.5997703623713533
 20
3.7222791841518141
 30
0.0
 11
2.5995555643002284
 21
3.7585811383959316
 31
0.0
  0
LINE
  5
20C
100
AcDbEntity
100
AcDbLine
  8
color#000000fd
 62
256
370
-1
  6
BYLAYER
 10
2.5995555643002284
 20
3.7585811383959316
 30
0.0
 11
2.600967747506755
 21
3.7948547224199194
 31
0.0
  0
LINE
  5
20D
100
AcDbEntity
100
AcDbLine
  8
color#000000fd
 62
256
370
-1
  6
BYLAYER
 10
2.600967747506755
 20
3.7948547224199194
 30
0.0
 11
2.6040088970841677
 21
3.8310217276738765
 31
0.0
  0
LINE
  5
20E
100
AcDbEntity
100
AcDbLine
  8
color#000000fd
 62
256
370
-1
  6
BYLAYER
 10
2.6040088970841677
 20
3.8310217276738765
 30
0.0
 11
2.6086809981257022
 21
3.8670039456078991
 31
0.0
  0
LINE
  5
20F
100
AcDbEntity
100
AcDbLine
  8
color#000000fd
 62
256
370
-1
  6
BYLAYER
 10
2.6086809981257022
 20
3.8670039456078991
 30
0.0
 11
2.6149860357245927
 21
3.9027231676720837
 31
0.0
  0
LINE
  5
210
100
AcDbEntity
100
AcDbLine
  8
color#000000fd
 62
256
370
-1
  6
BYLAYER
 10
2.6149860357245927
 20
3.9027231676720837
 30
0.0
 11
2.6229259949740737
 21
3.938101185316528
 31
0.0
  0
LINE
  5
211
100
AcDbEntity
100
AcDbLine
  8
color#000000fd
 62
256
370
-1
  6
BYLAYER
 10
2.6229259949740737
 20
3.938101185316528
 30
0.0
 11
2.632502860967382
 21
3.9730597899913298
 31
0.0
  0
LINE
  5
212
100
AcDbEntity
100
AcDbLine
  8
color#000000fd
 62
256
370
-1
  6
BYLAYER
 10
2.632502860967382
 20
3.9730597899913298
 30
0.0
 11
2.6437186187977506
 21
4.0075207731465845
 31
0.0
  0
LINE
  5
213
100
AcDbEntity
100
AcDbLine
  8
color#000000fd
 62
256
370
-1
  6
BYLAYER
 10
2.6437186187977506
 20
4.0075207731465845
 30
0.0
 11
2.6565752535584148
 21
4.0414059262323923
 31
0.0
  0
LINE
  5
214
100
AcDbEntity
100
AcDbLine
  8
color#000000fd
 62
256
370
-1
  6
BYLAYER
 10
2.6565752535584148
 20
4.0414059262323923
 30
0.0
 11
2.6710747503426102
 21
4.0746370406988479
 31
0.0
  0
LINE
  5
215
100
AcDbEntity
100
AcDbLine
  8
color#000000fd
 62
256
370
-1
  6
BYLAYER
 10
2.6710747503426102
 20
4.0746370406988479
 30
0.0
 11
2.6872190942435719
 21
4.1071359079960486
 31
0.0
  0
LINE
  5
216
100
AcDbEntity
100
AcDbLine
  8
color#000000fd
 62
256
370
-1
  6
BYLAYER
 10
2.6872190942435719
 20
4.1071359079960486
 30
0.0
 11
2.705010270354534
 21
4.138824319574093
 31
0.0
  0
LINE
  5
217
100
AcDbEntity
100
AcDbLine
  8
color#000000fd
 62
256
370
-1
  6
BYLAYER
 10
2.705010270354534
 20
4.138824319574093
 30
0.0
 11
2.7244502637687322
 21
4.1696240668830775
 31
0.0
  0
LINE
  5
218
100
AcDbEntity
100
AcDbLine
  8
color#000000fd
 62
256
370
-1
  6
BYLAYER
 10
2.7244502637687322
 20
4.1696240668830775
 30
0.0
 11
2.7455410595794012
 21
4.1994569413730973
 31
0.0
  0
LINE
  5
219
100
AcDbEntity
100
AcDbLine
  8
color#000000fd
 62
256
370
-1
  6
BYLAYER
 10
3.810682892481966
 20
2.2139078938385381
 30
0.0
 11
3.7801611294656556
 21
2.247901809447908
 31
0.0
  0
LINE
  5
21A
100
AcDbEntity
100
AcDbLine
  8
color#000000fd
 62
256
370
-1
  6
BYLAYER
 10
3.7801611294656556
 20
2.247901809447908
 30
0.0
 11
3.7522762882892033
 21
2.2835410132647089
 31
0.0
  0
LINE
  5
21B
100
AcDbEntity
100
AcDbLine
  8
color#000000fd
 62
256
370
-1
  6
BYLAYER
 10
3.7522762882892033
 20
2.2835410132647089
 30
0.0
 11
3.7270103458301986
 21
2.320685565392977
 31
0.0
  0
LINE
  5
21C
100
AcDbEntity
100
AcDbLine
  8
color#000000fd
 62
256
370
-1
  6
BYLAYER
 10
3.7270103458301986
 20
2.320685565392977
 30
0.0
 11
3.7043452789662243
 21
2.3591955259367561
 31
0.0
  0
LINE
  5
21D
100
AcDbEntity
100
AcDbLine
  8
color#000000fd
 62
256
370
-1
  6
BYLAYER
 10
3.7043452789662243
 20
2.3591955259367561
 30
0.0
 11
3.6842630645748682
 21
2.3989309550000817
 31
0.0
  0
LINE
  5
21E
100
AcDbEntity
100
AcDbLine
  8
color#000000fd
 62
256
370
-1
  6
BYLAYER
 10
3.6842630645748682
 20
2.3989309550000817
 30
0.0
 11
3.6667456795337108
 21
2.4397519126869991
 31
0.0
  0
LINE
  5
21F
100
AcDbEntity
100
AcDbLine
  8
color#000000fd
 62
256
370
-1
  6
BYLAYER
 10
3.6667456795337108
 20
2.4397519126869991
 30
0.0
 11
3.651775100720339
 21
2.4815184591015478
 31
0.0
  0
LINE
  5
220
100
AcDbEntity
100
AcDbLine
  8
color#000000fd
 62
256
370
-1
  6
BYLAYER
 10
3.651775100720339
 20
2.4815184591015478
 30
0.0
 11
3.63933330501234
 21
2.5240906543477655
 31
0.0
  0
LINE
  5
221
100
AcDbEntity
100
AcDbLine
  8
color#000000fd
 62
256
370
-1
  6
BYLAYER
 10
3.63933330501234
 20
2.5240906543477655
 30
0.0
 11
3.6294022692872954
 21
2.567328558529693
 31
0.0
  0
LINE
  5
222
100
AcDbEntity
100
AcDbLine
  8
color#000000fd
 62
256
370
-1
  6
BYLAYER
 10
3.6294022692872954
 20
2.567328558529693
 30
0.0
 11
3.6219639704227902
 21
2.6110922317513734
 31
0.0
  0
LINE
  5
223
100
AcDbEntity
100
AcDbLine
  8
color#000000fd
 62
256
370
-1
  6
BYLAYER
 10
3.6219639704227902
 20
2.6110922317513734
 30
0.0
 11
3.6170003852964103
 21
2.6552417341168444
 31
0.0
  0
LINE
  5
224
100
AcDbEntity
100
AcDbLine
  8
color#000000fd
 62
256
370
-1
  6
BYLAYER
 10
3.6170003852964103
 20
2.6552417341168444
 30
0.0
 11
3.6144934907857422
 21
2.6996371257301459
 31
0.0
  0
LINE
  5
225
100
AcDbEntity
100
AcDbLine
  8
color#000000fd
 62
256
370
-1
  6
BYLAYER
 10
3.6144934907857422
 20
2.6996371257301459
 30
0.0
 11
3.6144252637683678
 21
2.7441384666953201
 31
0.0
  0
LINE
  5
226
100
AcDbEntity
100
AcDbLine
  8
color#000000fd
 62
256
370
-1
  6
BYLAYER
 10
3.6144252637683678
 20
2.7441384666953201
 30
0.0
 11
3.6167776811218735
 21
2.7886058171164061
 31
0.0
  0
LINE
  5
227
100
AcDbEntity
100
AcDbLine
  8
color#000000fd
 62
256
370
-1
  6
BYLAYER
 10
3.6167776811218735
 20
2.7886058171164061
 30
0.0
 11
3.6215327197238443
 21
2.8328992370974442
 31
0.0
  0
LINE
  5
228
100
AcDbEntity
100
AcDbLine
  8
color#000000fd
 62
256
370
-1
  6
BYLAYER
 10
3.6215327197238443
 20
2.8328992370974442
 30
0.0
 11
3.6286723564518653
 21
2.8768787867424752
 31
0.0
  0
LINE
  5
229
100
AcDbEntity
100
AcDbLine
  8
color#000000fd
 62
256
370
-1
  6
BYLAYER
 10
3.6286723564518653
 20
2.8768787867424752
 30
0.0
 11
3.6381785681835197
 21
2.9204045261555382
 31
0.0
  0
LINE
  5
22A
100
AcDbEntity
100
AcDbLine
  8
color#000000fd
 62
256
370
-1
  6
BYLAYER
 10
3.6381785681835197
 20
2.9204045261555382
 30
0.0
 11
3.6500333317963953
 21
2.9633365154406754
 31
0.0
  0
LINE
  5
22B
100
AcDbEntity
100
AcDbLine
  8
color#000000fd
 62
256
370
-1
  6
BYLAYER
 10
3.6500333317963953
 20
2.9633365154406754
 30
0.0
 11
3.6642186241680736
 21
3.0055348147019254
 31
0.0
  0
LINE
  5
22C
100
AcDbEntity
100
AcDbLine
  8
color#000000fd
 62
256
370
-1
  6
BYLAYER
 10
3.6642186241680736
 20
3.0055348147019254
 30
0.0
 11
3.6807164221761419
 21
3.046859484043329
 31
0.0
  0
LINE
  5
22D
100
AcDbEntity
100
AcDbLine
  8
color#000000fd
 62
256
370
-1
  6
BYLAYER
 10
3.6807164221761419
 20
3.046859484043329
 30
0.0
 11
3.6995087026981852
 21
3.087170583568926
 31
0.0
  0
LINE
  5
22E
100
AcDbEntity
100
AcDbLine
  8
color#000000fd
 62
256
370
-1
  6
BYLAYER
 10
3.6995087026981852
 20
3.087170583568926
 30
0.0
 11
3.7205774426117872
 21
3.1263281733827579
 31
0.0
  0
LINE
  5
22F
100
AcDbEntity
100
AcDbLine
  8
color#000000fd
 62
256
370
-1
  6
BYLAYER
 10
3.7205774426117872
 20
3.1263281733827579
 30
0.0
 11
3.7439046187945326
 21
3.164192313588865
 31
0.0
  0
LINE
  5
230
100
AcDbEntity
100
AcDbLine
  8
color#000000fd
 62
256
370
-1
  6
BYLAYER
 10
3.7439046187945326
 20
3.164192313588865
 30
0.0
 11
3.7694722081240073
 21
3.2006230642912854
 31
0.0
  0
LINE
  5
231
100
AcDbEntity
100
AcDbLine
  8
color#000000fd
 62
256
370
-1
  6
BYLAYER
 10
3.7694722081240073
 20
3.2006230642912854
 30
0.0
 11
3.7972621874777954
 21
3.2354804855940618
 31
0.0
  0
LINE
  5
232
100
AcDbEntity
100
AcDbLine
  8
color#000000fd
 62
256
370
-1
  6
BYLAYER
 10
3.7972621874777954
 20
3.2354804855940618
 30
0.0
 11
3.8272565337334825
 21
3.2686246376012327
 31
0.0
  0
LINE
  5
233
100
AcDbEntity
100
AcDbLine
  8
color#000000fd
 62
256
370
-1
  6
BYLAYER
 10
3.8272565337334825
 20
3.2686246376012327
 30
0.0
 11
3.8594372237686532
 21
3.2999155804168399
 31
0.0
  0
LINE
  5
234
100
AcDbEntity
100
AcDbLine
  8
color#000000fd
 62
256
370
-1
  6
BYLAYER
 10
3.8594372237686532
 20
3.2999155804168399
 30
0.0
 11
3.893786234460892
 21
3.3292133741449224
 31
0.0
  0
LINE
  5
235
100
AcDbEntity
100
AcDbLine
  8
color#000000fd
 62
256
370
-1
  6
BYLAYER
 10
3.893786234460892
 20
3.3292133741449224
 30
0.0
 11
3.9302855426877841
 21
3.356378078889521
 31
0.0
  0
LINE
  5
236
100
AcDbEntity
100
AcDbLine
  8
color#000000fd
 62
256
370
-1
  6
BYLAYER
 10
3.9302855426877841
 20
3.356378078889521
 30
0.0
 11
4.1810019050506853
 21
3.0995124572876582
 31
0.0
  0
LINE
  5
237
100
AcDbEntity
100
AcDbLine
  8
color#000000fd
 62
256
370
-1
  6
BYLAYER
 10
4.1810019050506853
 20
3.0995124572876582
 30
0.0
 11
4.1585527675135383
 21
3.0865591369600014
 31
0.0
  0
LINE
  5
238
100
AcDbEntity
100
AcDbLine
  8
color#000000fd
 62
256
370
-1
  6
BYLAYER
 10
4.1585527675135383
 20
3.0865591369600014
 30
0.0
 11
4.1372401005331447
 21
3.0721994386682638
 31
0.0
  0
LINE
  5
239
100
AcDbEntity
100
AcDbLine
  8
color#000000fd
 62
256
370
-1
  6
BYLAYER
 10
4.1372401005331447
 20
3.0721994386682638
 30
0.0
 11
4.1170828626533797
 21
3.056518504343499
 31
0.0
  0
LINE
  5
23A
100
AcDbEntity
100
AcDbLine
  8
color#000000fd
 62
256
370
-1
  6
BYLAYER
 10
4.1170828626533797
 20
3.056518504343499
 30
0.0
 11
4.0981000124181124
 21
3.0396014759167667
 31
0.0
  0
LINE
  5
23B
100
AcDbEntity
100
AcDbLine
  8
color#000000fd
 62
256
370
-1
  6
BYLAYER
 10
4.0981000124181124
 20
3.0396014759167667
 30
0.0
 11
4.0803105083712179
 21
3.0215334953191211
 31
0.0
  0
LINE
  5
23C
100
AcDbEntity
100
AcDbLine
  8
color#000000fd
 62
256
370
-1
  6
BYLAYER
 10
4.0803105083712179
 20
3.0215334953191211
 30
0.0
 11
4.0637333090565662
 21
3.0023997044816233
 31
0.0
  0
LINE
  5
23D
100
AcDbEntity
100
AcDbLine
  8
color#000000fd
 62
256
370
-1
  6
BYLAYER
 10
4.0637333090565662
 20
3.0023997044816233
 30
0.0
 11
4.0483873730180271
 21
2.9822852453353286
 31
0.0
  0
LINE
  5
23E
100
AcDbEntity
100
AcDbLine
  8
color#000000fd
 62
256
370
-1
  6
BYLAYER
 10
4.0483873730180271
 20
2.9822852453353286
 30
0.0
 11
4.0342916587994768
 21
2.961275259811293
 31
0.0
  0
LINE
  5
23F
100
AcDbEntity
100
AcDbLine
  8
color#000000fd
 62
256
370
-1
  6
BYLAYER
 10
4.0342916587994768
 20
2.961275259811293
 30
0.0
 11
4.0214651249447861
 21
2.939454889840575
 31
0.0
  0
LINE
  5
240
100
AcDbEntity
100
AcDbLine
  8
color#000000fd
 62
256
370
-1
  6
BYLAYER
 10
4.0214651249447861
 20
2.939454889840575
 30
0.0
 11
4.0099267299978232
 21
2.9169092773542329
 31
0.0
  0
LINE
  5
241
100
AcDbEntity
100
AcDbLine
  8
color#000000fd
 62
256
370
-1
  6
BYLAYER
 10
4.0099267299978232
 20
2.9169092773542329
 30
0.0
 11
3.9996954325024654
 21
2.8937235642833219
 31
0.0
  0
LINE
  5
242
100
AcDbEntity
100
AcDbLine
  8
color#000000fd
 62
256
370
-1
  6
BYLAYER
 10
3.9996954325024654
 20
2.8937235642833219
 30
0.0
 11
3.9907901910025836
 21
2.8699828925588977
 31
0.0
  0
LINE
  5
243
100
AcDbEntity
100
AcDbLine
  8
color#000000fd
 62
256
370
-1
  6
BYLAYER
 10
3.9907901910025836
 20
2.8699828925588977
 30
0.0
 11
3.9832299640420459
 21
2.8457724041120236
 31
0.0
  0
LINE
  5
244
100
AcDbEntity
100
AcDbLine
  8
color#000000fd
 62
256
370
-1
  6
BYLAYER
 10
3.9832299640420459
 20
2.8457724041120236
 30
0.0
 11
3.9770337101647288
 21
2.8211772408737499
 31
0.0
  0
LINE
  5
245
100
AcDbEntity
100
AcDbLine
  8
color#000000fd
 62
256
370
-1
  6
BYLAYER
 10
3.9770337101647288
 20
2.8211772408737499
 30
0.0
 11
3.9722203879145019
 21
2.7962825447751385
 31
0.0
  0
LINE
  5
246
100
AcDbEntity
100
AcDbLine
  8
color#000000fd
 62
256
370
-1
  6
BYLAYER
 10
3.9722203879145019
 20
2.7962825447751385
 30
0.0
 11
3.9688089558352377
 21
2.7711734577472438
 31
0.0
  0
LINE
  5
247
100
AcDbEntity
100
AcDbLine
  8
color#000000fd
 62
256
370
-1
  6
BYLAYER
 10
3.9688089558352377
 20
2.7711734577472438
 30
0.0
 11
3.9668183724708075
 21
2.7459351217211259
 31
0.0
  0
LINE
  5
248
100
AcDbEntity
100
AcDbLine
  8
color#000000fd
 62
256
370
-1
  6
BYLAYER
 10
3.9668183724708075
 20
2.7459351217211259
 30
0.0
 11
3.9662675963650846
 21
2.7206526786278382
 31
0.0
  0
LINE
  5
249
100
AcDbEntity
100
AcDbLine
  8
color#000000fd
 62
256
370
-1
  6
BYLAYER
 10
3.9662675963650846
 20
2.7206526786278382
 30
0.0
 11
3.9671755860619413
 21
2.695411270398441
 31
0.0
  0
LINE
  5
24A
100
AcDbEntity
100
AcDbLine
  8
color#000000fd
 62
256
370
-1
  6
BYLAYER
 10
3.9671755860619413
 20
2.695411270398441
 30
0.0
 11
3.9695613001052479
 21
2.6702960389639898
 31
0.0
  0
LINE
  5
24B
100
AcDbEntity
100
AcDbLine
  8
color#000000fd
 62
256
370
-1
  6
BYLAYER
 10
3.9695613001052479
 20
2.6702960389639898
 30
0.0
 11
3.9734436970388773
 21
2.6453921262555422
 31
0.0
  0
LINE
  5
24C
100
AcDbEntity
100
AcDbLine
  8
color#000000fd
 62
256
370
-1
  6
BYLAYER
 10
3.9734436970388773
 20
2.6453921262555422
 30
0.0
 11
3.9788417354067005
 21
2.6207846742041556
 31
0.0
  0
LINE
  5
24D
100
AcDbEntity
100
AcDbLine
  8
color#000000fd
 62
256
370
-1
  6
BYLAYER
 10
3.9788417354067005
 20
2.6207846742041556
 30
0.0
 11
3.9857743737525908
 21
2.5965588247408871
 31
0.0
  0
LINE
  5
24E
100
AcDbEntity
100
AcDbLine
  8
color#000000fd
 62
256
370
-1
  6
BYLAYER
 10
3.9857743737525908
 20
2.5965588247408871
 30
0.0
 11
3.9942605706204199
 21
2.572799719796794
 31
0.0
  0
LINE
  5
24F
100
AcDbEntity
100
AcDbLine
  8
color#000000fd
 62
256
370
-1
  6
BYLAYER
 10
3.9942605706204199
 20
2.572799719796794
 30
0.0
 11
4.0043192845540592
 21
2.5495925013029339
 31
0.0
  0
LINE
  5
250
100
AcDbEntity
100
AcDbLine
  8
color#000000fd
 62
256
370
-1
  6
BYLAYER
 10
4.0043192845540592
 20
2.5495925013029339
 30
0.0
 11
4.0159694740973819
 21
2.5270223111903629
 31
0.0
  0
LINE
  5
251
100
AcDbEntity
100
AcDbLine
  8
color#000000fd
 62
256
370
-1
  6
BYLAYER
 10
4.0159694740973819
 20
2.5270223111903629
 30
0.0
 11
4.0292300977942581
 21
2.5051742913901385
 31
0.0
  0
LINE
  5
252
100
AcDbEntity
100
AcDbLine
  8
color#000000fd
 62
256
370
-1
  6
BYLAYER
 10
4.0292300977942581
 20
2.5051742913901385
 30
0.0
 11
4.0441201141885612
 21
2.4841335838333185
 31
0.0
  0
LINE
  5
253
100
AcDbEntity
100
AcDbLine
  8
color#000000fd
 62
256
370
-1
  6
BYLAYER
 10
4.0441201141885612
 20
2.4841335838333185
 30
0.0
 11
4.060658481824162
 21
2.46398533045096
 31
0.0
  0
LINE
  5
254
100
AcDbEntity
100
AcDbLine
  8
color#000000fd
 62
256
370
-1
  6
BYLAYER
 10
4.060658481824162
 20
2.46398533045096
 30
0.0
 11
4.7328079380964869
 21
1.7883522561982279
 31
0.0
  0
LINE
  5
255
100
AcDbEntity
100
AcDbLine
  8
color#000000fd
 62
256
370
-1
  6
BYLAYER
 10
4.7328079380964869
 20
1.7883522561982279
 30
0.0
 11
4.7554224157404148
 21
1.7588909557848424
 31
0.0
  0
LINE
  5
256
100
AcDbEntity
100
AcDbLine
  8
color#000000fd
 62
256
370
-1
  6
BYLAYER
 10
4.7554224157404148
 20
1.7588909557848424
 30
0.0
 11
4.7799695504356023
 21
1.7324154581466924
 31
0.0
  0
LINE
  5
257
100
AcDbEntity
100
AcDbLine
  8
color#000000fd
 62
256
370
-1
  6
BYLAYER
 10
4.7799695504356023
 20
1.7324154581466924
 30
0.0
 11
4.8062659255853806
 21
1.708877590131314
 31
0.0
  0
LINE
  5
258
100
AcDbEntity
100
AcDbLine
  8
color#000000fd
 62
256
370
-1
  6
BYLAYER
 10
4.8062659255853806
 20
1.708877590131314
 30
0.0
 11
4.8341281245930698
 21
1.6882291785862564
 31
0.0
  0
LINE
  5
259
100
AcDbEntity
100
AcDbLine
  8
color#000000fd
 62
256
370
-1
  6
BYLAYER
 10
4.8341281245930698
 20
1.6882291785862564
 30
0.0
 11
4.8633727308620047
 21
1.6704220503590577
 31
0.0
  0
LINE
  5
25A
100
AcDbEntity
100
AcDbLine
  8
color#000000fd
 62
256
370
-1
  6
BYLAYER
 10
4.8633727308620047
 20
1.6704220503590577
 30
0.0
 11
4.8938163277955038
 21
1.6554080322972651
 31
0.0
  0
LINE
  5
25B
100
AcDbEntity
100
AcDbLine
  8
color#000000fd
 62
256
370
-1
  6
BYLAYER
 10
4.8938163277955038
 20
1.6554080322972651
 30
0.0
 11
4.9252754987968945
 21
1.6431389512484236
 31
0.0
  0
LINE
  5
25C
100
AcDbEntity
100
AcDbLine
  8
color#000000fd
 62
256
370
-1
  6
BYLAYER
 10
4.9252754987968945
 20
1.6431389512484236
 30
0.0
 11
4.957566827269507
 21
1.6335666340600714
 31
0.0
  0
LINE
  5
25D
100
AcDbEntity
100
AcDbLine
  8
color#000000fd
 62
256
370
-1
  6
BYLAYER
 10
4.957566827269507
 20
1.6335666340600714
 30
0.0
 11
4.990506896616667
 21
1.626642907579755
 31
0.0
  0
LINE
  5
25E
100
AcDbEntity
100
AcDbLine
  8
color#000000fd
 62
256
370
-1
  6
BYLAYER
 10
4.990506896616667
 20
1.626642907579755
 30
0.0
 11
5.0239122902416939
 21
1.622319598655019
 31
0.0
  0
LINE
  5
25F
100
AcDbEntity
100
AcDbLine
  8
color#000000fd
 62
256
370
-1
  6
BYLAYER
 10
5.0239122902416939
 20
1.622319598655019
 30
0.0
 11
5.0575995915479224
 21
1.6205485341334029
 31
0.0
  0
LINE
  5
260
100
AcDbEntity
100
AcDbLine
  8
color#000000fd
 62
256
370
-1
  6
BYLAYER
 10
5.0575995915479224
 20
1.6205485341334029
 30
0.0
 11
5.0913853839386736
 21
1.6212815408624535
 31
0.0
  0
LINE
  5
261
100
AcDbEntity
100
AcDbLine
  8
color#000000fd
 62
256
370
-1
  6
BYLAYER
 10
5.0913853839386736
 20
1.6212815408624535
 30
0.0
 11
5.1250862508172741
 21
1.6244704456897143
 31
0.0
  0
LINE
  5
262
100
AcDbEntity
100
AcDbLine
  8
color#000000fd
 62
256
370
-1
  6
BYLAYER
 10
5.1250862508172741
 20
1.6244704456897143
 30
0.0
 11
5.1585187755870532
 21
1.6300670754627262
 31
0.0
  0
LINE
  5
263
100
AcDbEntity
100
AcDbLine
  8
color#000000fd
 62
256
370
-1
  6
BYLAYER
 10
5.1585187755870532
 20
1.6300670754627262
 30
0.0
 11
5.1914995416513339
 21
1.6380232570290341
 31
0.0
  0
LINE
  5
264
100
AcDbEntity
100
AcDbLine
  8
color#000000fd
 62
256
370
-1
  6
BYLAYER
 10
5.1914995416513339
 20
1.6380232570290341
 30
0.0
 11
5.2238451324134436
 21
1.6482908172361828
 31
0.0
  0
LINE
  5
265
100
AcDbEntity
100
AcDbLine
  8
color#000000fd
 62
256
370
-1
  6
BYLAYER
 10
5.2238451324134436
 20
1.6482908172361828
 30
0.0
 11
5.255372131276709
 21
1.6608215829317128
 31
0.0
  0
LINE
  5
266
100
AcDbEntity
100
AcDbLine
  8
color#000000fd
 62
256
370
-1
  6
BYLAYER
 10
5.255372131276709
 20
1.6608215829317128
 30
0.0
 11
5.2858971216444566
 21
1.6755673809631699
 31
0.0
  0
LINE
  5
267
100
AcDbEntity
100
AcDbLine
  8
color#000000fd
 62
256
370
-1
  6
BYLAYER
 10
5.2858971216444566
 20
1.6755673809631699
 30
0.0
 11
5.3152366869200094
 21
1.692480038178096
 31
0.0
  0
LINE
  5
268
100
AcDbEntity
100
AcDbLine
  8
color#000000fd
 62
256
370
-1
  6
BYLAYER
 10
5.3152366869200094
 20
1.692480038178096
 30
0.0
 11
5.3432074105066985
 21
1.7115113814240348
 31
0.0
  0
LINE
  5
269
100
AcDbEntity
100
AcDbLine
  8
color#000000fd
 62
256
370
-1
  6
BYLAYER
 10
5.3432074105066985
 20
1.7115113814240348
 30
0.0
 11
5.3696258758078468
 21
1.7326132375485304
 31
0.0
  0
LINE
  5
26A
100
AcDbEntity
100
AcDbLine
  8
color#000000fd
 62
256
370
-1
  6
BYLAYER
 10
5.3696258758078468
 20
1.7326132375485304
 30
0.0
 11
5.394308666226781
 21
1.7557374333991254
 31
0.0
  0
LINE
  5
26B
100
AcDbEntity
100
AcDbLine
  8
color#000000fd
 62
256
370
-1
  6
BYLAYER
 10
5.394308666226781
 20
1.7557374333991254
 30
0.0
 11
5.4170723651668284
 21
1.7808357958233643
 31
0.0
  0
LINE
  5
26C
100
AcDbEntity
100
AcDbLine
  8
color#000000fd
 62
256
370
-1
  6
BYLAYER
 10
5.4170723651668284
 20
1.7808357958233643
 30
0.0
 11
5.4377335560313149
 21
1.8078601516687896
 31
0.0
  0
LINE
  5
26D
100
AcDbEntity
100
AcDbLine
  8
color#000000fd
 62
256
370
-1
  6
BYLAYER
 10
5.4377335560313149
 20
1.8078601516687896
 30
0.0
 11
5.4561088222235643
 21
1.8367623277829455
 31
0.0
  0
LINE
  5
26E
100
AcDbEntity
100
AcDbLine
  8
color#000000fd
 62
256
370
-1
  6
BYLAYER
 10
5.4561088222235643
 20
1.8367623277829455
 30
0.0
 11
5.4720147471469067
 21
1.867494151013374
 31
0.0
  0
LINE
  5
26F
100
AcDbEntity
100
AcDbLine
  8
color#000000fd
 62
256
370
-1
  6
BYLAYER
 10
5.4720147471469067
 20
1.867494151013374
 30
0.0
 11
5.4852679142046652
 21
1.9000074482076204
 31
0.0
  0
LINE
  5
270
100
AcDbEntity
100
AcDbLine
  8
color#000000fd
 62
256
370
-1
  6
BYLAYER
 10
5.4852679142046652
 20
1.9000074482076204
 30
0.0
 11
5.4956849068001681
 21
1.9342540462132263
 31
0.0
  0
LINE
  5
271
100
AcDbEntity
100
AcDbLine
  8
color#000000fd
 62
256
370
-1
  6
BYLAYER
 10
5.4956849068001681
 20
1.9342540462132263
 30
0.0
 11
5.5030823083367402
 21
1.970185771877736
 31
0.0
  0
LINE
  5
272
100
AcDbEntity
100
AcDbLine
  8
color#000000fd
 62
256
370
-1
  6
BYLAYER
 10
5.5030823083367402
 20
1.970185771877736
 30
0.0
 11
5.5030385442398471
 21
2.1264082483145166
 31
0.0
  0
LINE
  5
273
100
AcDbEntity
100
AcDbLine
  8
color#000000fd
 62
256
370
-1
  6
BYLAYER
 10
5.5030385442398471
 20
2.1264082483145166
 30
0.0
 11
5.4965112639313114
 21
2.1497791145093714
 31
0.0
  0
LINE
  5
274
100
AcDbEntity
100
AcDbLine
  8
color#000000fd
 62
256
370
-1
  6
BYLAYER
 10
5.4965112639313114
 20
2.1497791145093714
 30
0.0
 11
5.4888547418959384
 21
2.1724453191081059
 31
0.0
  0
LINE
  5
275
100
AcDbEntity
100
AcDbLine
  8
color#000000fd
 62
256
370
-1
  6
BYLAYER
 10
5.4888547418959384
 20
2.1724453191081059
 30
0.0
 11
5.4801292884035453
 21
2.1944434702347206
 31
0.0
  0
LINE
  5
276
100
AcDbEntity
100
AcDbLine
  8
color#000000fd
 62
256
370
-1
  6
BYLAYER
 10
5.4801292884035453
 20
2.1944434702347206
 30
0.0
 11
5.4703952137239362
 21
2.2158101760132283
 31
0.0
  0
LINE
  5
277
100
AcDbEntity
100
AcDbLine
  8
color#000000fd
 62
256
370
-1
  6
BYLAYER
 10
5.4703952137239362
 20
2.2158101760132283
 30
0.0
 11
5.4597128281269258
 21
2.2365820445676325
 31
0.0
  0
LINE
  5
278
100
AcDbEntity
100
AcDbLine
  8
color#000000fd
 62
256
370
-1
  6
BYLAYER
 10
5.4597128281269258
 20
2.2365820445676325
 30
0.0
 11
5.4481424418823217
 21
2.256795684021943
 31
0.0
  0
LINE
  5
279
100
AcDbEntity
100
AcDbLine
  8
color#000000fd
 62
256
370
-1
  6
BYLAYER
 10
5.4481424418823217
 20
2.256795684021943
 30
0.0
 11
5.435744365259934
 21
2.2764877025001686
 31
0.0
  0
LINE
  5
27A
100
AcDbEntity
100
AcDbLine
  8
color#000000fd
 62
256
370
-1
  6
BYLAYER
 10
5.435744365259934
 20
2.2764877025001686
 30
0.0
 11
5.4225789085295766
 21
2.2956947081263124
 31
0.0
  0
LINE
  5
27B
100
AcDbEntity
100
AcDbLine
  8
color#000000fd
 62
256
370
-1
  6
BYLAYER
 10
5.4225789085295766
 20
2.2956947081263124
 30
0.0
 11
5.408706381961057
 21
2.3144533090243868
 31
0.0
  0
LINE
  5
27C
100
AcDbEntity
100
AcDbLine
  8
color#000000fd
 62
256
370
-1
  6
BYLAYER
 10
5.408706381961057
 20
2.3144533090243868
 30
0.0
 11
5.3941870958241829
 21
2.3328001133183998
 31
0.0
  0
LINE
  5
27D
100
AcDbEntity
100
AcDbLine
  8
color#000000fd
 62
256
370
-1
  6
BYLAYER
 10
5.3941870958241829
 20
2.3328001133183998
 30
0.0
 11
5.3790813603887688
 21
2.3507717291323544
 31
0.0
  0
LINE
  5
27E
100
AcDbEntity
100
AcDbLine
  8
color#000000fd
 62
256
370
-1
  6
BYLAYER
 10
5.3790813603887688
 20
2.3507717291323544
 30
0.0
 11
5.3634494859246242
 21
2.3684047645902604
 31
0.0
  0
LINE
  5
27F
100
AcDbEntity
100
AcDbLine
  8
color#000000fd
 62
256
370
-1
  6
BYLAYER
 10
5.3634494859246242
 20
2.3684047645902604
 30
0.0
 11
5.3473517827015566
 21
2.385735827816128
 31
0.0
  0
LINE
  5
280
100
AcDbEntity
100
AcDbLine
  8
color#000000fd
 62
256
370
-1
  6
BYLAYER
 10
5.3473517827015566
 20
2.385735827816128
 30
0.0
 11
5.3308485609893799
 21
2.4028015269339611
 31
0.0
  0
LINE
  5
281
100
AcDbEntity
100
AcDbLine
  8
color#000000fd
 62
256
370
-1
  6
BYLAYER
 10
5.3308485609893799
 20
2.4028015269339611
 30
0.0
 11
5.3140001310579015
 21
2.4196384700677691
 31
0.0
  0
LINE
  5
282
100
AcDbEntity
100
AcDbLine
  8
color#000000fd
 62
256
370
-1
  6
BYLAYER
 10
5.3140001310579015
 20
2.4196384700677691
 30
0.0
 11
5.2795088876162843
 21
2.4527725208793405
 31
0.0
  0
LINE
  5
283
100
AcDbEntity
100
AcDbLine
  8
color#000000fd
 62
256
370
-1
  6
BYLAYER
 10
5.2795088876162843
 20
2.4527725208793405
 30
0.0
 11
5.1740224280884899
 21
2.5504917745942359
 31
0.0
  0
LINE
  5
284
100
AcDbEntity
100
AcDbLine
  8
color#000000fd
 62
256
370
-1
  6
BYLAYER
 10
5.1740224280884899
 20
2.5504917745942359
 30
0.0
 11
5.1397976390398483
 21
2.5834801095661328
 31
0.0
  0
LINE
  5
285
100
AcDbEntity
100
AcDbLine
  8
color#000000fd
 62
256
370
-1
  6
BYLAYER
 10
5.1397976390398483
 20
2.5834801095661328
 30
0.0
 11
5.1231323965035411
 21
2.6002168730601642
 31
0.0
  0
LINE
  5
286
100
AcDbEntity
100
AcDbLine
  8
color#000000fd
 62
256
370
-1
  6
BYLAYER
 10
5.1231323965035411
 20
2.6002168730601642
 30
0.0
 11
5.1068456689856569
 21
2.6171641780582622
 31
0.0
  0
LINE
  5
287
100
AcDbEntity
100
AcDbLine
  8
color#000000fd
 62
256
370
-1
  6
BYLAYER
 10
5.1068456689856569
 20
2.6171641780582622
 30
0.0
 11
5.0909977667560042
 21
2.6343586326844339
 31
0.0
  0
LINE
  5
288
100
AcDbEntity
100
AcDbLine
  8
color#000000fd
 62
256
370
-1
  6
BYLAYER
 10
5.0909977667560042
 20
2.6343586326844339
 30
0.0
 11
5.075649000084395
 21
2.6518368450626877
 31
0.0
  0
LINE
  5
289
100
AcDbEntity
100
AcDbLine
  8
color#000000fd
 62
256
370
-1
  6
BYLAYER
 10
5.075649000084395
 20
2.6518368450626877
 30
0.0
 11
5.0782955346583707
 21
2.6811715865428973
 31
0.0
  0
LINE
  5
28A
100
AcDbEntity
100
AcDbLine
  8
color#000000fd
 62
256
370
-1
  6
BYLAYER
 10
5.0782955346583707
 20
2.6811715865428973
 30
0.0
 11
5.0885147606736361
 21
2.707385242506223
 31
0.0
  0
LINE
  5
28B
100
AcDbEntity
100
AcDbLine
  8
color#000000fd
 62
256
370
-1
  6
BYLAYER
 10
5.0885147606736361
 20
2.707385242506223
 30
0.0
 11
5.0978073068938725
 21
2.7339176315320262
 31
0.0
  0
LINE
  5
28C
100
AcDbEntity
100
AcDbLine
  8
color#000000fd
 62
256
370
-1
  6
BYLAYER
 10
5.0978073068938725
 20
2.7339176315320262
 30
0.0
 11
5.1062045911108198
 21
2.7607394418848736
 31
0.0
  0
LINE
  5
28D
100
AcDbEntity
100
AcDbLine
  8
color#000000fd
 62
256
370
-1
  6
BYLAYER
 10
5.1062045911108198
 20
2.7607394418848736
 30
0.0
 11
5.1171906275994923
 21
2.8014507029811009
 31
0.0
  0
LINE
  5
28E
100
AcDbEntity
100
AcDbLine
  8
color#000000fd
 62
256
370
-1
  6
BYLAYER
 10
5.1171906275994923
 20
2.8014507029811009
 30
0.0
 11
5.1263390496592853
 21
2.8426482835513727
 31
0.0
  0
LINE
  5
28F
100
AcDbEntity
100
AcDbLine
  8
color#000000fd
 62
256
370
-1
  6
BYLAYER
 10
5.1263390496592853
 20
2.8426482835513727
 30
0.0
 11
5.1337558923373097
 21
2.8842332564886064
 31
0.0
  0
LINE
  5
290
100
AcDbEntity
100
AcDbLine
  8
color#000000fd
 62
256
370
-1
  6
BYLAYER
 10
5.1337558923373097
 20
2.8842332564886064
 30
0.0
 11
5.1411347184326237
 21
2.940111512296836
 31
0.0
  0
LINE
  5
291
100
AcDbEntity
100
AcDbLine
  8
color#000000fd
 62
256
370
-1
  6
BYLAYER
 10
5.1411347184326237
 20
2.940111512296836
 30
0.0
 11
5.145875030266903
 21
2.9962681013502785
 31
0.0
  0
LINE
  5
292
100
AcDbEntity
100
AcDbLine
  8
color#000000fd
 62
256
370
-1
  6
BYLAYER
 10
5.145875030266903
 20
2.9962681013502785
 30
0.0
 11
5.1485880951342899
 21
3.080511904395149
 31
0.0
  0
LINE
  5
293
100
AcDbEntity
100
AcDbLine
  8
color#000000fd
 62
256
370
-1
  6
BYLAYER
 10
5.1485880951342899
 20
3.080511904395149
 30
0.0
 11
5.6614960579536326
 21
2.5641346980253763
 31
0.0
  0
LINE
  5
294
100
AcDbEntity
100
AcDbLine
  8
color#000000fd
 62
256
370
-1
  6
BYLAYER
 10
5.6614960579536326
 20
2.5641346980253763
 30
0.0
 11
5.6858673638145349
 21
2.5367897089388256
 31
0.0
  0
LINE
  5
295
100
AcDbEntity
100
AcDbLine
  8
color#000000fd
 62
256
370
-1
  6
BYLAYER
 10
5.6858673638145349
 20
2.5367897089388256
 30
0.0
 11
5.7086429711575892
 21
2.5083002665498362
 31
0.0
  0
LINE
  5
296
100
AcDbEntity
100
AcDbLine
  8
color#000000fd
 62
256
370
-1
  6
BYLAYER
 10
5.7086429711575892
 20
2.5083002665498362
 30
0.0
 11
5.7298207983657976
 21
2.4787445668317125
 31
0.0
  0
LINE
  5
297
100
AcDbEntity
100
AcDbLine
  8
color#000000fd
 62
256
370
-1
  6
BYLAYER
 10
5.7298207983657976
 20
2.4787445668317125
 30
0.0
 11
5.7493987638221578
 21
2.4482008057577662
 31
0.0
  0
LINE
  5
298
100
AcDbEntity
100
AcDbLine
  8
color#000000fd
 62
256
370
-1
  6
BYLAYER
 10
5.7493987638221578
 20
2.4482008057577662
 30
0.0
 11
5.76737478590967
 21
2.4167471793013036
 31
0.0
  0
LINE
  5
299
100
AcDbEntity
100
AcDbLine
  8
color#000000fd
 62
256
370
-1
  6
BYLAYER
 10
5.76737478590967
 20
2.4167471793013036
 30
0.0
 11
5.7837467830113303
 21
2.3844618834356388
 31
0.0
  0
LINE
  5
29A
100
AcDbEntity
100
AcDbLine
  8
color#000000fd
 62
256
370
-1
  6
BYLAYER
 10
5.7837467830113303
 20
2.3844618834356388
 30
0.0
 11
5.7985126735101398
 21
2.3514231141340778
 31
0.0
  0
LINE
  5
29B
100
AcDbEntity
100
AcDbLine
  8
color#000000fd
 62
256
370
-1
  6
BYLAYER
 10
5.7985126735101398
 20
2.3514231141340778
 30
0.0
 11
5.8116703757891006
 21
2.3177090673699303
 31
0.0
  0
LINE
  5
29C
100
AcDbEntity
100
AcDbLine
  8
color#000000fd
 62
256
370
-1
  6
BYLAYER
 10
5.8116703757891006
 20
2.3177090673699303
 30
0.0
 11
5.8232178082312078
 21
2.2833979391165045
 31
0.0
  0
LINE
  5
29D
100
AcDbEntity
100
AcDbLine
  8
color#000000fd
 62
256
370
-1
  6
BYLAYER
 10
5.8232178082312078
 20
2.2833979391165045
 30
0.0
 11
5.8331528892194591
 21
2.2485679253471136
 31
0.0
  0
LINE
  5
29E
100
AcDbEntity
100
AcDbLine
  8
color#000000fd
 62
256
370
-1
  6
BYLAYER
 10
5.8331528892194591
 20
2.2485679253471136
 30
0.0
 11
5.8414735371368591
 21
2.2132972220350617
 31
0.0
  0
LINE
  5
29F
100
AcDbEntity
100
AcDbLine
  8
color#000000fd
 62
256
370
-1
  6
BYLAYER
 10
5.8414735371368591
 20
2.2132972220350617
 30
0.0
 11
5.848177670366403
 21
2.1776640251536614
 31
0.0
  0
LINE
  5
2A0
100
AcDbEntity
100
AcDbLine
  8
color#000000fd
 62
256
370
-1
  6
BYLAYER
 10
5.848177670366403
 20
2.1776640251536614
 30
0.0
 11
5.8532632072910893
 21
2.1417465306762216
 31
0.0
  0
LINE
  5
2A1
100
AcDbEntity
100
AcDbLine
  8
color#000000fd
 62
256
370
-1
  6
BYLAYER
 10
5.8532632072910893
 20
2.1417465306762216
 30
0.0
 11
5.8567280662939201
 21
2.1056229345760502
 31
0.0
  0
LINE
  5
2A2
100
AcDbEntity
100
AcDbLine
  8
color#000000fd
 62
256
370
-1
  6
BYLAYER
 10
5.8567280662939201
 20
2.1056229345760502
 30
0.0
 11
5.8585701657578921
 21
2.0693714328264585
 31
0.0
  0
LINE
  5
2A3
100
AcDbEntity
100
AcDbLine
  8
color#000000fd
 62
256
370
-1
  6
BYLAYER
 10
5.8585701657578921
 20
2.0693714328264585
 30
0.0
 11
5.8587874240660058
 21
2.0330702214007537
 31
0.0
  0
LINE
  5
2A4
100
AcDbEntity
100
AcDbLine
  8
color#000000fd
 62
256
370
-1
  6
BYLAYER
 10
5.8587874240660058
 20
2.0330702214007537
 30
0.0
 11
5.8573777596012597
 21
1.9967974962722461
 31
0.0
  0
LINE
  5
2A5
100
AcDbEntity
100
AcDbLine
  8
color#000000fd
 62
256
370
-1
  6
BYLAYER
 10
5.8573777596012597
 20
1.9967974962722461
 30
0.0
 11
5.8543390907466533
 21
1.9606314534142442
 31
0.0
  0
LINE
  5
2A6
100
AcDbEntity
100
AcDbLine
  8
color#000000fd
 62
256
370
-1
  6
BYLAYER
 10
5.8543390907466533
 20
1.9606314534142442
 30
0.0
 11
5.849669335885185
 21
1.9246502888000583
 31
0.0
  0
LINE
  5
2A7
100
AcDbEntity
100
AcDbLine
  8
color#000000fd
 62
256
370
-1
  6
BYLAYER
 10
5.849669335885185
 20
1.9246502888000583
 30
0.0
 11
5.8433664133998544
 21
1.8889321984029976
 31
0.0
  0
LINE
  5
2A8
100
AcDbEntity
100
AcDbLine
  8
color#000000fd
 62
256
370
-1
  6
BYLAYER
 10
5.8433664133998544
 20
1.8889321984029976
 30
0.0
 11
5.8354282416736609
 21
1.8535553781963694
 31
0.0
  0
LINE
  5
2A9
100
AcDbEntity
100
AcDbLine
  8
color#000000fd
 62
256
370
-1
  6
BYLAYER
 10
5.8354282416736609
 20
1.8535553781963694
 30
0.0
 11
5.8258527390896022
 21
1.8185980241534863
 31
0.0
  0
LINE
  5
2AA
100
AcDbEntity
100
AcDbLine
  8
color#000000fd
 62
256
370
-1
  6
BYLAYER
 10
5.8258527390896022
 20
1.8185980241534863
 30
0.0
 11
5.8146378240306795
 21
1.7841383322476534
 31
0.0
  0
LINE
  5
2AB
100
AcDbEntity
100
AcDbLine
  8
color#000000fd
 62
256
370
-1
  6
BYLAYER
 10
5.8146378240306795
 20
1.7841383322476534
 30
0.0
 11
5.8017814148798914
 21
1.7502544984521846
 31
0.0
  0
LINE
  5
2AC
100
AcDbEntity
100
AcDbLine
  8
color#000000fd
 62
256
370
-1
  6
BYLAYER
 10
5.8017814148798914
 20
1.7502544984521846
 30
0.0
 11
5.7872814300202347
 21
1.7170247187403862
 31
0.0
  0
LINE
  5
2AD
100
AcDbEntity
100
AcDbLine
  8
color#000000fd
 62
256
370
-1
  6
BYLAYER
 10
5.7872814300202347
 20
1.7170247187403862
 30
0.0
 11
5.7711357878347123
 21
1.6845271890855666
 31
0.0
  0
LINE
  5
2AE
100
AcDbEntity
100
AcDbLine
  8
color#000000fd
 62
256
370
-1
  6
BYLAYER
 10
5.7711357878347123
 20
1.6845271890855666
 30
0.0
 11
5.7533424067063184
 21
1.6528401054610384
 31
0.0
  0
LINE
  5
2AF
100
AcDbEntity
100
AcDbLine
  8
color#000000fd
 62
256
370
-1
  6
BYLAYER
 10
5.7533424067063184
 20
1.6528401054610384
 30
0.0
 11
5.7338992050180568
 21
1.6220416638401085
 31
0.0
  0
LINE
  5
2B0
100
AcDbEntity
100
AcDbLine
  8
color#000000fd
 62
256
370
-1
  6
BYLAYER
 10
5.7338992050180568
 20
1.6220416638401085
 30
0.0
 11
5.7128041011529236
 21
1.5922100601960862
 31
0.0
  0
LINE
  5
2B1
100
AcDbEntity
100
AcDbLine
  8
color#000000fd
 62
256
370
-1
  6
BYLAYER
 10
5.7128041011529236
 20
1.5922100601960862
 30
0.0
 11
5.6864022065319242
 21
1.5558958965412879
 31
0.0
  0
LINE
  5
2B2
100
AcDbEntity
100
AcDbLine
  8
color#000000fd
 62
256
370
-1
  6
BYLAYER
 10
5.6864022065319242
 20
1.5558958965412879
 30
0.0
 11
5.6579058127100428
 21
1.5216277499711208
 31
0.0
  0
LINE
  5
2B3
100
AcDbEntity
100
AcDbLine
  8
color#000000fd
 62
256
370
-1
  6
BYLAYER
 10
5.6579058127100428
 20
1.5216277499711208
 30
0.0
 11
5.6274479612383486
 21
1.4894258764302353
 31
0.0
  0
LINE
  5
2B4
100
AcDbEntity
100
AcDbLine
  8
color#000000fd
 62
256
370
-1
  6
BYLAYER
 10
5.6274479612383486
 20
1.4894258764302353
 30
0.0
 11
5.595161693667893
 21
1.4593105318632951
 31
0.0
  0
LINE
  5
2B5
100
AcDbEntity
100
AcDbLine
  8
color#000000fd
 62
256
370
-1
  6
BYLAYER
 10
5.595161693667893
 20
1.4593105318632951
 30
0.0
 11
5.561180051549738
 21
1.4313019722149487
 31
0.0
  0
LINE
  5
2B6
100
AcDbEntity
100
AcDbLine
  8
color#000000fd
 62
256
370
-1
  6
BYLAYER
 10
5.561180051549738
 20
1.4313019722149487
 30
0.0
 11
5.5256360764349441
 21
1.4054204534298596
 31
0.0
  0
LINE
  5
2B7
100
AcDbEntity
100
AcDbLine
  8
color#000000fd
 62
256
370
-1
  6
BYLAYER
 10
5.5256360764349441
 20
1.4054204534298596
 30
0.0
 11
5.488662809874568
 21
1.3816862314526861
 31
0.0
  0
LINE
  5
2B8
100
AcDbEntity
100
AcDbLine
  8
color#000000fd
 62
256
370
-1
  6
BYLAYER
 10
5.488662809874568
 20
1.3816862314526861
 30
0.0
 11
5.4503932934196726
 21
1.3601195622280784
 31
0.0
  0
LINE
  5
2B9
100
AcDbEntity
100
AcDbLine
  8
color#000000fd
 62
256
370
-1
  6
BYLAYER
 10
5.4503932934196726
 20
1.3601195622280784
 30
0.0
 11
5.4109605686213138
 21
1.3407407017006976
 31
0.0
  0
LINE
  5
2BA
100
AcDbEntity
100
AcDbLine
  8
color#000000fd
 62
256
370
-1
  6
BYLAYER
 10
5.4109605686213138
 20
1.3407407017006976
 30
0.0
 11
5.3704976770305493
 21
1.3235699058152026
 31
0.0
  0
LINE
  5
2BB
100
AcDbEntity
100
AcDbLine
  8
color#000000fd
 62
256
370
-1
  6
BYLAYER
 10
5.3704976770305493
 20
1.3235699058152026
 30
0.0
 11
5.3291376601984419
 21
1.3086274305162486
 31
0.0
  0
LINE
  5
2BC
100
AcDbEntity
100
AcDbLine
  8
color#000000fd
 62
256
370
-1
  6
BYLAYER
 10
5.3291376601984419
 20
1.3086274305162486
 30
0.0
 11
5.2870135596760512
 21
1.295933531748491
 31
0.0
  0
LINE
  5
2BD
100
AcDbEntity
100
AcDbLine
  8
color#000000fd
 62
256
370
-1
  6
BYLAYER
 10
5.2870135596760512
 20
1.295933531748491
 30
0.0
 11
5.2442584170144313
 21
1.2855084654565903
 31
0.0
  0
LINE
  5
2BE
100
AcDbEntity
100
AcDbLine
  8
color#000000fd
 62
256
370
-1
  6
BYLAYER
 10
5.2442584170144313
 20
1.2855084654565903
 30
0.0
 11
5.2010052737646468
 21
1.2773724875852008
 31
0.0
  0
LINE
  5
2BF
100
AcDbEntity
100
AcDbLine
  8
color#000000fd
 62
256
370
-1
  6
BYLAYER
 10
5.2010052737646468
 20
1.2773724875852008
 30
0.0
 11
5.1573871714777546
 21
1.2715458540789797
 31
0.0
  0
LINE
  5
2C0
100
AcDbEntity
100
AcDbLine
  8
color#000000fd
 62
256
370
-1
  6
BYLAYER
 10
5.1573871714777546
 20
1.2715458540789797
 30
0.0
 11
5.1135371517048132
 21
1.268048820882586
 31
0.0
  0
LINE
  5
2C1
100
AcDbEntity
100
AcDbLine
  8
color#000000fd
 62
256
370
-1
  6
BYLAYER
 10
5.1135371517048132
 20
1.268048820882586
 30
0.0
 11
5.0695882559968837
 21
1.2669016439406744
 31
0.0
  0
LINE
  5
2C2
100
AcDbEntity
100
AcDbLine
  8
color#000000fd
 62
256
370
-1
  6
BYLAYER
 10
5.0695882559968837
 20
1.2669016439406744
 30
0.0
 11
5.0256735259050238
 21
1.2681245791979039
 31
0.0
  0
LINE
  5
2C3
100
AcDbEntity
100
AcDbLine
  8
color#000000fd
 62
256
370
-1
  6
BYLAYER
 10
5.0256735259050238
 20
1.2681245791979039
 30
0.0
 11
4.9819260029802939
 21
1.2717378825989296
 31
0.0
  0
LINE
  5
2C4
100
AcDbEntity
100
AcDbLine
  8
color#000000fd
 62
256
370
-1
  6
BYLAYER
 10
4.9819260029802939
 20
1.2717378825989296
 30
0.0
 11
4.9384787287737515
 21
1.2777618100884101
 31
0.0
  0
LINE
  5
2C5
100
AcDbEntity
100
AcDbLine
  8
color#000000fd
 62
256
370
-1
  6
BYLAYER
 10
4.9384787287737515
 20
1.2777618100884101
 30
0.0
 11
4.895464744836457
 21
1.2862166176110013
 31
0.0
  0
LINE
  5
2C6
100
AcDbEntity
100
AcDbLine
  8
color#000000fd
 62
256
370
-1
  6
BYLAYER
 10
4.895464744836457
 20
1.2862166176110013
 30
0.0
 11
4.8530170927194707
 21
1.2971225611113613
 31
0.0
  0
LINE
  5
2C7
100
AcDbEntity
100
AcDbLine
  8
color#000000fd
 62
256
370
-1
  6
BYLAYER
 10
4.8530170927194707
 20
1.2971225611113613
 30
0.0
 11
4.8112688139738493
 21
1.3104998965341474
 31
0.0
  0
LINE
  5
2C8
100
AcDbEntity
100
AcDbLine
  8
color#000000fd
 62
256
370
-1
  6
BYLAYER
 10
4.8112688139738493
 20
1.3104998965341474
 30
0.0
 11
4.7703529501506523
 21
1.3263688798240152
 31
0.0
  0
LINE
  5
2C9
100
AcDbEntity
100
AcDbLine
  8
color#000000fd
 62
256
370
-1
  6
BYLAYER
 10
4.7703529501506523
 20
1.3263688798240152
 30
0.0
 11
4.7304025428009409
 21
1.3447497669256221
 31
0.0
  0
LINE
  5
2CA
100
AcDbEntity
100
AcDbLine
  8
color#000000fd
 62
256
370
-1
  6
BYLAYER
 10
4.7304025428009409
 20
1.3447497669256221
 30
0.0
 11
4.6915506334757726
 21
1.3656628137836262
 31
0.0
  0
LINE
  5
2CB
100
AcDbEntity
100
AcDbLine
  8
color#000000fd
 62
256
370
-1
  6
BYLAYER
 10
4.6915506334757726
 20
1.3656628137836262
 30
0.0
 11
4.6539302637262061
 21
1.389128276342684
 31
0.0
  0
LINE
  5
2CC
100
AcDbEntity
100
AcDbLine
  8
color#000000fd
 62
256
370
-1
  6
BYLAYER
 10
4.6539302637262061
 20
1.389128276342684
 30
0.0
 11
4.6176744751033034
 21
1.415166410547452
 31
0.0
  0
LINE
  5
2CD
100
AcDbEntity
100
AcDbLine
  8
color#000000fd
 62
256
370
-1
  6
BYLAYER
 10
4.6176744751033034
 20
1.415166410547452
 30
0.0
 11
4.5829163091581204
 21
1.4437974723425882
 31
0.0
  0
LINE
  5
2CE
100
AcDbEntity
100
AcDbLine
  8
color#000000fd
 62
256
370
-1
  6
BYLAYER
 10
4.5829163091581204
 20
1.4437974723425882
 30
0.0
 11
3.810682892481966
 21
2.2139078938385381
 31
0.0
  0
LINE
  5
2CF
100
AcDbEntity
100
AcDbLine
  8
color#000000fd
 62
256
370
-1
  6
BYLAYER
 10
5.8618372613041867
 20
1.5022811284460076
 30
0.0
 11
6.2722583364002285
 21
1.9106189322252878
 31
0.0
  0
LINE
  5
2D0
100
AcDbEntity
100
AcDbLine
  8
color#000000fd
 62
256
370
-1
  6
BYLAYER
 10
6.2722583364002285
 20
1.9106189322252878
 30
0.0
 11
6.3896849920236143
 21
1.7958230131224187
 31
0.0
  0
LINE
  5
2D1
100
AcDbEntity
100
AcDbLine
  8
color#000000fd
 62
256
370
-1
  6
BYLAYER
 10
6.3896849920236143
 20
1.7958230131224187
 30
0.0
 11
6.4183089931848141
 21
1.7659963958409657
 31
0.0
  0
LINE
  5
2D2
100
AcDbEntity
100
AcDbLine
  8
color#000000fd
 62
256
370
-1
  6
BYLAYER
 10
6.4183089931848141
 20
1.7659963958409657
 30
0.0
 11
6.4323136816554678
 21
1.7508309983847434
 31
0.0
  0
LINE
  5
2D3
100
AcDbEntity
100
AcDbLine
  8
color#000000fd
 62
256
370
-1
  6
BYLAYER
 10
6.4323136816554678
 20
1.7508309983847434
 30
0.0
 11
6.4460656377623389
 21
1.7354774342782748
 31
0.0
  0
LINE
  5
2D4
100
AcDbEntity
100
AcDbLine
  8
color#000000fd
 62
256
370
-1
  6
BYLAYER
 10
6.4460656377623389
 20
1.7354774342782748
 30
0.0
 11
6.4595289682875592
 21
1.7199206229416306
 31
0.0
  0
LINE
  5
2D5
100
AcDbEntity
100
AcDbLine
  8
color#000000fd
 62
256
370
-1
  6
BYLAYER
 10
6.4595289682875592
 20
1.7199206229416306
 30
0.0
 11
6.4726677800132721
 21
1.7041454837948748
 31
0.0
  0
LINE
  5
2D6
100
AcDbEntity
100
AcDbLine
  8
color#000000fd
 62
256
370
-1
  6
BYLAYER
 10
6.4726677800132721
 20
1.7041454837948748
 30
0.0
 11
6.4854461797216096
 21
1.6881369362580732
 31
0.0
  0
LINE
  5
2D7
100
AcDbEntity
100
AcDbLine
  8
color#000000fd
 62
256
370
-1
  6
BYLAYER
 10
6.4854461797216096
 20
1.6881369362580732
 30
0.0
 11
6.497828274194708
 21
1.6718798997512931
 31
0.0
  0
LINE
  5
2D8
100
AcDbEntity
100
AcDbLine
  8
color#000000fd
 62
256
370
-1
  6
BYLAYER
 10
6.497828274194708
 20
1.6718798997512931
 30
0.0
 11
6.5097781702147053
 21
1.6553592936945993
 31
0.0
  0
LINE
  5
2D9
100
AcDbEntity
100
AcDbLine
  8
color#000000fd
 62
256
370
-1
  6
BYLAYER
 10
6.5097781702147053
 20
1.6553592936945993
 30
0.0
 11
6.5212599745637361
 21
1.6385600375080587
 31
0.0
  0
LINE
  5
2DA
100
AcDbEntity
100
AcDbLine
  8
color#000000fd
 62
256
370
-1
  6
BYLAYER
 10
6.5212599745637361
 20
1.6385600375080587
 30
0.0
 11
6.5322377940239376
 21
1.6214670506117359
 31
0.0
  0
LINE
  5
2DB
100
AcDbEntity
100
AcDbLine
  8
color#000000fd
 62
256
370
-1
  6
BYLAYER
 10
6.5322377940239376
 20
1.6214670506117359
 30
0.0
 11
6.5426757353774461
 21
1.6040652524256984
 31
0.0
  0
LINE
  5
2DC
100
AcDbEntity
100
AcDbLine
  8
color#000000fd
 62
256
370
-1
  6
BYLAYER
 10
6.5426757353774461
 20
1.6040652524256984
 30
0.0
 11
6.5525379054063979
 21
1.5863395623700112
 31
0.0
  0
LINE
  5
2DD
100
AcDbEntity
100
AcDbLine
  8
color#000000fd
 62
256
370
-1
  6
BYLAYER
 10
6.5525379054063979
 20
1.5863395623700112
 30
0.0
 11
6.5617884108929285
 21
1.5682748998647413
 31
0.0
  0
LINE
  5
2DE
100
AcDbEntity
100
AcDbLine
  8
color#000000fd
 62
256
370
-1
  6
BYLAYER
 10
6.5617884108929285
 20
1.5682748998647413
 30
0.0
 11
6.5703913586191733
 21
1.5498561843299541
 31
0.0
  0
LINE
  5
2DF
100
AcDbEntity
100
AcDbLine
  8
color#000000fd
 62
256
370
-1
  6
BYLAYER
 10
6.5703913586191733
 20
1.5498561843299541
 30
0.0
 11
6.5783108553672713
 21
1.5310683351857159
 31
0.0
  0
LINE
  5
2E0
100
AcDbEntity
100
AcDbLine
  8
color#000000fd
 62
256
370
-1
  6
BYLAYER
 10
6.5783108553672713
 20
1.5310683351857159
 30
0.0
 11
6.5855110079193553
 21
1.5118962718520939
 31
0.0
  0
LINE
  5
2E1
100
AcDbEntity
100
AcDbLine
  8
color#000000fd
 62
256
370
-1
  6
BYLAYER
 10
6.5855110079193553
 20
1.5118962718520939
 30
0.0
 11
6.5919559230575651
 21
1.4923249137491501
 31
0.0
  0
LINE
  5
2E2
100
AcDbEntity
100
AcDbLine
  8
color#000000fd
 62
256
370
-1
  6
BYLAYER
 10
6.5919559230575651
 20
1.4923249137491501
 30
0.0
 11
6.5976097075640361
 21
1.4723391802969559
 31
0.0
  0
LINE
  5
2E3
100
AcDbEntity
100
AcDbLine
  8
color#000000fd
 62
256
370
-1
  6
BYLAYER
 10
6.5976097075640361
 20
1.4723391802969559
 30
0.0
 11
6.602436468220902
 21
1.4519239909155734
 31
0.0
  0
LINE
  5
2E4
100
AcDbEntity
100
AcDbLine
  8
color#000000fd
 62
256
370
-1
  6
BYLAYER
 10
6.602436468220902
 20
1.4519239909155734
 30
0.0
 11
6.606400311810301
 21
1.4310642650250713
 31
0.0
  0
LINE
  5
2E5
100
AcDbEntity
100
AcDbLine
  8
color#000000fd
 62
256
370
-1
  6
BYLAYER
 10
6.606400311810301
 20
1.4310642650250713
 30
0.0
 11
6.7878166177152401
 21
0.4716708014883714
 31
0.0
  0
LINE
  5
2E6
100
AcDbEntity
100
AcDbLine
  8
color#000000fd
 62
256
370
-1
  6
BYLAYER
 10
6.7878166177152401
 20
0.4716708014883714
 30
0.0
 11
6.789463602804414
 21
0.4639903980346382
 31
0.0
  0
LINE
  5
2E7
100
AcDbEntity
100
AcDbLine
  8
color#000000fd
 62
256
370
-1
  6
BYLAYER
 10
6.789463602804414
 20
0.4639903980346382
 30
0.0
 11
6.7904335549443804
 21
0.4563711485983046
 31
0.0
  0
LINE
  5
2E8
100
AcDbEntity
100
AcDbLine
  8
color#000000fd
 62
256
370
-1
  6
BYLAYER
 10
6.7904335549443804
 20
0.4563711485983046
 30
0.0
 11
6.7907525908241659
 21
0.4488346713729751
 31
0.0
  0
LINE
  5
2E9
100
AcDbEntity
100
AcDbLine
  8
color#000000fd
 62
256
370
-1
  6
BYLAYER
 10
6.7907525908241659
 20
0.4488346713729751
 30
0.0
 11
6.7904468271327865
 21
0.4414025845522613
 31
0.0
  0
LINE
  5
2EA
100
AcDbEntity
100
AcDbLine
  8
color#000000fd
 62
256
370
-1
  6
BYLAYER
 10
6.7904468271327865
 20
0.4414025845522613
 30
0.0
 11
6.7895423805592632
 21
0.4340965063297652
 31
0.0
  0
LINE
  5
2EB
100
AcDbEntity
100
AcDbLine
  8
color#000000fd
 62
256
370
-1
  6
BYLAYER
 10
6.7895423805592632
 20
0.4340965063297652
 30
0.0
 11
6.7880653677926128
 21
0.426938054899099
 31
0.0
  0
LINE
  5
2EC
100
AcDbEntity
100
AcDbLine
  8
color#000000fd
 62
256
370
-1
  6
BYLAYER
 10
6.7880653677926128
 20
0.426938054899099
 30
0.0
 11
6.7860419055218548
 21
0.4199488484538697
 31
0.0
  0
LINE
  5
2ED
100
AcDbEntity
100
AcDbLine
  8
color#000000fd
 62
256
370
-1
  6
BYLAYER
 10
6.7860419055218548
 20
0.4199488484538697
 30
0.0
 11
6.7834981104360121
 21
0.4131505051876808
 31
0.0
  0
LINE
  5
2EE
100
AcDbEntity
100
AcDbLine
  8
color#000000fd
 62
256
370
-1
  6
BYLAYER
 10
6.7834981104360121
 20
0.4131505051876808
 30
0.0
 11
6.7804600992241024
 21
0.4065646432941448
 31
0.0
  0
LINE
  5
2EF
100
AcDbEntity
100
AcDbLine
  8
color#000000fd
 62
256
370
-1
  6
BYLAYER
 10
6.7804600992241024
 20
0.4065646432941448
 30
0.0
 11
6.7769539885751406
 21
0.4002128809668698
 31
0.0
  0
LINE
  5
2F0
100
AcDbEntity
100
AcDbLine
  8
color#000000fd
 62
256
370
-1
  6
BYLAYER
 10
6.7769539885751406
 20
0.4002128809668698
 30
0.0
 11
6.7730058951781507
 21
0.3941168363994613
 31
0.0
  0
LINE
  5
2F1
100
AcDbEntity
100
AcDbLine
  8
color#000000fd
 62
256
370
-1
  6
BYLAYER
 10
6.7730058951781507
 20
0.3941168363994613
 30
0.0
 11
6.7686419357221537
 21
0.3882981277855227
 31
0.0
  0
LINE
  5
2F2
100
AcDbEntity
100
AcDbLine
  8
color#000000fd
 62
256
370
-1
  6
BYLAYER
 10
6.7686419357221537
 20
0.3882981277855227
 30
0.0
 11
6.763888226896162
 21
0.382778373318672
 31
0.0
  0
LINE
  5
2F3
100
AcDbEntity
100
AcDbLine
  8
color#000000fd
 62
256
370
-1
  6
BYLAYER
 10
6.763888226896162
 20
0.382778373318672
 30
0.0
 11
6.7587708853892012
 21
0.3775791911925082
 31
0.0
  0
LINE
  5
2F4
100
AcDbEntity
100
AcDbLine
  8
color#000000fd
 62
256
370
-1
  6
BYLAYER
 10
6.7587708853892012
 20
0.3775791911925082
 30
0.0
 11
6.7533160278902882
 21
0.3727221996006425
 31
0.0
  0
LINE
  5
2F5
100
AcDbEntity
100
AcDbLine
  8
color#000000fd
 62
256
370
-1
  6
BYLAYER
 10
6.7533160278902882
 20
0.3727221996006425
 30
0.0
 11
6.7475497710884422
 21
0.3682290167366812
 31
0.0
  0
LINE
  5
2F6
100
AcDbEntity
100
AcDbLine
  8
color#000000fd
 62
256
370
-1
  6
BYLAYER
 10
6.7475497710884422
 20
0.3682290167366812
 30
0.0
 11
6.7414982316726828
 21
0.3641212607942335
 31
0.0
  0
LINE
  5
2F7
100
AcDbEntity
100
AcDbLine
  8
color#000000fd
 62
256
370
-1
  6
BYLAYER
 10
6.7414982316726828
 20
0.3641212607942335
 30
0.0
 11
6.7351875263320302
 21
0.3604205499669051
 31
0.0
  0
LINE
  5
2F8
100
AcDbEntity
100
AcDbLine
  8
color#000000fd
 62
256
370
-1
  6
BYLAYER
 10
6.7351875263320302
 20
0.3604205499669051
 30
0.0
 11
6.7286437717555039
 21
0.3571485024483047
 31
0.0
  0
LINE
  5
2F9
100
AcDbEntity
100
AcDbLine
  8
color#000000fd
 62
256
370
-1
  6
BYLAYER
 10
6.7286437717555039
 20
0.3571485024483047
 30
0.0
 11
6.7218930846321205
 21
0.3543267364320413
 31
0.0
  0
LINE
  5
2FA
100
AcDbEntity
100
AcDbLine
  8
color#000000fd
 62
256
370
-1
  6
BYLAYER
 10
6.7218930846321205
 20
0.3543267364320413
 30
0.0
 11
6.7149615816509023
 21
0.3519768701117193
 31
0.0
  0
LINE
  5
2FB
100
AcDbEntity
100
AcDbLine
  8
color#000000fd
 62
256
370
-1
  6
BYLAYER
 10
6.7149615816509023
 20
0.3519768701117193
 30
0.0
 11
6.7078753795008659
 21
0.3501205216809495
 31
0.0
  0
LINE
  5
2FC
100
AcDbEntity
100
AcDbLine
  8
color#000000fd
 62
256
370
-1
  6
BYLAYER
 10
6.7078753795008659
 20
0.3501205216809495
 30
0.0
 11
6.7006605948710334
 21
0.348779309333338
 31
0.0
  0
LINE
  5
2FD
100
AcDbEntity
100
AcDbLine
  8
color#000000fd
 62
256
370
-1
  6
BYLAYER
 10
6.7006605948710334
 20
0.348779309333338
 30
0.0
 11
6.6933433444504224
 21
0.3479748512624938
 31
0.0
  0
LINE
  5
2FE
100
AcDbEntity
100
AcDbLine
  8
color#000000fd
 62
256
370
-1
  6
BYLAYER
 10
6.6933433444504224
 20
0.3479748512624938
 30
0.0
 11
6.6859497449280516
 21
0.3477287656620231
 31
0.0
  0
LINE
  5
2FF
100
AcDbEntity
100
AcDbLine
  8
color#000000fd
 62
256
370
-1
  6
BYLAYER
 10
6.6859497449280516
 20
0.3477287656620231
 30
0.0
 11
6.6785059129929429
 21
0.3480626707255333
 31
0.0
  0
LINE
  5
300
100
AcDbEntity
100
AcDbLine
  8
color#000000fd
 62
256
370
-1
  6
BYLAYER
 10
6.6785059129929429
 20
0.3480626707255333
 30
0.0
 11
6.6710379653341132
 21
0.3489981846466329
 31
0.0
  0
LINE
  5
301
100
AcDbEntity
100
AcDbLine
  8
color#000000fd
 62
256
370
-1
  6
BYLAYER
 10
6.6710379653341132
 20
0.3489981846466329
 30
0.0
 11
6.6635720186405827
 21
0.3505569256189294
 31
0.0
  0
LINE
  5
302
100
AcDbEntity
100
AcDbLine
  8
color#000000fd
 62
256
370
-1
  6
BYLAYER
 10
6.6635720186405827
 20
0.3505569256189294
 30
0.0
 11
6.6561341896013708
 21
0.3527605118360321
 31
0.0
  0
LINE
  5
303
100
AcDbEntity
100
AcDbLine
  8
color#000000fd
 62
256
370
-1
  6
BYLAYER
 10
6.6561341896013708
 20
0.3527605118360321
 30
0.0
 11
6.4070181964500694
 21
0.4008676404558816
 31
0.0
  0
LINE
  5
304
100
AcDbEntity
100
AcDbLine
  8
color#000000fd
 62
256
370
-1
  6
BYLAYER
 10
6.4070181964500694
 20
0.4008676404558816
 30
0.0
 11
5.9079347059921945
 21
0.4936560577442922
 31
0.0
  0
LINE
  5
305
100
AcDbEntity
100
AcDbLine
  8
color#000000fd
 62
256
370
-1
  6
BYLAYER
 10
5.9079347059921945
 20
0.4936560577442922
 30
0.0
 11
5.8016478149102655
 21
0.5162544294816492
 31
0.0
  0
LINE
  5
306
100
AcDbEntity
100
AcDbLine
  8
color#000000fd
 62
256
370
-1
  6
BYLAYER
 10
5.8016478149102655
 20
0.5162544294816492
 30
0.0
 11
5.7310445284375424
 21
0.5323661077448997
 31
0.0
  0
LINE
  5
307
100
AcDbEntity
100
AcDbLine
  8
color#000000fd
 62
256
370
-1
  6
BYLAYER
 10
5.7310445284375424
 20
0.5323661077448997
 30
0.0
 11
5.6606818891247457
 21
0.5494660749649785
 31
0.0
  0
LINE
  5
308
100
AcDbEntity
100
AcDbLine
  8
color#000000fd
 62
256
370
-1
  6
BYLAYER
 10
5.6606818891247457
 20
0.5494660749649785
 30
0.0
 11
5.6256007053036079
 21
0.5584272235247619
 31
0.0
  0
LINE
  5
309
100
AcDbEntity
100
AcDbLine
  8
color#000000fd
 62
256
370
-1
  6
BYLAYER
 10
5.6256007053036079
 20
0.5584272235247619
 30
0.0
 11
5.6086005916251001
 21
0.5642556144798429
 31
0.0
  0
LINE
  5
30A
100
AcDbEntity
100
AcDbLine
  8
color#000000fd
 62
256
370
-1
  6
BYLAYER
 10
5.6086005916251001
 20
0.5642556144798429
 30
0.0
 11
5.5919944311461594
 21
0.570698526249535
 31
0.0
  0
LINE
  5
30B
100
AcDbEntity
100
AcDbLine
  8
color#000000fd
 62
256
370
-1
  6
BYLAYER
 10
5.5919944311461594
 20
0.570698526249535
 30
0.0
 11
5.5757648017959003
 21
0.5777268883262371
 31
0.0
  0
LINE
  5
30C
100
AcDbEntity
100
AcDbLine
  8
color#000000fd
 62
256
370
-1
  6
BYLAYER
 10
5.5757648017959003
 20
0.5777268883262371
 30
0.0
 11
5.559894281503424
 21
0.5853116302023607
 31
0.0
  0
LINE
  5
30D
100
AcDbEntity
100
AcDbLine
  8
color#000000fd
 62
256
370
-1
  6
BYLAYER
 10
5.559894281503424
 20
0.5853116302023607
 30
0.0
 11
5.544365448197845
 21
0.5934236813703069
 31
0.0
  0
LINE
  5
30E
100
AcDbEntity
100
AcDbLine
  8
color#000000fd
 62
256
370
-1
  6
BYLAYER
 10
5.544365448197845
 20
0.5934236813703069
 30
0.0
 11
5.5291608798082654
 21
0.6020339713224843
 31
0.0
  0
LINE
  5
30F
100
AcDbEntity
100
AcDbLine
  8
color#000000fd
 62
256
370
-1
  6
BYLAYER
 10
5.5291608798082654
 20
0.6020339713224843
 30
0.0
 11
5.5142631542637943
 21
0.6111134295513041
 31
0.0
  0
LINE
  5
310
100
AcDbEntity
100
AcDbLine
  8
color#000000fd
 62
256
370
-1
  6
BYLAYER
 10
5.5142631542637943
 20
0.6111134295513041
 30
0.0
 11
5.4996548494935427
 21
0.6206329855491622
 31
0.0
  0
LINE
  5
311
100
AcDbEntity
100
AcDbLine
  8
color#000000fd
 62
256
370
-1
  6
BYLAYER
 10
5.4996548494935427
 20
0.6206329855491622
 30
0.0
 11
5.4853185434266152
 21
0.63056356880847
 31
0.0
  0
LINE
  5
312
100
AcDbEntity
100
AcDbLine
  8
color#000000fd
 62
256
370
-1
  6
BYLAYER
 10
5.4853185434266152
 20
0.63056356880847
 30
0.0
 11
5.4712368139921166
 21
0.6408761088216397
 31
0.0
  0
LINE
  5
313
100
AcDbEntity
100
AcDbLine
  8
color#000000fd
 62
256
370
-1
  6
BYLAYER
 10
5.4712368139921166
 20
0.6408761088216397
 30
0.0
 11
5.4573922391191605
 21
0.6515415350810679
 31
0.0
  0
LINE
  5
314
100
AcDbEntity
100
AcDbLine
  8
color#000000fd
 62
256
370
-1
  6
BYLAYER
 10
5.4573922391191605
 20
0.6515415350810679
 30
0.0
 11
5.4437673967368516
 21
0.6625307770791638
 31
0.0
  0
LINE
  5
315
100
AcDbEntity
100
AcDbLine
  8
color#000000fd
 62
256
370
-1
  6
BYLAYER
 10
5.4437673967368516
 20
0.6625307770791638
 30
0.0
 11
5.4303448647742965
 21
0.6738147643083363
 31
0.0
  0
LINE
  5
316
100
AcDbEntity
100
AcDbLine
  8
color#000000fd
 62
256
370
-1
  6
BYLAYER
 10
5.4303448647742965
 20
0.6738147643083363
 30
0.0
 11
5.4040370438248839
 21
0.6971506924295312
 31
0.0
  0
LINE
  5
317
100
AcDbEntity
100
AcDbLine
  8
color#000000fd
 62
256
370
-1
  6
BYLAYER
 10
5.4040370438248839
 20
0.6971506924295312
 30
0.0
 11
5.3656570887766195
 21
0.7336384111545379
 31
0.0
  0
LINE
  5
318
100
AcDbEntity
100
AcDbLine
  8
color#000000fd
 62
256
370
-1
  6
BYLAYER
 10
5.3656570887766195
 20
0.7336384111545379
 30
0.0
 11
5.2414371274998039
 21
0.8586760553111054
 31
0.0
  0
LINE
  5
319
100
AcDbEntity
100
AcDbLine
  8
color#000000fd
 62
256
370
-1
  6
BYLAYER
 10
5.2414371274998039
 20
0.8586760553111054
 30
0.0
 11
5.2288821606119722
 21
0.8707223772047167
 31
0.0
  0
LINE
  5
31A
100
AcDbEntity
100
AcDbLine
  8
color#000000fd
 62
256
370
-1
  6
BYLAYER
 10
5.2288821606119722
 20
0.8707223772047167
 30
0.0
 11
5.6396932084307849
 21
1.2801266782278802
 31
0.0
  0
LINE
  5
31B
100
AcDbEntity
100
AcDbLine
  8
color#000000fd
 62
256
370
-1
  6
BYLAYER
 10
5.6396932084307849
 20
1.2801266782278802
 30
0.0
 11
5.6547578479153371
 21
1.2619995169667722
 31
0.0
  0
LINE
  5
31C
100
AcDbEntity
100
AcDbLine
  8
color#000000fd
 62
256
370
-1
  6
BYLAYER
 10
5.6547578479153371
 20
1.2619995169667722
 30
0.0
 11
5.6706127355186089
 21
1.2470374541926732
 31
0.0
  0
LINE
  5
31D
100
AcDbEntity
100
AcDbLine
  8
color#000000fd
 62
256
370
-1
  6
BYLAYER
 10
5.6706127355186089
 20
1.2470374541926732
 30
0.0
 11
5.6871113000232043
 21
1.2350934762605503
 31
0.0
  0
LINE
  5
31E
100
AcDbEntity
100
AcDbLine
  8
color#000000fd
 62
256
370
-1
  6
BYLAYER
 10
5.6871113000232043
 20
1.2350934762605503
 30
0.0
 11
5.7041069702117211
 21
1.2260205695253801
 31
0.0
  0
LINE
  5
31F
100
AcDbEntity
100
AcDbLine
  8
color#000000fd
 62
256
370
-1
  6
BYLAYER
 10
5.7041069702117211
 20
1.2260205695253801
 30
0.0
 11
5.7214531748667596
 21
1.2196717203421288
 31
0.0
  0
LINE
  5
320
100
AcDbEntity
100
AcDbLine
  8
color#000000fd
 62
256
370
-1
  6
BYLAYER
 10
5.7214531748667596
 20
1.2196717203421288
 30
0.0
 11
5.7390033427709213
 21
1.2158999150657701
 31
0.0
  0
LINE
  5
321
100
AcDbEntity
100
AcDbLine
  8
color#000000fd
 62
256
370
-1
  6
BYLAYER
 10
5.7390033427709213
 20
1.2158999150657701
 30
0.0
 11
5.7566109027068011
 21
1.214558140051277
 31
0.0
  0
LINE
  5
322
100
AcDbEntity
100
AcDbLine
  8
color#000000fd
 62
256
370
-1
  6
BYLAYER
 10
5.7566109027068011
 20
1.214558140051277
 30
0.0
 11
5.7741292834570075
 21
1.2154993816536157
 31
0.0
  0
LINE
  5
323
100
AcDbEntity
100
AcDbLine
  8
color#000000fd
 62
256
370
-1
  6
BYLAYER
 10
5.7741292834570075
 20
1.2154993816536157
 30
0.0
 11
5.7914119138041347
 21
1.2185766262277613
 31
0.0
  0
LINE
  5
324
100
AcDbEntity
100
AcDbLine
  8
color#000000fd
 62
256
370
-1
  6
BYLAYER
 10
5.7914119138041347
 20
1.2185766262277613
 30
0.0
 11
5.8083122225307813
 21
1.2236428601286871
 31
0.0
  0
LINE
  5
325
100
AcDbEntity
100
AcDbLine
  8
color#000000fd
 62
256
370
-1
  6
BYLAYER
 10
5.8083122225307813
 20
1.2236428601286871
 30
0.0
 11
5.8246836384195513
 21
1.230551069711362
 31
0.0
  0
LINE
  5
326
100
AcDbEntity
100
AcDbLine
  8
color#000000fd
 62
256
370
-1
  6
BYLAYER
 10
5.8246836384195513
 20
1.230551069711362
 30
0.0
 11
5.8403795902530442
 21
1.2391542413307559
 31
0.0
  0
LINE
  5
327
100
AcDbEntity
100
AcDbLine
  8
color#000000fd
 62
256
370
-1
  6
BYLAYER
 10
5.8403795902530442
 20
1.2391542413307559
 30
0.0
 11
5.855253506813856
 21
1.2493053613418443
 31
0.0
  0
LINE
  5
328
100
AcDbEntity
100
AcDbLine
  8
color#000000fd
 62
256
370
-1
  6
BYLAYER
 10
5.855253506813856
 20
1.2493053613418443
 30
0.0
 11
5.8691588168845907
 21
1.260857416099594
 31
0.0
  0
LINE
  5
329
100
AcDbEntity
100
AcDbLine
  8
color#000000fd
 62
256
370
-1
  6
BYLAYER
 10
5.8691588168845907
 20
1.260857416099594
 30
0.0
 11
5.8819489492478461
 21
1.2736633919589795
 31
0.0
  0
LINE
  5
32A
100
AcDbEntity
100
AcDbLine
  8
color#000000fd
 62
256
370
-1
  6
BYLAYER
 10
5.8819489492478461
 20
1.2736633919589795
 30
0.0
 11
5.8934773326862242
 21
1.2875762752749713
 31
0.0
  0
LINE
  5
32B
100
AcDbEntity
100
AcDbLine
  8
color#000000fd
 62
256
370
-1
  6
BYLAYER
 10
5.8934773326862242
 20
1.2875762752749713
 30
0.0
 11
5.9035973959823247
 21
1.3024490524025414
 31
0.0
  0
LINE
  5
32C
100
AcDbEntity
100
AcDbLine
  8
color#000000fd
 62
256
370
-1
  6
BYLAYER
 10
5.9035973959823247
 20
1.3024490524025414
 30
0.0
 11
5.9121625679187453
 21
1.31813470969666
 31
0.0
  0
LINE
  5
32D
100
AcDbEntity
100
AcDbLine
  8
color#000000fd
 62
256
370
-1
  6
BYLAYER
 10
5.9121625679187453
 20
1.31813470969666
 30
0.0
 11
5.9190262772780882
 21
1.3344862335122987
 31
0.0
  0
LINE
  5
32E
100
AcDbEntity
100
AcDbLine
  8
color#000000fd
 62
256
370
-1
  6
BYLAYER
 10
5.9190262772780882
 20
1.3344862335122987
 30
0.0
 11
5.924041952842952
 21
1.3513566102044274
 31
0.0
  0
LINE
  5
32F
100
AcDbEntity
100
AcDbLine
  8
color#000000fd
 62
256
370
-1
  6
BYLAYER
 10
5.924041952842952
 20
1.3513566102044274
 30
0.0
 11
5.9270630233959372
 21
1.3685988261280215
 31
0.0
  0
LINE
  5
330
100
AcDbEntity
100
AcDbLine
  8
color#000000fd
 62
256
370
-1
  6
BYLAYER
 10
5.9270630233959372
 20
1.3685988261280215
 30
0.0
 11
5.9279429177196441
 21
1.3860658676380493
 31
0.0
  0
LINE
  5
331
100
AcDbEntity
100
AcDbLine
  8
color#000000fd
 62
256
370
-1
  6
BYLAYER
 10
5.9279429177196441
 20
1.3860658676380493
 30
0.0
 11
5.9265350645966715
 21
1.403610721089483
 31
0.0
  0
LINE
  5
332
100
AcDbEntity
100
AcDbLine
  8
color#000000fd
 62
256
370
-1
  6
BYLAYER
 10
5.9265350645966715
 20
1.403610721089483
 30
0.0
 11
5.9226928928096214
 21
1.4210863728372942
 31
0.0
  0
LINE
  5
333
100
AcDbEntity
100
AcDbLine
  8
color#000000fd
 62
256
370
-1
  6
BYLAYER
 10
5.9226928928096214
 20
1.4210863728372942
 30
0.0
 11
5.9162698311410917
 21
1.4383458092364545
 31
0.0
  0
LINE
  5
334
100
AcDbEntity
100
AcDbLine
  8
color#000000fd
 62
256
370
-1
  6
BYLAYER
 10
5.9162698311410917
 20
1.4383458092364545
 30
0.0
 11
5.9071193083736846
 21
1.455242016641934
 31
0.0
  0
LINE
  5
335
100
AcDbEntity
100
AcDbLine
  8
color#000000fd
 62
256
370
-1
  6
BYLAYER
 10
5.9071193083736846
 20
1.455242016641934
 30
0.0
 11
5.8950947532899969
 21
1.4716279814087048
 31
0.0
  0
LINE
  5
336
100
AcDbEntity
100
AcDbLine
  8
color#000000fd
 62
256
370
-1
  6
BYLAYER
 10
5.8950947532899969
 20
1.4716279814087048
 30
0.0
 11
5.8800495946726317
 21
1.4873566898917394
 31
0.0
  0
LINE
  5
337
100
AcDbEntity
100
AcDbLine
  8
color#000000fd
 62
256
370
-1
  6
BYLAYER
 10
5.8800495946726317
 20
1.4873566898917394
 30
0.0
 11
5.8618372613041867
 21
1.5022811284460076
 31
0.0
  0
ENDSEC
  0
SECTION
  2
OBJECTS
  0
DICTIONARY
  5
C
100
AcDbDictionary
280
0
281
1
  3
ACAD_GROUP
350
D
  3
ACAD_LAYOUT
350
1A
  3
ACAD_MLINESTYLE
350
17
  3
ACAD_PLOTSETTINGS
350
19
  3
ACAD_PLOTSTYLENAME
350
E
  3
AcDbVariableDictionary
350
338
  0
DICTIONARY
  5
D
100
AcDbDictionary
280
0
281
1
  0
ACDBDICTIONARYWDFLT
  5
E
100
AcDbDictionary
281
1
  3
Normal
350
F
100
AcDbDictionaryWithDefault
340
F
  0
ACDBPLACEHOLDER
  5
F
  0
DICTIONARY
  5
17
100
AcDbDictionary
280
0
281
1
  3
Standard
350
18
  0
MLINESTYLE
  5
18
100
AcDbMlineStyle
  2
STANDARD
 70
0
  3

 62
256
 51
90.0
 52
90.0
 71
2
 49
0.5
 62
256
  6
BYLAYER
 49
-0.5
 62
256
  6
BYLAYER
  0
DICTIONARY
  5
19
100
AcDbDictionary
280
0
281
1
  0
DICTIONARY
  5
1A
100
AcDbDictionary
281
1
  3
Layout1
350
1E
  3
Layout2
350
26
  3
Model
350
22
  0
LAYOUT
  5
1E
100
AcDbPlotSettings
  1

  2
C:\Program Files\AutoCAD 2002\plotters\DWF ePlot (optimized for plotting).pc3
  4

  6

 40
0.0
 41
0.0
 42
0.0
 43
0.0
 44
0.0
 45
0.0
 46
0.0
 47
0.0
 48
0.0
 49
0.0
140
0.0
141
0.0
142
1.0
143
1.0
 70
688
 72
0
 73
0
 74
5
  7

 75
16
147
1.0
148
0.0
149
0.0
100
AcDbLayout
  1
Layout1
 70
1
 71
1
 10
0.0
 20
0.0
 11
420.0
 21
297.0
 12
0.0
 22
0.0
 32
0.0
 14
100000000000000000000.0
 24
100000000000000000000.0
 34
100000000000000000000.0
 15
-100000000000000000000.0
 25
-100000000000000000000.0
 35
-100000000000000000000.0
146
0.0
 13
0.0
 23
0.0
 33
0.0
 16
1.0
 26
0.0
 36
0.0
 17
0.0
 27
1.0
 37
0.0
 76
0
330
1B
  0
LAYOUT
  5
22
100
AcDbPlotSettings
  1

  2
C:\Program Files\AutoCAD 2002\plotters\DWF ePlot (optimized for plotting).pc3
  4

  6

 40
0.0
 41
0.0
 42
0.0
 43
0.0
 44
0.0
 45
0.0
 46
0.0
 47
0.0
 48
0.0
 49
0.0
140
0.0
141
0.0
142
1.0
143
1.0
 70
1712
 72
0
 73
0
 74
0
  7

 75
0
147
1.0
148
0.0
149
0.0
100
AcDbLayout
  1
Model
 70
1
 71
0
 10
0.0
 20
0.0
 11
12.0
 21
9.0
 12
0.0
 22
0.0
 32
0.0
 14
0.0
 24
0.0
 34
0.0
 15
0.0
 25
0.0
 35
0.0
146
0.0
 13
0.0
 23
0.0
 33
0.0
 16
1.0
 26
0.0
 36
0.0
 17
0.0
 27
1.0
 37
0.0
 76
0
330
1F
  0
LAYOUT
  5
26
100
AcDbPlotSettings
  1

  2
C:\Program Files\AutoCAD 2002\plotters\DWF ePlot (optimized for plotting).pc3
  4

  6

 40
0.0
 41
0.0
 42
0.0
 43
0.0
 44
0.0
 45
0.0
 46
0.0
 47
0.0
 48
0.0
 49
0.0
140
0.0
141
0.0
142
1.0
143
1.0
 70
688
 72
0
 73
0
 74
5
  7

 75
16
147
1.0
148
0.0
149
0.0
100
AcDbLayout
  1
Layout2
 70
1
 71
2
 10
0.0
 20
0.0
 11
12.0
 21
9.0
 12
0.0
 22
0.0
 32
0.0
 14
0.0
 24
0.0
 34
0.0
 15
0.0
 25
0.0
 35
0.0
146
0.0
 13
0.0
 23
0.0
 33
0.0
 16
1.0
 26
0.0
 36
0.0
 17
0.0
 27
1.0
 37
0.0
 76
0
330
23
  0
DICTIONARY
  5
338
100
AcDbDictionary
281
1
  3
DIMASSOC
350
33A
  3
HIDETEXT
350
339
  0
DICTIONARYVAR
  5
339
100
DictionaryVariables
280
0
  1
2
  0
DICTIONARYVAR
  5
33A
100
DictionaryVariables
280
0
  1
1
  0
ENDSEC
  0
EOF
