999
dxflib 2.2.0.0
  0
SECTION
  2
HEADER
  9
$ACADVER
  1
AC1015
  9
$HANDSEED
  5
FFFF
  9
$INSUNITS
 70
4
  9
$DIMEXE
 40
1.25
  9
$TEXTSTYLE
  7
Standard
  9
$LIMMIN
 10
0.0
 20
0.0
  0
ENDSEC
  0
SECTION
  2
TABLES
  0
TABLE
  2
VPORT
  5
8
100
AcDbSymbolTable
 70
1
  0
VPORT
  5
30
100
AcDbSymbolTableRecord
100
AcDbViewportTableRecord
  2
*Active
 70
0
 10
0.0
 20
0.0
 11
1.0
 21
1.0
 12
286.30555555555549
 22
148.5
 13
0.0
 23
0.0
 14
10.0
 24
10.0
 15
10.0
 25
10.0
 16
0.0
 26
0.0
 36
1.0
 17
0.0
 27
0.0
 37
0.0
 40
297.0
 41
1.92798353909465
 42
50.0
 43
0.0
 44
0.0
 50
0.0
 51
0.0
 71
0
 72
100
 73
1
 74
3
 75
1
 76
1
 77
0
 78
0
281
0
 65
1
110
0.0
120
0.0
130
0.0
111
1.0
121
0.0
131
0.0
112
0.0
122
1.0
132
0.0
 79
0
146
0.0
  0
ENDTAB
  0
TABLE
  2
LTYPE
  5
5
100
AcDbSymbolTable
 70
25
  0
LTYPE
  5
14
100
AcDbSymbolTableRecord
100
AcDbLinetypeTableRecord
  2
BYBLOCK
 70
0
  3

 72
65
 73
0
 40
0.0
  0
LTYPE
  5
15
100
AcDbSymbolTableRecord
100
AcDbLinetypeTableRecord
  2
BYLAYER
 70
0
  3

 72
65
 73
0
 40
0.0
  0
LTYPE
  5
16
100
AcDbSymbolTableRecord
100
AcDbLinetypeTableRecord
  2
CONTINUOUS
 70
0
  3
Solid line
 72
65
 73
0
 40
0.0
  0
LTYPE
  5
31
100
AcDbSymbolTableRecord
100
AcDbLinetypeTableRecord
  2
ACAD_ISO02W100
 70
0
  3
ISO Dashed __ __ __ __ __ __ __ __ __ __ _
 72
65
 73
2
 40
15.0
 49
12.0
 74
0
 49
-3.0
 74
0
  0
LTYPE
  5
32
100
AcDbSymbolTableRecord
100
AcDbLinetypeTableRecord
  2
ACAD_ISO03W100
 70
0
  3
ISO Dashed with Distance __    __    __    _
 72
65
 73
2
 40
30.0
 49
12.0
 74
0
 49
-18.0
 74
0
  0
LTYPE
  5
33
100
AcDbSymbolTableRecord
100
AcDbLinetypeTableRecord
  2
ACAD_ISO04W100
 70
0
  3
ISO Long Dashed Dotted ____ . ____ . __
 72
65
 73
4
 40
30.0
 49
24.0
 74
0
 49
-3.0
 74
0
 49
0.0
 74
0
 49
-3.0
 74
0
  0
LTYPE
  5
34
100
AcDbSymbolTableRecord
100
AcDbLinetypeTableRecord
  2
ACAD_ISO05W100
 70
0
  3
ISO Long Dashed Double Dotted ____ .. __
 72
65
 73
6
 40
33.0
 49
24.0
 74
0
 49
-3.0
 74
0
 49
0.0
 74
0
 49
-3.0
 74
0
 49
0.0
 74
0
 49
-3.0
 74
0
  0
LTYPE
  5
35
100
AcDbSymbolTableRecord
100
AcDbLinetypeTableRecord
  2
BORDER
 70
0
  3
Border __ __ . __ __ . __ __ . __ __ . __ __ .
 72
65
 73
6
 40
44.450000000000003
 49
12.699999999999999
 74
0
 49
-6.3499999999999996
 74
0
 49
12.699999999999999
 74
0
 49
-6.3499999999999996
 74
0
 49
0.0
 74
0
 49
-6.3499999999999996
 74
0
  0
LTYPE
  5
36
100
AcDbSymbolTableRecord
100
AcDbLinetypeTableRecord
  2
BORDER2
 70
0
  3
Border (.5x) __.__.__.__.__.__.__.__.__.__.__.
 72
65
 73
6
 40
22.225000000000001
 49
6.3499999999999996
 74
0
 49
-3.1749999999999998
 74
0
 49
6.3499999999999996
 74
0
 49
-3.1749999999999998
 74
0
 49
0.0
 74
0
 49
-3.1749999999999998
 74
0
  0
LTYPE
  5
37
100
AcDbSymbolTableRecord
100
AcDbLinetypeTableRecord
  2
BORDERX2
 70
0
  3
Border (2x) ____  ____  .  ____  ____  .  ___
 72
65
 73
6
 40
88.900000000000006
 49
25.399999999999999
 74
0
 49
-12.699999999999999
 74
0
 49
25.399999999999999
 74
0
 49
-12.699999999999999
 74
0
 49
0.0
 74
0
 49
-12.699999999999999
 74
0
  0
LTYPE
  5
38
100
AcDbSymbolTableRecord
100
AcDbLinetypeTableRecord
  2
CENTER
 70
0
  3
Center ____ _ ____ _ ____ _ ____ _ ____ _ ____
 72
65
 73
4
 40
50.799999999999997
 49
31.75
 74
0
 49
-6.3499999999999996
 74
0
 49
6.3499999999999996
 74
0
 49
-6.3499999999999996
 74
0
  0
LTYPE
  5
39
100
AcDbSymbolTableRecord
100
AcDbLinetypeTableRecord
  2
CENTER2
 70
0
  3
Center (.5x) ___ _ ___ _ ___ _ ___ _ ___ _ ___
 72
65
 73
4
 40
28.574999999999999
 49
19.050000000000001
 74
0
 49
-3.1749999999999998
 74
0
 49
3.1749999999999998
 74
0
 49
-3.1749999999999998
 74
0
  0
LTYPE
  5
3A
100
AcDbSymbolTableRecord
100
AcDbLinetypeTableRecord
  2
CENTERX2
 70
0
  3
Center (2x) ________  __  ________  __  _____
 72
65
 73
4
 40
101.59999999999999
 49
63.5
 74
0
 49
-12.699999999999999
 74
0
 49
12.699999999999999
 74
0
 49
-12.699999999999999
 74
0
  0
LTYPE
  5
3B
100
AcDbSymbolTableRecord
100
AcDbLinetypeTableRecord
  2
DASHDOT
 70
0
  3
Dash dot __ . __ . __ . __ . __ . __ . __ . __
 72
65
 73
4
 40
25.399999999999999
 49
12.699999999999999
 74
0
 49
-6.3499999999999996
 74
0
 49
0.0
 74
0
 49
-6.3499999999999996
 74
0
  0
LTYPE
  5
3C
100
AcDbSymbolTableRecord
100
AcDbLinetypeTableRecord
  2
DASHDOT2
 70
0
  3
Dash dot (.5x) _._._._._._._._._._._._._._._.
 72
65
 73
4
 40
12.699999999999999
 49
6.3499999999999996
 74
0
 49
-3.1749999999999998
 74
0
 49
0.0
 74
0
 49
-3.1749999999999998
 74
0
  0
LTYPE
  5
3D
100
AcDbSymbolTableRecord
100
AcDbLinetypeTableRecord
  2
DASHDOTX2
 70
0
  3
Dash dot (2x) ____  .  ____  .  ____  .  ___
 72
65
 73
4
 40
50.799999999999997
 49
25.399999999999999
 74
0
 49
-12.699999999999999
 74
0
 49
0.0
 74
0
 49
-12.699999999999999
 74
0
  0
LTYPE
  5
3E
100
AcDbSymbolTableRecord
100
AcDbLinetypeTableRecord
  2
DASHED
 70
0
  3
Dashed __ __ __ __ __ __ __ __ __ __ __ __ __ _
 72
65
 73
2
 40
19.050000000000001
 49
12.699999999999999
 74
0
 49
-6.3499999999999996
 74
0
  0
LTYPE
  5
3F
100
AcDbSymbolTableRecord
100
AcDbLinetypeTableRecord
  2
DASHED2
 70
0
  3
Dashed (.5x) _ _ _ _ _ _ _ _ _ _ _ _ _ _ _ _ _
 72
65
 73
2
 40
9.5250000000000004
 49
6.3499999999999996
 74
0
 49
-3.1749999999999998
 74
0
  0
LTYPE
  5
40
100
AcDbSymbolTableRecord
100
AcDbLinetypeTableRecord
  2
DASHEDX2
 70
0
  3
Dashed (2x) ____  ____  ____  ____  ____  ___
 72
65
 73
2
 40
38.100000000000001
 49
25.399999999999999
 74
0
 49
-12.699999999999999
 74
0
  0
LTYPE
  5
41
100
AcDbSymbolTableRecord
100
AcDbLinetypeTableRecord
  2
DIVIDE
 70
0
  3
Divide ____ . . ____ . . ____ . . ____ . . ____
 72
65
 73
6
 40
31.75
 49
12.699999999999999
 74
0
 49
-6.3499999999999996
 74
0
 49
0.0
 74
0
 49
-6.3499999999999996
 74
0
 49
0.0
 74
0
 49
-6.3499999999999996
 74
0
  0
LTYPE
  5
42
100
AcDbSymbolTableRecord
100
AcDbLinetypeTableRecord
  2
DIVIDE2
 70
0
  3
Divide (.5x) __..__..__..__..__..__..__..__.._
 72
65
 73
6
 40
15.875
 49
6.3499999999999996
 74
0
 49
-3.1749999999999998
 74
0
 49
0.0
 74
0
 49
-3.1749999999999998
 74
0
 49
0.0
 74
0
 49
-3.1749999999999998
 74
0
  0
LTYPE
  5
43
100
AcDbSymbolTableRecord
100
AcDbLinetypeTableRecord
  2
DIVIDEX2
 70
0
  3
Divide (2x) ________  .  .  ________  .  .  _
 72
65
 73
6
 40
63.5
 49
25.399999999999999
 74
0
 49
-12.699999999999999
 74
0
 49
0.0
 74
0
 49
-12.699999999999999
 74
0
 49
0.0
 74
0
 49
-12.699999999999999
 74
0
  0
LTYPE
  5
44
100
AcDbSymbolTableRecord
100
AcDbLinetypeTableRecord
  2
DOT
 70
0
  3
Dot . . . . . . . . . . . . . . . . . . . . . .
 72
65
 73
2
 40
6.3499999999999996
 49
0.0
 74
0
 49
-6.3499999999999996
 74
0
  0
LTYPE
  5
45
100
AcDbSymbolTableRecord
100
AcDbLinetypeTableRecord
  2
DOT2
 70
0
  3
Dot (.5x) .....................................
 72
65
 73
2
 40
3.1749999999999998
 49
0.0
 74
0
 49
-3.1749999999999998
 74
0
  0
LTYPE
  5
46
100
AcDbSymbolTableRecord
100
AcDbLinetypeTableRecord
  2
DOTX2
 70
0
  3
Dot (2x) .  .  .  .  .  .  .  .  .  .  .  .  .
 72
65
 73
2
 40
12.699999999999999
 49
0.0
 74
0
 49
-12.699999999999999
 74
0
  0
ENDTAB
  0
TABLE
  2
LAYER
  5
2
100
AcDbSymbolTable
 70
3
  0
LAYER
  5
10
100
AcDbSymbolTableRecord
100
AcDbLayerTableRecord
  2
0
 70
0
 62
250
  6
CONTINUOUS
370
100
390
F
  0
LAYER
  5
47
100
AcDbSymbolTableRecord
100
AcDbLayerTableRecord
  2
color#00000101
 70
0
 62
7
  6
CONTINUOUS
370
100
390
F
  0
LAYER
  5
48
100
AcDbSymbolTableRecord
100
AcDbLayerTableRecord
  2
color#4595e3fd
 70
0
 62
7
  6
CONTINUOUS
370
100
390
F
  0
ENDTAB
  0
TABLE
  2
STYLE
  5
3
100
AcDbSymbolTable
 70
1
  0
STYLE
  5
11
100
AcDbSymbolTableRecord
100
AcDbTextStyleTableRecord
  2
Standard
 70
0
 40
0.0
 41
0.75
 50
0.0
 71
0
 42
2.5
  3
txt
  4

  0
ENDTAB
  0
TABLE
  2
VIEW
  5
6
100
AcDbSymbolTable
 70
0
  0
ENDTAB
  0
TABLE
  2
UCS
  5
7
100
AcDbSymbolTable
 70
0
  0
ENDTAB
  0
TABLE
  2
APPID
  5
9
100
AcDbSymbolTable
 70
1
  0
APPID
  5
12
100
AcDbSymbolTableRecord
100
AcDbRegAppTableRecord
  2
ACAD
 70
0
  0
ENDTAB
  0
TABLE
  2
DIMSTYLE
  5
A
100
AcDbSymbolTable
 70
1
100
AcDbDimStyleTable
 71
0
  0
DIMSTYLE
105
27
100
AcDbSymbolTableRecord
100
AcDbDimStyleTableRecord
  2
Standard
 41
1.0
 42
1.0
 43
3.75
 44
1.0
 70
0
 73
0
 74
0
 77
1
 78
8
140
1.0
141
2.5
143
0.03937007874016
147
1.0
171
3
172
1
271
2
272
2
274
3
278
44
283
0
284
8
340
11
  0
ENDTAB
  0
TABLE
  2
BLOCK_RECORD
  5
1
100
AcDbSymbolTable
 70
1
  0
BLOCK_RECORD
  5
1F
100
AcDbSymbolTableRecord
100
AcDbBlockTableRecord
  2
*Model_Space
340
22
  0
BLOCK_RECORD
  5
1B
100
AcDbSymbolTableRecord
100
AcDbBlockTableRecord
  2
*Paper_Space
340
1E
  0
BLOCK_RECORD
  5
23
100
AcDbSymbolTableRecord
100
AcDbBlockTableRecord
  2
*Paper_Space0
340
26
  0
ENDTAB
  0
ENDSEC
  0
SECTION
  2
BLOCKS
  0
BLOCK
  5
20
100
AcDbEntity
  8
0
100
AcDbBlockBegin
  2
*Model_Space
 70
0
 10
0.0
 20
0.0
 30
0.0
  3
*Model_Space
  1

  0
ENDBLK
  5
21
100
AcDbEntity
  8
0
100
AcDbBlockEnd
  0
BLOCK
  5
1C
100
AcDbEntity
 67
1
  8
0
100
AcDbBlockBegin
  2
*Paper_Space
 70
0
 10
0.0
 20
0.0
 30
0.0
  3
*Paper_Space
  1

  0
ENDBLK
  5
1D
100
AcDbEntity
 67
1
  8
0
100
AcDbBlockEnd
  0
BLOCK
  5
24
100
AcDbEntity
  8
0
100
AcDbBlockBegin
  2
*Paper_Space0
 70
0
 10
0.0
 20
0.0
 30
0.0
  3
*Paper_Space0
  1

  0
ENDBLK
  5
25
100
AcDbEntity
  8
0
100
AcDbBlockEnd
  0
ENDSEC
  0
SECTION
  2
ENTITIES
  0
LINE
  5
49
100
AcDbEntity
100
AcDbLine
  8
color#4595e3fd
 62
256
370
-1
  6
BYLAYER
 10
0.3292544056463493
 20
5.9294443234662149
 30
0.0
 11
0.3218301422392801
 21
5.9800798262550083
 31
0.0
  0
LINE
  5
4A
100
AcDbEntity
100
AcDbLine
  8
color#4595e3fd
 62
256
370
-1
  6
BYLAYER
 10
0.3218301422392801
 20
5.9800798262550083
 30
0.0
 11
0.3181208248975692
 21
6.0305546487236965
 31
0.0
  0
LINE
  5
4B
100
AcDbEntity
100
AcDbLine
  8
color#4595e3fd
 62
256
370
-1
  6
BYLAYER
 10
0.3181208248975692
 20
6.0305546487236965
 30
0.0
 11
0.3180058857150719
 21
6.0807392855195026
 31
0.0
  0
LINE
  5
4C
100
AcDbEntity
100
AcDbLine
  8
color#4595e3fd
 62
256
370
-1
  6
BYLAYER
 10
0.3180058857150719
 20
6.0807392855195026
 30
0.0
 11
0.3213647567856425
 21
6.1305042312896525
 31
0.0
  0
LINE
  5
4D
100
AcDbEntity
100
AcDbLine
  8
color#4595e3fd
 62
256
370
-1
  6
BYLAYER
 10
0.3213647567856425
 20
6.1305042312896525
 30
0.0
 11
0.3280768702031361
 21
6.179719980681373
 31
0.0
  0
LINE
  5
4E
100
AcDbEntity
100
AcDbLine
  8
color#4595e3fd
 62
256
370
-1
  6
BYLAYER
 10
0.3280768702031361
 20
6.179719980681373
 30
0.0
 11
0.3380216580614071
 21
6.2282570283418872
 31
0.0
  0
LINE
  5
4F
100
AcDbEntity
100
AcDbLine
  8
color#4595e3fd
 62
256
370
-1
  6
BYLAYER
 10
0.3380216580614071
 20
6.2282570283418872
 30
0.0
 11
0.3510785524543101
 21
6.2759858689184211
 31
0.0
  0
LINE
  5
50
100
AcDbEntity
100
AcDbLine
  8
color#4595e3fd
 62
256
370
-1
  6
BYLAYER
 10
0.3510785524543101
 20
6.2759858689184211
 30
0.0
 11
0.3671269854757004
 21
6.3227769970581997
 31
0.0
  0
LINE
  5
51
100
AcDbEntity
100
AcDbLine
  8
color#4595e3fd
 62
256
370
-1
  6
BYLAYER
 10
0.3671269854757004
 20
6.3227769970581997
 30
0.0
 11
0.3860463892194322
 21
6.3685009074084489
 31
0.0
  0
LINE
  5
52
100
AcDbEntity
100
AcDbLine
  8
color#4595e3fd
 62
256
370
-1
  6
BYLAYER
 10
0.3860463892194322
 20
6.3685009074084489
 30
0.0
 11
0.4077161957793602
 21
6.4130280946163918
 31
0.0
  0
LINE
  5
53
100
AcDbEntity
100
AcDbLine
  8
color#4595e3fd
 62
256
370
-1
  6
BYLAYER
 10
0.4077161957793602
 20
6.4130280946163918
 30
0.0
 11
0.4320158372493393
 21
6.4562290533292561
 31
0.0
  0
LINE
  5
54
100
AcDbEntity
100
AcDbLine
  8
color#4595e3fd
 62
256
370
-1
  6
BYLAYER
 10
0.4320158372493393
 20
6.4562290533292561
 30
0.0
 11
0.4588247457232242
 21
6.4979742781942651
 31
0.0
  0
LINE
  5
55
100
AcDbEntity
100
AcDbLine
  8
color#4595e3fd
 62
256
370
-1
  6
BYLAYER
 10
0.4588247457232242
 20
6.4979742781942651
 30
0.0
 11
0.4880223532948695
 21
6.5381342638586455
 31
0.0
  0
LINE
  5
56
100
AcDbEntity
100
AcDbLine
  8
color#4595e3fd
 62
256
370
-1
  6
BYLAYER
 10
0.4880223532948695
 20
6.5381342638586455
 30
0.0
 11
0.51948809205813
 21
6.5765795049696205
 31
0.0
  0
LINE
  5
57
100
AcDbEntity
100
AcDbLine
  8
color#4595e3fd
 62
256
370
-1
  6
BYLAYER
 10
0.51948809205813
 20
6.5765795049696205
 30
0.0
 11
0.5531013941068603
 21
6.6131804961744169
 31
0.0
  0
LINE
  5
58
100
AcDbEntity
100
AcDbLine
  8
color#4595e3fd
 62
256
370
-1
  6
BYLAYER
 10
0.5531013941068603
 20
6.6131804961744169
 30
0.0
 11
0.5887416915349153
 21
6.6478077321202598
 31
0.0
  0
LINE
  5
59
100
AcDbEntity
100
AcDbLine
  8
color#4595e3fd
 62
256
370
-1
  6
BYLAYER
 10
0.5887416915349153
 20
6.6478077321202598
 30
0.0
 11
0.6262884164361495
 21
6.6803317074543722
 31
0.0
  0
LINE
  5
5A
100
AcDbEntity
100
AcDbLine
  8
color#4595e3fd
 62
256
370
-1
  6
BYLAYER
 10
0.6262884164361495
 20
6.6803317074543722
 30
0.0
 11
0.6656210009044179
 21
6.7106229168239828
 31
0.0
  0
LINE
  5
5B
100
AcDbEntity
100
AcDbLine
  8
color#4595e3fd
 62
256
370
-1
  6
BYLAYER
 10
0.6656210009044179
 20
6.7106229168239828
 30
0.0
 11
0.7066188770335747
 21
6.738551854876313
 31
0.0
  0
LINE
  5
5C
100
AcDbEntity
100
AcDbLine
  8
color#4595e3fd
 62
256
370
-1
  6
BYLAYER
 10
0.7066188770335747
 20
6.738551854876313
 30
0.0
 11
0.7491614769174753
 21
6.7639890162585905
 31
0.0
  0
LINE
  5
5D
100
AcDbEntity
100
AcDbLine
  8
color#4595e3fd
 62
256
370
-1
  6
BYLAYER
 10
0.7491614769174753
 20
6.7639890162585905
 30
0.0
 11
0.7931282326499738
 21
6.7868048956180402
 31
0.0
  0
LINE
  5
5E
100
AcDbEntity
100
AcDbLine
  8
color#4595e3fd
 62
256
370
-1
  6
BYLAYER
 10
0.7931282326499738
 20
6.7868048956180402
 30
0.0
 11
0.8383985763249251
 21
6.8068699876018863
 31
0.0
  0
LINE
  5
5F
100
AcDbEntity
100
AcDbLine
  8
color#4595e3fd
 62
256
370
-1
  6
BYLAYER
 10
0.8383985763249251
 20
6.8068699876018863
 30
0.0
 11
0.8848519400361842
 21
6.8240547868573547
 31
0.0
  0
LINE
  5
60
100
AcDbEntity
100
AcDbLine
  8
color#4595e3fd
 62
256
370
-1
  6
BYLAYER
 10
0.8848519400361842
 20
6.8240547868573547
 30
0.0
 11
0.9323677558776056
 21
6.8382297880316703
 31
0.0
  0
LINE
  5
61
100
AcDbEntity
100
AcDbLine
  8
color#4595e3fd
 62
256
370
-1
  6
BYLAYER
 10
0.9323677558776056
 20
6.8382297880316703
 30
0.0
 11
0.9808254559430435
 21
6.8492654857720581
 31
0.0
  0
LINE
  5
62
100
AcDbEntity
100
AcDbLine
  8
color#4595e3fd
 62
256
370
-1
  6
BYLAYER
 10
0.9808254559430435
 20
6.8492654857720581
 30
0.0
 11
1.0301044723263537
 21
6.857032374725744
 31
0.0
  0
LINE
  5
63
100
AcDbEntity
100
AcDbLine
  8
color#4595e3fd
 62
256
370
-1
  6
BYLAYER
 10
1.0301044723263537
 20
6.857032374725744
 30
0.0
 11
1.0800842371213897
 21
6.8614009495399522
 31
0.0
  0
LINE
  5
64
100
AcDbEntity
100
AcDbLine
  8
color#4595e3fd
 62
256
370
-1
  6
BYLAYER
 10
1.0800842371213897
 20
6.8614009495399522
 30
0.0
 11
1.1306441824220073
 21
6.8622417048619075
 31
0.0
  0
LINE
  5
65
100
AcDbEntity
100
AcDbLine
  8
color#4595e3fd
 62
256
370
-1
  6
BYLAYER
 10
1.1306441824220073
 20
6.8622417048619075
 30
0.0
 11
1.1816637403220605
 21
6.859425135338836
 31
0.0
  0
LINE
  5
66
100
AcDbEntity
100
AcDbLine
  8
color#4595e3fd
 62
256
370
-1
  6
BYLAYER
 10
1.1816637403220605
 20
6.859425135338836
 30
0.0
 11
1.2297977936105695
 21
6.8562449823707263
 31
0.0
  0
LINE
  5
67
100
AcDbEntity
100
AcDbLine
  8
color#4595e3fd
 62
256
370
-1
  6
BYLAYER
 10
1.2297977936105695
 20
6.8562449823707263
 30
0.0
 11
1.2771622424530678
 21
6.8499086601126313
 31
0.0
  0
LINE
  5
68
100
AcDbEntity
100
AcDbLine
  8
color#4595e3fd
 62
256
370
-1
  6
BYLAYER
 10
1.2771622424530678
 20
6.8499086601126313
 30
0.0
 11
1.3236672323241798
 21
6.8405326692337436
 31
0.0
  0
LINE
  5
69
100
AcDbEntity
100
AcDbLine
  8
color#4595e3fd
 62
256
370
-1
  6
BYLAYER
 10
1.3236672323241798
 20
6.8405326692337436
 30
0.0
 11
1.3692229086985279
 21
6.8282335104032574
 31
0.0
  0
LINE
  5
6A
100
AcDbEntity
100
AcDbLine
  8
color#4595e3fd
 62
256
370
-1
  6
BYLAYER
 10
1.3692229086985279
 20
6.8282335104032574
 30
0.0
 11
1.4137394170507365
 21
6.8131276842903654
 31
0.0
  0
LINE
  5
6B
100
AcDbEntity
100
AcDbLine
  8
color#4595e3fd
 62
256
370
-1
  6
BYLAYER
 10
1.4137394170507365
 20
6.8131276842903654
 30
0.0
 11
1.4571269028554275
 21
6.7953316915642619
 31
0.0
  0
LINE
  5
6C
100
AcDbEntity
100
AcDbLine
  8
color#4595e3fd
 62
256
370
-1
  6
BYLAYER
 10
1.4571269028554275
 20
6.7953316915642619
 30
0.0
 11
1.4992955115872242
 21
6.7749620328941393
 31
0.0
  0
LINE
  5
6D
100
AcDbEntity
100
AcDbLine
  8
color#4595e3fd
 62
256
370
-1
  6
BYLAYER
 10
1.4992955115872242
 20
6.7749620328941393
 30
0.0
 11
1.540155388720752
 21
6.7521352089491913
 31
0.0
  0
LINE
  5
6E
100
AcDbEntity
100
AcDbLine
  8
color#4595e3fd
 62
256
370
-1
  6
BYLAYER
 10
1.540155388720752
 20
6.7521352089491913
 30
0.0
 11
1.5796166797306326
 21
6.7269677203986111
 31
0.0
  0
LINE
  5
6F
100
AcDbEntity
100
AcDbLine
  8
color#4595e3fd
 62
256
370
-1
  6
BYLAYER
 10
1.5796166797306326
 20
6.7269677203986111
 30
0.0
 11
1.6175895300914886
 21
6.6995760679115932
 31
0.0
  0
LINE
  5
70
100
AcDbEntity
100
AcDbLine
  8
color#4595e3fd
 62
256
370
-1
  6
BYLAYER
 10
1.6175895300914886
 20
6.6995760679115932
 30
0.0
 11
1.653984085277945
 21
6.6700767521573301
 31
0.0
  0
LINE
  5
71
100
AcDbEntity
100
AcDbLine
  8
color#4595e3fd
 62
256
370
-1
  6
BYLAYER
 10
1.653984085277945
 20
6.6700767521573301
 30
0.0
 11
1.6887104907646246
 21
6.6385862738050143
 31
0.0
  0
LINE
  5
72
100
AcDbEntity
100
AcDbLine
  8
color#4595e3fd
 62
256
370
-1
  6
BYLAYER
 10
1.6887104907646246
 20
6.6385862738050143
 30
0.0
 11
1.7216788920261499
 21
6.6052211335238393
 31
0.0
  0
LINE
  5
73
100
AcDbEntity
100
AcDbLine
  8
color#4595e3fd
 62
256
370
-1
  6
BYLAYER
 10
1.7216788920261499
 20
6.6052211335238393
 30
0.0
 11
1.7527994345371445
 21
6.5700978319830003
 31
0.0
  0
LINE
  5
74
100
AcDbEntity
100
AcDbLine
  8
color#4595e3fd
 62
256
370
-1
  6
BYLAYER
 10
1.7527994345371445
 20
6.5700978319830003
 30
0.0
 11
1.7819822637722327
 21
6.533332869851689
 31
0.0
  0
LINE
  5
75
100
AcDbEntity
100
AcDbLine
  8
color#4595e3fd
 62
256
370
-1
  6
BYLAYER
 10
1.7819822637722327
 20
6.533332869851689
 30
0.0
 11
1.8091375252060362
 21
6.4950427477990997
 31
0.0
  0
LINE
  5
76
100
AcDbEntity
100
AcDbLine
  8
color#4595e3fd
 62
256
370
-1
  6
BYLAYER
 10
1.8091375252060362
 20
6.4950427477990997
 30
0.0
 11
1.8341753643131797
 21
6.455343966494425
 31
0.0
  0
LINE
  5
77
100
AcDbEntity
100
AcDbLine
  8
color#4595e3fd
 62
256
370
-1
  6
BYLAYER
 10
1.8341753643131797
 20
6.455343966494425
 30
0.0
 11
1.8570059265682859
 21
6.4143530266068582
 31
0.0
  0
LINE
  5
78
100
AcDbEntity
100
AcDbLine
  8
color#4595e3fd
 62
256
370
-1
  6
BYLAYER
 10
1.8570059265682859
 20
6.4143530266068582
 30
0.0
 11
1.8775393574459782
 21
6.3721864288055938
 31
0.0
  0
LINE
  5
79
100
AcDbEntity
100
AcDbLine
  8
color#4595e3fd
 62
256
370
-1
  6
BYLAYER
 10
1.8775393574459782
 20
6.3721864288055938
 30
0.0
 11
1.89568580242088
 21
6.3289606737598243
 31
0.0
  0
LINE
  5
7A
100
AcDbEntity
100
AcDbLine
  8
color#4595e3fd
 62
256
370
-1
  6
BYLAYER
 10
1.89568580242088
 20
6.3289606737598243
 30
0.0
 11
1.9113554069676144
 21
6.2847922621387422
 31
0.0
  0
LINE
  5
7B
100
AcDbEntity
100
AcDbLine
  8
color#4595e3fd
 62
256
370
-1
  6
BYLAYER
 10
1.9113554069676144
 20
6.2847922621387422
 30
0.0
 11
1.9244583165608051
 21
6.2397976946115428
 31
0.0
  0
LINE
  5
7C
100
AcDbEntity
100
AcDbLine
  8
color#4595e3fd
 62
256
370
-1
  6
BYLAYER
 10
1.9244583165608051
 20
6.2397976946115428
 30
0.0
 11
1.9349046766750746
 21
6.1940934718474185
 31
0.0
  0
LINE
  5
7D
100
AcDbEntity
100
AcDbLine
  8
color#4595e3fd
 62
256
370
-1
  6
BYLAYER
 10
1.9349046766750746
 20
6.1940934718474185
 30
0.0
 11
1.942604632785047
 21
6.1477960945155621
 31
0.0
  0
LINE
  5
7E
100
AcDbEntity
100
AcDbLine
  8
color#4595e3fd
 62
256
370
-1
  6
BYLAYER
 10
1.942604632785047
 20
6.1477960945155621
 30
0.0
 11
1.9474683303653455
 21
6.1010220632851677
 31
0.0
  0
LINE
  5
7F
100
AcDbEntity
100
AcDbLine
  8
color#4595e3fd
 62
256
370
-1
  6
BYLAYER
 10
1.9474683303653455
 20
6.1010220632851677
 30
0.0
 11
1.9494059148905931
 21
6.0538878788254289
 31
0.0
  0
LINE
  5
80
100
AcDbEntity
100
AcDbLine
  8
color#4595e3fd
 62
256
370
-1
  6
BYLAYER
 10
1.9494059148905931
 20
6.0538878788254289
 30
0.0
 11
1.948327531835413
 21
6.0065100418055373
 31
0.0
  0
LINE
  5
81
100
AcDbEntity
100
AcDbLine
  8
color#4595e3fd
 62
256
370
-1
  6
BYLAYER
 10
1.948327531835413
 20
6.0065100418055373
 30
0.0
 11
1.9441433266744292
 21
5.959005052894689
 31
0.0
  0
LINE
  5
82
100
AcDbEntity
100
AcDbLine
  8
color#4595e3fd
 62
256
370
-1
  6
BYLAYER
 10
1.9441433266744292
 20
5.959005052894689
 30
0.0
 11
1.9367634448822644
 21
5.9114894127620756
 31
0.0
  0
LINE
  5
83
100
AcDbEntity
100
AcDbLine
  8
color#4595e3fd
 62
256
370
-1
  6
BYLAYER
 10
1.9367634448822644
 20
5.9114894127620756
 30
0.0
 11
2.5619242375038063
 21
5.2898634220119289
 31
0.0
  0
LINE
  5
84
100
AcDbEntity
100
AcDbLine
  8
color#4595e3fd
 62
256
370
-1
  6
BYLAYER
 10
2.5619242375038063
 20
5.2898634220119289
 30
0.0
 11
2.6093066263914109
 21
5.2450581848577018
 31
0.0
  0
LINE
  5
85
100
AcDbEntity
100
AcDbLine
  8
color#4595e3fd
 62
256
370
-1
  6
BYLAYER
 10
2.6093066263914109
 20
5.2450581848577018
 30
0.0
 11
3.0495778364096795
 21
6.1858548941107783
 31
0.0
  0
LINE
  5
86
100
AcDbEntity
100
AcDbLine
  8
color#4595e3fd
 62
256
370
-1
  6
BYLAYER
 10
3.0495778364096795
 20
6.1858548941107783
 30
0.0
 11
3.0594259958371079
 21
6.2038372504871369
 31
0.0
  0
LINE
  5
87
100
AcDbEntity
100
AcDbLine
  8
color#4595e3fd
 62
256
370
-1
  6
BYLAYER
 10
3.0594259958371079
 20
6.2038372504871369
 30
0.0
 11
3.0703026377961717
 21
6.2210408551100773
 31
0.0
  0
LINE
  5
88
100
AcDbEntity
100
AcDbLine
  8
color#4595e3fd
 62
256
370
-1
  6
BYLAYER
 10
3.0703026377961717
 20
6.2210408551100773
 30
0.0
 11
3.0821527788884082
 21
6.2374488388615879
 31
0.0
  0
LINE
  5
89
100
AcDbEntity
100
AcDbLine
  8
color#4595e3fd
 62
256
370
-1
  6
BYLAYER
 10
3.0821527788884082
 20
6.2374488388615879
 30
0.0
 11
3.0949214357153476
 21
6.253044332623662
 31
0.0
  0
LINE
  5
8A
100
AcDbEntity
100
AcDbLine
  8
color#4595e3fd
 62
256
370
-1
  6
BYLAYER
 10
3.0949214357153476
 20
6.253044332623662
 30
0.0
 11
3.1085536248785295
 21
6.2678104672782897
 31
0.0
  0
LINE
  5
8B
100
AcDbEntity
100
AcDbLine
  8
color#4595e3fd
 62
256
370
-1
  6
BYLAYER
 10
3.1085536248785295
 20
6.2678104672782897
 30
0.0
 11
3.1229943629794845
 21
6.2817303737074628
 31
0.0
  0
LINE
  5
8C
100
AcDbEntity
100
AcDbLine
  8
color#4595e3fd
 62
256
370
-1
  6
BYLAYER
 10
3.1229943629794845
 20
6.2817303737074628
 30
0.0
 11
3.1381886666197478
 21
6.2947871827931721
 31
0.0
  0
LINE
  5
8D
100
AcDbEntity
100
AcDbLine
  8
color#4595e3fd
 62
256
370
-1
  6
BYLAYER
 10
3.1381886666197478
 20
6.2947871827931721
 30
0.0
 11
3.1540815524008559
 21
6.3069640254174084
 31
0.0
  0
LINE
  5
8E
100
AcDbEntity
100
AcDbLine
  8
color#4595e3fd
 62
256
370
-1
  6
BYLAYER
 10
3.1540815524008559
 20
6.3069640254174084
 30
0.0
 11
3.1706180369243415
 21
6.3182440324621645
 31
0.0
  0
LINE
  5
8F
100
AcDbEntity
100
AcDbLine
  8
color#4595e3fd
 62
256
370
-1
  6
BYLAYER
 10
3.1706180369243415
 20
6.3182440324621645
 30
0.0
 11
3.187743136791739
 21
6.3286103348094302
 31
0.0
  0
LINE
  5
90
100
AcDbEntity
100
AcDbLine
  8
color#4595e3fd
 62
256
370
-1
  6
BYLAYER
 10
3.187743136791739
 20
6.3286103348094302
 30
0.0
 11
3.2054018686045831
 21
6.3380460633411984
 31
0.0
  0
LINE
  5
91
100
AcDbEntity
100
AcDbLine
  8
color#4595e3fd
 62
256
370
-1
  6
BYLAYER
 10
3.2054018686045831
 20
6.3380460633411984
 30
0.0
 11
3.2235392489644088
 21
6.3465343489394579
 31
0.0
  0
LINE
  5
92
100
AcDbEntity
100
AcDbLine
  8
color#4595e3fd
 62
256
370
-1
  6
BYLAYER
 10
3.2235392489644088
 20
6.3465343489394579
 30
0.0
 11
3.2421002944727495
 21
6.3540583224862015
 31
0.0
  0
LINE
  5
93
100
AcDbEntity
100
AcDbLine
  8
color#4595e3fd
 62
256
370
-1
  6
BYLAYER
 10
3.2421002944727495
 20
6.3540583224862015
 30
0.0
 11
3.2610300217311408
 21
6.3606011148634209
 31
0.0
  0
LINE
  5
94
100
AcDbEntity
100
AcDbLine
  8
color#4595e3fd
 62
256
370
-1
  6
BYLAYER
 10
3.2610300217311408
 20
6.3606011148634209
 30
0.0
 11
3.2802734473411173
 21
6.3661458569531071
 31
0.0
  0
LINE
  5
95
100
AcDbEntity
100
AcDbLine
  8
color#4595e3fd
 62
256
370
-1
  6
BYLAYER
 10
3.2802734473411173
 20
6.3661458569531071
 30
0.0
 11
3.2997755879042123
 21
6.3706756796372508
 31
0.0
  0
LINE
  5
96
100
AcDbEntity
100
AcDbLine
  8
color#4595e3fd
 62
256
370
-1
  6
BYLAYER
 10
3.2997755879042123
 20
6.3706756796372508
 30
0.0
 11
3.3194814600219598
 21
6.3741737137978429
 31
0.0
  0
LINE
  5
97
100
AcDbEntity
100
AcDbLine
  8
color#4595e3fd
 62
256
370
-1
  6
BYLAYER
 10
3.3194814600219598
 20
6.3741737137978429
 30
0.0
 11
3.3393360802958969
 21
6.3766230903168752
 31
0.0
  0
LINE
  5
98
100
AcDbEntity
100
AcDbLine
  8
color#4595e3fd
 62
256
370
-1
  6
BYLAYER
 10
3.3393360802958969
 20
6.3766230903168752
 30
0.0
 11
3.3592844653275558
 21
6.3780069400763395
 31
0.0
  0
LINE
  5
99
100
AcDbEntity
100
AcDbLine
  8
color#4595e3fd
 62
256
370
-1
  6
BYLAYER
 10
3.3592844653275558
 20
6.3780069400763395
 30
0.0
 11
3.3792716317184723
 21
6.3783083939582257
 31
0.0
  0
LINE
  5
9A
100
AcDbEntity
100
AcDbLine
  8
color#4595e3fd
 62
256
370
-1
  6
BYLAYER
 10
3.3792716317184723
 20
6.3783083939582257
 30
0.0
 11
3.39924259607018
 21
6.3775105828445264
 31
0.0
  0
LINE
  5
9B
100
AcDbEntity
100
AcDbLine
  8
color#4595e3fd
 62
256
370
-1
  6
BYLAYER
 10
3.39924259607018
 20
6.3775105828445264
 30
0.0
 11
3.4191423749842134
 21
6.3755966376172326
 31
0.0
  0
LINE
  5
9C
100
AcDbEntity
100
AcDbLine
  8
color#4595e3fd
 62
256
370
-1
  6
BYLAYER
 10
3.4191423749842134
 20
6.3755966376172326
 30
0.0
 11
3.4389159850621067
 21
6.372549689158336
 31
0.0
  0
LINE
  5
9D
100
AcDbEntity
100
AcDbLine
  8
color#4595e3fd
 62
256
370
-1
  6
BYLAYER
 10
3.4389159850621067
 20
6.372549689158336
 30
0.0
 11
3.4585084429053956
 21
6.3683528683498265
 31
0.0
  0
LINE
  5
9E
100
AcDbEntity
100
AcDbLine
  8
color#4595e3fd
 62
256
370
-1
  6
BYLAYER
 10
3.4585084429053956
 20
6.3683528683498265
 30
0.0
 11
3.4778647651156129
 21
6.3629893060736959
 31
0.0
  0
LINE
  5
9F
100
AcDbEntity
100
AcDbLine
  8
color#4595e3fd
 62
256
370
-1
  6
BYLAYER
 10
3.4778647651156129
 20
6.3629893060736959
 30
0.0
 11
3.4969299682942951
 21
6.3564421332119343
 31
0.0
  0
LINE
  5
A0
100
AcDbEntity
100
AcDbLine
  8
color#4595e3fd
 62
256
370
-1
  6
BYLAYER
 10
3.4969299682942951
 20
6.3564421332119343
 30
0.0
 11
3.5156490690429747
 21
6.348694480646536
 31
0.0
  0
LINE
  5
A1
100
AcDbEntity
100
AcDbLine
  8
color#4595e3fd
 62
256
370
-1
  6
BYLAYER
 10
3.5156490690429747
 20
6.348694480646536
 30
0.0
 11
3.5339670839631876
 21
6.3397294792594892
 31
0.0
  0
LINE
  5
A2
100
AcDbEntity
100
AcDbLine
  8
color#4595e3fd
 62
256
370
-1
  6
BYLAYER
 10
3.5339670839631876
 20
6.3397294792594892
 30
0.0
 11
3.5518290296564672
 21
6.3295302599327874
 31
0.0
  0
LINE
  5
A3
100
AcDbEntity
100
AcDbLine
  8
color#4595e3fd
 62
256
370
-1
  6
BYLAYER
 10
3.5518290296564672
 20
6.3295302599327874
 30
0.0
 11
3.5858241240800504
 21
6.3036529704792645
 31
0.0
  0
LINE
  5
A4
100
AcDbEntity
100
AcDbLine
  8
color#4595e3fd
 62
256
370
-1
  6
BYLAYER
 10
3.5858241240800504
 20
6.3036529704792645
 30
0.0
 11
3.6294174921248836
 21
6.2670734362524696
 31
0.0
  0
LINE
  5
A5
100
AcDbEntity
100
AcDbLine
  8
color#4595e3fd
 62
256
370
-1
  6
BYLAYER
 10
3.6294174921248836
 20
6.2670734362524696
 30
0.0
 11
3.7020409980309341
 21
6.1987604471692048
 31
0.0
  0
LINE
  5
A6
100
AcDbEntity
100
AcDbLine
  8
color#4595e3fd
 62
256
370
-1
  6
BYLAYER
 10
3.7020409980309341
 20
6.1987604471692048
 30
0.0
 11
3.8507273860784372
 21
6.0451865731719669
 31
0.0
  0
LINE
  5
A7
100
AcDbEntity
100
AcDbLine
  8
color#4595e3fd
 62
256
370
-1
  6
BYLAYER
 10
3.8507273860784372
 20
6.0451865731719669
 30
0.0
 11
3.8632287288311908
 21
6.0306987351054886
 31
0.0
  0
LINE
  5
A8
100
AcDbEntity
100
AcDbLine
  8
color#4595e3fd
 62
256
370
-1
  6
BYLAYER
 10
3.8632287288311908
 20
6.0306987351054886
 30
0.0
 11
3.8747820652548821
 21
6.0156214990615631
 31
0.0
  0
LINE
  5
A9
100
AcDbEntity
100
AcDbLine
  8
color#4595e3fd
 62
256
370
-1
  6
BYLAYER
 10
3.8747820652548821
 20
6.0156214990615631
 30
0.0
 11
3.8853899488482191
 21
6.0000001581514786
 31
0.0
  0
LINE
  5
AA
100
AcDbEntity
100
AcDbLine
  8
color#4595e3fd
 62
256
370
-1
  6
BYLAYER
 10
3.8853899488482191
 20
6.0000001581514786
 30
0.0
 11
3.8950549331098969
 21
5.9838800054865295
 31
0.0
  0
LINE
  5
AB
100
AcDbEntity
100
AcDbLine
  8
color#4595e3fd
 62
256
370
-1
  6
BYLAYER
 10
3.8950549331098969
 20
5.9838800054865295
 30
0.0
 11
3.903779571538621
 21
5.9673063341780033
 31
0.0
  0
LINE
  5
AC
100
AcDbEntity
100
AcDbLine
  8
color#4595e3fd
 62
256
370
-1
  6
BYLAYER
 10
3.903779571538621
 20
5.9673063341780033
 30
0.0
 11
3.9115664176330878
 21
5.9503244373371924
 31
0.0
  0
LINE
  5
AD
100
AcDbEntity
100
AcDbLine
  8
color#4595e3fd
 62
256
370
-1
  6
BYLAYER
 10
3.9115664176330878
 20
5.9503244373371924
 30
0.0
 11
3.9184180248919995
 21
5.9329796080753887
 31
0.0
  0
LINE
  5
AE
100
AcDbEntity
100
AcDbLine
  8
color#4595e3fd
 62
256
370
-1
  6
BYLAYER
 10
3.9184180248919995
 20
5.9329796080753887
 30
0.0
 11
3.9243369468140594
 21
5.9153171395038804
 31
0.0
  0
LINE
  5
AF
100
AcDbEntity
100
AcDbLine
  8
color#4595e3fd
 62
256
370
-1
  6
BYLAYER
 10
3.9243369468140594
 20
5.9153171395038804
 30
0.0
 11
3.9293257368979644
 21
5.8973823247339592
 31
0.0
  0
LINE
  5
B0
100
AcDbEntity
100
AcDbLine
  8
color#4595e3fd
 62
256
370
-1
  6
BYLAYER
 10
3.9293257368979644
 20
5.8973823247339592
 30
0.0
 11
3.9333869486424171
 21
5.8792204568769169
 31
0.0
  0
LINE
  5
B1
100
AcDbEntity
100
AcDbLine
  8
color#4595e3fd
 62
256
370
-1
  6
BYLAYER
 10
3.9333869486424171
 20
5.8792204568769169
 30
0.0
 11
3.9365231355461185
 21
5.8608768290440434
 31
0.0
  0
LINE
  5
B2
100
AcDbEntity
100
AcDbLine
  8
color#4595e3fd
 62
256
370
-1
  6
BYLAYER
 10
3.9365231355461185
 20
5.8608768290440434
 30
0.0
 11
3.9387368511077705
 21
5.8423967343466296
 31
0.0
  0
LINE
  5
B3
100
AcDbEntity
100
AcDbLine
  8
color#4595e3fd
 62
256
370
-1
  6
BYLAYER
 10
3.9387368511077705
 20
5.8423967343466296
 30
0.0
 11
3.9400306488260699
 21
5.8238254658959665
 31
0.0
  0
LINE
  5
B4
100
AcDbEntity
100
AcDbLine
  8
color#4595e3fd
 62
256
370
-1
  6
BYLAYER
 10
3.9400306488260699
 20
5.8238254658959665
 30
0.0
 11
3.9404070821997217
 21
5.8052083168033439
 31
0.0
  0
LINE
  5
B5
100
AcDbEntity
100
AcDbLine
  8
color#4595e3fd
 62
256
370
-1
  6
BYLAYER
 10
3.9404070821997217
 20
5.8052083168033439
 30
0.0
 11
3.9398687047274246
 21
5.7865905801800546
 31
0.0
  0
LINE
  5
B6
100
AcDbEntity
100
AcDbLine
  8
color#4595e3fd
 62
256
370
-1
  6
BYLAYER
 10
3.9398687047274246
 20
5.7865905801800546
 30
0.0
 11
3.9384180699078795
 21
5.7680175491373866
 31
0.0
  0
LINE
  5
B7
100
AcDbEntity
100
AcDbLine
  8
color#4595e3fd
 62
256
370
-1
  6
BYLAYER
 10
3.9384180699078795
 20
5.7680175491373866
 30
0.0
 11
3.9360577312397882
 21
5.7495345167866327
 31
0.0
  0
LINE
  5
B8
100
AcDbEntity
100
AcDbLine
  8
color#4595e3fd
 62
256
370
-1
  6
BYLAYER
 10
3.9360577312397882
 20
5.7495345167866327
 30
0.0
 11
3.9327902422218504
 21
5.7311867762390829
 31
0.0
  0
LINE
  5
B9
100
AcDbEntity
100
AcDbLine
  8
color#4595e3fd
 62
256
370
-1
  6
BYLAYER
 10
3.9327902422218504
 20
5.7311867762390829
 30
0.0
 11
3.928618156352766
 21
5.7130196206060289
 31
0.0
  0
LINE
  5
BA
100
AcDbEntity
100
AcDbLine
  8
color#4595e3fd
 62
256
370
-1
  6
BYLAYER
 10
3.928618156352766
 20
5.7130196206060289
 30
0.0
 11
3.9235440271312387
 21
5.6950783429987597
 31
0.0
  0
LINE
  5
BB
100
AcDbEntity
100
AcDbLine
  8
color#4595e3fd
 62
256
370
-1
  6
BYLAYER
 10
3.9235440271312387
 20
5.6950783429987597
 30
0.0
 11
3.9175704080559672
 21
5.6774082365285672
 31
0.0
  0
LINE
  5
BC
100
AcDbEntity
100
AcDbLine
  8
color#4595e3fd
 62
256
370
-1
  6
BYLAYER
 10
3.9175704080559672
 20
5.6774082365285672
 30
0.0
 11
3.9106998526256516
 21
5.6600545943067422
 31
0.0
  0
LINE
  5
BD
100
AcDbEntity
100
AcDbLine
  8
color#4595e3fd
 62
256
370
-1
  6
BYLAYER
 10
3.9106998526256516
 20
5.6600545943067422
 30
0.0
 11
3.9029349143389944
 21
5.6430627094445747
 31
0.0
  0
LINE
  5
BE
100
AcDbEntity
100
AcDbLine
  8
color#4595e3fd
 62
256
370
-1
  6
BYLAYER
 10
3.9029349143389944
 20
5.6430627094445747
 30
0.0
 11
3.8942781466946954
 21
5.6264778750533573
 31
0.0
  0
LINE
  5
BF
100
AcDbEntity
100
AcDbLine
  8
color#4595e3fd
 62
256
370
-1
  6
BYLAYER
 10
3.8942781466946954
 20
5.6264778750533573
 30
0.0
 11
3.8847321031914555
 21
5.6103453842443791
 31
0.0
  0
LINE
  5
C0
100
AcDbEntity
100
AcDbLine
  8
color#4595e3fd
 62
256
370
-1
  6
BYLAYER
 10
3.8847321031914555
 20
5.6103453842443791
 30
0.0
 11
3.8742993373279759
 21
5.594710530128931
 31
0.0
  0
LINE
  5
C1
100
AcDbEntity
100
AcDbLine
  8
color#4595e3fd
 62
256
370
-1
  6
BYLAYER
 10
3.8742993373279759
 20
5.594710530128931
 30
0.0
 11
3.8629824026029564
 21
5.5796186058183039
 31
0.0
  0
LINE
  5
C2
100
AcDbEntity
100
AcDbLine
  8
color#4595e3fd
 62
256
370
-1
  6
BYLAYER
 10
3.8629824026029564
 20
5.5796186058183039
 30
0.0
 11
3.8507838525150992
 21
5.5651149044237886
 31
0.0
  0
LINE
  5
C3
100
AcDbEntity
100
AcDbLine
  8
color#4595e3fd
 62
256
370
-1
  6
BYLAYER
 10
3.8507838525150992
 20
5.5651149044237886
 30
0.0
 11
3.8377062405631039
 21
5.551244719056676
 31
0.0
  0
LINE
  5
C4
100
AcDbEntity
100
AcDbLine
  8
color#4595e3fd
 62
256
370
-1
  6
BYLAYER
 10
3.8377062405631039
 20
5.551244719056676
 30
0.0
 11
1.6298593689578162
 21
3.3424897749690583
 31
0.0
  0
LINE
  5
C5
100
AcDbEntity
100
AcDbLine
  8
color#4595e3fd
 62
256
370
-1
  6
BYLAYER
 10
1.6298593689578162
 20
3.3424897749690583
 30
0.0
 11
1.6156829139445683
 21
3.3290887454581775
 31
0.0
  0
LINE
  5
C6
100
AcDbEntity
100
AcDbLine
  8
color#4595e3fd
 62
256
370
-1
  6
BYLAYER
 10
1.6156829139445683
 20
3.3290887454581775
 30
0.0
 11
1.6008516834874573
 21
3.3166189484495741
 31
0.0
  0
LINE
  5
C7
100
AcDbEntity
100
AcDbLine
  8
color#4595e3fd
 62
256
370
-1
  6
BYLAYER
 10
1.6008516834874573
 20
3.3166189484495741
 30
0.0
 11
1.5854131883609588
 21
3.3050812826291311
 31
0.0
  0
LINE
  5
C8
100
AcDbEntity
100
AcDbLine
  8
color#4595e3fd
 62
256
370
-1
  6
BYLAYER
 10
1.5854131883609588
 20
3.3050812826291311
 30
0.0
 11
1.5694149393395469
 21
3.2944766466827411
 31
0.0
  0
LINE
  5
C9
100
AcDbEntity
100
AcDbLine
  8
color#4595e3fd
 62
256
370
-1
  6
BYLAYER
 10
1.5694149393395469
 20
3.2944766466827411
 30
0.0
 11
1.5529044471976972
 21
3.2848059392962887
 31
0.0
  0
LINE
  5
CA
100
AcDbEntity
100
AcDbLine
  8
color#4595e3fd
 62
256
370
-1
  6
BYLAYER
 10
1.5529044471976972
 20
3.2848059392962887
 30
0.0
 11
1.5359292227098833
 21
3.2760700591556642
 31
0.0
  0
LINE
  5
CB
100
AcDbEntity
100
AcDbLine
  8
color#4595e3fd
 62
256
370
-1
  6
BYLAYER
 10
1.5359292227098833
 20
3.2760700591556642
 30
0.0
 11
1.5185367766505804
 21
3.2682699049467558
 31
0.0
  0
LINE
  5
CC
100
AcDbEntity
100
AcDbLine
  8
color#4595e3fd
 62
256
370
-1
  6
BYLAYER
 10
1.5185367766505804
 20
3.2682699049467558
 30
0.0
 11
1.500774619794264
 21
3.261406375355449
 31
0.0
  0
LINE
  5
CD
100
AcDbEntity
100
AcDbLine
  8
color#4595e3fd
 62
256
370
-1
  6
BYLAYER
 10
1.500774619794264
 20
3.261406375355449
 30
0.0
 11
1.4826902629154077
 21
3.2554803690676337
 31
0.0
  0
LINE
  5
CE
100
AcDbEntity
100
AcDbLine
  8
color#4595e3fd
 62
256
370
-1
  6
BYLAYER
 10
1.4826902629154077
 20
3.2554803690676337
 30
0.0
 11
1.4643312167884857
 21
3.2504927847691993
 31
0.0
  0
LINE
  5
CF
100
AcDbEntity
100
AcDbLine
  8
color#4595e3fd
 62
256
370
-1
  6
BYLAYER
 10
1.4643312167884857
 20
3.2504927847691993
 30
0.0
 11
1.4457449921879748
 21
3.2464445211460307
 31
0.0
  0
LINE
  5
D0
100
AcDbEntity
100
AcDbLine
  8
color#4595e3fd
 62
256
370
-1
  6
BYLAYER
 10
1.4457449921879748
 20
3.2464445211460307
 30
0.0
 11
1.4269790998883483
 21
3.2433364768840178
 31
0.0
  0
LINE
  5
D1
100
AcDbEntity
100
AcDbLine
  8
color#4595e3fd
 62
256
370
-1
  6
BYLAYER
 10
1.4269790998883483
 20
3.2433364768840178
 30
0.0
 11
1.4080810506640802
 21
3.2411695506690492
 31
0.0
  0
LINE
  5
D2
100
AcDbEntity
100
AcDbLine
  8
color#4595e3fd
 62
256
370
-1
  6
BYLAYER
 10
1.4080810506640802
 20
3.2411695506690492
 30
0.0
 11
1.3890983552896465
 21
3.2399446411870119
 31
0.0
  0
LINE
  5
D3
100
AcDbEntity
100
AcDbLine
  8
color#4595e3fd
 62
256
370
-1
  6
BYLAYER
 10
1.3890983552896465
 20
3.2399446411870119
 30
0.0
 11
1.3700785245395215
 21
3.2396626471237937
 31
0.0
  0
LINE
  5
D4
100
AcDbEntity
100
AcDbLine
  8
color#4595e3fd
 62
256
370
-1
  6
BYLAYER
 10
1.3700785245395215
 20
3.2396626471237937
 30
0.0
 11
1.3510690691881801
 21
3.240324467165284
 31
0.0
  0
LINE
  5
D5
100
AcDbEntity
100
AcDbLine
  8
color#4595e3fd
 62
256
370
-1
  6
BYLAYER
 10
1.3510690691881801
 20
3.240324467165284
 30
0.0
 11
1.3321175000100967
 21
3.2419309999973698
 31
0.0
  0
LINE
  5
D6
100
AcDbEntity
100
AcDbLine
  8
color#4595e3fd
 62
256
370
-1
  6
BYLAYER
 10
1.3321175000100967
 20
3.2419309999973698
 30
0.0
 11
1.3132713277797459
 21
3.2444831443059394
 31
0.0
  0
LINE
  5
D7
100
AcDbEntity
100
AcDbLine
  8
color#4595e3fd
 62
256
370
-1
  6
BYLAYER
 10
1.3132713277797459
 20
3.2444831443059394
 30
0.0
 11
1.2945780632716029
 21
3.24798179877688
 31
0.0
  0
LINE
  5
D8
100
AcDbEntity
100
AcDbLine
  8
color#4595e3fd
 62
256
370
-1
  6
BYLAYER
 10
1.2945780632716029
 20
3.24798179877688
 30
0.0
 11
1.276085217260142
 21
3.2524278620960811
 31
0.0
  0
LINE
  5
D9
100
AcDbEntity
100
AcDbLine
  8
color#4595e3fd
 62
256
370
-1
  6
BYLAYER
 10
1.276085217260142
 20
3.2524278620960811
 30
0.0
 11
1.2578403005198382
 21
3.2578222329494304
 31
0.0
  0
LINE
  5
DA
100
AcDbEntity
100
AcDbLine
  8
color#4595e3fd
 62
256
370
-1
  6
BYLAYER
 10
1.2578403005198382
 20
3.2578222329494304
 30
0.0
 11
1.239890823825166
 21
3.2641658100228153
 31
0.0
  0
LINE
  5
DB
100
AcDbEntity
100
AcDbLine
  8
color#4595e3fd
 62
256
370
-1
  6
BYLAYER
 10
1.239890823825166
 20
3.2641658100228153
 30
0.0
 11
1.2222842979505999
 21
3.2714594920021249
 31
0.0
  0
LINE
  5
DC
100
AcDbEntity
100
AcDbLine
  8
color#4595e3fd
 62
256
370
-1
  6
BYLAYER
 10
1.2222842979505999
 20
3.2714594920021249
 30
0.0
 11
1.2050682336706149
 21
3.2797041775732461
 31
0.0
  0
LINE
  5
DD
100
AcDbEntity
100
AcDbLine
  8
color#4595e3fd
 62
256
370
-1
  6
BYLAYER
 10
1.2050682336706149
 20
3.2797041775732461
 30
0.0
 11
1.1882901417596858
 21
3.2889007654220674
 31
0.0
  0
LINE
  5
DE
100
AcDbEntity
100
AcDbLine
  8
color#4595e3fd
 62
256
370
-1
  6
BYLAYER
 10
1.1882901417596858
 20
3.2889007654220674
 30
0.0
 11
1.1719975329922869
 21
3.299050154234477
 31
0.0
  0
LINE
  5
DF
100
AcDbEntity
100
AcDbLine
  8
color#4595e3fd
 62
256
370
-1
  6
BYLAYER
 10
1.1719975329922869
 20
3.299050154234477
 30
0.0
 11
1.1562379181428935
 21
3.3101532426963636
 31
0.0
  0
LINE
  5
E0
100
AcDbEntity
100
AcDbLine
  8
color#4595e3fd
 62
256
370
-1
  6
BYLAYER
 10
1.1562379181428935
 20
3.3101532426963636
 30
0.0
 11
1.1410588079859798
 21
3.3222109294936137
 31
0.0
  0
LINE
  5
E1
100
AcDbEntity
100
AcDbLine
  8
color#4595e3fd
 62
256
370
-1
  6
BYLAYER
 10
1.1410588079859798
 20
3.3222109294936137
 30
0.0
 11
1.1265077132960206
 21
3.3352241133121172
 31
0.0
  0
LINE
  5
E2
100
AcDbEntity
100
AcDbLine
  8
color#4595e3fd
 62
256
370
-1
  6
BYLAYER
 10
1.1265077132960206
 20
3.3352241133121172
 30
0.0
 11
0.9390147608013161
 21
3.5213227545008294
 31
0.0
  0
LINE
  5
E3
100
AcDbEntity
100
AcDbLine
  8
color#4595e3fd
 62
256
370
-1
  6
BYLAYER
 10
0.9390147608013161
 20
3.5213227545008294
 30
0.0
 11
0.9019067699649018
 21
3.5626117682553038
 31
0.0
  0
LINE
  5
E4
100
AcDbEntity
100
AcDbLine
  8
color#4595e3fd
 62
256
370
-1
  6
BYLAYER
 10
0.9019067699649018
 20
3.5626117682553038
 30
0.0
 11
0.8755005932660109
 21
3.5947932160392546
 31
0.0
  0
LINE
  5
E5
100
AcDbEntity
100
AcDbLine
  8
color#4595e3fd
 62
256
370
-1
  6
BYLAYER
 10
0.8755005932660109
 20
3.5947932160392546
 30
0.0
 11
0.8587208649531996
 21
3.6169467574815237
 31
0.0
  0
LINE
  5
E6
100
AcDbEntity
100
AcDbLine
  8
color#4595e3fd
 62
256
370
-1
  6
BYLAYER
 10
0.8587208649531996
 20
3.6169467574815237
 30
0.0
 11
0.8506074987373117
 21
3.6282574651417061
 31
0.0
  0
LINE
  5
E7
100
AcDbEntity
100
AcDbLine
  8
color#4595e3fd
 62
256
370
-1
  6
BYLAYER
 10
0.8506074987373117
 20
3.6282574651417061
 30
0.0
 11
0.8404168218258085
 21
3.6461060651113493
 31
0.0
  0
LINE
  5
E8
100
AcDbEntity
100
AcDbLine
  8
color#4595e3fd
 62
256
370
-1
  6
BYLAYER
 10
0.8404168218258085
 20
3.6461060651113493
 30
0.0
 11
0.8314635345635099
 21
3.664414084544533
 31
0.0
  0
LINE
  5
E9
100
AcDbEntity
100
AcDbLine
  8
color#4595e3fd
 62
256
370
-1
  6
BYLAYER
 10
0.8314635345635099
 20
3.664414084544533
 30
0.0
 11
0.8237305353825349
 21
3.683126194401189
 31
0.0
  0
LINE
  5
EA
100
AcDbEntity
100
AcDbLine
  8
color#4595e3fd
 62
256
370
-1
  6
BYLAYER
 10
0.8237305353825349
 20
3.683126194401189
 30
0.0
 11
0.8172007227150001
 21
3.7021870656412594
 31
0.0
  0
LINE
  5
EB
100
AcDbEntity
100
AcDbLine
  8
color#4595e3fd
 62
256
370
-1
  6
BYLAYER
 10
0.8172007227150001
 20
3.7021870656412594
 30
0.0
 11
0.8118569949930241
 21
3.7215413692246733
 31
0.0
  0
LINE
  5
EC
100
AcDbEntity
100
AcDbLine
  8
color#4595e3fd
 62
256
370
-1
  6
BYLAYER
 10
0.8118569949930241
 20
3.7215413692246733
 30
0.0
 11
0.8076822506487236
 21
3.7411337761113717
 31
0.0
  0
LINE
  5
ED
100
AcDbEntity
100
AcDbLine
  8
color#4595e3fd
 62
256
370
-1
  6
BYLAYER
 10
0.8076822506487236
 20
3.7411337761113717
 30
0.0
 11
0.8046593881142161
 21
3.7609089572612913
 31
0.0
  0
LINE
  5
EE
100
AcDbEntity
100
AcDbLine
  8
color#4595e3fd
 62
256
370
-1
  6
BYLAYER
 10
0.8046593881142161
 20
3.7609089572612913
 30
0.0
 11
0.8027713058216203
 21
3.7808115836343652
 31
0.0
  0
LINE
  5
EF
100
AcDbEntity
100
AcDbLine
  8
color#4595e3fd
 62
256
370
-1
  6
BYLAYER
 10
0.8027713058216203
 20
3.7808115836343652
 30
0.0
 11
0.8020009022030531
 21
3.8007863261905319
 31
0.0
  0
LINE
  5
F0
100
AcDbEntity
100
AcDbLine
  8
color#4595e3fd
 62
256
370
-1
  6
BYLAYER
 10
0.8020009022030531
 20
3.8007863261905319
 30
0.0
 11
0.8023310756906317
 21
3.8207778558897285
 31
0.0
  0
LINE
  5
F1
100
AcDbEntity
100
AcDbLine
  8
color#4595e3fd
 62
256
370
-1
  6
BYLAYER
 10
0.8023310756906317
 20
3.8207778558897285
 30
0.0
 11
0.8037447247164743
 21
3.840730843691889
 31
0.0
  0
LINE
  5
F2
100
AcDbEntity
100
AcDbLine
  8
color#4595e3fd
 62
256
370
-1
  6
BYLAYER
 10
0.8037447247164743
 20
3.840730843691889
 30
0.0
 11
0.8062247477126987
 21
3.8605899605569496
 31
0.0
  0
LINE
  5
F3
100
AcDbEntity
100
AcDbLine
  8
color#4595e3fd
 62
256
370
-1
  6
BYLAYER
 10
0.8062247477126987
 20
3.8605899605569496
 30
0.0
 11
0.8097540431114214
 21
3.8802998774448505
 31
0.0
  0
LINE
  5
F4
100
AcDbEntity
100
AcDbLine
  8
color#4595e3fd
 62
256
370
-1
  6
BYLAYER
 10
0.8097540431114214
 20
3.8802998774448505
 30
0.0
 11
0.8143155093447613
 21
3.8998052653155231
 31
0.0
  0
LINE
  5
F5
100
AcDbEntity
100
AcDbLine
  8
color#4595e3fd
 62
256
370
-1
  6
BYLAYER
 10
0.8143155093447613
 20
3.8998052653155231
 30
0.0
 11
0.8198920448448354
 21
3.9190507951289058
 31
0.0
  0
LINE
  5
F6
100
AcDbEntity
100
AcDbLine
  8
color#4595e3fd
 62
256
370
-1
  6
BYLAYER
 10
0.8198920448448354
 20
3.9190507951289058
 30
0.0
 11
0.8264665480437612
 21
3.9379811378449361
 31
0.0
  0
LINE
  5
F7
100
AcDbEntity
100
AcDbLine
  8
color#4595e3fd
 62
256
370
-1
  6
BYLAYER
 10
0.8264665480437612
 20
3.9379811378449361
 30
0.0
 11
0.8340219173736565
 21
3.956540964423549
 31
0.0
  0
LINE
  5
F8
100
AcDbEntity
100
AcDbLine
  8
color#4595e3fd
 62
256
370
-1
  6
BYLAYER
 10
0.8340219173736565
 20
3.956540964423549
 30
0.0
 11
0.842541051266639
 21
3.9746749458246802
 31
0.0
  0
LINE
  5
F9
100
AcDbEntity
100
AcDbLine
  8
color#4595e3fd
 62
256
370
-1
  6
BYLAYER
 10
0.842541051266639
 20
3.9746749458246802
 30
0.0
 11
0.852006848154826
 21
3.9923277530082668
 31
0.0
  0
LINE
  5
FA
100
AcDbEntity
100
AcDbLine
  8
color#4595e3fd
 62
256
370
-1
  6
BYLAYER
 10
0.852006848154826
 20
3.9923277530082668
 30
0.0
 11
0.8624022064703354
 21
4.0094440569342451
 31
0.0
  0
LINE
  5
FB
100
AcDbEntity
100
AcDbLine
  8
color#4595e3fd
 62
256
370
-1
  6
BYLAYER
 10
0.8624022064703354
 20
4.0094440569342451
 30
0.0
 11
0.8737100246452846
 21
4.0259685285625508
 31
0.0
  0
LINE
  5
FC
100
AcDbEntity
100
AcDbLine
  8
color#4595e3fd
 62
256
370
-1
  6
BYLAYER
 10
0.8737100246452846
 20
4.0259685285625508
 30
0.0
 11
0.8859132011117913
 21
4.0418458388531207
 31
0.0
  0
LINE
  5
FD
100
AcDbEntity
100
AcDbLine
  8
color#4595e3fd
 62
256
370
-1
  6
BYLAYER
 10
0.8859132011117913
 20
4.0418458388531207
 30
0.0
 11
0.898994634301973
 21
4.0570206587658912
 31
0.0
  0
LINE
  5
FE
100
AcDbEntity
100
AcDbLine
  8
color#4595e3fd
 62
256
370
-1
  6
BYLAYER
 10
0.898994634301973
 20
4.0570206587658912
 30
0.0
 11
0.9129372226479475
 21
4.0714376592607984
 31
0.0
  0
LINE
  5
FF
100
AcDbEntity
100
AcDbLine
  8
color#4595e3fd
 62
256
370
-1
  6
BYLAYER
 10
0.9129372226479475
 20
4.0714376592607984
 30
0.0
 11
0.927723864581832
 21
4.0850415112977787
 31
0.0
  0
LINE
  5
100
100
AcDbEntity
100
AcDbLine
  8
color#4595e3fd
 62
256
370
-1
  6
BYLAYER
 10
0.927723864581832
 20
4.0850415112977787
 30
0.0
 11
0.9433374585357447
 21
4.0977768858367689
 31
0.0
  0
LINE
  5
101
100
AcDbEntity
100
AcDbLine
  8
color#4595e3fd
 62
256
370
-1
  6
BYLAYER
 10
0.9433374585357447
 20
4.0977768858367689
 30
0.0
 11
0.9597609029418028
 21
4.1095884538377039
 31
0.0
  0
LINE
  5
102
100
AcDbEntity
100
AcDbLine
  8
color#4595e3fd
 62
256
370
-1
  6
BYLAYER
 10
0.9597609029418028
 20
4.1095884538377039
 30
0.0
 11
0.976977096232124
 21
4.1204208862605203
 31
0.0
  0
LINE
  5
103
100
AcDbEntity
100
AcDbLine
  8
color#4595e3fd
 62
256
370
-1
  6
BYLAYER
 10
0.976977096232124
 20
4.1204208862605203
 30
0.0
 11
0.9949689368388258
 21
4.1302188540651565
 31
0.0
  0
LINE
  5
104
100
AcDbEntity
100
AcDbLine
  8
color#4595e3fd
 62
256
370
-1
  6
BYLAYER
 10
0.9949689368388258
 20
4.1302188540651565
 30
0.0
 11
1.9350820436996803
 21
4.5706933285645022
 31
0.0
  0
LINE
  5
105
100
AcDbEntity
100
AcDbLine
  8
color#4595e3fd
 62
256
370
-1
  6
BYLAYER
 10
1.9350820436996803
 20
4.5706933285645022
 30
0.0
 11
1.4303401349109288
 21
5.081333277224628
 31
0.0
  0
LINE
  5
106
100
AcDbEntity
100
AcDbLine
  8
color#4595e3fd
 62
256
370
-1
  6
BYLAYER
 10
1.4303401349109288
 20
5.081333277224628
 30
0.0
 11
1.2690204860887015
 21
5.2431415877593501
 31
0.0
  0
LINE
  5
107
100
AcDbEntity
100
AcDbLine
  8
color#4595e3fd
 62
256
370
-1
  6
BYLAYER
 10
1.2690204860887015
 20
5.2431415877593501
 30
0.0
 11
1.2241672238482215
 21
5.2362668291003205
 31
0.0
  0
LINE
  5
108
100
AcDbEntity
100
AcDbLine
  8
color#4595e3fd
 62
256
370
-1
  6
BYLAYER
 10
1.2241672238482215
 20
5.2362668291003205
 30
0.0
 11
1.1792556170942678
 21
5.2322218779701544
 31
0.0
  0
LINE
  5
109
100
AcDbEntity
100
AcDbLine
  8
color#4595e3fd
 62
256
370
-1
  6
BYLAYER
 10
1.1792556170942678
 20
5.2322218779701544
 30
0.0
 11
1.1343909385134876
 21
5.2309346952008422
 31
0.0
  0
LINE
  5
10A
100
AcDbEntity
100
AcDbLine
  8
color#4595e3fd
 62
256
370
-1
  6
BYLAYER
 10
1.1343909385134876
 20
5.2309346952008422
 30
0.0
 11
1.0896784607925243
 21
5.2323332416243789
 31
0.0
  0
LINE
  5
10B
100
AcDbEntity
100
AcDbLine
  8
color#4595e3fd
 62
256
370
-1
  6
BYLAYER
 10
1.0896784607925243
 20
5.2323332416243789
 30
0.0
 11
1.0452234566180243
 21
5.2363454780727556
 31
0.0
  0
LINE
  5
10C
100
AcDbEntity
100
AcDbLine
  8
color#4595e3fd
 62
256
370
-1
  6
BYLAYER
 10
1.0452234566180243
 20
5.2363454780727556
 30
0.0
 11
1.001131198676632
 21
5.2428993653779639
 31
0.0
  0
LINE
  5
10D
100
AcDbEntity
100
AcDbLine
  8
color#4595e3fd
 62
256
370
-1
  6
BYLAYER
 10
1.001131198676632
 20
5.2428993653779639
 30
0.0
 11
0.9575069596549926
 21
5.2519228643719993
 31
0.0
  0
LINE
  5
10E
100
AcDbEntity
100
AcDbLine
  8
color#4595e3fd
 62
256
370
-1
  6
BYLAYER
 10
0.9575069596549926
 20
5.2519228643719993
 30
0.0
 11
0.914456012239752
 21
5.2633439358868497
 31
0.0
  0
LINE
  5
10F
100
AcDbEntity
100
AcDbLine
  8
color#4595e3fd
 62
256
370
-1
  6
BYLAYER
 10
0.914456012239752
 20
5.2633439358868497
 30
0.0
 11
0.8720836291175549
 21
5.2770905407545108
 31
0.0
  0
LINE
  5
110
100
AcDbEntity
100
AcDbLine
  8
color#4595e3fd
 62
256
370
-1
  6
BYLAYER
 10
0.8720836291175549
 20
5.2770905407545108
 30
0.0
 11
0.8304950829750462
 21
5.2930906398069766
 31
0.0
  0
LINE
  5
111
100
AcDbEntity
100
AcDbLine
  8
color#4595e3fd
 62
256
370
-1
  6
BYLAYER
 10
0.8304950829750462
 20
5.2930906398069766
 30
0.0
 11
0.7897956464988717
 21
5.3112721938762348
 31
0.0
  0
LINE
  5
112
100
AcDbEntity
100
AcDbLine
  8
color#4595e3fd
 62
256
370
-1
  6
BYLAYER
 10
0.7897956464988717
 20
5.3112721938762348
 30
0.0
 11
0.7500905923756763
 21
5.3315631637942813
 31
0.0
  0
LINE
  5
113
100
AcDbEntity
100
AcDbLine
  8
color#4595e3fd
 62
256
370
-1
  6
BYLAYER
 10
0.7500905923756763
 20
5.3315631637942813
 30
0.0
 11
0.7114851932921051
 21
5.3538915103931082
 31
0.0
  0
LINE
  5
114
100
AcDbEntity
100
AcDbLine
  8
color#4595e3fd
 62
256
370
-1
  6
BYLAYER
 10
0.7114851932921051
 20
5.3538915103931082
 30
0.0
 11
0.6740847219348036
 21
5.3781851945047059
 31
0.0
  0
LINE
  5
115
100
AcDbEntity
100
AcDbLine
  8
color#4595e3fd
 62
256
370
-1
  6
BYLAYER
 10
0.6740847219348036
 20
5.3781851945047059
 30
0.0
 11
0.6379944509904166
 21
5.4043721769610693
 31
0.0
  0
LINE
  5
116
100
AcDbEntity
100
AcDbLine
  8
color#4595e3fd
 62
256
370
-1
  6
BYLAYER
 10
0.6379944509904166
 20
5.4043721769610693
 30
0.0
 11
0.6033196531455896
 21
5.4323804185941889
 31
0.0
  0
LINE
  5
117
100
AcDbEntity
100
AcDbLine
  8
color#4595e3fd
 62
256
370
-1
  6
BYLAYER
 10
0.6033196531455896
 20
5.4323804185941889
 30
0.0
 11
0.5701656010869676
 21
5.4621378802360594
 31
0.0
  0
LINE
  5
118
100
AcDbEntity
100
AcDbLine
  8
color#4595e3fd
 62
256
370
-1
  6
BYLAYER
 10
0.5701656010869676
 20
5.4621378802360594
 30
0.0
 11
0.538637567501196
 21
5.4935725227186705
 31
0.0
  0
LINE
  5
119
100
AcDbEntity
100
AcDbLine
  8
color#4595e3fd
 62
256
370
-1
  6
BYLAYER
 10
0.538637567501196
 20
5.4935725227186705
 30
0.0
 11
0.5088408250749197
 21
5.5266123068740178
 31
0.0
  0
LINE
  5
11A
100
AcDbEntity
100
AcDbLine
  8
color#4595e3fd
 62
256
370
-1
  6
BYLAYER
 10
0.5088408250749197
 20
5.5266123068740178
 30
0.0
 11
0.4808806464947841
 21
5.5611851935340901
 31
0.0
  0
LINE
  5
11B
100
AcDbEntity
100
AcDbLine
  8
color#4595e3fd
 62
256
370
-1
  6
BYLAYER
 10
0.4808806464947841
 20
5.5611851935340901
 30
0.0
 11
0.4548623044474343
 21
5.5972191435308822
 31
0.0
  0
LINE
  5
11C
100
AcDbEntity
100
AcDbLine
  8
color#4595e3fd
 62
256
370
-1
  6
BYLAYER
 10
0.4548623044474343
 20
5.5972191435308822
 30
0.0
 11
0.4308910716195157
 21
5.6346421176963872
 31
0.0
  0
LINE
  5
11D
100
AcDbEntity
100
AcDbLine
  8
color#4595e3fd
 62
256
370
-1
  6
BYLAYER
 10
0.4308910716195157
 20
5.6346421176963872
 30
0.0
 11
0.4090722206976731
 21
5.6733820768625964
 31
0.0
  0
LINE
  5
11E
100
AcDbEntity
100
AcDbLine
  8
color#4595e3fd
 62
256
370
-1
  6
BYLAYER
 10
0.4090722206976731
 20
5.6733820768625964
 30
0.0
 11
0.389511024368552
 21
5.7133669818615012
 31
0.0
  0
LINE
  5
11F
100
AcDbEntity
100
AcDbLine
  8
color#4595e3fd
 62
256
370
-1
  6
BYLAYER
 10
0.389511024368552
 20
5.7133669818615012
 30
0.0
 11
0.3723127553187975
 21
5.7545247935250963
 31
0.0
  0
LINE
  5
120
100
AcDbEntity
100
AcDbLine
  8
color#4595e3fd
 62
256
370
-1
  6
BYLAYER
 10
0.3723127553187975
 20
5.7545247935250963
 30
0.0
 11
0.3575826862350549
 21
5.7967834726853722
 31
0.0
  0
LINE
  5
121
100
AcDbEntity
100
AcDbLine
  8
color#4595e3fd
 62
256
370
-1
  6
BYLAYER
 10
0.3575826862350549
 20
5.7967834726853722
 30
0.0
 11
0.3454260898039691
 21
5.840070980174322
 31
0.0
  0
LINE
  5
122
100
AcDbEntity
100
AcDbLine
  8
color#4595e3fd
 62
256
370
-1
  6
BYLAYER
 10
0.3454260898039691
 20
5.840070980174322
 30
0.0
 11
0.3359482387121855
 21
5.8843152768239388
 31
0.0
  0
LINE
  5
123
100
AcDbEntity
100
AcDbLine
  8
color#4595e3fd
 62
256
370
-1
  6
BYLAYER
 10
0.3359482387121855
 20
5.8843152768239388
 30
0.0
 11
0.3292544056463493
 21
5.9294443234662149
 31
0.0
  0
LINE
  5
124
100
AcDbEntity
100
AcDbLine
  8
color#4595e3fd
 62
256
370
-1
  6
BYLAYER
 10
2.8501989179333722
 20
4.3162638575344614
 30
0.0
 11
2.879834245099127
 21
4.3438426953480729
 31
0.0
  0
LINE
  5
125
100
AcDbEntity
100
AcDbLine
  8
color#4595e3fd
 62
256
370
-1
  6
BYLAYER
 10
2.879834245099127
 20
4.3438426953480729
 30
0.0
 11
2.9108955216393122
 21
4.3694755057104491
 31
0.0
  0
LINE
  5
126
100
AcDbEntity
100
AcDbLine
  8
color#4595e3fd
 62
256
370
-1
  6
BYLAYER
 10
2.9108955216393122
 20
4.3694755057104491
 30
0.0
 11
2.943277705645424
 21
4.3931610236651846
 31
0.0
  0
LINE
  5
127
100
AcDbEntity
100
AcDbLine
  8
color#4595e3fd
 62
256
370
-1
  6
BYLAYER
 10
2.943277705645424
 20
4.3931610236651846
 30
0.0
 11
2.9768757552089546
 21
4.4148979842558838
 31
0.0
  0
LINE
  5
128
100
AcDbEntity
100
AcDbLine
  8
color#4595e3fd
 62
256
370
-1
  6
BYLAYER
 10
2.9768757552089546
 20
4.4148979842558838
 30
0.0
 11
3.0115846284213998
 21
4.4346851225261394
 31
0.0
  0
LINE
  5
129
100
AcDbEntity
100
AcDbLine
  8
color#4595e3fd
 62
256
370
-1
  6
BYLAYER
 10
3.0115846284213998
 20
4.4346851225261394
 30
0.0
 11
3.0472992833742514
 21
4.452521173519556
 31
0.0
  0
LINE
  5
12A
100
AcDbEntity
100
AcDbLine
  8
color#4595e3fd
 62
256
370
-1
  6
BYLAYER
 10
3.0472992833742514
 20
4.452521173519556
 30
0.0
 11
3.0839146781590023
 21
4.4684048722797325
 31
0.0
  0
LINE
  5
12B
100
AcDbEntity
100
AcDbLine
  8
color#4595e3fd
 62
256
370
-1
  6
BYLAYER
 10
3.0839146781590023
 20
4.4684048722797325
 30
0.0
 11
3.1213257708671494
 21
4.4823349538502644
 31
0.0
  0
LINE
  5
12C
100
AcDbEntity
100
AcDbLine
  8
color#4595e3fd
 62
256
370
-1
  6
BYLAYER
 10
3.1213257708671494
 20
4.4823349538502644
 30
0.0
 11
3.1594275195901838
 21
4.4943101532747534
 31
0.0
  0
LINE
  5
12D
100
AcDbEntity
100
AcDbLine
  8
color#4595e3fd
 62
256
370
-1
  6
BYLAYER
 10
3.1594275195901838
 20
4.4943101532747534
 30
0.0
 11
3.1981148824195995
 21
4.5043292055967994
 31
0.0
  0
LINE
  5
12E
100
AcDbEntity
100
AcDbLine
  8
color#4595e3fd
 62
256
370
-1
  6
BYLAYER
 10
3.1981148824195995
 20
4.5043292055967994
 30
0.0
 11
3.2372828174468906
 21
4.5123908458599988
 31
0.0
  0
LINE
  5
12F
100
AcDbEntity
100
AcDbLine
  8
color#4595e3fd
 62
256
370
-1
  6
BYLAYER
 10
3.2372828174468906
 20
4.5123908458599988
 30
0.0
 11
3.2768262827635524
 21
4.5184938091079534
 31
0.0
  0
LINE
  5
130
100
AcDbEntity
100
AcDbLine
  8
color#4595e3fd
 62
256
370
-1
  6
BYLAYER
 10
3.2768262827635524
 20
4.5184938091079534
 30
0.0
 11
3.3166402364610748
 21
4.5226368303842612
 31
0.0
  0
LINE
  5
131
100
AcDbEntity
100
AcDbLine
  8
color#4595e3fd
 62
256
370
-1
  6
BYLAYER
 10
3.3166402364610748
 20
4.5226368303842612
 30
0.0
 11
3.3566196366309549
 21
4.5248186447325223
 31
0.0
  0
LINE
  5
132
100
AcDbEntity
100
AcDbLine
  8
color#4595e3fd
 62
256
370
-1
  6
BYLAYER
 10
3.3566196366309549
 20
4.5248186447325223
 30
0.0
 11
3.3966594413646853
 21
4.5250379871963355
 31
0.0
  0
LINE
  5
133
100
AcDbEntity
100
AcDbLine
  8
color#4595e3fd
 62
256
370
-1
  6
BYLAYER
 10
3.3966594413646853
 20
4.5250379871963355
 30
0.0
 11
3.4366546087537597
 21
4.5232935928192983
 31
0.0
  0
LINE
  5
134
100
AcDbEntity
100
AcDbLine
  8
color#4595e3fd
 62
256
370
-1
  6
BYLAYER
 10
3.4366546087537597
 20
4.5232935928192983
 30
0.0
 11
3.476500096889672
 21
4.5195841966450123
 31
0.0
  0
LINE
  5
135
100
AcDbEntity
100
AcDbLine
  8
color#4595e3fd
 62
256
370
-1
  6
BYLAYER
 10
3.476500096889672
 20
4.5195841966450123
 30
0.0
 11
3.5160908638639157
 21
4.5139085337170757
 31
0.0
  0
LINE
  5
136
100
AcDbEntity
100
AcDbLine
  8
color#4595e3fd
 62
256
370
-1
  6
BYLAYER
 10
3.5160908638639157
 20
4.5139085337170757
 30
0.0
 11
3.5553218677679843
 21
4.5062653390790892
 31
0.0
  0
LINE
  5
137
100
AcDbEntity
100
AcDbLine
  8
color#4595e3fd
 62
256
370
-1
  6
BYLAYER
 10
3.5553218677679843
 20
4.5062653390790892
 30
0.0
 11
3.5940880666933728
 21
4.4966533477746493
 31
0.0
  0
LINE
  5
138
100
AcDbEntity
100
AcDbLine
  8
color#4595e3fd
 62
256
370
-1
  6
BYLAYER
 10
3.5940880666933728
 20
4.4966533477746493
 30
0.0
 11
3.6322844187315724
 21
4.4850712948473559
 31
0.0
  0
LINE
  5
139
100
AcDbEntity
100
AcDbLine
  8
color#4595e3fd
 62
256
370
-1
  6
BYLAYER
 10
3.6322844187315724
 20
4.4850712948473559
 30
0.0
 11
3.6698058819740798
 21
4.4715179153408089
 31
0.0
  0
LINE
  5
13A
100
AcDbEntity
100
AcDbLine
  8
color#4595e3fd
 62
256
370
-1
  6
BYLAYER
 10
3.6698058819740798
 20
4.4715179153408089
 30
0.0
 11
3.7065474145123858
 21
4.4559919442986082
 31
0.0
  0
LINE
  5
13B
100
AcDbEntity
100
AcDbLine
  8
color#4595e3fd
 62
256
370
-1
  6
BYLAYER
 10
3.7065474145123858
 20
4.4559919442986082
 30
0.0
 11
3.7424039744379862
 21
4.4384921167643521
 31
0.0
  0
LINE
  5
13C
100
AcDbEntity
100
AcDbLine
  8
color#4595e3fd
 62
256
370
-1
  6
BYLAYER
 10
3.7424039744379862
 20
4.4384921167643521
 30
0.0
 11
3.7772705198423742
 21
4.4190171677816394
 31
0.0
  0
LINE
  5
13D
100
AcDbEntity
100
AcDbLine
  8
color#4595e3fd
 62
256
370
-1
  6
BYLAYER
 10
3.7772705198423742
 20
4.4190171677816394
 30
0.0
 11
3.8110420088170431
 21
4.3975658323940694
 31
0.0
  0
LINE
  5
13E
100
AcDbEntity
100
AcDbLine
  8
color#4595e3fd
 62
256
370
-1
  6
BYLAYER
 10
3.8110420088170431
 20
4.3975658323940694
 30
0.0
 11
3.8436133994534867
 21
4.3741368456452427
 31
0.0
  0
LINE
  5
13F
100
AcDbEntity
100
AcDbLine
  8
color#4595e3fd
 62
256
370
-1
  6
BYLAYER
 10
3.8436133994534867
 20
4.3741368456452427
 30
0.0
 11
3.8748796498431997
 21
4.3487289425787559
 31
0.0
  0
LINE
  5
140
100
AcDbEntity
100
AcDbLine
  8
color#4595e3fd
 62
256
370
-1
  6
BYLAYER
 10
3.8748796498431997
 20
4.3487289425787559
 30
0.0
 11
3.9047357180776743
 21
4.3213408582382113
 31
0.0
  0
LINE
  5
141
100
AcDbEntity
100
AcDbLine
  8
color#4595e3fd
 62
256
370
-1
  6
BYLAYER
 10
3.9047357180776743
 20
4.3213408582382113
 30
0.0
 11
4.6540992605887688
 21
3.5704728127221608
 31
0.0
  0
LINE
  5
142
100
AcDbEntity
100
AcDbLine
  8
color#4595e3fd
 62
256
370
-1
  6
BYLAYER
 10
4.6540992605887688
 20
3.5704728127221608
 30
0.0
 11
4.6838856274219234
 21
3.5364600707976388
 31
0.0
  0
LINE
  5
143
100
AcDbEntity
100
AcDbLine
  8
color#4595e3fd
 62
256
370
-1
  6
BYLAYER
 10
4.6838856274219234
 20
3.5364600707976388
 30
0.0
 11
4.7110775131673304
 21
3.5008407554697012
 31
0.0
  0
LINE
  5
144
100
AcDbEntity
100
AcDbLine
  8
color#4595e3fd
 62
256
370
-1
  6
BYLAYER
 10
4.7110775131673304
 20
3.5008407554697012
 30
0.0
 11
4.7356923362629733
 21
3.463753017734418
 31
0.0
  0
LINE
  5
145
100
AcDbEntity
100
AcDbLine
  8
color#4595e3fd
 62
256
370
-1
  6
BYLAYER
 10
4.7356923362629733
 20
3.463753017734418
 30
0.0
 11
4.757747515146832
 21
3.42533500858787
 31
0.0
  0
LINE
  5
146
100
AcDbEntity
100
AcDbLine
  8
color#4595e3fd
 62
256
370
-1
  6
BYLAYER
 10
4.757747515146832
 20
3.42533500858787
 30
0.0
 11
4.7772604682568929
 21
3.385724879026125
 31
0.0
  0
LINE
  5
147
100
AcDbEntity
100
AcDbLine
  8
color#4595e3fd
 62
256
370
-1
  6
BYLAYER
 10
4.7772604682568929
 20
3.385724879026125
 30
0.0
 11
4.7942486140311331
 21
3.3450607800452619
 31
0.0
  0
LINE
  5
148
100
AcDbEntity
100
AcDbLine
  8
color#4595e3fd
 62
256
370
-1
  6
BYLAYER
 10
4.7942486140311331
 20
3.3450607800452619
 30
0.0
 11
4.8087293709075345
 21
3.3034808626413557
 31
0.0
  0
LINE
  5
149
100
AcDbEntity
100
AcDbLine
  8
color#4595e3fd
 62
256
370
-1
  6
BYLAYER
 10
4.8087293709075345
 20
3.3034808626413557
 30
0.0
 11
4.8207201573240859
 21
3.2611232778104764
 31
0.0
  0
LINE
  5
14A
100
AcDbEntity
100
AcDbLine
  8
color#4595e3fd
 62
256
370
-1
  6
BYLAYER
 10
4.8207201573240859
 20
3.2611232778104764
 30
0.0
 11
4.8302383917187637
 21
3.2181261765487026
 31
0.0
  0
LINE
  5
14B
100
AcDbEntity
100
AcDbLine
  8
color#4595e3fd
 62
256
370
-1
  6
BYLAYER
 10
4.8302383917187637
 20
3.2181261765487026
 30
0.0
 11
4.8373014925295488
 21
3.1746277098521083
 31
0.0
  0
LINE
  5
14C
100
AcDbEntity
100
AcDbLine
  8
color#4595e3fd
 62
256
370
-1
  6
BYLAYER
 10
4.8373014925295488
 20
3.1746277098521083
 30
0.0
 11
4.8419268781944247
 21
3.1307660287167667
 31
0.0
  0
LINE
  5
14D
100
AcDbEntity
100
AcDbLine
  8
color#4595e3fd
 62
256
370
-1
  6
BYLAYER
 10
4.8419268781944247
 20
3.1307660287167667
 30
0.0
 11
4.8441319671513776
 21
3.0866792841387536
 31
0.0
  0
LINE
  5
14E
100
AcDbEntity
100
AcDbLine
  8
color#4595e3fd
 62
256
370
-1
  6
BYLAYER
 10
4.8441319671513776
 20
3.0866792841387536
 30
0.0
 11
4.8439341778383831
 21
3.0425056271141435
 31
0.0
  0
LINE
  5
14F
100
AcDbEntity
100
AcDbLine
  8
color#4595e3fd
 62
256
370
-1
  6
BYLAYER
 10
4.8439341778383831
 20
3.0425056271141435
 30
0.0
 11
4.8413509286934264
 21
2.9983832086390083
 31
0.0
  0
LINE
  5
150
100
AcDbEntity
100
AcDbLine
  8
color#4595e3fd
 62
256
370
-1
  6
BYLAYER
 10
4.8413509286934264
 20
2.9983832086390083
 30
0.0
 11
4.8363996381544911
 21
2.9544501797094265
 31
0.0
  0
LINE
  5
151
100
AcDbEntity
100
AcDbLine
  8
color#4595e3fd
 62
256
370
-1
  6
BYLAYER
 10
4.8363996381544911
 20
2.9544501797094265
 30
0.0
 11
4.8290977246595554
 21
2.9108446913214703
 31
0.0
  0
LINE
  5
152
100
AcDbEntity
100
AcDbLine
  8
color#4595e3fd
 62
256
370
-1
  6
BYLAYER
 10
4.8290977246595554
 20
2.9108446913214703
 30
0.0
 11
4.8194626066466055
 21
2.8677048944712151
 31
0.0
  0
LINE
  5
153
100
AcDbEntity
100
AcDbLine
  8
color#4595e3fd
 62
256
370
-1
  6
BYLAYER
 10
4.8194626066466055
 20
2.8677048944712151
 30
0.0
 11
4.8075117025536178
 21
2.8251689401547346
 31
0.0
  0
LINE
  5
154
100
AcDbEntity
100
AcDbLine
  8
color#4595e3fd
 62
256
370
-1
  6
BYLAYER
 10
4.8075117025536178
 20
2.8251689401547346
 30
0.0
 11
4.7932624308185812
 21
2.7833749793681033
 31
0.0
  0
LINE
  5
155
100
AcDbEntity
100
AcDbLine
  8
color#4595e3fd
 62
256
370
-1
  6
BYLAYER
 10
4.7932624308185812
 20
2.7833749793681033
 30
0.0
 11
4.7767322098794729
 21
2.742461163107397
 31
0.0
  0
LINE
  5
156
100
AcDbEntity
100
AcDbLine
  8
color#4595e3fd
 62
256
370
-1
  6
BYLAYER
 10
4.7767322098794729
 20
2.742461163107397
 30
0.0
 11
4.7579384581742765
 21
2.7025656423686888
 31
0.0
  0
LINE
  5
157
100
AcDbEntity
100
AcDbLine
  8
color#4595e3fd
 62
256
370
-1
  6
BYLAYER
 10
4.7579384581742765
 20
2.7025656423686888
 30
0.0
 11
4.7368985941409747
 21
2.6638265681480542
 31
0.0
  0
LINE
  5
158
100
AcDbEntity
100
AcDbLine
  8
color#4595e3fd
 62
256
370
-1
  6
BYLAYER
 10
4.7368985941409747
 20
2.6638265681480542
 30
0.0
 11
4.7136300362175483
 21
2.6263820914415681
 31
0.0
  0
LINE
  5
159
100
AcDbEntity
100
AcDbLine
  8
color#4595e3fd
 62
256
370
-1
  6
BYLAYER
 10
4.7136300362175483
 20
2.6263820914415681
 30
0.0
 11
4.6881502028419781
 21
2.5903703632453028
 31
0.0
  0
LINE
  5
15A
100
AcDbEntity
100
AcDbLine
  8
color#4595e3fd
 62
256
370
-1
  6
BYLAYER
 10
4.6881502028419781
 20
2.5903703632453028
 30
0.0
 11
4.6604765124522505
 21
2.5559295345553354
 31
0.0
  0
LINE
  5
15B
100
AcDbEntity
100
AcDbLine
  8
color#4595e3fd
 62
256
370
-1
  6
BYLAYER
 10
4.6604765124522505
 20
2.5559295345553354
 30
0.0
 11
4.6306263834863426
 21
2.5231977563677392
 31
0.0
  0
LINE
  5
15C
100
AcDbEntity
100
AcDbLine
  8
color#4595e3fd
 62
256
370
-1
  6
BYLAYER
 10
4.6306263834863426
 20
2.5231977563677392
 30
0.0
 11
4.5986172343822398
 21
2.4923131796785887
 31
0.0
  0
LINE
  5
15D
100
AcDbEntity
100
AcDbLine
  8
color#4595e3fd
 62
256
370
-1
  6
BYLAYER
 10
4.5986172343822398
 20
2.4923131796785887
 30
0.0
 11
4.564466483577923
 21
2.4634139554839587
 31
0.0
  0
LINE
  5
15E
100
AcDbEntity
100
AcDbLine
  8
color#4595e3fd
 62
256
370
-1
  6
BYLAYER
 10
4.564466483577923
 20
2.4634139554839587
 30
0.0
 11
4.5281915495113729
 21
2.4366382347799243
 31
0.0
  0
LINE
  5
15F
100
AcDbEntity
100
AcDbLine
  8
color#4595e3fd
 62
256
370
-1
  6
BYLAYER
 10
4.5281915495113729
 20
2.4366382347799243
 30
0.0
 11
4.2794118152711436
 21
2.6905452313542479
 31
0.0
  0
LINE
  5
160
100
AcDbEntity
100
AcDbLine
  8
color#4595e3fd
 62
256
370
-1
  6
BYLAYER
 10
4.2794118152711436
 20
2.6905452313542479
 30
0.0
 11
4.3014938034007271
 21
2.7040182516690061
 31
0.0
  0
LINE
  5
161
100
AcDbEntity
100
AcDbLine
  8
color#4595e3fd
 62
256
370
-1
  6
BYLAYER
 10
4.3014938034007271
 20
2.7040182516690061
 30
0.0
 11
4.3224801159805102
 21
2.7188281155688236
 31
0.0
  0
LINE
  5
162
100
AcDbEntity
100
AcDbLine
  8
color#4595e3fd
 62
256
370
-1
  6
BYLAYER
 10
4.3224801159805102
 20
2.7188281155688236
 30
0.0
 11
4.3423495777597898
 21
2.7348937763492693
 31
0.0
  0
LINE
  5
163
100
AcDbEntity
100
AcDbLine
  8
color#4595e3fd
 62
256
370
-1
  6
BYLAYER
 10
4.3423495777597898
 20
2.7348937763492693
 30
0.0
 11
4.3610810134878495
 21
2.7521341873059217
 31
0.0
  0
LINE
  5
164
100
AcDbEntity
100
AcDbLine
  8
color#4595e3fd
 62
256
370
-1
  6
BYLAYER
 10
4.3610810134878495
 20
2.7521341873059217
 30
0.0
 11
4.3786532479139808
 21
2.7704683017343519
 31
0.0
  0
LINE
  5
165
100
AcDbEntity
100
AcDbLine
  8
color#4595e3fd
 62
256
370
-1
  6
BYLAYER
 10
4.3786532479139808
 20
2.7704683017343519
 30
0.0
 11
4.3950451057874718
 21
2.7898150729301339
 31
0.0
  0
LINE
  5
166
100
AcDbEntity
100
AcDbLine
  8
color#4595e3fd
 62
256
370
-1
  6
BYLAYER
 10
4.3950451057874718
 20
2.7898150729301339
 30
0.0
 11
4.4102354118576113
 21
2.8100934541888427
 31
0.0
  0
LINE
  5
167
100
AcDbEntity
100
AcDbLine
  8
color#4595e3fd
 62
256
370
-1
  6
BYLAYER
 10
4.4102354118576113
 20
2.8100934541888427
 30
0.0
 11
4.4242029908736917
 21
2.831222398806049
 31
0.0
  0
LINE
  5
168
100
AcDbEntity
100
AcDbLine
  8
color#4595e3fd
 62
256
370
-1
  6
BYLAYER
 10
4.4242029908736917
 20
2.831222398806049
 30
0.0
 11
4.4369266675849977
 21
2.8531208600773295
 31
0.0
  0
LINE
  5
169
100
AcDbEntity
100
AcDbLine
  8
color#4595e3fd
 62
256
370
-1
  6
BYLAYER
 10
4.4369266675849977
 20
2.8531208600773295
 30
0.0
 11
4.4483852667408188
 21
2.8757077912982587
 31
0.0
  0
LINE
  5
16A
100
AcDbEntity
100
AcDbLine
  8
color#4595e3fd
 62
256
370
-1
  6
BYLAYER
 10
4.4483852667408188
 20
2.8757077912982587
 30
0.0
 11
4.4585576130904467
 21
2.8989021457644069
 31
0.0
  0
LINE
  5
16B
100
AcDbEntity
100
AcDbLine
  8
color#4595e3fd
 62
256
370
-1
  6
BYLAYER
 10
4.4585576130904467
 20
2.8989021457644069
 30
0.0
 11
4.4674225313831695
 21
2.9226228767713502
 31
0.0
  0
LINE
  5
16C
100
AcDbEntity
100
AcDbLine
  8
color#4595e3fd
 62
256
370
-1
  6
BYLAYER
 10
4.4674225313831695
 20
2.9226228767713502
 30
0.0
 11
4.4749588463682741
 21
2.9467889376146639
 31
0.0
  0
LINE
  5
16D
100
AcDbEntity
100
AcDbLine
  8
color#4595e3fd
 62
256
370
-1
  6
BYLAYER
 10
4.4749588463682741
 20
2.9467889376146639
 30
0.0
 11
4.4811453827950523
 21
2.9713192815899165
 31
0.0
  0
LINE
  5
16E
100
AcDbEntity
100
AcDbLine
  8
color#4595e3fd
 62
256
370
-1
  6
BYLAYER
 10
4.4811453827950523
 20
2.9713192815899165
 30
0.0
 11
4.485960965412791
 21
2.9961328619926868
 31
0.0
  0
LINE
  5
16F
100
AcDbEntity
100
AcDbLine
  8
color#4595e3fd
 62
256
370
-1
  6
BYLAYER
 10
4.485960965412791
 20
2.9961328619926868
 30
0.0
 11
4.489384418970781
 21
3.021148632118547
 31
0.0
  0
LINE
  5
170
100
AcDbEntity
100
AcDbLine
  8
color#4595e3fd
 62
256
370
-1
  6
BYLAYER
 10
4.489384418970781
 20
3.021148632118547
 30
0.0
 11
4.4913945682183094
 21
3.0462855452630699
 31
0.0
  0
LINE
  5
171
100
AcDbEntity
100
AcDbLine
  8
color#4595e3fd
 62
256
370
-1
  6
BYLAYER
 10
4.4913945682183094
 20
3.0462855452630699
 30
0.0
 11
4.4919702379046669
 21
3.0714625547218302
 31
0.0
  0
LINE
  5
172
100
AcDbEntity
100
AcDbLine
  8
color#4595e3fd
 62
256
370
-1
  6
BYLAYER
 10
4.4919702379046669
 20
3.0714625547218302
 30
0.0
 11
4.4910902527791414
 21
3.0965986137904014
 31
0.0
  0
LINE
  5
173
100
AcDbEntity
100
AcDbLine
  8
color#4595e3fd
 62
256
370
-1
  6
BYLAYER
 10
4.4910902527791414
 20
3.0965986137904014
 30
0.0
 11
4.4887334375910246
 21
3.1216126757643567
 31
0.0
  0
LINE
  5
174
100
AcDbEntity
100
AcDbLine
  8
color#4595e3fd
 62
256
370
-1
  6
BYLAYER
 10
4.4887334375910246
 20
3.1216126757643567
 30
0.0
 11
4.4848786170896027
 21
3.1464236939392709
 31
0.0
  0
LINE
  5
175
100
AcDbEntity
100
AcDbLine
  8
color#4595e3fd
 62
256
370
-1
  6
BYLAYER
 10
4.4848786170896027
 20
3.1464236939392709
 30
0.0
 11
4.4795046160241654
 21
3.1709506216107166
 31
0.0
  0
LINE
  5
176
100
AcDbEntity
100
AcDbLine
  8
color#4595e3fd
 62
256
370
-1
  6
BYLAYER
 10
4.4795046160241654
 20
3.1709506216107166
 30
0.0
 11
4.4725902591440025
 21
3.1951124120742693
 31
0.0
  0
LINE
  5
177
100
AcDbEntity
100
AcDbLine
  8
color#4595e3fd
 62
256
370
-1
  6
BYLAYER
 10
4.4725902591440025
 20
3.1951124120742693
 30
0.0
 11
4.4641143711984022
 21
3.2188280186255005
 31
0.0
  0
LINE
  5
178
100
AcDbEntity
100
AcDbLine
  8
color#4595e3fd
 62
256
370
-1
  6
BYLAYER
 10
4.4641143711984022
 20
3.2188280186255005
 30
0.0
 11
4.4540557769366531
 21
3.2420163945599856
 31
0.0
  0
LINE
  5
179
100
AcDbEntity
100
AcDbLine
  8
color#4595e3fd
 62
256
370
-1
  6
BYLAYER
 10
4.4540557769366531
 20
3.2420163945599856
 30
0.0
 11
4.4423933011080452
 21
3.2645964931732974
 31
0.0
  0
LINE
  5
17A
100
AcDbEntity
100
AcDbLine
  8
color#4595e3fd
 62
256
370
-1
  6
BYLAYER
 10
4.4423933011080452
 20
3.2645964931732974
 30
0.0
 11
4.4291057684618682
 21
3.28648726776101
 31
0.0
  0
LINE
  5
17B
100
AcDbEntity
100
AcDbLine
  8
color#4595e3fd
 62
256
370
-1
  6
BYLAYER
 10
4.4291057684618682
 20
3.28648726776101
 30
0.0
 11
4.4141720037474101
 21
3.3076076716186984
 31
0.0
  0
LINE
  5
17C
100
AcDbEntity
100
AcDbLine
  8
color#4595e3fd
 62
256
370
-1
  6
BYLAYER
 10
4.4141720037474101
 20
3.3076076716186984
 30
0.0
 11
4.3975708317139599
 21
3.3278766580419341
 31
0.0
  0
LINE
  5
17D
100
AcDbEntity
100
AcDbLine
  8
color#4595e3fd
 62
256
370
-1
  6
BYLAYER
 10
4.3975708317139599
 20
3.3278766580419341
 30
0.0
 11
3.7672372474796236
 21
3.9618408079321443
 31
0.0
  0
LINE
  5
17E
100
AcDbEntity
100
AcDbLine
  8
color#4595e3fd
 62
256
370
-1
  6
BYLAYER
 10
3.7672372474796236
 20
3.9618408079321443
 30
0.0
 11
3.7071345546111059
 21
4.0230811328735383
 31
0.0
  0
LINE
  5
17F
100
AcDbEntity
100
AcDbLine
  8
color#4595e3fd
 62
256
370
-1
  6
BYLAYER
 10
3.7071345546111059
 20
4.0230811328735383
 30
0.0
 11
3.6754118375755755
 21
4.0526561640465228
 31
0.0
  0
LINE
  5
180
100
AcDbEntity
100
AcDbLine
  8
color#4595e3fd
 62
256
370
-1
  6
BYLAYER
 10
3.6754118375755755
 20
4.0526561640465228
 30
0.0
 11
3.65353132214879
 21
4.0715020267616531
 31
0.0
  0
LINE
  5
181
100
AcDbEntity
100
AcDbLine
  8
color#4595e3fd
 62
256
370
-1
  6
BYLAYER
 10
3.65353132214879
 20
4.0715020267616531
 30
0.0
 11
3.6423529604637364
 21
4.0805845533971699
 31
0.0
  0
LINE
  5
182
100
AcDbEntity
100
AcDbLine
  8
color#4595e3fd
 62
256
370
-1
  6
BYLAYER
 10
3.6423529604637364
 20
4.0805845533971699
 30
0.0
 11
3.6310076437972492
 21
4.0894049625282172
 31
0.0
  0
LINE
  5
183
100
AcDbEntity
100
AcDbLine
  8
color#4595e3fd
 62
256
370
-1
  6
BYLAYER
 10
3.6310076437972492
 20
4.0894049625282172
 30
0.0
 11
3.6194892078990843
 21
4.097936868387464
 31
0.0
  0
LINE
  5
184
100
AcDbEntity
100
AcDbLine
  8
color#4595e3fd
 62
256
370
-1
  6
BYLAYER
 10
3.6194892078990843
 20
4.097936868387464
 30
0.0
 11
3.6077914885189983
 21
4.1061538852075801
 31
0.0
  0
LINE
  5
185
100
AcDbEntity
100
AcDbLine
  8
color#4595e3fd
 62
256
370
-1
  6
BYLAYER
 10
3.6077914885189983
 20
4.1061538852075801
 30
0.0
 11
3.5959083214067453
 21
4.114029627221238
 31
0.0
  0
LINE
  5
186
100
AcDbEntity
100
AcDbLine
  8
color#4595e3fd
 62
256
370
-1
  6
BYLAYER
 10
3.5959083214067453
 20
4.114029627221238
 30
0.0
 11
3.5838335423120822
 21
4.1215377086611067
 31
0.0
  0
LINE
  5
187
100
AcDbEntity
100
AcDbLine
  8
color#4595e3fd
 62
256
370
-1
  6
BYLAYER
 10
3.5838335423120822
 20
4.1215377086611067
 30
0.0
 11
3.5715609869847658
 21
4.128651743759856
 31
0.0
  0
LINE
  5
188
100
AcDbEntity
100
AcDbLine
  8
color#4595e3fd
 62
256
370
-1
  6
BYLAYER
 10
3.5715609869847658
 20
4.128651743759856
 30
0.0
 11
3.5590844911745489
 21
4.1353453467501584
 31
0.0
  0
LINE
  5
189
100
AcDbEntity
100
AcDbLine
  8
color#4595e3fd
 62
256
370
-1
  6
BYLAYER
 10
3.5590844911745489
 20
4.1353453467501584
 30
0.0
 11
3.5463978906311904
 21
4.141592131864682
 31
0.0
  0
LINE
  5
18A
100
AcDbEntity
100
AcDbLine
  8
color#4595e3fd
 62
256
370
-1
  6
BYLAYER
 10
3.5463978906311904
 20
4.141592131864682
 30
0.0
 11
3.5334950211044447
 21
4.1473657133360984
 31
0.0
  0
LINE
  5
18B
100
AcDbEntity
100
AcDbLine
  8
color#4595e3fd
 62
256
370
-1
  6
BYLAYER
 10
3.5334950211044447
 20
4.1473657133360984
 30
0.0
 11
3.5203697183440674
 21
4.1526397053970783
 31
0.0
  0
LINE
  5
18C
100
AcDbEntity
100
AcDbLine
  8
color#4595e3fd
 62
256
370
-1
  6
BYLAYER
 10
3.5203697183440674
 20
4.1526397053970783
 30
0.0
 11
3.5070158180998146
 21
4.1573877222802924
 31
0.0
  0
LINE
  5
18D
100
AcDbEntity
100
AcDbLine
  8
color#4595e3fd
 62
256
370
-1
  6
BYLAYER
 10
3.5070158180998146
 20
4.1573877222802924
 30
0.0
 11
3.4934271561214421
 21
4.1615833782184106
 31
0.0
  0
LINE
  5
18E
100
AcDbEntity
100
AcDbLine
  8
color#4595e3fd
 62
256
370
-1
  6
BYLAYER
 10
3.4934271561214421
 20
4.1615833782184106
 30
0.0
 11
3.4795975681587055
 21
4.1652002874441036
 31
0.0
  0
LINE
  5
18F
100
AcDbEntity
100
AcDbLine
  8
color#4595e3fd
 62
256
370
-1
  6
BYLAYER
 10
3.4795975681587055
 20
4.1652002874441036
 30
0.0
 11
3.4655208899613612
 21
4.1682120641900404
 31
0.0
  0
LINE
  5
190
100
AcDbEntity
100
AcDbLine
  8
color#4595e3fd
 62
256
370
-1
  6
BYLAYER
 10
3.4655208899613612
 20
4.1682120641900404
 30
0.0
 11
3.4511909572791644
 21
4.1705923226888935
 31
0.0
  0
LINE
  5
191
100
AcDbEntity
100
AcDbLine
  8
color#4595e3fd
 62
256
370
-1
  6
BYLAYER
 10
3.4511909572791644
 20
4.1705923226888935
 30
0.0
 11
3.4366016058618709
 21
4.1723146771733326
 31
0.0
  0
LINE
  5
192
100
AcDbEntity
100
AcDbLine
  8
color#4595e3fd
 62
256
370
-1
  6
BYLAYER
 10
3.4366016058618709
 20
4.1723146771733326
 30
0.0
 11
3.4217466714592364
 21
4.1733527418760286
 31
0.0
  0
LINE
  5
193
100
AcDbEntity
100
AcDbLine
  8
color#4595e3fd
 62
256
370
-1
  6
BYLAYER
 10
3.4217466714592364
 20
4.1733527418760286
 30
0.0
 11
3.3906929478066954
 21
4.1761379765145499
 31
0.0
  0
LINE
  5
194
100
AcDbEntity
100
AcDbLine
  8
color#4595e3fd
 62
256
370
-1
  6
BYLAYER
 10
3.3906929478066954
 20
4.1761379765145499
 30
0.0
 11
3.359981591862137
 21
4.1762987165415284
 31
0.0
  0
LINE
  5
195
100
AcDbEntity
100
AcDbLine
  8
color#4595e3fd
 62
256
370
-1
  6
BYLAYER
 10
3.359981591862137
 20
4.1762987165415284
 30
0.0
 11
3.3296998433785538
 21
4.1739445877098262
 31
0.0
  0
LINE
  5
196
100
AcDbEntity
100
AcDbLine
  8
color#4595e3fd
 62
256
370
-1
  6
BYLAYER
 10
3.3296998433785538
 20
4.1739445877098262
 30
0.0
 11
3.2999349421089317
 21
4.1691852157723099
 31
0.0
  0
LINE
  5
197
100
AcDbEntity
100
AcDbLine
  8
color#4595e3fd
 62
256
370
-1
  6
BYLAYER
 10
3.2999349421089317
 20
4.1691852157723099
 30
0.0
 11
3.2707741278062659
 21
4.1621302264818416
 31
0.0
  0
LINE
  5
198
100
AcDbEntity
100
AcDbLine
  8
color#4595e3fd
 62
256
370
-1
  6
BYLAYER
 10
3.2707741278062659
 20
4.1621302264818416
 30
0.0
 11
3.242304640223542
 21
4.1528892455912843
 31
0.0
  0
LINE
  5
199
100
AcDbEntity
100
AcDbLine
  8
color#4595e3fd
 62
256
370
-1
  6
BYLAYER
 10
3.242304640223542
 20
4.1528892455912843
 30
0.0
 11
3.2146137191137512
 21
4.1415718988535053
 31
0.0
  0
LINE
  5
19A
100
AcDbEntity
100
AcDbLine
  8
color#4595e3fd
 62
256
370
-1
  6
BYLAYER
 10
3.2146137191137512
 20
4.1415718988535053
 30
0.0
 11
3.1877886042298842
 21
4.128287812021366
 31
0.0
  0
LINE
  5
19B
100
AcDbEntity
100
AcDbLine
  8
color#4595e3fd
 62
256
370
-1
  6
BYLAYER
 10
3.1877886042298842
 20
4.128287812021366
 30
0.0
 11
3.1619165353249312
 21
4.1131466108477293
 31
0.0
  0
LINE
  5
19C
100
AcDbEntity
100
AcDbLine
  8
color#4595e3fd
 62
256
370
-1
  6
BYLAYER
 10
3.1619165353249312
 20
4.1131466108477293
 30
0.0
 11
3.1370847521518788
 21
4.0962579210854635
 31
0.0
  0
LINE
  5
19D
100
AcDbEntity
100
AcDbLine
  8
color#4595e3fd
 62
256
370
-1
  6
BYLAYER
 10
3.1370847521518788
 20
4.0962579210854635
 30
0.0
 11
3.1133804944637209
 21
4.077731368487429
 31
0.0
  0
LINE
  5
19E
100
AcDbEntity
100
AcDbLine
  8
color#4595e3fd
 62
256
370
-1
  6
BYLAYER
 10
3.1133804944637209
 20
4.077731368487429
 30
0.0
 11
3.0908910020134468
 21
4.0576765788064897
 31
0.0
  0
LINE
  5
19F
100
AcDbEntity
100
AcDbLine
  8
color#4595e3fd
 62
256
370
-1
  6
BYLAYER
 10
3.0908910020134468
 20
4.0576765788064897
 30
0.0
 11
3.0697035145540443
 21
4.0362031777955121
 31
0.0
  0
LINE
  5
1A0
100
AcDbEntity
100
AcDbLine
  8
color#4595e3fd
 62
256
370
-1
  6
BYLAYER
 10
3.0697035145540443
 20
4.0362031777955121
 30
0.0
 11
3.0499052718385049
 21
4.0134207912073583
 31
0.0
  0
LINE
  5
1A1
100
AcDbEntity
100
AcDbLine
  8
color#4595e3fd
 62
256
370
-1
  6
BYLAYER
 10
3.0499052718385049
 20
4.0134207912073583
 30
0.0
 11
3.0315835136198177
 21
3.9894390447948931
 31
0.0
  0
LINE
  5
1A2
100
AcDbEntity
100
AcDbLine
  8
color#4595e3fd
 62
256
370
-1
  6
BYLAYER
 10
3.0315835136198177
 20
3.9894390447948931
 30
0.0
 11
3.0148254796509733
 21
3.9643675643109799
 31
0.0
  0
LINE
  5
1A3
100
AcDbEntity
100
AcDbLine
  8
color#4595e3fd
 62
256
370
-1
  6
BYLAYER
 10
3.0148254796509733
 20
3.9643675643109799
 30
0.0
 11
2.9997184096849616
 21
3.9383159755084827
 31
0.0
  0
LINE
  5
1A4
100
AcDbEntity
100
AcDbLine
  8
color#4595e3fd
 62
256
370
-1
  6
BYLAYER
 10
2.9997184096849616
 20
3.9383159755084827
 30
0.0
 11
2.9863495434747729
 21
3.9113939041402657
 31
0.0
  0
LINE
  5
1A5
100
AcDbEntity
100
AcDbLine
  8
color#4595e3fd
 62
256
370
-1
  6
BYLAYER
 10
2.9863495434747729
 20
3.9113939041402657
 30
0.0
 11
2.9748061207733958
 21
3.8837109759591937
 31
0.0
  0
LINE
  5
1A6
100
AcDbEntity
100
AcDbLine
  8
color#4595e3fd
 62
256
370
-1
  6
BYLAYER
 10
2.9748061207733958
 20
3.8837109759591937
 30
0.0
 11
2.9651753813338217
 21
3.8553768167181293
 31
0.0
  0
LINE
  5
1A7
100
AcDbEntity
100
AcDbLine
  8
color#4595e3fd
 62
256
370
-1
  6
BYLAYER
 10
2.9651753813338217
 20
3.8553768167181293
 30
0.0
 11
2.9575445649090399
 21
3.8265010521699363
 31
0.0
  0
LINE
  5
1A8
100
AcDbEntity
100
AcDbLine
  8
color#4595e3fd
 62
256
370
-1
  6
BYLAYER
 10
2.9575445649090399
 20
3.8265010521699363
 30
0.0
 11
2.9520009112520396
 21
3.7971933080674805
 31
0.0
  0
LINE
  5
1A9
100
AcDbEntity
100
AcDbLine
  8
color#4595e3fd
 62
256
370
-1
  6
BYLAYER
 10
2.9520009112520396
 20
3.7971933080674805
 30
0.0
 11
2.9486316601158111
 21
3.7675632101636243
 31
0.0
  0
LINE
  5
1AA
100
AcDbEntity
100
AcDbLine
  8
color#4595e3fd
 62
256
370
-1
  6
BYLAYER
 10
2.9486316601158111
 20
3.7675632101636243
 30
0.0
 11
2.9475240512533456
 21
3.7377203842112325
 31
0.0
  0
LINE
  5
1AB
100
AcDbEntity
100
AcDbLine
  8
color#4595e3fd
 62
256
370
-1
  6
BYLAYER
 10
2.9475240512533456
 20
3.7377203842112325
 30
0.0
 11
2.9487653244176317
 21
3.7077744559631691
 31
0.0
  0
LINE
  5
1AC
100
AcDbEntity
100
AcDbLine
  8
color#4595e3fd
 62
256
370
-1
  6
BYLAYER
 10
2.9487653244176317
 20
3.7077744559631691
 30
0.0
 11
2.9524427193616596
 21
3.6778350511722966
 31
0.0
  0
LINE
  5
1AD
100
AcDbEntity
100
AcDbLine
  8
color#4595e3fd
 62
256
370
-1
  6
BYLAYER
 10
2.9524427193616596
 20
3.6778350511722966
 30
0.0
 11
2.9586434758384192
 21
3.6480117955914815
 31
0.0
  0
LINE
  5
1AE
100
AcDbEntity
100
AcDbLine
  8
color#4595e3fd
 62
256
370
-1
  6
BYLAYER
 10
2.9586434758384192
 20
3.6480117955914815
 30
0.0
 11
2.9674548336009003
 21
3.6184143149735855
 31
0.0
  0
LINE
  5
1AF
100
AcDbEntity
100
AcDbLine
  8
color#4595e3fd
 62
256
370
-1
  6
BYLAYER
 10
2.9674548336009003
 20
3.6184143149735855
 30
0.0
 11
2.978964032402093
 21
3.5891522350714746
 31
0.0
  0
LINE
  5
1B0
100
AcDbEntity
100
AcDbLine
  8
color#4595e3fd
 62
256
370
-1
  6
BYLAYER
 10
2.978964032402093
 20
3.5891522350714746
 30
0.0
 11
2.9887669879557466
 21
3.5703800435511073
 31
0.0
  0
LINE
  5
1B1
100
AcDbEntity
100
AcDbLine
  8
color#4595e3fd
 62
256
370
-1
  6
BYLAYER
 10
2.9887669879557466
 20
3.5703800435511073
 30
0.0
 11
2.9991823831911693
 21
3.5520691862284712
 31
0.0
  0
LINE
  5
1B2
100
AcDbEntity
100
AcDbLine
  8
color#4595e3fd
 62
256
370
-1
  6
BYLAYER
 10
2.9991823831911693
 20
3.5520691862284712
 30
0.0
 11
3.0101751256299076
 21
3.53419326074216
 31
0.0
  0
LINE
  5
1B3
100
AcDbEntity
100
AcDbLine
  8
color#4595e3fd
 62
256
370
-1
  6
BYLAYER
 10
3.0101751256299076
 20
3.53419326074216
 30
0.0
 11
3.0217101227934999
 21
3.5167258647307751
 31
0.0
  0
LINE
  5
1B4
100
AcDbEntity
100
AcDbLine
  8
color#4595e3fd
 62
256
370
-1
  6
BYLAYER
 10
3.0217101227934999
 20
3.5167258647307751
 30
0.0
 11
3.0337522822034932
 21
3.4996405958329069
 31
0.0
  0
LINE
  5
1B5
100
AcDbEntity
100
AcDbLine
  8
color#4595e3fd
 62
256
370
-1
  6
BYLAYER
 10
3.0337522822034932
 20
3.4996405958329069
 30
0.0
 11
3.0462665113814271
 21
3.4829110516871569
 31
0.0
  0
LINE
  5
1B6
100
AcDbEntity
100
AcDbLine
  8
color#4595e3fd
 62
256
370
-1
  6
BYLAYER
 10
3.0462665113814271
 20
3.4829110516871569
 30
0.0
 11
3.0592177178488447
 21
3.4665108299321212
 31
0.0
  0
LINE
  5
1B7
100
AcDbEntity
100
AcDbLine
  8
color#4595e3fd
 62
256
370
-1
  6
BYLAYER
 10
3.0592177178488447
 20
3.4665108299321212
 30
0.0
 11
3.0725708091272903
 21
3.450413528206393
 31
0.0
  0
LINE
  5
1B8
100
AcDbEntity
100
AcDbLine
  8
color#4595e3fd
 62
256
370
-1
  6
BYLAYER
 10
3.0725708091272903
 20
3.450413528206393
 30
0.0
 11
3.0862906927383054
 21
3.434592744148572
 31
0.0
  0
LINE
  5
1B9
100
AcDbEntity
100
AcDbLine
  8
color#4595e3fd
 62
256
370
-1
  6
BYLAYER
 10
3.0862906927383054
 20
3.434592744148572
 30
0.0
 11
3.1003422762034321
 21
3.4190220753972564
 31
0.0
  0
LINE
  5
1BA
100
AcDbEntity
100
AcDbLine
  8
color#4595e3fd
 62
256
370
-1
  6
BYLAYER
 10
3.1003422762034321
 20
3.4190220753972564
 30
0.0
 11
3.114690467044213
 21
3.4036751195910395
 31
0.0
  0
LINE
  5
1BB
100
AcDbEntity
100
AcDbLine
  8
color#4595e3fd
 62
256
370
-1
  6
BYLAYER
 10
3.114690467044213
 20
3.4036751195910395
 30
0.0
 11
3.1441363009389103
 21
3.3735467373682915
 31
0.0
  0
LINE
  5
1BC
100
AcDbEntity
100
AcDbLine
  8
color#4595e3fd
 62
256
370
-1
  6
BYLAYER
 10
3.1441363009389103
 20
3.3735467373682915
 30
0.0
 11
3.2820602042472178
 21
3.2420725847378993
 31
0.0
  0
LINE
  5
1BD
100
AcDbEntity
100
AcDbLine
  8
color#4595e3fd
 62
256
370
-1
  6
BYLAYER
 10
3.2820602042472178
 20
3.2420725847378993
 30
0.0
 11
3.3122411414608561
 21
3.2125094976758026
 31
0.0
  0
LINE
  5
1BE
100
AcDbEntity
100
AcDbLine
  8
color#4595e3fd
 62
256
370
-1
  6
BYLAYER
 10
3.3122411414608561
 20
3.2125094976758026
 30
0.0
 11
3.3416433293835013
 21
3.1823627301555208
 31
0.0
  0
LINE
  5
1BF
100
AcDbEntity
100
AcDbLine
  8
color#4595e3fd
 62
256
370
-1
  6
BYLAYER
 10
3.3416433293835013
 20
3.1823627301555208
 30
0.0
 11
3.3559646611645579
 21
3.1670044603200509
 31
0.0
  0
LINE
  5
1C0
100
AcDbEntity
100
AcDbLine
  8
color#4595e3fd
 62
256
370
-1
  6
BYLAYER
 10
3.3559646611645579
 20
3.1670044603200509
 30
0.0
 11
3.369986028187494
 21
3.1514210632858255
 31
0.0
  0
LINE
  5
1C1
100
AcDbEntity
100
AcDbLine
  8
color#4595e3fd
 62
256
370
-1
  6
BYLAYER
 10
3.369986028187494
 20
3.1514210632858255
 30
0.0
 11
3.3836723379738527
 21
3.135586136691439
 31
0.0
  0
LINE
  5
1C2
100
AcDbEntity
100
AcDbLine
  8
color#4595e3fd
 62
256
370
-1
  6
BYLAYER
 10
3.3836723379738527
 20
3.135586136691439
 30
0.0
 11
3.3501756855335909
 21
3.0225013279238016
 31
0.0
  0
LINE
  5
1C3
100
AcDbEntity
100
AcDbLine
  8
color#4595e3fd
 62
256
370
-1
  6
BYLAYER
 10
3.3501756855335909
 20
3.0225013279238016
 30
0.0
 11
3.3332932876695693
 21
2.950594496663987
 31
0.0
  0
LINE
  5
1C4
100
AcDbEntity
100
AcDbLine
  8
color#4595e3fd
 62
256
370
-1
  6
BYLAYER
 10
3.3332932876695693
 20
2.950594496663987
 30
0.0
 11
3.3226202701272061
 21
2.8924951288273957
 31
0.0
  0
LINE
  5
1C5
100
AcDbEntity
100
AcDbLine
  8
color#4595e3fd
 62
256
370
-1
  6
BYLAYER
 10
3.3226202701272061
 20
2.8924951288273957
 30
0.0
 11
3.3165102146182344
 21
2.8486297523717932
 31
0.0
  0
LINE
  5
1C6
100
AcDbEntity
100
AcDbLine
  8
color#4595e3fd
 62
256
370
-1
  6
BYLAYER
 10
3.3165102146182344
 20
2.8486297523717932
 30
0.0
 11
3.3121971815294975
 21
2.8045464511862992
 31
0.0
  0
LINE
  5
1C7
100
AcDbEntity
100
AcDbLine
  8
color#4595e3fd
 62
256
370
-1
  6
BYLAYER
 10
3.3121971815294975
 20
2.8045464511862992
 30
0.0
 11
3.3103970551676034
 21
2.7750504592196612
 31
0.0
  0
LINE
  5
1C8
100
AcDbEntity
100
AcDbLine
  8
color#4595e3fd
 62
256
370
-1
  6
BYLAYER
 10
3.3103970551676034
 20
2.7750504592196612
 30
0.0
 11
3.3095109302992913
 21
2.7454785289946293
 31
0.0
  0
LINE
  5
1C9
100
AcDbEntity
100
AcDbLine
  8
color#4595e3fd
 62
256
370
-1
  6
BYLAYER
 10
3.3095109302992913
 20
2.7454785289946293
 30
0.0
 11
3.3095849368695074
 21
2.7158390273820507
 31
0.0
  0
LINE
  5
1CA
100
AcDbEntity
100
AcDbLine
  8
color#4595e3fd
 62
256
370
-1
  6
BYLAYER
 10
3.3095849368695074
 20
2.7158390273820507
 30
0.0
 11
2.790127265788144
 21
3.2349048099261051
 31
0.0
  0
LINE
  5
1CB
100
AcDbEntity
100
AcDbLine
  8
color#4595e3fd
 62
256
370
-1
  6
BYLAYER
 10
2.790127265788144
 20
3.2349048099261051
 30
0.0
 11
2.762604876705419
 21
3.2665796093481134
 31
0.0
  0
LINE
  5
1CC
100
AcDbEntity
100
AcDbLine
  8
color#4595e3fd
 62
256
370
-1
  6
BYLAYER
 10
2.762604876705419
 20
3.2665796093481134
 30
0.0
 11
2.7372597186352241
 21
3.2996847985201083
 31
0.0
  0
LINE
  5
1CD
100
AcDbEntity
100
AcDbLine
  8
color#4595e3fd
 62
256
370
-1
  6
BYLAYER
 10
2.7372597186352241
 20
3.2996847985201083
 30
0.0
 11
2.7140847486504831
 21
3.3341059963873159
 31
0.0
  0
LINE
  5
1CE
100
AcDbEntity
100
AcDbLine
  8
color#4595e3fd
 62
256
370
-1
  6
BYLAYER
 10
2.7140847486504831
 20
3.3341059963873159
 30
0.0
 11
2.6930729238241167
 21
3.3697288218949715
 31
0.0
  0
LINE
  5
1CF
100
AcDbEntity
100
AcDbLine
  8
color#4595e3fd
 62
256
370
-1
  6
BYLAYER
 10
2.6930729238241167
 20
3.3697288218949715
 30
0.0
 11
2.674217201229049
 21
3.4064388939883035
 31
0.0
  0
LINE
  5
1D0
100
AcDbEntity
100
AcDbLine
  8
color#4595e3fd
 62
256
370
-1
  6
BYLAYER
 10
2.674217201229049
 20
3.4064388939883035
 30
0.0
 11
2.6575105379382
 21
3.4441218316125477
 31
0.0
  0
LINE
  5
1D1
100
AcDbEntity
100
AcDbLine
  8
color#4595e3fd
 62
256
370
-1
  6
BYLAYER
 10
2.6575105379382
 20
3.4441218316125477
 30
0.0
 11
2.6429458910244912
 21
3.4826632537129347
 31
0.0
  0
LINE
  5
1D2
100
AcDbEntity
100
AcDbLine
  8
color#4595e3fd
 62
256
370
-1
  6
BYLAYER
 10
2.6429458910244912
 20
3.4826632537129347
 30
0.0
 11
2.6305162175608459
 21
3.5219487792346942
 31
0.0
  0
LINE
  5
1D3
100
AcDbEntity
100
AcDbLine
  8
color#4595e3fd
 62
256
370
-1
  6
BYLAYER
 10
2.6305162175608459
 20
3.5219487792346942
 30
0.0
 11
2.6202144746201852
 21
3.5618640271230584
 31
0.0
  0
LINE
  5
1D4
100
AcDbEntity
100
AcDbLine
  8
color#4595e3fd
 62
256
370
-1
  6
BYLAYER
 10
2.6202144746201852
 20
3.5618640271230584
 30
0.0
 11
2.6120336192754303
 21
3.6022946163232632
 31
0.0
  0
LINE
  5
1D5
100
AcDbEntity
100
AcDbLine
  8
color#4595e3fd
 62
256
370
-1
  6
BYLAYER
 10
2.6120336192754303
 20
3.6022946163232632
 30
0.0
 11
2.6059666085995037
 21
3.6431261657805356
 31
0.0
  0
LINE
  5
1D6
100
AcDbEntity
100
AcDbLine
  8
color#4595e3fd
 62
256
370
-1
  6
BYLAYER
 10
2.6059666085995037
 20
3.6431261657805356
 30
0.0
 11
2.6020063996653287
 21
3.6842442944401079
 31
0.0
  0
LINE
  5
1D7
100
AcDbEntity
100
AcDbLine
  8
color#4595e3fd
 62
256
370
-1
  6
BYLAYER
 10
2.6020063996653287
 20
3.6842442944401079
 30
0.0
 11
2.6001459495458237
 21
3.7255346212472151
 31
0.0
  0
LINE
  5
1D8
100
AcDbEntity
100
AcDbLine
  8
color#4595e3fd
 62
256
370
-1
  6
BYLAYER
 10
2.6001459495458237
 20
3.7255346212472151
 30
0.0
 11
2.6003782153139134
 21
3.7668827651470846
 31
0.0
  0
LINE
  5
1D9
100
AcDbEntity
100
AcDbLine
  8
color#4595e3fd
 62
256
370
-1
  6
BYLAYER
 10
2.6003782153139134
 20
3.7668827651470846
 30
0.0
 11
2.6026961540425186
 21
3.808174345084951
 31
0.0
  0
LINE
  5
1DA
100
AcDbEntity
100
AcDbLine
  8
color#4595e3fd
 62
256
370
-1
  6
BYLAYER
 10
2.6026961540425186
 20
3.808174345084951
 30
0.0
 11
2.6070927228045617
 21
3.8492949800060452
 31
0.0
  0
LINE
  5
1DB
100
AcDbEntity
100
AcDbLine
  8
color#4595e3fd
 62
256
370
-1
  6
BYLAYER
 10
2.6070927228045617
 20
3.8492949800060452
 30
0.0
 11
2.6135608786729638
 21
3.8901302888556
 31
0.0
  0
LINE
  5
1DC
100
AcDbEntity
100
AcDbLine
  8
color#4595e3fd
 62
256
370
-1
  6
BYLAYER
 10
2.6135608786729638
 20
3.8901302888556
 30
0.0
 11
2.622093578720647
 21
3.9305658905788454
 31
0.0
  0
LINE
  5
1DD
100
AcDbEntity
100
AcDbLine
  8
color#4595e3fd
 62
256
370
-1
  6
BYLAYER
 10
2.622093578720647
 20
3.9305658905788454
 30
0.0
 11
2.6326837800205332
 21
3.9704874041210143
 31
0.0
  0
LINE
  5
1DE
100
AcDbEntity
100
AcDbLine
  8
color#4595e3fd
 62
256
370
-1
  6
BYLAYER
 10
2.6326837800205332
 20
3.9704874041210143
 30
0.0
 11
2.6453244396455449
 21
4.0097804484273381
 31
0.0
  0
LINE
  5
1DF
100
AcDbEntity
100
AcDbLine
  8
color#4595e3fd
 62
256
370
-1
  6
BYLAYER
 10
2.6453244396455449
 20
4.0097804484273381
 30
0.0
 11
2.6600085146686032
 21
4.0483306424430481
 31
0.0
  0
LINE
  5
1E0
100
AcDbEntity
100
AcDbLine
  8
color#4595e3fd
 62
256
370
-1
  6
BYLAYER
 10
2.6600085146686032
 20
4.0483306424430481
 30
0.0
 11
2.6767289621626298
 21
4.0860236051133763
 31
0.0
  0
LINE
  5
1E1
100
AcDbEntity
100
AcDbLine
  8
color#4595e3fd
 62
256
370
-1
  6
BYLAYER
 10
2.6767289621626298
 20
4.0860236051133763
 30
0.0
 11
2.6954787392005475
 21
4.1227449553835562
 31
0.0
  0
LINE
  5
1E2
100
AcDbEntity
100
AcDbLine
  8
color#4595e3fd
 62
256
370
-1
  6
BYLAYER
 10
2.6954787392005475
 20
4.1227449553835562
 30
0.0
 11
2.7162508028552765
 21
4.1583803121988163
 31
0.0
  0
LINE
  5
1E3
100
AcDbEntity
100
AcDbLine
  8
color#4595e3fd
 62
256
370
-1
  6
BYLAYER
 10
2.7162508028552765
 20
4.1583803121988163
 30
0.0
 11
2.7390381101997394
 21
4.1928152945043911
 31
0.0
  0
LINE
  5
1E4
100
AcDbEntity
100
AcDbLine
  8
color#4595e3fd
 62
256
370
-1
  6
BYLAYER
 10
2.7390381101997394
 20
4.1928152945043911
 30
0.0
 11
2.7638336183068595
 21
4.2259355212455114
 31
0.0
  0
LINE
  5
1E5
100
AcDbEntity
100
AcDbLine
  8
color#4595e3fd
 62
256
370
-1
  6
BYLAYER
 10
2.7638336183068595
 20
4.2259355212455114
 30
0.0
 11
2.7906302842495569
 21
4.2576266113674084
 31
0.0
  0
LINE
  5
1E6
100
AcDbEntity
100
AcDbLine
  8
color#4595e3fd
 62
256
370
-1
  6
BYLAYER
 10
2.7906302842495569
 20
4.2576266113674084
 30
0.0
 11
2.8194210651007534
 21
4.2877741838153138
 31
0.0
  0
LINE
  5
1E7
100
AcDbEntity
100
AcDbLine
  8
color#4595e3fd
 62
256
370
-1
  6
BYLAYER
 10
2.8194210651007534
 20
4.2877741838153138
 30
0.0
 11
2.8501989179333722
 21
4.3162638575344614
 31
0.0
  0
LINE
  5
1E8
100
AcDbEntity
100
AcDbLine
  8
color#4595e3fd
 62
256
370
-1
  6
BYLAYER
 10
3.8041556958384706
 20
2.2212029667449542
 30
0.0
 11
3.7743907360996403
 21
2.2552132368729576
 31
0.0
  0
LINE
  5
1E9
100
AcDbEntity
100
AcDbLine
  8
color#4595e3fd
 62
256
370
-1
  6
BYLAYER
 10
3.7743907360996403
 20
2.2552132368729576
 30
0.0
 11
3.7472170238492959
 21
2.2908292494436555
 31
0.0
  0
LINE
  5
1EA
100
AcDbEntity
100
AcDbLine
  8
color#4595e3fd
 62
256
370
-1
  6
BYLAYER
 10
3.7472170238492959
 20
2.2908292494436555
 30
0.0
 11
3.7226173236287874
 21
2.3279128951507349
 31
0.0
  0
LINE
  5
1EB
100
AcDbEntity
100
AcDbLine
  8
color#4595e3fd
 62
256
370
-1
  6
BYLAYER
 10
3.7226173236287874
 20
2.3279128951507349
 30
0.0
 11
3.7005743999794607
 21
2.3663260646878936
 31
0.0
  0
LINE
  5
1EC
100
AcDbEntity
100
AcDbLine
  8
color#4595e3fd
 62
256
370
-1
  6
BYLAYER
 10
3.7005743999794607
 20
2.3663260646878936
 30
0.0
 11
3.6810710174426671
 21
2.4059306487488206
 31
0.0
  0
LINE
  5
1ED
100
AcDbEntity
100
AcDbLine
  8
color#4595e3fd
 62
256
370
-1
  6
BYLAYER
 10
3.6810710174426671
 20
2.4059306487488206
 30
0.0
 11
3.6640899405597529
 21
2.4465885380272119
 31
0.0
  0
LINE
  5
1EE
100
AcDbEntity
100
AcDbLine
  8
color#4595e3fd
 62
256
370
-1
  6
BYLAYER
 10
3.6640899405597529
 20
2.4465885380272119
 30
0.0
 11
3.6496139338720641
 21
2.4881616232167598
 31
0.0
  0
LINE
  5
1EF
100
AcDbEntity
100
AcDbLine
  8
color#4595e3fd
 62
256
370
-1
  6
BYLAYER
 10
3.6496139338720641
 20
2.4881616232167598
 30
0.0
 11
3.637625761920956
 21
2.5305117950111558
 31
0.0
  0
LINE
  5
1F0
100
AcDbEntity
100
AcDbLine
  8
color#4595e3fd
 62
256
370
-1
  6
BYLAYER
 10
3.637625761920956
 20
2.5305117950111558
 30
0.0
 11
3.6281081892477709
 21
2.5735009441040924
 31
0.0
  0
LINE
  5
1F1
100
AcDbEntity
100
AcDbLine
  8
color#4595e3fd
 62
256
370
-1
  6
BYLAYER
 10
3.6281081892477709
 20
2.5735009441040924
 30
0.0
 11
3.6210439803938588
 21
2.6169909611892681
 31
0.0
  0
LINE
  5
1F2
100
AcDbEntity
100
AcDbLine
  8
color#4595e3fd
 62
256
370
-1
  6
BYLAYER
 10
3.6210439803938588
 20
2.6169909611892681
 30
0.0
 11
3.6164158999005682
 21
2.6608437369603704
 31
0.0
  0
LINE
  5
1F3
100
AcDbEntity
100
AcDbLine
  8
color#4595e3fd
 62
256
370
-1
  6
BYLAYER
 10
3.6164158999005682
 20
2.6608437369603704
 30
0.0
 11
3.6142067123092483
 21
2.7049211621110913
 31
0.0
  0
LINE
  5
1F4
100
AcDbEntity
100
AcDbLine
  8
color#4595e3fd
 62
256
370
-1
  6
BYLAYER
 10
3.6142067123092483
 20
2.7049211621110913
 30
0.0
 11
3.6143991821612453
 21
2.74908512733513
 31
0.0
  0
LINE
  5
1F5
100
AcDbEntity
100
AcDbLine
  8
color#4595e3fd
 62
256
370
-1
  6
BYLAYER
 10
3.6143991821612453
 20
2.74908512733513
 30
0.0
 11
3.6169760739979089
 21
2.7931975233261732
 31
0.0
  0
LINE
  5
1F6
100
AcDbEntity
100
AcDbLine
  8
color#4595e3fd
 62
256
370
-1
  6
BYLAYER
 10
3.6169760739979089
 20
2.7931975233261732
 30
0.0
 11
3.6219201523605884
 21
2.8371202407779168
 31
0.0
  0
LINE
  5
1F7
100
AcDbEntity
100
AcDbLine
  8
color#4595e3fd
 62
256
370
-1
  6
BYLAYER
 10
3.6219201523605884
 20
2.8371202407779168
 30
0.0
 11
3.6292141817906298
 21
2.8807151703840552
 31
0.0
  0
LINE
  5
1F8
100
AcDbEntity
100
AcDbLine
  8
color#4595e3fd
 62
256
370
-1
  6
BYLAYER
 10
3.6292141817906298
 20
2.8807151703840552
 30
0.0
 11
3.6388409268293835
 21
2.9238442028382772
 31
0.0
  0
LINE
  5
1F9
100
AcDbEntity
100
AcDbLine
  8
color#4595e3fd
 62
256
370
-1
  6
BYLAYER
 10
3.6388409268293835
 20
2.9238442028382772
 30
0.0
 11
3.6507831520181973
 21
2.9663692288342793
 31
0.0
  0
LINE
  5
1FA
100
AcDbEntity
100
AcDbLine
  8
color#4595e3fd
 62
256
370
-1
  6
BYLAYER
 10
3.6507831520181973
 20
2.9663692288342793
 30
0.0
 11
3.6650236218984182
 21
3.0081521390657531
 31
0.0
  0
LINE
  5
1FB
100
AcDbEntity
100
AcDbLine
  8
color#4595e3fd
 62
256
370
-1
  6
BYLAYER
 10
3.6650236218984182
 20
3.0081521390657531
 30
0.0
 11
3.6815451010113964
 21
3.0490548242263915
 31
0.0
  0
LINE
  5
1FC
100
AcDbEntity
100
AcDbLine
  8
color#4595e3fd
 62
256
370
-1
  6
BYLAYER
 10
3.6815451010113964
 20
3.0490548242263915
 30
0.0
 11
3.7003303538984786
 21
3.0889391750098878
 31
0.0
  0
LINE
  5
1FD
100
AcDbEntity
100
AcDbLine
  8
color#4595e3fd
 62
256
370
-1
  6
BYLAYER
 10
3.7003303538984786
 20
3.0889391750098878
 30
0.0
 11
3.7213621451010144
 21
3.1276670821099342
 31
0.0
  0
LINE
  5
1FE
100
AcDbEntity
100
AcDbLine
  8
color#4595e3fd
 62
256
370
-1
  6
BYLAYER
 10
3.7213621451010144
 20
3.1276670821099342
 30
0.0
 11
3.7446232391603522
 21
3.1651004362202255
 31
0.0
  0
LINE
  5
1FF
100
AcDbEntity
100
AcDbLine
  8
color#4595e3fd
 62
256
370
-1
  6
BYLAYER
 10
3.7446232391603522
 20
3.1651004362202255
 30
0.0
 11
3.7700964006178381
 21
3.2011011280344537
 31
0.0
  0
LINE
  5
200
100
AcDbEntity
100
AcDbLine
  8
color#4595e3fd
 62
256
370
-1
  6
BYLAYER
 10
3.7700964006178381
 20
3.2011011280344537
 30
0.0
 11
3.7977643940148229
 21
3.2355310482463113
 31
0.0
  0
LINE
  5
201
100
AcDbEntity
100
AcDbLine
  8
color#4595e3fd
 62
256
370
-1
  6
BYLAYER
 10
3.7977643940148229
 20
3.2355310482463113
 30
0.0
 11
3.8276099838926547
 21
3.2682520875494916
 31
0.0
  0
LINE
  5
202
100
AcDbEntity
100
AcDbLine
  8
color#4595e3fd
 62
256
370
-1
  6
BYLAYER
 10
3.8276099838926547
 20
3.2682520875494916
 30
0.0
 11
3.8596159347926804
 21
3.2991261366376872
 31
0.0
  0
LINE
  5
203
100
AcDbEntity
100
AcDbLine
  8
color#4595e3fd
 62
256
370
-1
  6
BYLAYER
 10
3.8596159347926804
 20
3.2991261366376872
 30
0.0
 11
3.8937650112562503
 21
3.3280150862045921
 31
0.0
  0
LINE
  5
204
100
AcDbEntity
100
AcDbLine
  8
color#4595e3fd
 62
256
370
-1
  6
BYLAYER
 10
3.8937650112562503
 20
3.3280150862045921
 30
0.0
 11
3.9300399778247104
 21
3.3547808269438986
 31
0.0
  0
LINE
  5
205
100
AcDbEntity
100
AcDbLine
  8
color#4595e3fd
 62
256
370
-1
  6
BYLAYER
 10
3.9300399778247104
 20
3.3547808269438986
 30
0.0
 11
4.1789419986387664
 21
3.1011466263201033
 31
0.0
  0
LINE
  5
206
100
AcDbEntity
100
AcDbLine
  8
color#4595e3fd
 62
256
370
-1
  6
BYLAYER
 10
4.1789419986387664
 20
3.1011466263201033
 30
0.0
 11
4.1568647159714551
 21
3.0876667020778958
 31
0.0
  0
LINE
  5
207
100
AcDbEntity
100
AcDbLine
  8
color#4595e3fd
 62
256
370
-1
  6
BYLAYER
 10
4.1568647159714551
 20
3.0876667020778958
 30
0.0
 11
4.135881749557722
 21
3.0728504244442019
 31
0.0
  0
LINE
  5
208
100
AcDbEntity
100
AcDbLine
  8
color#4595e3fd
 62
256
370
-1
  6
BYLAYER
 10
4.135881749557722
 20
3.0728504244442019
 30
0.0
 11
4.1160143958861397
 21
3.056778818146046
 31
0.0
  0
LINE
  5
209
100
AcDbEntity
100
AcDbLine
  8
color#4595e3fd
 62
256
370
-1
  6
BYLAYER
 10
4.1160143958861397
 20
3.056778818146046
 30
0.0
 11
4.0972839514452675
 21
3.0395329079104547
 31
0.0
  0
LINE
  5
20A
100
AcDbEntity
100
AcDbLine
  8
color#4595e3fd
 62
256
370
-1
  6
BYLAYER
 10
4.0972839514452675
 20
3.0395329079104547
 30
0.0
 11
4.0797117127236753
 21
3.0211937184644535
 31
0.0
  0
LINE
  5
20B
100
AcDbEntity
100
AcDbLine
  8
color#4595e3fd
 62
256
370
-1
  6
BYLAYER
 10
4.0797117127236753
 20
3.0211937184644535
 30
0.0
 11
4.0633189762099278
 21
3.001842274535067
 31
0.0
  0
LINE
  5
20C
100
AcDbEntity
100
AcDbLine
  8
color#4595e3fd
 62
256
370
-1
  6
BYLAYER
 10
4.0633189762099278
 20
3.001842274535067
 30
0.0
 11
4.0481270383925878
 21
2.9815596008493239
 31
0.0
  0
LINE
  5
20D
100
AcDbEntity
100
AcDbLine
  8
color#4595e3fd
 62
256
370
-1
  6
BYLAYER
 10
4.0481270383925878
 20
2.9815596008493239
 30
0.0
 11
4.0341571957602262
 21
2.9604267221342448
 31
0.0
  0
LINE
  5
20E
100
AcDbEntity
100
AcDbLine
  8
color#4595e3fd
 62
256
370
-1
  6
BYLAYER
 10
4.0341571957602262
 20
2.9604267221342448
 30
0.0
 11
4.0214307448014033
 21
2.9385246631168584
 31
0.0
  0
LINE
  5
20F
100
AcDbEntity
100
AcDbLine
  8
color#4595e3fd
 62
256
370
-1
  6
BYLAYER
 10
4.0214307448014033
 20
2.9385246631168584
 30
0.0
 11
4.0099689820046871
 21
2.9159344485241934
 31
0.0
  0
LINE
  5
210
100
AcDbEntity
100
AcDbLine
  8
color#4595e3fd
 62
256
370
-1
  6
BYLAYER
 10
4.0099689820046871
 20
2.9159344485241934
 30
0.0
 11
3.9997932038586441
 21
2.8927371030832711
 31
0.0
  0
LINE
  5
211
100
AcDbEntity
100
AcDbLine
  8
color#4595e3fd
 62
256
370
-1
  6
BYLAYER
 10
3.9997932038586441
 20
2.8927371030832711
 30
0.0
 11
3.9909247068518394
 21
2.8690136515211169
 31
0.0
  0
LINE
  5
212
100
AcDbEntity
100
AcDbLine
  8
color#4595e3fd
 62
256
370
-1
  6
BYLAYER
 10
3.9909247068518394
 20
2.8690136515211169
 30
0.0
 11
3.9833847874728354
 21
2.8448451185647605
 31
0.0
  0
LINE
  5
213
100
AcDbEntity
100
AcDbLine
  8
color#4595e3fd
 62
256
370
-1
  6
BYLAYER
 10
3.9833847874728354
 20
2.8448451185647605
 30
0.0
 11
3.9771947422102034
 21
2.8203125289412236
 31
0.0
  0
LINE
  5
214
100
AcDbEntity
100
AcDbLine
  8
color#4595e3fd
 62
256
370
-1
  6
BYLAYER
 10
3.9771947422102034
 20
2.8203125289412236
 30
0.0
 11
3.9723758675525045
 21
2.7954969073775349
 31
0.0
  0
LINE
  5
215
100
AcDbEntity
100
AcDbLine
  8
color#4595e3fd
 62
256
370
-1
  6
BYLAYER
 10
3.9723758675525045
 20
2.7954969073775349
 30
0.0
 11
3.968949459988306
 21
2.7704792786007184
 31
0.0
  0
LINE
  5
216
100
AcDbEntity
100
AcDbLine
  8
color#4595e3fd
 62
256
370
-1
  6
BYLAYER
 10
3.968949459988306
 20
2.7704792786007184
 30
0.0
 11
3.9669368160061733
 21
2.7453406673377998
 31
0.0
  0
LINE
  5
217
100
AcDbEntity
100
AcDbLine
  8
color#4595e3fd
 62
256
370
-1
  6
BYLAYER
 10
3.9669368160061733
 20
2.7453406673377998
 30
0.0
 11
3.9663592320946726
 21
2.7201620983158055
 31
0.0
  0
LINE
  5
218
100
AcDbEntity
100
AcDbLine
  8
color#4595e3fd
 62
256
370
-1
  6
BYLAYER
 10
3.9663592320946726
 20
2.7201620983158055
 30
0.0
 11
3.9672380047423683
 21
2.6950245962617609
 31
0.0
  0
LINE
  5
219
100
AcDbEntity
100
AcDbLine
  8
color#4595e3fd
 62
256
370
-1
  6
BYLAYER
 10
3.9672380047423683
 20
2.6950245962617609
 30
0.0
 11
3.9695944304378279
 21
2.6700091859026918
 31
0.0
  0
LINE
  5
21A
100
AcDbEntity
100
AcDbLine
  8
color#4595e3fd
 62
256
370
-1
  6
BYLAYER
 10
3.9695944304378279
 20
2.6700091859026918
 30
0.0
 11
3.9734498056696146
 21
2.645196891965623
 31
0.0
  0
LINE
  5
21B
100
AcDbEntity
100
AcDbLine
  8
color#4595e3fd
 62
256
370
-1
  6
BYLAYER
 10
3.9734498056696146
 20
2.645196891965623
 30
0.0
 11
3.9788254269262961
 21
2.6206687391775816
 31
0.0
  0
LINE
  5
21C
100
AcDbEntity
100
AcDbLine
  8
color#4595e3fd
 62
256
370
-1
  6
BYLAYER
 10
3.9788254269262961
 20
2.6206687391775816
 30
0.0
 11
3.9857425906964363
 21
2.5965057522655925
 31
0.0
  0
LINE
  5
21D
100
AcDbEntity
100
AcDbLine
  8
color#4595e3fd
 62
256
370
-1
  6
BYLAYER
 10
3.9857425906964363
 20
2.5965057522655925
 30
0.0
 11
3.9942225934686024
 21
2.5727889559566819
 31
0.0
  0
LINE
  5
21E
100
AcDbEntity
100
AcDbLine
  8
color#4595e3fd
 62
256
370
-1
  6
BYLAYER
 10
3.9942225934686024
 20
2.5727889559566819
 30
0.0
 11
4.0042867317313586
 21
2.5495993749778756
 31
0.0
  0
LINE
  5
21F
100
AcDbEntity
100
AcDbLine
  8
color#4595e3fd
 62
256
370
-1
  6
BYLAYER
 10
4.0042867317313586
 20
2.5495993749778756
 30
0.0
 11
4.0159563019732722
 21
2.5270180340561978
 31
0.0
  0
LINE
  5
220
100
AcDbEntity
100
AcDbLine
  8
color#4595e3fd
 62
256
370
-1
  6
BYLAYER
 10
4.0159563019732722
 20
2.5270180340561978
 30
0.0
 11
4.0292526006829066
 21
2.5051259579186769
 31
0.0
  0
LINE
  5
221
100
AcDbEntity
100
AcDbLine
  8
color#4595e3fd
 62
256
370
-1
  6
BYLAYER
 10
4.0292526006829066
 20
2.5051259579186769
 30
0.0
 11
4.0441969243488298
 21
2.4840041712923355
 31
0.0
  0
LINE
  5
222
100
AcDbEntity
100
AcDbLine
  8
color#4595e3fd
 62
256
370
-1
  6
BYLAYER
 10
4.0441969243488298
 20
2.4840041712923355
 30
0.0
 11
4.0608105694596057
 21
2.4637336989042016
 31
0.0
  0
LINE
  5
223
100
AcDbEntity
100
AcDbLine
  8
color#4595e3fd
 62
256
370
-1
  6
BYLAYER
 10
4.0608105694596057
 20
2.4637336989042016
 30
0.0
 11
4.6910068526430049
 21
1.8298503555637486
 31
0.0
  0
LINE
  5
224
100
AcDbEntity
100
AcDbLine
  8
color#4595e3fd
 62
256
370
-1
  6
BYLAYER
 10
4.6910068526430049
 20
1.8298503555637486
 30
0.0
 11
4.7511365624573232
 21
1.7685987144108337
 31
0.0
  0
LINE
  5
225
100
AcDbEntity
100
AcDbLine
  8
color#4595e3fd
 62
256
370
-1
  6
BYLAYER
 10
4.7511365624573232
 20
1.7685987144108337
 30
0.0
 11
4.7828663778052229
 21
1.7390205893974047
 31
0.0
  0
LINE
  5
226
100
AcDbEntity
100
AcDbLine
  8
color#4595e3fd
 62
256
370
-1
  6
BYLAYER
 10
4.7828663778052229
 20
1.7390205893974047
 30
0.0
 11
4.8047504884550705
 21
1.7201730629687089
 31
0.0
  0
LINE
  5
227
100
AcDbEntity
100
AcDbLine
  8
color#4595e3fd
 62
256
370
-1
  6
BYLAYER
 10
4.8047504884550705
 20
1.7201730629687089
 30
0.0
 11
4.8159305090985605
 21
1.7110897339862323
 31
0.0
  0
LINE
  5
228
100
AcDbEntity
100
AcDbLine
  8
color#4595e3fd
 62
256
370
-1
  6
BYLAYER
 10
4.8159305090985605
 20
1.7110897339862323
 30
0.0
 11
4.8272774822625095
 21
1.7022685021173645
 31
0.0
  0
LINE
  5
229
100
AcDbEntity
100
AcDbLine
  8
color#4595e3fd
 62
256
370
-1
  6
BYLAYER
 10
4.8272774822625095
 20
1.7022685021173645
 30
0.0
 11
4.8387976396779839
 21
1.6937357230813619
 31
0.0
  0
LINE
  5
22A
100
AcDbEntity
100
AcDbLine
  8
color#4595e3fd
 62
256
370
-1
  6
BYLAYER
 10
4.8387976396779839
 20
1.6937357230813619
 30
0.0
 11
4.8504972130760464
 21
1.6855177525974971
 31
0.0
  0
LINE
  5
22B
100
AcDbEntity
100
AcDbLine
  8
color#4595e3fd
 62
256
370
-1
  6
BYLAYER
 10
4.8504972130760464
 20
1.6855177525974971
 30
0.0
 11
4.8623824341877597
 21
1.6776409463850344
 31
0.0
  0
LINE
  5
22C
100
AcDbEntity
100
AcDbLine
  8
color#4595e3fd
 62
256
370
-1
  6
BYLAYER
 10
4.8623824341877597
 20
1.6776409463850344
 30
0.0
 11
4.8744595347441875
 21
1.6701316601632381
 31
0.0
  0
LINE
  5
22D
100
AcDbEntity
100
AcDbLine
  8
color#4595e3fd
 62
256
370
-1
  6
BYLAYER
 10
4.8744595347441875
 20
1.6701316601632381
 30
0.0
 11
4.8867347464763933
 21
1.6630162496513761
 31
0.0
  0
LINE
  5
22E
100
AcDbEntity
100
AcDbLine
  8
color#4595e3fd
 62
256
370
-1
  6
BYLAYER
 10
4.8867347464763933
 20
1.6630162496513761
 30
0.0
 11
4.8992143011154399
 21
1.6563210705687124
 31
0.0
  0
LINE
  5
22F
100
AcDbEntity
100
AcDbLine
  8
color#4595e3fd
 62
256
370
-1
  6
BYLAYER
 10
4.8992143011154399
 20
1.6563210705687124
 30
0.0
 11
4.9119044303923909
 21
1.6500724786345131
 31
0.0
  0
LINE
  5
230
100
AcDbEntity
100
AcDbLine
  8
color#4595e3fd
 62
256
370
-1
  6
BYLAYER
 10
4.9119044303923909
 20
1.6500724786345131
 30
0.0
 11
4.9248113660383099
 21
1.6442968295680462
 31
0.0
  0
LINE
  5
231
100
AcDbEntity
100
AcDbLine
  8
color#4595e3fd
 62
256
370
-1
  6
BYLAYER
 10
4.9248113660383099
 20
1.6442968295680462
 30
0.0
 11
4.9379413397842606
 21
1.639020479088575
 31
0.0
  0
LINE
  5
232
100
AcDbEntity
100
AcDbLine
  8
color#4595e3fd
 62
256
370
-1
  6
BYLAYER
 10
4.9379413397842606
 20
1.639020479088575
 30
0.0
 11
4.9513005833613049
 21
1.634269782915367
 31
0.0
  0
LINE
  5
233
100
AcDbEntity
100
AcDbLine
  8
color#4595e3fd
 62
256
370
-1
  6
BYLAYER
 10
4.9513005833613049
 20
1.634269782915367
 30
0.0
 11
4.9648953285005071
 21
1.6300710967676872
 31
0.0
  0
LINE
  5
234
100
AcDbEntity
100
AcDbLine
  8
color#4595e3fd
 62
256
370
-1
  6
BYLAYER
 10
4.9648953285005071
 20
1.6300710967676872
 30
0.0
 11
4.9787318069329309
 21
1.6264507763648024
 31
0.0
  0
LINE
  5
235
100
AcDbEntity
100
AcDbLine
  8
color#4595e3fd
 62
256
370
-1
  6
BYLAYER
 10
4.9787318069329309
 20
1.6264507763648024
 30
0.0
 11
4.9928162503896392
 21
1.6234351774259765
 31
0.0
  0
LINE
  5
236
100
AcDbEntity
100
AcDbLine
  8
color#4595e3fd
 62
256
370
-1
  6
BYLAYER
 10
4.9928162503896392
 20
1.6234351774259765
 30
0.0
 11
5.0071548906016945
 21
1.6210506556704785
 31
0.0
  0
LINE
  5
237
100
AcDbEntity
100
AcDbLine
  8
color#4595e3fd
 62
256
370
-1
  6
BYLAYER
 10
5.0071548906016945
 20
1.6210506556704785
 30
0.0
 11
5.0217539593001614
 21
1.6193235668175718
 31
0.0
  0
LINE
  5
238
100
AcDbEntity
100
AcDbLine
  8
color#4595e3fd
 62
256
370
-1
  6
BYLAYER
 10
5.0217539593001614
 20
1.6193235668175718
 30
0.0
 11
5.0366196882161027
 21
1.618280266586523
 31
0.0
  0
LINE
  5
239
100
AcDbEntity
100
AcDbLine
  8
color#4595e3fd
 62
256
370
-1
  6
BYLAYER
 10
5.0366196882161027
 20
1.618280266586523
 30
0.0
 11
5.0676736247006362
 21
1.6154897136676094
 31
0.0
  0
LINE
  5
23A
100
AcDbEntity
100
AcDbLine
  8
color#4595e3fd
 62
256
370
-1
  6
BYLAYER
 10
5.0676736247006362
 20
1.6154897136676094
 30
0.0
 11
5.0983852129194513
 21
1.6153250364753911
 31
0.0
  0
LINE
  5
23B
100
AcDbEntity
100
AcDbLine
  8
color#4595e3fd
 62
256
370
-1
  6
BYLAYER
 10
5.0983852129194513
 20
1.6153250364753911
 30
0.0
 11
5.1286671875164807
 21
1.6176765046696469
 31
0.0
  0
LINE
  5
23C
100
AcDbEntity
100
AcDbLine
  8
color#4595e3fd
 62
256
370
-1
  6
BYLAYER
 10
5.1286671875164807
 20
1.6176765046696469
 30
0.0
 11
5.1584322831356522
 21
1.6224343879101601
 31
0.0
  0
LINE
  5
23D
100
AcDbEntity
100
AcDbLine
  8
color#4595e3fd
 62
256
370
-1
  6
BYLAYER
 10
5.1584322831356522
 20
1.6224343879101601
 30
0.0
 11
5.1875932344209037
 21
1.6294889558567063
 31
0.0
  0
LINE
  5
23E
100
AcDbEntity
100
AcDbLine
  8
color#4595e3fd
 62
256
370
-1
  6
BYLAYER
 10
5.1875932344209037
 20
1.6294889558567063
 30
0.0
 11
5.2160627760161633
 21
1.6387304781690699
 31
0.0
  0
LINE
  5
23F
100
AcDbEntity
100
AcDbLine
  8
color#4595e3fd
 62
256
370
-1
  6
BYLAYER
 10
5.2160627760161633
 20
1.6387304781690699
 30
0.0
 11
5.2437536425653644
 21
1.6500492245070337
 31
0.0
  0
LINE
  5
240
100
AcDbEntity
100
AcDbLine
  8
color#4595e3fd
 62
256
370
-1
  6
BYLAYER
 10
5.2437536425653644
 20
1.6500492245070337
 30
0.0
 11
5.2705785687124411
 21
1.6633354645303737
 31
0.0
  0
LINE
  5
241
100
AcDbEntity
100
AcDbLine
  8
color#4595e3fd
 62
256
370
-1
  6
BYLAYER
 10
5.2705785687124411
 20
1.6633354645303737
 30
0.0
 11
5.2964502891013252
 21
1.6784794678988706
 31
0.0
  0
LINE
  5
242
100
AcDbEntity
100
AcDbLine
  8
color#4595e3fd
 62
256
370
-1
  6
BYLAYER
 10
5.2964502891013252
 20
1.6784794678988706
 30
0.0
 11
5.3212815383759446
 21
1.6953715042723114
 31
0.0
  0
LINE
  5
243
100
AcDbEntity
100
AcDbLine
  8
color#4595e3fd
 62
256
370
-1
  6
BYLAYER
 10
5.3212815383759446
 20
1.6953715042723114
 30
0.0
 11
5.3449850511802355
 21
1.7139018433104707
 31
0.0
  0
LINE
  5
244
100
AcDbEntity
100
AcDbLine
  8
color#4595e3fd
 62
256
370
-1
  6
BYLAYER
 10
5.3449850511802355
 20
1.7139018433104707
 30
0.0
 11
5.3674735621581302
 21
1.7339607546731297
 31
0.0
  0
LINE
  5
245
100
AcDbEntity
100
AcDbLine
  8
color#4595e3fd
 62
256
370
-1
  6
BYLAYER
 10
5.3674735621581302
 20
1.7339607546731297
 30
0.0
 11
5.3886598059535586
 21
1.7554385080200734
 31
0.0
  0
LINE
  5
246
100
AcDbEntity
100
AcDbLine
  8
color#4595e3fd
 62
256
370
-1
  6
BYLAYER
 10
5.3886598059535586
 20
1.7554385080200734
 30
0.0
 11
5.4084565172104542
 21
1.7782253730110793
 31
0.0
  0
LINE
  5
247
100
AcDbEntity
100
AcDbLine
  8
color#4595e3fd
 62
256
370
-1
  6
BYLAYER
 10
5.4084565172104542
 20
1.7782253730110793
 30
0.0
 11
5.4267764305727502
 21
1.8022116193059274
 31
0.0
  0
LINE
  5
248
100
AcDbEntity
100
AcDbLine
  8
color#4595e3fd
 62
256
370
-1
  6
BYLAYER
 10
5.4267764305727502
 20
1.8022116193059274
 30
0.0
 11
5.4435322806843764
 21
1.8272875165644014
 31
0.0
  0
LINE
  5
249
100
AcDbEntity
100
AcDbLine
  8
color#4595e3fd
 62
256
370
-1
  6
BYLAYER
 10
5.4435322806843764
 20
1.8272875165644014
 30
0.0
 11
5.4586368021892664
 21
1.8533433344462802
 31
0.0
  0
LINE
  5
24A
100
AcDbEntity
100
AcDbLine
  8
color#4595e3fd
 62
256
370
-1
  6
BYLAYER
 10
5.4586368021892664
 20
1.8533433344462802
 30
0.0
 11
5.4720027297313534
 21
1.8802693426113437
 31
0.0
  0
LINE
  5
24B
100
AcDbEntity
100
AcDbLine
  8
color#4595e3fd
 62
256
370
-1
  6
BYLAYER
 10
5.4720027297313534
 20
1.8802693426113437
 30
0.0
 11
5.4835427979545672
 21
1.9079558107193744
 31
0.0
  0
LINE
  5
24C
100
AcDbEntity
100
AcDbLine
  8
color#4595e3fd
 62
256
370
-1
  6
BYLAYER
 10
5.4835427979545672
 20
1.9079558107193744
 30
0.0
 11
5.4931697415028431
 21
1.9362930084301522
 31
0.0
  0
LINE
  5
24D
100
AcDbEntity
100
AcDbLine
  8
color#4595e3fd
 62
256
370
-1
  6
BYLAYER
 10
5.4931697415028431
 20
1.9362930084301522
 30
0.0
 11
5.500796295020109
 21
1.9651712054034567
 31
0.0
  0
LINE
  5
24E
100
AcDbEntity
100
AcDbLine
  8
color#4595e3fd
 62
256
370
-1
  6
BYLAYER
 10
5.500796295020109
 20
1.9651712054034567
 30
0.0
 11
5.5063351931503011
 21
1.994480671299071
 31
0.0
  0
LINE
  5
24F
100
AcDbEntity
100
AcDbLine
  8
color#4595e3fd
 62
256
370
-1
  6
BYLAYER
 10
5.5063351931503011
 20
1.994480671299071
 30
0.0
 11
5.509699170537349
 21
2.024111675776775
 31
0.0
  0
LINE
  5
250
100
AcDbEntity
100
AcDbLine
  8
color#4595e3fd
 62
256
370
-1
  6
BYLAYER
 10
5.509699170537349
 20
2.024111675776775
 30
0.0
 11
5.5108009618251872
 21
2.0539544884963497
 31
0.0
  0
LINE
  5
251
100
AcDbEntity
100
AcDbLine
  8
color#4595e3fd
 62
256
370
-1
  6
BYLAYER
 10
5.5108009618251872
 20
2.0539544884963497
 30
0.0
 11
5.5095533016577445
 21
2.0838993791175744
 31
0.0
  0
LINE
  5
252
100
AcDbEntity
100
AcDbLine
  8
color#4595e3fd
 62
256
370
-1
  6
BYLAYER
 10
5.5095533016577445
 20
2.0838993791175744
 30
0.0
 11
5.5058689246789578
 21
2.1138366173002305
 31
0.0
  0
LINE
  5
253
100
AcDbEntity
100
AcDbLine
  8
color#4595e3fd
 62
256
370
-1
  6
BYLAYER
 10
5.5058689246789578
 20
2.1138366173002305
 30
0.0
 11
5.4996605655327535
 21
2.1436564727040994
 31
0.0
  0
LINE
  5
254
100
AcDbEntity
100
AcDbLine
  8
color#4595e3fd
 62
256
370
-1
  6
BYLAYER
 10
5.4996605655327535
 20
2.1436564727040994
 30
0.0
 11
5.4908409588630702
 21
2.1732492149889615
 31
0.0
  0
LINE
  5
255
100
AcDbEntity
100
AcDbLine
  8
color#4595e3fd
 62
256
370
-1
  6
BYLAYER
 10
5.4908409588630702
 20
2.1732492149889615
 30
0.0
 11
5.4793228393138342
 21
2.2025051138145977
 31
0.0
  0
LINE
  5
256
100
AcDbEntity
100
AcDbLine
  8
color#4595e3fd
 62
256
370
-1
  6
BYLAYER
 10
5.4793228393138342
 20
2.2025051138145977
 30
0.0
 11
5.4695282826020986
 21
2.2212824346914042
 31
0.0
  0
LINE
  5
257
100
AcDbEntity
100
AcDbLine
  8
color#4595e3fd
 62
256
370
-1
  6
BYLAYER
 10
5.4695282826020986
 20
2.2212824346914042
 30
0.0
 11
5.459120374721687
 21
2.2395974253544031
 31
0.0
  0
LINE
  5
258
100
AcDbEntity
100
AcDbLine
  8
color#4595e3fd
 62
256
370
-1
  6
BYLAYER
 10
5.459120374721687
 20
2.2395974253544031
 30
0.0
 11
5.4481342824442969
 21
2.2574765590565651
 31
0.0
  0
LINE
  5
259
100
AcDbEntity
100
AcDbLine
  8
color#4595e3fd
 62
256
370
-1
  6
BYLAYER
 10
5.4481342824442969
 20
2.2574765590565651
 30
0.0
 11
5.4366051725416051
 21
2.2749463090508701
 31
0.0
  0
LINE
  5
25A
100
AcDbEntity
100
AcDbLine
  8
color#4595e3fd
 62
256
370
-1
  6
BYLAYER
 10
5.4366051725416051
 20
2.2749463090508701
 30
0.0
 11
5.4245682117853082
 21
2.2920331485902903
 31
0.0
  0
LINE
  5
25B
100
AcDbEntity
100
AcDbLine
  8
color#4595e3fd
 62
256
370
-1
  6
BYLAYER
 10
5.4245682117853082
 20
2.2920331485902903
 30
0.0
 11
5.4120585669470884
 21
2.3087635509278042
 31
0.0
  0
LINE
  5
25C
100
AcDbEntity
100
AcDbLine
  8
color#4595e3fd
 62
256
370
-1
  6
BYLAYER
 10
5.4120585669470884
 20
2.3087635509278042
 30
0.0
 11
5.399111404798635
 21
2.32516398931639
 31
0.0
  0
LINE
  5
25D
100
AcDbEntity
100
AcDbLine
  8
color#4595e3fd
 62
256
370
-1
  6
BYLAYER
 10
5.399111404798635
 20
2.32516398931639
 30
0.0
 11
5.3857618921116375
 21
2.3412609370090198
 31
0.0
  0
LINE
  5
25E
100
AcDbEntity
100
AcDbLine
  8
color#4595e3fd
 62
256
370
-1
  6
BYLAYER
 10
5.3857618921116375
 20
2.3412609370090198
 30
0.0
 11
5.3720451956577842
 21
2.3570808672586696
 31
0.0
  0
LINE
  5
25F
100
AcDbEntity
100
AcDbLine
  8
color#4595e3fd
 62
256
370
-1
  6
BYLAYER
 10
5.3720451956577842
 20
2.3570808672586696
 30
0.0
 11
5.3579964822087573
 21
2.3726502533183216
 31
0.0
  0
LINE
  5
260
100
AcDbEntity
100
AcDbLine
  8
color#4595e3fd
 62
256
370
-1
  6
BYLAYER
 10
5.3579964822087573
 20
2.3726502533183216
 30
0.0
 11
5.34365091853625
 21
2.3879955684409473
 31
0.0
  0
LINE
  5
261
100
AcDbEntity
100
AcDbLine
  8
color#4595e3fd
 62
256
370
-1
  6
BYLAYER
 10
5.34365091853625
 20
2.3879955684409473
 30
0.0
 11
5.3142099076075384
 21
2.4181198788870231
 31
0.0
  0
LINE
  5
262
100
AcDbEntity
100
AcDbLine
  8
color#4595e3fd
 62
256
370
-1
  6
BYLAYER
 10
5.3142099076075384
 20
2.4181198788870231
 30
0.0
 11
5.1763153000915274
 21
2.5495767032972925
 31
0.0
  0
LINE
  5
263
100
AcDbEntity
100
AcDbLine
  8
color#4595e3fd
 62
256
370
-1
  6
BYLAYER
 10
5.1763153000915274
 20
2.5495767032972925
 30
0.0
 11
5.1461461015746828
 21
2.5791395398698649
 31
0.0
  0
LINE
  5
264
100
AcDbEntity
100
AcDbLine
  8
color#4595e3fd
 62
256
370
-1
  6
BYLAYER
 10
5.1461461015746828
 20
2.5791395398698649
 30
0.0
 11
5.1167588413784229
 21
2.6092885948609972
 31
0.0
  0
LINE
  5
265
100
AcDbEntity
100
AcDbLine
  8
color#4595e3fd
 62
256
370
-1
  6
BYLAYER
 10
5.1167588413784229
 20
2.6092885948609972
 30
0.0
 11
5.1024463550797297
 21
2.6246491373959651
 31
0.0
  0
LINE
  5
266
100
AcDbEntity
100
AcDbLine
  8
color#4595e3fd
 62
256
370
-1
  6
BYLAYER
 10
5.1024463550797297
 20
2.6246491373959651
 30
0.0
 11
5.0884348536762465
 21
2.6402356542945009
 31
0.0
  0
LINE
  5
267
100
AcDbEntity
100
AcDbLine
  8
color#4595e3fd
 62
256
370
-1
  6
BYLAYER
 10
5.0884348536762465
 20
2.6402356542945009
 30
0.0
 11
5.07475950393966
 21
2.6560746188095816
 31
0.0
  0
LINE
  5
268
100
AcDbEntity
100
AcDbLine
  8
color#4595e3fd
 62
256
370
-1
  6
BYLAYER
 10
5.07475950393966
 20
2.6560746188095816
 30
0.0
 11
5.1081283837973466
 21
2.7691814578798795
 31
0.0
  0
LINE
  5
269
100
AcDbEntity
100
AcDbLine
  8
color#4595e3fd
 62
256
370
-1
  6
BYLAYER
 10
5.1081283837973466
 20
2.7691814578798795
 30
0.0
 11
5.1249992081231364
 21
2.8410904192997912
 31
0.0
  0
LINE
  5
26A
100
AcDbEntity
100
AcDbLine
  8
color#4595e3fd
 62
256
370
-1
  6
BYLAYER
 10
5.1249992081231364
 20
2.8410904192997912
 30
0.0
 11
5.1356838545267944
 21
2.8991869033726028
 31
0.0
  0
LINE
  5
26B
100
AcDbEntity
100
AcDbLine
  8
color#4595e3fd
 62
256
370
-1
  6
BYLAYER
 10
5.1356838545267944
 20
2.8991869033726028
 30
0.0
 11
5.1418078444489259
 21
2.9430482058767731
 31
0.0
  0
LINE
  5
26C
100
AcDbEntity
100
AcDbLine
  8
color#4595e3fd
 62
256
370
-1
  6
BYLAYER
 10
5.1418078444489259
 20
2.9430482058767731
 30
0.0
 11
5.1461343002371658
 21
2.9871263415303653
 31
0.0
  0
LINE
  5
26D
100
AcDbEntity
100
AcDbLine
  8
color#4595e3fd
 62
256
370
-1
  6
BYLAYER
 10
5.1461343002371658
 20
2.9871263415303653
 30
0.0
 11
5.1479408775356683
 21
3.0166185262775866
 31
0.0
  0
LINE
  5
26E
100
AcDbEntity
100
AcDbLine
  8
color#4595e3fd
 62
256
370
-1
  6
BYLAYER
 10
5.1479408775356683
 20
3.0166185262775866
 30
0.0
 11
5.1488299060457523
 21
3.0461865284894944
 31
0.0
  0
LINE
  5
26F
100
AcDbEntity
100
AcDbLine
  8
color#4595e3fd
 62
256
370
-1
  6
BYLAYER
 10
5.1488299060457523
 20
3.0461865284894944
 30
0.0
 11
5.1487539278758554
 21
3.0758221270365107
 31
0.0
  0
LINE
  5
270
100
AcDbEntity
100
AcDbLine
  8
color#4595e3fd
 62
256
370
-1
  6
BYLAYER
 10
5.1487539278758554
 20
3.0758221270365107
 30
0.0
 11
5.6681970760013316
 21
2.5567840018207213
 31
0.0
  0
LINE
  5
271
100
AcDbEntity
100
AcDbLine
  8
color#4595e3fd
 62
256
370
-1
  6
BYLAYER
 10
5.6681970760013316
 20
2.5567840018207213
 30
0.0
 11
5.6957195791369317
 21
2.5251077062649339
 31
0.0
  0
LINE
  5
272
100
AcDbEntity
100
AcDbLine
  8
color#4595e3fd
 62
256
370
-1
  6
BYLAYER
 10
5.6957195791369317
 20
2.5251077062649339
 30
0.0
 11
5.7210652305766549
 21
2.4920004992874234
 31
0.0
  0
LINE
  5
273
100
AcDbEntity
100
AcDbLine
  8
color#4595e3fd
 62
256
370
-1
  6
BYLAYER
 10
5.7210652305766549
 20
2.4920004992874234
 30
0.0
 11
5.7442410167438043
 21
2.4575768106277414
 31
0.0
  0
LINE
  5
274
100
AcDbEntity
100
AcDbLine
  8
color#4595e3fd
 62
256
370
-1
  6
BYLAYER
 10
5.7442410167438043
 20
2.4575768106277414
 30
0.0
 11
5.7652539240616729
 21
2.4219510700254485
 31
0.0
  0
LINE
  5
275
100
AcDbEntity
100
AcDbLine
  8
color#4595e3fd
 62
256
370
-1
  6
BYLAYER
 10
5.7652539240616729
 20
2.4219510700254485
 30
0.0
 11
5.784110938953563
 21
2.3852377072200985
 31
0.0
  0
LINE
  5
276
100
AcDbEntity
100
AcDbLine
  8
color#4595e3fd
 62
256
370
-1
  6
BYLAYER
 10
5.784110938953563
 20
2.3852377072200985
 30
0.0
 11
5.8008190478427686
 21
2.3475511519512491
 31
0.0
  0
LINE
  5
277
100
AcDbEntity
100
AcDbLine
  8
color#4595e3fd
 62
256
370
-1
  6
BYLAYER
 10
5.8008190478427686
 20
2.3475511519512491
 30
0.0
 11
5.8153852371525865
 21
2.3090058339584596
 31
0.0
  0
LINE
  5
278
100
AcDbEntity
100
AcDbLine
  8
color#4595e3fd
 62
256
370
-1
  6
BYLAYER
 10
5.8153852371525865
 20
2.3090058339584596
 30
0.0
 11
5.8278164933063188
 21
2.269716182981282
 31
0.0
  0
LINE
  5
279
100
AcDbEntity
100
AcDbLine
  8
color#4595e3fd
 62
256
370
-1
  6
BYLAYER
 10
5.8278164933063188
 20
2.269716182981282
 30
0.0
 11
5.8381198027272641
 21
2.2297966287592752
 31
0.0
  0
LINE
  5
27A
100
AcDbEntity
100
AcDbLine
  8
color#4595e3fd
 62
256
370
-1
  6
BYLAYER
 10
5.8381198027272641
 20
2.2297966287592752
 30
0.0
 11
5.8463021518387128
 21
2.1893616010319992
 31
0.0
  0
LINE
  5
27B
100
AcDbEntity
100
AcDbLine
  8
color#4595e3fd
 62
256
370
-1
  6
BYLAYER
 10
5.8463021518387128
 20
2.1893616010319992
 30
0.0
 11
5.8523705270639699
 21
2.1485255295390058
 31
0.0
  0
LINE
  5
27C
100
AcDbEntity
100
AcDbLine
  8
color#4595e3fd
 62
256
370
-1
  6
BYLAYER
 10
5.8523705270639699
 20
2.1485255295390058
 30
0.0
 11
5.856331914826332
 21
2.107402844019854
 31
0.0
  0
LINE
  5
27D
100
AcDbEntity
100
AcDbLine
  8
color#4595e3fd
 62
256
370
-1
  6
BYLAYER
 10
5.856331914826332
 20
2.107402844019854
 30
0.0
 11
5.8581933015490932
 21
2.0661079742141006
 31
0.0
  0
LINE
  5
27E
100
AcDbEntity
100
AcDbLine
  8
color#4595e3fd
 62
256
370
-1
  6
BYLAYER
 10
5.8581933015490932
 20
2.0661079742141006
 30
0.0
 11
5.8579616736555558
 21
2.0247553498613016
 31
0.0
  0
LINE
  5
27F
100
AcDbEntity
100
AcDbLine
  8
color#4595e3fd
 62
256
370
-1
  6
BYLAYER
 10
5.8579616736555558
 20
2.0247553498613016
 30
0.0
 11
5.8556440175690136
 21
1.9834594007010138
 31
0.0
  0
LINE
  5
280
100
AcDbEntity
100
AcDbLine
  8
color#4595e3fd
 62
256
370
-1
  6
BYLAYER
 10
5.8556440175690136
 20
1.9834594007010138
 30
0.0
 11
5.8512473197127672
 21
1.9423345564727947
 31
0.0
  0
LINE
  5
281
100
AcDbEntity
100
AcDbLine
  8
color#4595e3fd
 62
256
370
-1
  6
BYLAYER
 10
5.8512473197127672
 20
1.9423345564727947
 30
0.0
 11
5.8447785665101142
 21
1.9014952469162014
 31
0.0
  0
LINE
  5
282
100
AcDbEntity
100
AcDbLine
  8
color#4595e3fd
 62
256
370
-1
  6
BYLAYER
 10
5.8447785665101142
 20
1.9014952469162014
 30
0.0
 11
5.8362447443843513
 21
1.8610559017707884
 31
0.0
  0
LINE
  5
283
100
AcDbEntity
100
AcDbLine
  8
color#4595e3fd
 62
256
370
-1
  6
BYLAYER
 10
5.8362447443843513
 20
1.8610559017707884
 30
0.0
 11
5.8256528397587779
 21
1.8211309507761142
 31
0.0
  0
LINE
  5
284
100
AcDbEntity
100
AcDbLine
  8
color#4595e3fd
 62
256
370
-1
  6
BYLAYER
 10
5.8256528397587779
 20
1.8211309507761142
 30
0.0
 11
5.81300983905669
 21
1.7818348236717345
 31
0.0
  0
LINE
  5
285
100
AcDbEntity
100
AcDbLine
  8
color#4595e3fd
 62
256
370
-1
  6
BYLAYER
 10
5.81300983905669
 20
1.7818348236717345
 30
0.0
 11
5.798322728701387
 21
1.7432819501972068
 31
0.0
  0
LINE
  5
286
100
AcDbEntity
100
AcDbLine
  8
color#4595e3fd
 62
256
370
-1
  6
BYLAYER
 10
5.798322728701387
 20
1.7432819501972068
 30
0.0
 11
5.7815984951161665
 21
1.7055867600920882
 31
0.0
  0
LINE
  5
287
100
AcDbEntity
100
AcDbLine
  8
color#4595e3fd
 62
256
370
-1
  6
BYLAYER
 10
5.7815984951161665
 20
1.7055867600920882
 30
0.0
 11
5.7628441247243236
 21
1.6688636830959354
 31
0.0
  0
LINE
  5
288
100
AcDbEntity
100
AcDbLine
  8
color#4595e3fd
 62
256
370
-1
  6
BYLAYER
 10
5.7628441247243236
 20
1.6688636830959354
 30
0.0
 11
5.7420666039491595
 21
1.6332271489483037
 31
0.0
  0
LINE
  5
289
100
AcDbEntity
100
AcDbLine
  8
color#4595e3fd
 62
256
370
-1
  6
BYLAYER
 10
5.7420666039491595
 20
1.6332271489483037
 30
0.0
 11
5.71927291921397
 21
1.5987915873887515
 31
0.0
  0
LINE
  5
28A
100
AcDbEntity
100
AcDbLine
  8
color#4595e3fd
 62
256
370
-1
  6
BYLAYER
 10
5.71927291921397
 20
1.5987915873887515
 30
0.0
 11
5.6944700569420554
 21
1.5656714281568342
 31
0.0
  0
LINE
  5
28B
100
AcDbEntity
100
AcDbLine
  8
color#4595e3fd
 62
256
370
-1
  6
BYLAYER
 10
5.6944700569420554
 20
1.5656714281568342
 30
0.0
 11
5.6676650035567118
 21
1.5339811009921094
 31
0.0
  0
LINE
  5
28C
100
AcDbEntity
100
AcDbLine
  8
color#4595e3fd
 62
256
370
-1
  6
BYLAYER
 10
5.6676650035567118
 20
1.5339811009921094
 30
0.0
 11
5.6388647454812366
 21
1.5038350356341335
 31
0.0
  0
LINE
  5
28D
100
AcDbEntity
100
AcDbLine
  8
color#4595e3fd
 62
256
370
-1
  6
BYLAYER
 10
5.6388647454812366
 20
1.5038350356341335
 30
0.0
 11
5.6080762691389276
 21
1.4753476618224635
 31
0.0
  0
LINE
  5
28E
100
AcDbEntity
100
AcDbLine
  8
color#4595e3fd
 62
256
370
-1
  6
BYLAYER
 10
5.6080762691389276
 20
1.4753476618224635
 30
0.0
 11
5.5784442593406673
 21
1.4477739277782418
 31
0.0
  0
LINE
  5
28F
100
AcDbEntity
100
AcDbLine
  8
color#4595e3fd
 62
256
370
-1
  6
BYLAYER
 10
5.5784442593406673
 20
1.4477739277782418
 30
0.0
 11
5.5473865303418313
 21
1.4221460563553956
 31
0.0
  0
LINE
  5
290
100
AcDbEntity
100
AcDbLine
  8
color#4595e3fd
 62
256
370
-1
  6
BYLAYER
 10
5.5473865303418313
 20
1.4221460563553956
 30
0.0
 11
5.515008106860054
 21
1.3984652878112627
 31
0.0
  0
LINE
  5
291
100
AcDbEntity
100
AcDbLine
  8
color#4595e3fd
 62
256
370
-1
  6
BYLAYER
 10
5.515008106860054
 20
1.3984652878112627
 30
0.0
 11
5.4814140136129605
 21
1.3767328624031956
 31
0.0
  0
LINE
  5
292
100
AcDbEntity
100
AcDbLine
  8
color#4595e3fd
 62
256
370
-1
  6
BYLAYER
 10
5.4814140136129605
 20
1.3767328624031956
 30
0.0
 11
5.446709275318188
 21
1.3569500203885296
 31
0.0
  0
LINE
  5
293
100
AcDbEntity
100
AcDbLine
  8
color#4595e3fd
 62
256
370
-1
  6
BYLAYER
 10
5.446709275318188
 20
1.3569500203885296
 30
0.0
 11
5.4109989166933667
 21
1.3391180020246156
 31
0.0
  0
LINE
  5
294
100
AcDbEntity
100
AcDbLine
  8
color#4595e3fd
 62
256
370
-1
  6
BYLAYER
 10
5.4109989166933667
 20
1.3391180020246156
 30
0.0
 11
5.3743879624561233
 21
1.3232380475687979
 31
0.0
  0
LINE
  5
295
100
AcDbEntity
100
AcDbLine
  8
color#4595e3fd
 62
256
370
-1
  6
BYLAYER
 10
5.3743879624561233
 20
1.3232380475687979
 30
0.0
 11
5.3369814373240949
 21
1.3093113972784154
 31
0.0
  0
LINE
  5
296
100
AcDbEntity
100
AcDbLine
  8
color#4595e3fd
 62
256
370
-1
  6
BYLAYER
 10
5.3369814373240949
 20
1.3093113972784154
 30
0.0
 11
5.298884366014911
 21
1.2973392914108177
 31
0.0
  0
LINE
  5
297
100
AcDbEntity
100
AcDbLine
  8
color#4595e3fd
 62
256
370
-1
  6
BYLAYER
 10
5.298884366014911
 20
1.2973392914108177
 30
0.0
 11
5.260201773246199
 21
1.2873229702233511
 31
0.0
  0
LINE
  5
298
100
AcDbEntity
100
AcDbLine
  8
color#4595e3fd
 62
256
370
-1
  6
BYLAYER
 10
5.260201773246199
 20
1.2873229702233511
 30
0.0
 11
5.2210386837355953
 21
1.2792636739733538
 31
0.0
  0
LINE
  5
299
100
AcDbEntity
100
AcDbLine
  8
color#4595e3fd
 62
256
370
-1
  6
BYLAYER
 10
5.2210386837355953
 20
1.2792636739733538
 30
0.0
 11
5.1815001222007275
 21
1.2731626429181722
 31
0.0
  0
LINE
  5
29A
100
AcDbEntity
100
AcDbLine
  8
color#4595e3fd
 62
256
370
-1
  6
BYLAYER
 10
5.1815001222007275
 20
1.2731626429181722
 30
0.0
 11
5.1416911133592285
 21
1.2690211173151544
 31
0.0
  0
LINE
  5
29B
100
AcDbEntity
100
AcDbLine
  8
color#4595e3fd
 62
256
370
-1
  6
BYLAYER
 10
5.1416911133592285
 20
1.2690211173151544
 30
0.0
 11
5.1017166819287292
 21
1.266840337421641
 31
0.0
  0
LINE
  5
29C
100
AcDbEntity
100
AcDbLine
  8
color#4595e3fd
 62
256
370
-1
  6
BYLAYER
 10
5.1017166819287292
 20
1.266840337421641
 30
0.0
 11
5.0616818526268608
 21
1.2666215434949792
 31
0.0
  0
LINE
  5
29D
100
AcDbEntity
100
AcDbLine
  8
color#4595e3fd
 62
256
370
-1
  6
BYLAYER
 10
5.0616818526268608
 20
1.2666215434949792
 30
0.0
 11
5.0216916501712543
 21
1.2683659757925103
 31
0.0
  0
LINE
  5
29E
100
AcDbEntity
100
AcDbLine
  8
color#4595e3fd
 62
256
370
-1
  6
BYLAYER
 10
5.0216916501712543
 20
1.2683659757925103
 30
0.0
 11
4.9818510992795417
 21
1.272074874571582
 31
0.0
  0
LINE
  5
29F
100
AcDbEntity
100
AcDbLine
  8
color#4595e3fd
 62
256
370
-1
  6
BYLAYER
 10
4.9818510992795417
 20
1.272074874571582
 30
0.0
 11
4.9422652246693524
 21
1.2777494800895366
 31
0.0
  0
LINE
  5
2A0
100
AcDbEntity
100
AcDbLine
  8
color#4595e3fd
 62
256
370
-1
  6
BYLAYER
 10
4.9422652246693524
 20
1.2777494800895366
 30
0.0
 11
4.9030390510583191
 21
1.2853910326037186
 31
0.0
  0
LINE
  5
2A1
100
AcDbEntity
100
AcDbLine
  8
color#4595e3fd
 62
256
370
-1
  6
BYLAYER
 10
4.9030390510583191
 20
1.2853910326037186
 30
0.0
 11
4.8642776031640729
 21
1.2950007723714725
 31
0.0
  0
LINE
  5
2A2
100
AcDbEntity
100
AcDbLine
  8
color#4595e3fd
 62
256
370
-1
  6
BYLAYER
 10
4.8642776031640729
 20
1.2950007723714725
 30
0.0
 11
4.8260859057042449
 21
1.3065799396501443
 31
0.0
  0
LINE
  5
2A3
100
AcDbEntity
100
AcDbLine
  8
color#4595e3fd
 62
256
370
-1
  6
BYLAYER
 10
4.8260859057042449
 20
1.3065799396501443
 30
0.0
 11
4.7885689833964662
 21
1.3201297746970764
 31
0.0
  0
LINE
  5
2A4
100
AcDbEntity
100
AcDbLine
  8
color#4595e3fd
 62
256
370
-1
  6
BYLAYER
 10
4.7885689833964662
 20
1.3201297746970764
 30
0.0
 11
4.7518318609583678
 21
1.3356515177696133
 31
0.0
  0
LINE
  5
2A5
100
AcDbEntity
100
AcDbLine
  8
color#4595e3fd
 62
256
370
-1
  6
BYLAYER
 10
4.7518318609583678
 20
1.3356515177696133
 30
0.0
 11
4.7159795631075809
 21
1.3531464091251024
 31
0.0
  0
LINE
  5
2A6
100
AcDbEntity
100
AcDbLine
  8
color#4595e3fd
 62
256
370
-1
  6
BYLAYER
 10
4.7159795631075809
 20
1.3531464091251024
 30
0.0
 11
4.6811171145617374
 21
1.3726156890208852
 31
0.0
  0
LINE
  5
2A7
100
AcDbEntity
100
AcDbLine
  8
color#4595e3fd
 62
256
370
-1
  6
BYLAYER
 10
4.6811171145617374
 20
1.3726156890208852
 30
0.0
 11
4.6473495400384683
 21
1.3940605977143055
 31
0.0
  0
LINE
  5
2A8
100
AcDbEntity
100
AcDbLine
  8
color#4595e3fd
 62
256
370
-1
  6
BYLAYER
 10
4.6473495400384683
 20
1.3940605977143055
 30
0.0
 11
4.6147818642554039
 21
1.4174823754627122
 31
0.0
  0
LINE
  5
2A9
100
AcDbEntity
100
AcDbLine
  8
color#4595e3fd
 62
256
370
-1
  6
BYLAYER
 10
4.6147818642554039
 20
1.4174823754627122
 30
0.0
 11
4.5835191119301761
 21
1.4428822625234434
 31
0.0
  0
LINE
  5
2AA
100
AcDbEntity
100
AcDbLine
  8
color#4595e3fd
 62
256
370
-1
  6
BYLAYER
 10
4.5835191119301761
 20
1.4428822625234434
 30
0.0
 11
4.553666307780416
 21
1.4702614991538496
 31
0.0
  0
LINE
  5
2AB
100
AcDbEntity
100
AcDbLine
  8
color#4595e3fd
 62
256
370
-1
  6
BYLAYER
 10
4.553666307780416
 20
1.4702614991538496
 30
0.0
 11
3.8041556958384706
 21
2.2212029667449542
 31
0.0
  0
LINE
  5
2AC
100
AcDbEntity
100
AcDbLine
  8
color#4595e3fd
 62
256
370
-1
  6
BYLAYER
 10
5.8626420200347722
 20
1.5023128355101296
 30
0.0
 11
6.2729961646494807
 21
1.9096101509298238
 31
0.0
  0
LINE
  5
2AD
100
AcDbEntity
100
AcDbLine
  8
color#4595e3fd
 62
256
370
-1
  6
BYLAYER
 10
6.2729961646494807
 20
1.9096101509298238
 30
0.0
 11
6.395496503262355
 21
1.789349059271456
 31
0.0
  0
LINE
  5
2AE
100
AcDbEntity
100
AcDbLine
  8
color#4595e3fd
 62
256
370
-1
  6
BYLAYER
 10
6.395496503262355
 20
1.789349059271456
 30
0.0
 11
6.4221808742529669
 21
1.7617421044686941
 31
0.0
  0
LINE
  5
2AF
100
AcDbEntity
100
AcDbLine
  8
color#4595e3fd
 62
256
370
-1
  6
BYLAYER
 10
6.4221808742529669
 20
1.7617421044686941
 30
0.0
 11
6.448093203463749
 21
1.7335342428920799
 31
0.0
  0
LINE
  5
2B0
100
AcDbEntity
100
AcDbLine
  8
color#4595e3fd
 62
256
370
-1
  6
BYLAYER
 10
6.448093203463749
 20
1.7335342428920799
 30
0.0
 11
6.4606767131491347
 21
1.7191645756023641
 31
0.0
  0
LINE
  5
2B1
100
AcDbEntity
100
AcDbLine
  8
color#4595e3fd
 62
256
370
-1
  6
BYLAYER
 10
6.4606767131491347
 20
1.7191645756023641
 30
0.0
 11
6.472967445286482
 21
1.7045962058657242
 31
0.0
  0
LINE
  5
2B2
100
AcDbEntity
100
AcDbLine
  8
color#4595e3fd
 62
256
370
-1
  6
BYLAYER
 10
6.472967445286482
 20
1.7045962058657242
 30
0.0
 11
6.4849321441747625
 21
1.6898129750976782
 31
0.0
  0
LINE
  5
2B3
100
AcDbEntity
100
AcDbLine
  8
color#4595e3fd
 62
256
370
-1
  6
BYLAYER
 10
6.4849321441747625
 20
1.6898129750976782
 30
0.0
 11
6.4965375541129511
 21
1.6747987247137373
 31
0.0
  0
LINE
  5
2B4
100
AcDbEntity
100
AcDbLine
  8
color#4595e3fd
 62
256
370
-1
  6
BYLAYER
 10
6.4965375541129511
 20
1.6747987247137373
 30
0.0
 11
6.5077504194000166
 21
1.6595372961294155
 31
0.0
  0
LINE
  5
2B5
100
AcDbEntity
100
AcDbLine
  8
color#4595e3fd
 62
256
370
-1
  6
BYLAYER
 10
6.5077504194000166
 20
1.6595372961294155
 30
0.0
 11
6.5185374843349368
 21
1.6440125307602262
 31
0.0
  0
LINE
  5
2B6
100
AcDbEntity
100
AcDbLine
  8
color#4595e3fd
 62
256
370
-1
  6
BYLAYER
 10
6.5185374843349368
 20
1.6440125307602262
 30
0.0
 11
6.5288654932166832
 21
1.6282082700216829
 31
0.0
  0
LINE
  5
2B7
100
AcDbEntity
100
AcDbLine
  8
color#4595e3fd
 62
256
370
-1
  6
BYLAYER
 10
6.5288654932166832
 20
1.6282082700216829
 30
0.0
 11
6.5387011903442271
 21
1.6121083553293007
 31
0.0
  0
LINE
  5
2B8
100
AcDbEntity
100
AcDbLine
  8
color#4595e3fd
 62
256
370
-1
  6
BYLAYER
 10
6.5387011903442271
 20
1.6121083553293007
 30
0.0
 11
6.5480113200165437
 21
1.5956966280985907
 31
0.0
  0
LINE
  5
2B9
100
AcDbEntity
100
AcDbLine
  8
color#4595e3fd
 62
256
370
-1
  6
BYLAYER
 10
6.5480113200165437
 20
1.5956966280985907
 30
0.0
 11
6.5567626265326027
 21
1.5789569297450692
 31
0.0
  0
LINE
  5
2BA
100
AcDbEntity
100
AcDbLine
  8
color#4595e3fd
 62
256
370
-1
  6
BYLAYER
 10
6.5567626265326027
 20
1.5789569297450692
 30
0.0
 11
6.5649218541913799
 21
1.561873101684248
 31
0.0
  0
LINE
  5
2BB
100
AcDbEntity
100
AcDbLine
  8
color#4595e3fd
 62
256
370
-1
  6
BYLAYER
 10
6.5649218541913799
 20
1.561873101684248
 30
0.0
 11
6.5724557472918477
 21
1.5444289853316429
 31
0.0
  0
LINE
  5
2BC
100
AcDbEntity
100
AcDbLine
  8
color#4595e3fd
 62
256
370
-1
  6
BYLAYER
 10
6.5724557472918477
 20
1.5444289853316429
 30
0.0
 11
6.5793310501329794
 21
1.5266084221027636
 31
0.0
  0
LINE
  5
2BD
100
AcDbEntity
100
AcDbLine
  8
color#4595e3fd
 62
256
370
-1
  6
BYLAYER
 10
6.5793310501329794
 20
1.5266084221027636
 30
0.0
 11
6.5855145070137455
 21
1.5083952534131271
 31
0.0
  0
LINE
  5
2BE
100
AcDbEntity
100
AcDbLine
  8
color#4595e3fd
 62
256
370
-1
  6
BYLAYER
 10
6.5855145070137455
 20
1.5083952534131271
 30
0.0
 11
6.590972862233123
 21
1.4897733206782453
 31
0.0
  0
LINE
  5
2BF
100
AcDbEntity
100
AcDbLine
  8
color#4595e3fd
 62
256
370
-1
  6
BYLAYER
 10
6.590972862233123
 20
1.4897733206782453
 30
0.0
 11
6.5956728600900805
 21
1.4707264653136336
 31
0.0
  0
LINE
  5
2C0
100
AcDbEntity
100
AcDbLine
  8
color#4595e3fd
 62
256
370
-1
  6
BYLAYER
 10
6.5956728600900805
 20
1.4707264653136336
 30
0.0
 11
6.6658962384779965
 21
1.1266869061855442
 31
0.0
  0
LINE
  5
2C1
100
AcDbEntity
100
AcDbLine
  8
color#4595e3fd
 62
256
370
-1
  6
BYLAYER
 10
6.6658962384779965
 20
1.1266869061855442
 30
0.0
 11
6.7883743907671832
 21
0.4705791108703978
 31
0.0
  0
LINE
  5
2C2
100
AcDbEntity
100
AcDbLine
  8
color#4595e3fd
 62
256
370
-1
  6
BYLAYER
 10
6.7883743907671832
 20
0.4705791108703978
 30
0.0
 11
6.7898245139358826
 21
0.4630021790674938
 31
0.0
  0
LINE
  5
2C3
100
AcDbEntity
100
AcDbLine
  8
color#4595e3fd
 62
256
370
-1
  6
BYLAYER
 10
6.7898245139358826
 20
0.4630021790674938
 30
0.0
 11
6.7906276866417521
 21
0.4554868367503231
 31
0.0
  0
LINE
  5
2C4
100
AcDbEntity
100
AcDbLine
  8
color#4595e3fd
 62
256
370
-1
  6
BYLAYER
 10
6.7906276866417521
 20
0.4554868367503231
 30
0.0
 11
6.7908085026500693
 21
0.4480540240413633
 31
0.0
  0
LINE
  5
2C5
100
AcDbEntity
100
AcDbLine
  8
color#4595e3fd
 62
256
370
-1
  6
BYLAYER
 10
6.7908085026500693
 20
0.4480540240413633
 30
0.0
 11
6.7903915557261083
 21
0.4407246810631015
 31
0.0
  0
LINE
  5
2C6
100
AcDbEntity
100
AcDbLine
  8
color#4595e3fd
 62
256
370
-1
  6
BYLAYER
 10
6.7903915557261083
 20
0.4407246810631015
 30
0.0
 11
6.789401439635153
 21
0.4335197479380173
 31
0.0
  0
LINE
  5
2C7
100
AcDbEntity
100
AcDbLine
  8
color#4595e3fd
 62
256
370
-1
  6
BYLAYER
 10
6.789401439635153
 20
0.4335197479380173
 30
0.0
 11
6.7878627481424729
 21
0.4264601647885987
 31
0.0
  0
LINE
  5
2C8
100
AcDbEntity
100
AcDbLine
  8
color#4595e3fd
 62
256
370
-1
  6
BYLAYER
 10
6.7878627481424729
 20
0.4264601647885987
 30
0.0
 11
6.7858000750133467
 21
0.4195668717373293
 31
0.0
  0
LINE
  5
2C9
100
AcDbEntity
100
AcDbLine
  8
color#4595e3fd
 62
256
370
-1
  6
BYLAYER
 10
6.7858000750133467
 20
0.4195668717373293
 30
0.0
 11
6.7832380140130564
 21
0.4128608089066866
 31
0.0
  0
LINE
  5
2CA
100
AcDbEntity
100
AcDbLine
  8
color#4595e3fd
 62
256
370
-1
  6
BYLAYER
 10
6.7832380140130564
 20
0.4128608089066866
 30
0.0
 11
6.7802011589068734
 21
0.4063629164191577
 31
0.0
  0
LINE
  5
2CB
100
AcDbEntity
100
AcDbLine
  8
color#4595e3fd
 62
256
370
-1
  6
BYLAYER
 10
6.7802011589068734
 20
0.4063629164191577
 30
0.0
 11
6.7767141034600744
 21
0.4000941343972302
 31
0.0
  0
LINE
  5
2CC
100
AcDbEntity
100
AcDbLine
  8
color#4595e3fd
 62
256
370
-1
  6
BYLAYER
 10
6.7767141034600744
 20
0.4000941343972302
 30
0.0
 11
6.7728014414379398
 21
0.3940754029633801
 31
0.0
  0
LINE
  5
2CD
100
AcDbEntity
100
AcDbLine
  8
color#4595e3fd
 62
256
370
-1
  6
BYLAYER
 10
6.7728014414379398
 20
0.3940754029633801
 30
0.0
 11
6.7684877666057464
 21
0.3883276622400942
 31
0.0
  0
LINE
  5
2CE
100
AcDbEntity
100
AcDbLine
  8
color#4595e3fd
 62
256
370
-1
  6
BYLAYER
 10
6.7684877666057464
 20
0.3883276622400942
 30
0.0
 11
6.7637976727287663
 21
0.3828718523498572
 31
0.0
  0
LINE
  5
2CF
100
AcDbEntity
100
AcDbLine
  8
color#4595e3fd
 62
256
370
-1
  6
BYLAYER
 10
6.7637976727287663
 20
0.3828718523498572
 30
0.0
 11
6.7587557535722809
 21
0.3777289134151521
 31
0.0
  0
LINE
  5
2D0
100
AcDbEntity
100
AcDbLine
  8
color#4595e3fd
 62
256
370
-1
  6
BYLAYER
 10
6.7587557535722809
 20
0.3777289134151521
 30
0.0
 11
6.7533866029015668
 21
0.3729197855584603
 31
0.0
  0
LINE
  5
2D1
100
AcDbEntity
100
AcDbLine
  8
color#4595e3fd
 62
256
370
-1
  6
BYLAYER
 10
6.7533866029015668
 20
0.3729197855584603
 30
0.0
 11
6.7477148144818999
 21
0.3684654089022672
 31
0.0
  0
LINE
  5
2D2
100
AcDbEntity
100
AcDbLine
  8
color#4595e3fd
 62
256
370
-1
  6
BYLAYER
 10
6.7477148144818999
 20
0.3684654089022672
 30
0.0
 11
6.741764982078557
 21
0.364386723569055
 31
0.0
  0
LINE
  5
2D3
100
AcDbEntity
100
AcDbLine
  8
color#4595e3fd
 62
256
370
-1
  6
BYLAYER
 10
6.741764982078557
 20
0.364386723569055
 30
0.0
 11
6.7355616994568148
 21
0.3607046696813083
 31
0.0
  0
LINE
  5
2D4
100
AcDbEntity
100
AcDbLine
  8
color#4595e3fd
 62
256
370
-1
  6
BYLAYER
 10
6.7355616994568148
 20
0.3607046696813083
 30
0.0
 11
6.7291295603819519
 21
0.3574401873615077
 31
0.0
  0
LINE
  5
2D5
100
AcDbEntity
100
AcDbLine
  8
color#4595e3fd
 62
256
370
-1
  6
BYLAYER
 10
6.7291295603819519
 20
0.3574401873615077
 30
0.0
 11
6.722493158619244
 21
0.3546142167321402
 31
0.0
  0
LINE
  5
2D6
100
AcDbEntity
100
AcDbLine
  8
color#4595e3fd
 62
256
370
-1
  6
BYLAYER
 10
6.722493158619244
 20
0.3546142167321402
 30
0.0
 11
6.715677087933968
 21
0.3522476979156887
 31
0.0
  0
LINE
  5
2D7
100
AcDbEntity
100
AcDbLine
  8
color#4595e3fd
 62
256
370
-1
  6
BYLAYER
 10
6.715677087933968
 20
0.3522476979156887
 30
0.0
 11
6.7087059420914006
 21
0.3503615710346348
 31
0.0
  0
LINE
  5
2D8
100
AcDbEntity
100
AcDbLine
  8
color#4595e3fd
 62
256
370
-1
  6
BYLAYER
 10
6.7087059420914006
 20
0.3503615710346348
 30
0.0
 11
6.7016043148568194
 21
0.3489767762114637
 31
0.0
  0
LINE
  5
2D9
100
AcDbEntity
100
AcDbLine
  8
color#4595e3fd
 62
256
370
-1
  6
BYLAYER
 10
6.7016043148568194
 20
0.3489767762114637
 30
0.0
 11
6.6943967999955003
 21
0.3481142535686577
 31
0.0
  0
LINE
  5
2DA
100
AcDbEntity
100
AcDbLine
  8
color#4595e3fd
 62
256
370
-1
  6
BYLAYER
 10
6.6943967999955003
 20
0.3481142535686577
 30
0.0
 11
6.6871079912727209
 21
0.3477949432287015
 31
0.0
  0
LINE
  5
2DB
100
AcDbEntity
100
AcDbLine
  8
color#4595e3fd
 62
256
370
-1
  6
BYLAYER
 10
6.6871079912727209
 20
0.3477949432287015
 30
0.0
 11
6.6797624824537589
 21
0.3480397853140763
 31
0.0
  0
LINE
  5
2DC
100
AcDbEntity
100
AcDbLine
  8
color#4595e3fd
 62
256
370
-1
  6
BYLAYER
 10
6.6797624824537589
 20
0.3480397853140763
 30
0.0
 11
6.6723848673038901
 21
0.3488697199472676
 31
0.0
  0
LINE
  5
2DD
100
AcDbEntity
100
AcDbLine
  8
color#4595e3fd
 62
256
370
-1
  6
BYLAYER
 10
6.6723848673038901
 20
0.3488697199472676
 30
0.0
 11
6.6649997395883913
 21
0.3503056872507584
 31
0.0
  0
LINE
  5
2DE
100
AcDbEntity
100
AcDbLine
  8
color#4595e3fd
 62
256
370
-1
  6
BYLAYER
 10
6.6649997395883913
 20
0.3503056872507584
 30
0.0
 11
6.6576316930725401
 21
0.3523686273470317
 31
0.0
  0
LINE
  5
2DF
100
AcDbEntity
100
AcDbLine
  8
color#4595e3fd
 62
256
370
-1
  6
BYLAYER
 10
6.6576316930725401
 20
0.3523686273470317
 30
0.0
 11
6.1943795266695778
 21
0.4392528249997728
 31
0.0
  0
LINE
  5
2E0
100
AcDbEntity
100
AcDbLine
  8
color#4595e3fd
 62
256
370
-1
  6
BYLAYER
 10
6.1943795266695778
 20
0.4392528249997728
 30
0.0
 11
5.9094585233544592
 21
0.4933880968452482
 31
0.0
  0
LINE
  5
2E1
100
AcDbEntity
100
AcDbLine
  8
color#4595e3fd
 62
256
370
-1
  6
BYLAYER
 10
5.9094585233544592
 20
0.4933880968452482
 30
0.0
 11
5.8031444531111145
 21
0.5158900936461761
 31
0.0
  0
LINE
  5
2E2
100
AcDbEntity
100
AcDbLine
  8
color#4595e3fd
 62
256
370
-1
  6
BYLAYER
 10
5.8031444531111145
 20
0.5158900936461761
 30
0.0
 11
5.7325115472594534
 21
0.531898255805292
 31
0.0
  0
LINE
  5
2E3
100
AcDbEntity
100
AcDbLine
  8
color#4595e3fd
 62
256
370
-1
  6
BYLAYER
 10
5.7325115472594534
 20
0.531898255805292
 30
0.0
 11
5.6621085372119664
 21
0.5488582492790697
 31
0.0
  0
LINE
  5
2E4
100
AcDbEntity
100
AcDbLine
  8
color#4595e3fd
 62
256
370
-1
  6
BYLAYER
 10
5.6621085372119664
 20
0.5488582492790697
 30
0.0
 11
5.6270027207100695
 21
0.5577343880842768
 31
0.0
  0
LINE
  5
2E5
100
AcDbEntity
100
AcDbLine
  8
color#4595e3fd
 62
256
370
-1
  6
BYLAYER
 10
5.6270027207100695
 20
0.5577343880842768
 30
0.0
 11
5.609996057649048
 21
0.5636147186461185
 31
0.0
  0
LINE
  5
2E6
100
AcDbEntity
100
AcDbLine
  8
color#4595e3fd
 62
256
370
-1
  6
BYLAYER
 10
5.609996057649048
 20
0.5636147186461185
 30
0.0
 11
5.5933703044469638
 21
0.5700956191774532
 31
0.0
  0
LINE
  5
2E7
100
AcDbEntity
100
AcDbLine
  8
color#4595e3fd
 62
256
370
-1
  6
BYLAYER
 10
5.5933703044469638
 20
0.5700956191774532
 30
0.0
 11
5.5771094289681873
 21
0.5771495080784467
 31
0.0
  0
LINE
  5
2E8
100
AcDbEntity
100
AcDbLine
  8
color#4595e3fd
 62
256
370
-1
  6
BYLAYER
 10
5.5771094289681873
 20
0.5771495080784467
 30
0.0
 11
5.5611973990770789
 21
0.5847488037492765
 31
0.0
  0
LINE
  5
2E9
100
AcDbEntity
100
AcDbLine
  8
color#4595e3fd
 62
256
370
-1
  6
BYLAYER
 10
5.5611973990770789
 20
0.5847488037492765
 30
0.0
 11
5.5456181826380089
 21
0.5928659245901073
 31
0.0
  0
LINE
  5
2EA
100
AcDbEntity
100
AcDbLine
  8
color#4595e3fd
 62
256
370
-1
  6
BYLAYER
 10
5.5456181826380089
 20
0.5928659245901073
 30
0.0
 11
5.5303557475153395
 21
0.6014732890011172
 31
0.0
  0
LINE
  5
2EB
100
AcDbEntity
100
AcDbLine
  8
color#4595e3fd
 62
256
370
-1
  6
BYLAYER
 10
5.5303557475153395
 20
0.6014732890011172
 30
0.0
 11
5.5153940615734314
 21
0.6105433153824791
 31
0.0
  0
LINE
  5
2EC
100
AcDbEntity
100
AcDbLine
  8
color#4595e3fd
 62
256
370
-1
  6
BYLAYER
 10
5.5153940615734314
 20
0.6105433153824791
 30
0.0
 11
5.5007170926766582
 21
0.6200484221343577
 31
0.0
  0
LINE
  5
2ED
100
AcDbEntity
100
AcDbLine
  8
color#4595e3fd
 62
256
370
-1
  6
BYLAYER
 10
5.5007170926766582
 20
0.6200484221343577
 30
0.0
 11
5.4863088086893814
 21
0.6299610276569294
 31
0.0
  0
LINE
  5
2EE
100
AcDbEntity
100
AcDbLine
  8
color#4595e3fd
 62
256
370
-1
  6
BYLAYER
 10
5.4863088086893814
 20
0.6299610276569294
 30
0.0
 11
5.4721531774759624
 21
0.6402535503503697
 31
0.0
  0
LINE
  5
2EF
100
AcDbEntity
100
AcDbLine
  8
color#4595e3fd
 62
256
370
-1
  6
BYLAYER
 10
5.4721531774759624
 20
0.6402535503503697
 30
0.0
 11
5.4582341669007697
 21
0.6508984086148446
 31
0.0
  0
LINE
  5
2F0
100
AcDbEntity
100
AcDbLine
  8
color#4595e3fd
 62
256
370
-1
  6
BYLAYER
 10
5.4582341669007697
 20
0.6508984086148446
 30
0.0
 11
5.4445357448281699
 21
0.6618680208505275
 31
0.0
  0
LINE
  5
2F1
100
AcDbEntity
100
AcDbLine
  8
color#4595e3fd
 62
256
370
-1
  6
BYLAYER
 10
5.4445357448281699
 20
0.6618680208505275
 30
0.0
 11
5.4310418791225219
 21
0.6731348054575947
 31
0.0
  0
LINE
  5
2F2
100
AcDbEntity
100
AcDbLine
  8
color#4595e3fd
 62
256
370
-1
  6
BYLAYER
 10
5.4310418791225219
 20
0.6731348054575947
 30
0.0
 11
5.4046036882695603
 21
0.6964495653865528
 31
0.0
  0
LINE
  5
2F3
100
AcDbEntity
100
AcDbLine
  8
color#4595e3fd
 62
256
370
-1
  6
BYLAYER
 10
5.4046036882695603
 20
0.6964495653865528
 30
0.0
 11
5.3660797713514112
 21
0.7329609580696462
 31
0.0
  0
LINE
  5
2F4
100
AcDbEntity
100
AcDbLine
  8
color#4595e3fd
 62
256
370
-1
  6
BYLAYER
 10
5.3660797713514112
 20
0.7329609580696462
 30
0.0
 11
5.2298774710600817
 21
0.8713122162186969
 31
0.0
  0
LINE
  5
2F5
100
AcDbEntity
100
AcDbLine
  8
color#4595e3fd
 62
256
370
-1
  6
BYLAYER
 10
5.2298774710600817
 20
0.8713122162186969
 30
0.0
 11
5.6396801366340004
 21
1.2789594355706635
 31
0.0
  0
LINE
  5
2F6
100
AcDbEntity
100
AcDbLine
  8
color#4595e3fd
 62
256
370
-1
  6
BYLAYER
 10
5.6396801366340004
 20
1.2789594355706635
 30
0.0
 11
5.6549171903699778
 21
1.2611202027379127
 31
0.0
  0
LINE
  5
2F7
100
AcDbEntity
100
AcDbLine
  8
color#4595e3fd
 62
256
370
-1
  6
BYLAYER
 10
5.6549171903699778
 20
1.2611202027379127
 30
0.0
 11
5.6709086875800283
 21
1.2464055299873265
 31
0.0
  0
LINE
  5
2F8
100
AcDbEntity
100
AcDbLine
  8
color#4595e3fd
 62
256
370
-1
  6
BYLAYER
 10
5.6709086875800283
 20
1.2464055299873265
 30
0.0
 11
5.6875108907914065
 21
1.2346709509146139
 31
0.0
  0
LINE
  5
2F9
100
AcDbEntity
100
AcDbLine
  8
color#4595e3fd
 62
256
370
-1
  6
BYLAYER
 10
5.6875108907914065
 20
1.2346709509146139
 30
0.0
 11
5.7045800625313632
 21
1.2257719991154912
 31
0.0
  0
LINE
  5
2FA
100
AcDbEntity
100
AcDbLine
  8
color#4595e3fd
 62
256
370
-1
  6
BYLAYER
 10
5.7045800625313632
 20
1.2257719991154912
 30
0.0
 11
5.7219724653271538
 21
1.219564208185663
 31
0.0
  0
LINE
  5
2FB
100
AcDbEntity
100
AcDbLine
  8
color#4595e3fd
 62
256
370
-1
  6
BYLAYER
 10
5.7219724653271538
 20
1.219564208185663
 30
0.0
 11
5.7395443617060318
 21
1.2159031117208476
 31
0.0
  0
LINE
  5
2FC
100
AcDbEntity
100
AcDbLine
  8
color#4595e3fd
 62
256
370
-1
  6
BYLAYER
 10
5.7395443617060318
 20
1.2159031117208476
 30
0.0
 11
5.7571520141952472
 21
1.2146442433167559
 31
0.0
  0
LINE
  5
2FD
100
AcDbEntity
100
AcDbLine
  8
color#4595e3fd
 62
256
370
-1
  6
BYLAYER
 10
5.7571520141952472
 20
1.2146442433167559
 30
0.0
 11
5.7746516853220591
 21
1.2156431365690952
 31
0.0
  0
LINE
  5
2FE
100
AcDbEntity
100
AcDbLine
  8
color#4595e3fd
 62
256
370
-1
  6
BYLAYER
 10
5.7746516853220591
 20
1.2156431365690952
 30
0.0
 11
5.7918996376137173
 21
1.2187553250735803
 31
0.0
  0
LINE
  5
2FF
100
AcDbEntity
100
AcDbLine
  8
color#4595e3fd
 62
256
370
-1
  6
BYLAYER
 10
5.7918996376137173
 20
1.2187553250735803
 30
0.0
 11
5.8087521335974728
 21
1.2238363424259262
 31
0.0
  0
LINE
  5
300
100
AcDbEntity
100
AcDbLine
  8
color#4595e3fd
 62
256
370
-1
  6
BYLAYER
 10
5.8087521335974728
 20
1.2238363424259262
 30
0.0
 11
5.8250654358005836
 21
1.2307417222218393
 31
0.0
  0
LINE
  5
301
100
AcDbEntity
100
AcDbLine
  8
color#4595e3fd
 62
256
370
-1
  6
BYLAYER
 10
5.8250654358005836
 20
1.2307417222218393
 30
0.0
 11
5.8406958067503014
 21
1.2393269980570341
 31
0.0
  0
LINE
  5
302
100
AcDbEntity
100
AcDbLine
  8
color#4595e3fd
 62
256
370
-1
  6
BYLAYER
 10
5.8406958067503014
 20
1.2393269980570341
 30
0.0
 11
5.8554995089738773
 21
1.2494477035272231
 31
0.0
  0
LINE
  5
303
100
AcDbEntity
100
AcDbLine
  8
color#4595e3fd
 62
256
370
-1
  6
BYLAYER
 10
5.8554995089738773
 20
1.2494477035272231
 30
0.0
 11
5.8693328049985674
 21
1.2609593722281156
 31
0.0
  0
LINE
  5
304
100
AcDbEntity
100
AcDbLine
  8
color#4595e3fd
 62
256
370
-1
  6
BYLAYER
 10
5.8693328049985674
 20
1.2609593722281156
 30
0.0
 11
5.8820519573516243
 21
1.2737175377554253
 31
0.0
  0
LINE
  5
305
100
AcDbEntity
100
AcDbLine
  8
color#4595e3fd
 62
256
370
-1
  6
BYLAYER
 10
5.8820519573516243
 20
1.2737175377554253
 30
0.0
 11
5.8935132285602991
 21
1.2875777337048637
 31
0.0
  0
LINE
  5
306
100
AcDbEntity
100
AcDbLine
  8
color#4595e3fd
 62
256
370
-1
  6
BYLAYER
 10
5.8935132285602991
 20
1.2875777337048637
 30
0.0
 11
5.9035728811518497
 21
1.3023954936721429
 31
0.0
  0
LINE
  5
307
100
AcDbEntity
100
AcDbLine
  8
color#4595e3fd
 62
256
370
-1
  6
BYLAYER
 10
5.9035728811518497
 20
1.3023954936721429
 30
0.0
 11
5.9120871776535262
 21
1.318026351252974
 31
0.0
  0
LINE
  5
308
100
AcDbEntity
100
AcDbLine
  8
color#4595e3fd
 62
256
370
-1
  6
BYLAYER
 10
5.9120871776535262
 20
1.318026351252974
 30
0.0
 11
5.9189123805925821
 21
1.3343258400430682
 31
0.0
  0
LINE
  5
309
100
AcDbEntity
100
AcDbLine
  8
color#4595e3fd
 62
256
370
-1
  6
BYLAYER
 10
5.9189123805925821
 20
1.3343258400430682
 30
0.0
 11
5.9239047524962718
 21
1.3511494936381387
 31
0.0
  0
LINE
  5
30A
100
AcDbEntity
100
AcDbLine
  8
color#4595e3fd
 62
256
370
-1
  6
BYLAYER
 10
5.9239047524962718
 20
1.3511494936381387
 30
0.0
 11
5.9269205558918481
 21
1.3683528456338965
 31
0.0
  0
LINE
  5
30B
100
AcDbEntity
100
AcDbLine
  8
color#4595e3fd
 62
256
370
-1
  6
BYLAYER
 10
5.9269205558918481
 20
1.3683528456338965
 30
0.0
 11
5.9278160533065645
 21
1.3857914296260541
 31
0.0
  0
LINE
  5
30C
100
AcDbEntity
100
AcDbLine
  8
color#4595e3fd
 62
256
370
-1
  6
BYLAYER
 10
5.9278160533065645
 20
1.3857914296260541
 30
0.0
 11
5.9264475072676737
 21
1.4033207792103231
 31
0.0
  0
LINE
  5
30D
100
AcDbEntity
100
AcDbLine
  8
color#4595e3fd
 62
256
370
-1
  6
BYLAYER
 10
5.9264475072676737
 20
1.4033207792103231
 30
0.0
 11
5.9226711803024292
 21
1.4207964279824143
 31
0.0
  0
LINE
  5
30E
100
AcDbEntity
100
AcDbLine
  8
color#4595e3fd
 62
256
370
-1
  6
BYLAYER
 10
5.9226711803024292
 20
1.4207964279824143
 30
0.0
 11
5.9163433349380847
 21
1.4380739095380406
 31
0.0
  0
LINE
  5
30F
100
AcDbEntity
100
AcDbLine
  8
color#4595e3fd
 62
256
370
-1
  6
BYLAYER
 10
5.9163433349380847
 20
1.4380739095380406
 30
0.0
 11
5.9073202337018929
 21
1.4550087574729136
 31
0.0
  0
LINE
  5
310
100
AcDbEntity
100
AcDbLine
  8
color#4595e3fd
 62
256
370
-1
  6
BYLAYER
 10
5.9073202337018929
 20
1.4550087574729136
 30
0.0
 11
5.8954581391211081
 21
1.4714565053827446
 31
0.0
  0
LINE
  5
311
100
AcDbEntity
100
AcDbLine
  8
color#4595e3fd
 62
256
370
-1
  6
BYLAYER
 10
5.8954581391211081
 20
1.4714565053827446
 30
0.0
 11
5.8806133137229839
 21
1.4872726868632458
 31
0.0
  0
LINE
  5
312
100
AcDbEntity
100
AcDbLine
  8
color#4595e3fd
 62
256
370
-1
  6
BYLAYER
 10
5.8806133137229839
 20
1.4872726868632458
 30
0.0
 11
5.8626420200347722
 21
1.5023128355101296
 31
0.0
  0
ENDSEC
  0
SECTION
  2
OBJECTS
  0
DICTIONARY
  5
C
100
AcDbDictionary
280
0
281
1
  3
ACAD_GROUP
350
D
  3
ACAD_LAYOUT
350
1A
  3
ACAD_MLINESTYLE
350
17
  3
ACAD_PLOTSETTINGS
350
19
  3
ACAD_PLOTSTYLENAME
350
E
  3
AcDbVariableDictionary
350
313
  0
DICTIONARY
  5
D
100
AcDbDictionary
280
0
281
1
  0
ACDBDICTIONARYWDFLT
  5
E
100
AcDbDictionary
281
1
  3
Normal
350
F
100
AcDbDictionaryWithDefault
340
F
  0
ACDBPLACEHOLDER
  5
F
  0
DICTIONARY
  5
17
100
AcDbDictionary
280
0
281
1
  3
Standard
350
18
  0
MLINESTYLE
  5
18
100
AcDbMlineStyle
  2
STANDARD
 70
0
  3

 62
256
 51
90.0
 52
90.0
 71
2
 49
0.5
 62
256
  6
BYLAYER
 49
-0.5
 62
256
  6
BYLAYER
  0
DICTIONARY
  5
19
100
AcDbDictionary
280
0
281
1
  0
DICTIONARY
  5
1A
100
AcDbDictionary
281
1
  3
Layout1
350
1E
  3
Layout2
350
26
  3
Model
350
22
  0
LAYOUT
  5
1E
100
AcDbPlotSettings
  1

  2
C:\Program Files\AutoCAD 2002\plotters\DWF ePlot (optimized for plotting).pc3
  4

  6

 40
0.0
 41
0.0
 42
0.0
 43
0.0
 44
0.0
 45
0.0
 46
0.0
 47
0.0
 48
0.0
 49
0.0
140
0.0
141
0.0
142
1.0
143
1.0
 70
688
 72
0
 73
0
 74
5
  7

 75
16
147
1.0
148
0.0
149
0.0
100
AcDbLayout
  1
Layout1
 70
1
 71
1
 10
0.0
 20
0.0
 11
420.0
 21
297.0
 12
0.0
 22
0.0
 32
0.0
 14
100000000000000000000.0
 24
100000000000000000000.0
 34
100000000000000000000.0
 15
-100000000000000000000.0
 25
-100000000000000000000.0
 35
-100000000000000000000.0
146
0.0
 13
0.0
 23
0.0
 33
0.0
 16
1.0
 26
0.0
 36
0.0
 17
0.0
 27
1.0
 37
0.0
 76
0
330
1B
  0
LAYOUT
  5
22
100
AcDbPlotSettings
  1

  2
C:\Program Files\AutoCAD 2002\plotters\DWF ePlot (optimized for plotting).pc3
  4

  6

 40
0.0
 41
0.0
 42
0.0
 43
0.0
 44
0.0
 45
0.0
 46
0.0
 47
0.0
 48
0.0
 49
0.0
140
0.0
141
0.0
142
1.0
143
1.0
 70
1712
 72
0
 73
0
 74
0
  7

 75
0
147
1.0
148
0.0
149
0.0
100
AcDbLayout
  1
Model
 70
1
 71
0
 10
0.0
 20
0.0
 11
12.0
 21
9.0
 12
0.0
 22
0.0
 32
0.0
 14
0.0
 24
0.0
 34
0.0
 15
0.0
 25
0.0
 35
0.0
146
0.0
 13
0.0
 23
0.0
 33
0.0
 16
1.0
 26
0.0
 36
0.0
 17
0.0
 27
1.0
 37
0.0
 76
0
330
1F
  0
LAYOUT
  5
26
100
AcDbPlotSettings
  1

  2
C:\Program Files\AutoCAD 2002\plotters\DWF ePlot (optimized for plotting).pc3
  4

  6

 40
0.0
 41
0.0
 42
0.0
 43
0.0
 44
0.0
 45
0.0
 46
0.0
 47
0.0
 48
0.0
 49
0.0
140
0.0
141
0.0
142
1.0
143
1.0
 70
688
 72
0
 73
0
 74
5
  7

 75
16
147
1.0
148
0.0
149
0.0
100
AcDbLayout
  1
Layout2
 70
1
 71
2
 10
0.0
 20
0.0
 11
12.0
 21
9.0
 12
0.0
 22
0.0
 32
0.0
 14
0.0
 24
0.0
 34
0.0
 15
0.0
 25
0.0
 35
0.0
146
0.0
 13
0.0
 23
0.0
 33
0.0
 16
1.0
 26
0.0
 36
0.0
 17
0.0
 27
1.0
 37
0.0
 76
0
330
23
  0
DICTIONARY
  5
313
100
AcDbDictionary
281
1
  3
DIMASSOC
350
315
  3
HIDETEXT
350
314
  0
DICTIONARYVAR
  5
314
100
DictionaryVariables
280
0
  1
2
  0
DICTIONARYVAR
  5
315
100
DictionaryVariables
280
0
  1
1
  0
ENDSEC
  0
EOF
